G04 #@! TF.GenerationSoftware,KiCad,Pcbnew,(5.1.5)-3*
G04 #@! TF.CreationDate,2020-06-08T13:02:41+01:00*
G04 #@! TF.ProjectId,25v PSU,32357620-5053-4552-9e6b-696361645f70,rev?*
G04 #@! TF.SameCoordinates,Original*
G04 #@! TF.FileFunction,Soldermask,Bot*
G04 #@! TF.FilePolarity,Negative*
%FSLAX46Y46*%
G04 Gerber Fmt 4.6, Leading zero omitted, Abs format (unit mm)*
G04 Created by KiCad (PCBNEW (5.1.5)-3) date 2020-06-08 13:02:41*
%MOMM*%
%LPD*%
G04 APERTURE LIST*
%ADD10C,0.100000*%
G04 APERTURE END LIST*
D10*
G36*
X107126366Y-140915695D02*
G01*
X107283460Y-140963349D01*
X107428231Y-141040731D01*
X107555128Y-141144872D01*
X107659269Y-141271769D01*
X107736651Y-141416540D01*
X107784305Y-141573634D01*
X107801000Y-141743140D01*
X107801000Y-143656860D01*
X107784305Y-143826366D01*
X107736651Y-143983460D01*
X107659269Y-144128231D01*
X107555128Y-144255128D01*
X107428231Y-144359269D01*
X107283460Y-144436651D01*
X107126366Y-144484305D01*
X106956860Y-144501000D01*
X105043140Y-144501000D01*
X104873634Y-144484305D01*
X104716540Y-144436651D01*
X104571769Y-144359269D01*
X104444872Y-144255128D01*
X104340731Y-144128231D01*
X104263349Y-143983460D01*
X104215695Y-143826366D01*
X104199000Y-143656860D01*
X104199000Y-141743140D01*
X104215695Y-141573634D01*
X104263349Y-141416540D01*
X104340731Y-141271769D01*
X104444872Y-141144872D01*
X104571769Y-141040731D01*
X104716540Y-140963349D01*
X104873634Y-140915695D01*
X105043140Y-140899000D01*
X106956860Y-140899000D01*
X107126366Y-140915695D01*
G37*
G36*
X133113512Y-140643927D02*
G01*
X133262812Y-140673624D01*
X133426784Y-140741544D01*
X133574354Y-140840147D01*
X133699853Y-140965646D01*
X133798456Y-141113216D01*
X133866376Y-141277188D01*
X133901000Y-141451259D01*
X133901000Y-141628741D01*
X133866376Y-141802812D01*
X133798456Y-141966784D01*
X133699853Y-142114354D01*
X133574354Y-142239853D01*
X133426784Y-142338456D01*
X133262812Y-142406376D01*
X133113512Y-142436073D01*
X133088742Y-142441000D01*
X132911258Y-142441000D01*
X132886488Y-142436073D01*
X132737188Y-142406376D01*
X132573216Y-142338456D01*
X132425646Y-142239853D01*
X132300147Y-142114354D01*
X132201544Y-141966784D01*
X132133624Y-141802812D01*
X132099000Y-141628741D01*
X132099000Y-141451259D01*
X132133624Y-141277188D01*
X132201544Y-141113216D01*
X132300147Y-140965646D01*
X132425646Y-140840147D01*
X132573216Y-140741544D01*
X132737188Y-140673624D01*
X132886488Y-140643927D01*
X132911258Y-140639000D01*
X133088742Y-140639000D01*
X133113512Y-140643927D01*
G37*
G36*
X128033512Y-140643927D02*
G01*
X128182812Y-140673624D01*
X128346784Y-140741544D01*
X128494354Y-140840147D01*
X128619853Y-140965646D01*
X128718456Y-141113216D01*
X128786376Y-141277188D01*
X128821000Y-141451259D01*
X128821000Y-141628741D01*
X128786376Y-141802812D01*
X128718456Y-141966784D01*
X128619853Y-142114354D01*
X128494354Y-142239853D01*
X128346784Y-142338456D01*
X128182812Y-142406376D01*
X128033512Y-142436073D01*
X128008742Y-142441000D01*
X127831258Y-142441000D01*
X127806488Y-142436073D01*
X127657188Y-142406376D01*
X127493216Y-142338456D01*
X127345646Y-142239853D01*
X127220147Y-142114354D01*
X127121544Y-141966784D01*
X127053624Y-141802812D01*
X127019000Y-141628741D01*
X127019000Y-141451259D01*
X127053624Y-141277188D01*
X127121544Y-141113216D01*
X127220147Y-140965646D01*
X127345646Y-140840147D01*
X127493216Y-140741544D01*
X127657188Y-140673624D01*
X127806488Y-140643927D01*
X127831258Y-140639000D01*
X128008742Y-140639000D01*
X128033512Y-140643927D01*
G37*
G36*
X130573512Y-140643927D02*
G01*
X130722812Y-140673624D01*
X130886784Y-140741544D01*
X131034354Y-140840147D01*
X131159853Y-140965646D01*
X131258456Y-141113216D01*
X131326376Y-141277188D01*
X131361000Y-141451259D01*
X131361000Y-141628741D01*
X131326376Y-141802812D01*
X131258456Y-141966784D01*
X131159853Y-142114354D01*
X131034354Y-142239853D01*
X130886784Y-142338456D01*
X130722812Y-142406376D01*
X130573512Y-142436073D01*
X130548742Y-142441000D01*
X130371258Y-142441000D01*
X130346488Y-142436073D01*
X130197188Y-142406376D01*
X130033216Y-142338456D01*
X129885646Y-142239853D01*
X129760147Y-142114354D01*
X129661544Y-141966784D01*
X129593624Y-141802812D01*
X129559000Y-141628741D01*
X129559000Y-141451259D01*
X129593624Y-141277188D01*
X129661544Y-141113216D01*
X129760147Y-140965646D01*
X129885646Y-140840147D01*
X130033216Y-140741544D01*
X130197188Y-140673624D01*
X130346488Y-140643927D01*
X130371258Y-140639000D01*
X130548742Y-140639000D01*
X130573512Y-140643927D01*
G37*
G36*
X140901000Y-141901000D02*
G01*
X139099000Y-141901000D01*
X139099000Y-140099000D01*
X140901000Y-140099000D01*
X140901000Y-141901000D01*
G37*
G36*
X133901000Y-139901000D02*
G01*
X132099000Y-139901000D01*
X132099000Y-138099000D01*
X133901000Y-138099000D01*
X133901000Y-139901000D01*
G37*
G36*
X128033512Y-138103927D02*
G01*
X128182812Y-138133624D01*
X128346784Y-138201544D01*
X128494354Y-138300147D01*
X128619853Y-138425646D01*
X128718456Y-138573216D01*
X128786376Y-138737188D01*
X128821000Y-138911259D01*
X128821000Y-139088741D01*
X128786376Y-139262812D01*
X128718456Y-139426784D01*
X128619853Y-139574354D01*
X128494354Y-139699853D01*
X128346784Y-139798456D01*
X128182812Y-139866376D01*
X128033512Y-139896073D01*
X128008742Y-139901000D01*
X127831258Y-139901000D01*
X127806488Y-139896073D01*
X127657188Y-139866376D01*
X127493216Y-139798456D01*
X127345646Y-139699853D01*
X127220147Y-139574354D01*
X127121544Y-139426784D01*
X127053624Y-139262812D01*
X127019000Y-139088741D01*
X127019000Y-138911259D01*
X127053624Y-138737188D01*
X127121544Y-138573216D01*
X127220147Y-138425646D01*
X127345646Y-138300147D01*
X127493216Y-138201544D01*
X127657188Y-138133624D01*
X127806488Y-138103927D01*
X127831258Y-138099000D01*
X128008742Y-138099000D01*
X128033512Y-138103927D01*
G37*
G36*
X130573512Y-138103927D02*
G01*
X130722812Y-138133624D01*
X130886784Y-138201544D01*
X131034354Y-138300147D01*
X131159853Y-138425646D01*
X131258456Y-138573216D01*
X131326376Y-138737188D01*
X131361000Y-138911259D01*
X131361000Y-139088741D01*
X131326376Y-139262812D01*
X131258456Y-139426784D01*
X131159853Y-139574354D01*
X131034354Y-139699853D01*
X130886784Y-139798456D01*
X130722812Y-139866376D01*
X130573512Y-139896073D01*
X130548742Y-139901000D01*
X130371258Y-139901000D01*
X130346488Y-139896073D01*
X130197188Y-139866376D01*
X130033216Y-139798456D01*
X129885646Y-139699853D01*
X129760147Y-139574354D01*
X129661544Y-139426784D01*
X129593624Y-139262812D01*
X129559000Y-139088741D01*
X129559000Y-138911259D01*
X129593624Y-138737188D01*
X129661544Y-138573216D01*
X129760147Y-138425646D01*
X129885646Y-138300147D01*
X130033216Y-138201544D01*
X130197188Y-138133624D01*
X130346488Y-138103927D01*
X130371258Y-138099000D01*
X130548742Y-138099000D01*
X130573512Y-138103927D01*
G37*
G36*
X103976979Y-136213293D02*
G01*
X104110625Y-136253834D01*
X104233784Y-136319664D01*
X104341740Y-136408260D01*
X104430336Y-136516216D01*
X104496166Y-136639375D01*
X104536707Y-136773021D01*
X104551000Y-136918140D01*
X104551000Y-139081860D01*
X104536707Y-139226979D01*
X104496166Y-139360625D01*
X104430336Y-139483784D01*
X104341740Y-139591740D01*
X104233784Y-139680336D01*
X104110625Y-139746166D01*
X103976979Y-139786707D01*
X103831860Y-139801000D01*
X102168140Y-139801000D01*
X102023021Y-139786707D01*
X101889375Y-139746166D01*
X101766216Y-139680336D01*
X101658260Y-139591740D01*
X101569664Y-139483784D01*
X101503834Y-139360625D01*
X101463293Y-139226979D01*
X101449000Y-139081860D01*
X101449000Y-136918140D01*
X101463293Y-136773021D01*
X101503834Y-136639375D01*
X101569664Y-136516216D01*
X101658260Y-136408260D01*
X101766216Y-136319664D01*
X101889375Y-136253834D01*
X102023021Y-136213293D01*
X102168140Y-136199000D01*
X103831860Y-136199000D01*
X103976979Y-136213293D01*
G37*
G36*
X110801000Y-139801000D02*
G01*
X107199000Y-139801000D01*
X107199000Y-136199000D01*
X110801000Y-136199000D01*
X110801000Y-139801000D01*
G37*
G36*
X140113512Y-137563927D02*
G01*
X140262812Y-137593624D01*
X140426784Y-137661544D01*
X140574354Y-137760147D01*
X140699853Y-137885646D01*
X140798456Y-138033216D01*
X140866376Y-138197188D01*
X140901000Y-138371259D01*
X140901000Y-138548741D01*
X140866376Y-138722812D01*
X140798456Y-138886784D01*
X140699853Y-139034354D01*
X140574354Y-139159853D01*
X140426784Y-139258456D01*
X140262812Y-139326376D01*
X140113512Y-139356073D01*
X140088742Y-139361000D01*
X139911258Y-139361000D01*
X139886488Y-139356073D01*
X139737188Y-139326376D01*
X139573216Y-139258456D01*
X139425646Y-139159853D01*
X139300147Y-139034354D01*
X139201544Y-138886784D01*
X139133624Y-138722812D01*
X139099000Y-138548741D01*
X139099000Y-138371259D01*
X139133624Y-138197188D01*
X139201544Y-138033216D01*
X139300147Y-137885646D01*
X139425646Y-137760147D01*
X139573216Y-137661544D01*
X139737188Y-137593624D01*
X139886488Y-137563927D01*
X139911258Y-137559000D01*
X140088742Y-137559000D01*
X140113512Y-137563927D01*
G37*
G36*
X177201000Y-139051000D02*
G01*
X174599000Y-139051000D01*
X174599000Y-135949000D01*
X177201000Y-135949000D01*
X177201000Y-139051000D01*
G37*
G36*
X188401000Y-139051000D02*
G01*
X185799000Y-139051000D01*
X185799000Y-135949000D01*
X188401000Y-135949000D01*
X188401000Y-139051000D01*
G37*
G36*
X148201000Y-138051000D02*
G01*
X145599000Y-138051000D01*
X145599000Y-134949000D01*
X148201000Y-134949000D01*
X148201000Y-138051000D01*
G37*
G36*
X159401000Y-138051000D02*
G01*
X156799000Y-138051000D01*
X156799000Y-134949000D01*
X159401000Y-134949000D01*
X159401000Y-138051000D01*
G37*
G36*
X140113512Y-135023927D02*
G01*
X140262812Y-135053624D01*
X140426784Y-135121544D01*
X140574354Y-135220147D01*
X140699853Y-135345646D01*
X140798456Y-135493216D01*
X140866376Y-135657188D01*
X140901000Y-135831259D01*
X140901000Y-136008741D01*
X140866376Y-136182812D01*
X140798456Y-136346784D01*
X140699853Y-136494354D01*
X140574354Y-136619853D01*
X140426784Y-136718456D01*
X140262812Y-136786376D01*
X140113512Y-136816073D01*
X140088742Y-136821000D01*
X139911258Y-136821000D01*
X139886488Y-136816073D01*
X139737188Y-136786376D01*
X139573216Y-136718456D01*
X139425646Y-136619853D01*
X139300147Y-136494354D01*
X139201544Y-136346784D01*
X139133624Y-136182812D01*
X139099000Y-136008741D01*
X139099000Y-135831259D01*
X139133624Y-135657188D01*
X139201544Y-135493216D01*
X139300147Y-135345646D01*
X139425646Y-135220147D01*
X139573216Y-135121544D01*
X139737188Y-135053624D01*
X139886488Y-135023927D01*
X139911258Y-135019000D01*
X140088742Y-135019000D01*
X140113512Y-135023927D01*
G37*
G36*
X140113512Y-132483927D02*
G01*
X140262812Y-132513624D01*
X140426784Y-132581544D01*
X140574354Y-132680147D01*
X140699853Y-132805646D01*
X140798456Y-132953216D01*
X140866376Y-133117188D01*
X140901000Y-133291259D01*
X140901000Y-133468741D01*
X140866376Y-133642812D01*
X140798456Y-133806784D01*
X140699853Y-133954354D01*
X140574354Y-134079853D01*
X140426784Y-134178456D01*
X140262812Y-134246376D01*
X140113512Y-134276073D01*
X140088742Y-134281000D01*
X139911258Y-134281000D01*
X139886488Y-134276073D01*
X139737188Y-134246376D01*
X139573216Y-134178456D01*
X139425646Y-134079853D01*
X139300147Y-133954354D01*
X139201544Y-133806784D01*
X139133624Y-133642812D01*
X139099000Y-133468741D01*
X139099000Y-133291259D01*
X139133624Y-133117188D01*
X139201544Y-132953216D01*
X139300147Y-132805646D01*
X139425646Y-132680147D01*
X139573216Y-132581544D01*
X139737188Y-132513624D01*
X139886488Y-132483927D01*
X139911258Y-132479000D01*
X140088742Y-132479000D01*
X140113512Y-132483927D01*
G37*
G36*
X140113512Y-129943927D02*
G01*
X140262812Y-129973624D01*
X140426784Y-130041544D01*
X140574354Y-130140147D01*
X140699853Y-130265646D01*
X140798456Y-130413216D01*
X140866376Y-130577188D01*
X140901000Y-130751259D01*
X140901000Y-130928741D01*
X140866376Y-131102812D01*
X140798456Y-131266784D01*
X140699853Y-131414354D01*
X140574354Y-131539853D01*
X140426784Y-131638456D01*
X140262812Y-131706376D01*
X140113512Y-131736073D01*
X140088742Y-131741000D01*
X139911258Y-131741000D01*
X139886488Y-131736073D01*
X139737188Y-131706376D01*
X139573216Y-131638456D01*
X139425646Y-131539853D01*
X139300147Y-131414354D01*
X139201544Y-131266784D01*
X139133624Y-131102812D01*
X139099000Y-130928741D01*
X139099000Y-130751259D01*
X139133624Y-130577188D01*
X139201544Y-130413216D01*
X139300147Y-130265646D01*
X139425646Y-130140147D01*
X139573216Y-130041544D01*
X139737188Y-129973624D01*
X139886488Y-129943927D01*
X139911258Y-129939000D01*
X140088742Y-129939000D01*
X140113512Y-129943927D01*
G37*
G36*
X185051000Y-131051000D02*
G01*
X182949000Y-131051000D01*
X182949000Y-128949000D01*
X185051000Y-128949000D01*
X185051000Y-131051000D01*
G37*
G36*
X179306564Y-128989389D02*
G01*
X179497833Y-129068615D01*
X179497835Y-129068616D01*
X179669973Y-129183635D01*
X179816365Y-129330027D01*
X179928491Y-129497835D01*
X179931385Y-129502167D01*
X180010611Y-129693436D01*
X180051000Y-129896484D01*
X180051000Y-130103516D01*
X180010611Y-130306564D01*
X179931385Y-130497833D01*
X179931384Y-130497835D01*
X179816365Y-130669973D01*
X179669973Y-130816365D01*
X179497835Y-130931384D01*
X179497834Y-130931385D01*
X179497833Y-130931385D01*
X179306564Y-131010611D01*
X179103516Y-131051000D01*
X178896484Y-131051000D01*
X178693436Y-131010611D01*
X178502167Y-130931385D01*
X178502166Y-130931385D01*
X178502165Y-130931384D01*
X178330027Y-130816365D01*
X178183635Y-130669973D01*
X178068616Y-130497835D01*
X178068615Y-130497833D01*
X177989389Y-130306564D01*
X177949000Y-130103516D01*
X177949000Y-129896484D01*
X177989389Y-129693436D01*
X178068615Y-129502167D01*
X178071510Y-129497835D01*
X178183635Y-129330027D01*
X178330027Y-129183635D01*
X178502165Y-129068616D01*
X178502167Y-129068615D01*
X178693436Y-128989389D01*
X178896484Y-128949000D01*
X179103516Y-128949000D01*
X179306564Y-128989389D01*
G37*
G36*
X181806564Y-128989389D02*
G01*
X181997833Y-129068615D01*
X181997835Y-129068616D01*
X182169973Y-129183635D01*
X182316365Y-129330027D01*
X182428491Y-129497835D01*
X182431385Y-129502167D01*
X182510611Y-129693436D01*
X182551000Y-129896484D01*
X182551000Y-130103516D01*
X182510611Y-130306564D01*
X182431385Y-130497833D01*
X182431384Y-130497835D01*
X182316365Y-130669973D01*
X182169973Y-130816365D01*
X181997835Y-130931384D01*
X181997834Y-130931385D01*
X181997833Y-130931385D01*
X181806564Y-131010611D01*
X181603516Y-131051000D01*
X181396484Y-131051000D01*
X181193436Y-131010611D01*
X181002167Y-130931385D01*
X181002166Y-130931385D01*
X181002165Y-130931384D01*
X180830027Y-130816365D01*
X180683635Y-130669973D01*
X180568616Y-130497835D01*
X180568615Y-130497833D01*
X180489389Y-130306564D01*
X180449000Y-130103516D01*
X180449000Y-129896484D01*
X180489389Y-129693436D01*
X180568615Y-129502167D01*
X180571510Y-129497835D01*
X180683635Y-129330027D01*
X180830027Y-129183635D01*
X181002165Y-129068616D01*
X181002167Y-129068615D01*
X181193436Y-128989389D01*
X181396484Y-128949000D01*
X181603516Y-128949000D01*
X181806564Y-128989389D01*
G37*
G36*
X156051000Y-130051000D02*
G01*
X153949000Y-130051000D01*
X153949000Y-127949000D01*
X156051000Y-127949000D01*
X156051000Y-130051000D01*
G37*
G36*
X152806564Y-127989389D02*
G01*
X152997833Y-128068615D01*
X152997835Y-128068616D01*
X153169973Y-128183635D01*
X153316365Y-128330027D01*
X153431385Y-128502167D01*
X153510611Y-128693436D01*
X153551000Y-128896484D01*
X153551000Y-129103516D01*
X153510611Y-129306564D01*
X153500892Y-129330027D01*
X153431384Y-129497835D01*
X153316365Y-129669973D01*
X153169973Y-129816365D01*
X152997835Y-129931384D01*
X152997834Y-129931385D01*
X152997833Y-129931385D01*
X152806564Y-130010611D01*
X152603516Y-130051000D01*
X152396484Y-130051000D01*
X152193436Y-130010611D01*
X152002167Y-129931385D01*
X152002166Y-129931385D01*
X152002165Y-129931384D01*
X151830027Y-129816365D01*
X151683635Y-129669973D01*
X151568616Y-129497835D01*
X151499108Y-129330027D01*
X151489389Y-129306564D01*
X151449000Y-129103516D01*
X151449000Y-128896484D01*
X151489389Y-128693436D01*
X151568615Y-128502167D01*
X151683635Y-128330027D01*
X151830027Y-128183635D01*
X152002165Y-128068616D01*
X152002167Y-128068615D01*
X152193436Y-127989389D01*
X152396484Y-127949000D01*
X152603516Y-127949000D01*
X152806564Y-127989389D01*
G37*
G36*
X150306564Y-127989389D02*
G01*
X150497833Y-128068615D01*
X150497835Y-128068616D01*
X150669973Y-128183635D01*
X150816365Y-128330027D01*
X150931385Y-128502167D01*
X151010611Y-128693436D01*
X151051000Y-128896484D01*
X151051000Y-129103516D01*
X151010611Y-129306564D01*
X151000892Y-129330027D01*
X150931384Y-129497835D01*
X150816365Y-129669973D01*
X150669973Y-129816365D01*
X150497835Y-129931384D01*
X150497834Y-129931385D01*
X150497833Y-129931385D01*
X150306564Y-130010611D01*
X150103516Y-130051000D01*
X149896484Y-130051000D01*
X149693436Y-130010611D01*
X149502167Y-129931385D01*
X149502166Y-129931385D01*
X149502165Y-129931384D01*
X149330027Y-129816365D01*
X149183635Y-129669973D01*
X149068616Y-129497835D01*
X148999108Y-129330027D01*
X148989389Y-129306564D01*
X148949000Y-129103516D01*
X148949000Y-128896484D01*
X148989389Y-128693436D01*
X149068615Y-128502167D01*
X149183635Y-128330027D01*
X149330027Y-128183635D01*
X149502165Y-128068616D01*
X149502167Y-128068615D01*
X149693436Y-127989389D01*
X149896484Y-127949000D01*
X150103516Y-127949000D01*
X150306564Y-127989389D01*
G37*
G36*
X140113512Y-127403927D02*
G01*
X140262812Y-127433624D01*
X140426784Y-127501544D01*
X140574354Y-127600147D01*
X140699853Y-127725646D01*
X140798456Y-127873216D01*
X140866376Y-128037188D01*
X140901000Y-128211259D01*
X140901000Y-128388741D01*
X140866376Y-128562812D01*
X140798456Y-128726784D01*
X140699853Y-128874354D01*
X140574354Y-128999853D01*
X140426784Y-129098456D01*
X140262812Y-129166376D01*
X140113512Y-129196073D01*
X140088742Y-129201000D01*
X139911258Y-129201000D01*
X139886488Y-129196073D01*
X139737188Y-129166376D01*
X139573216Y-129098456D01*
X139425646Y-128999853D01*
X139300147Y-128874354D01*
X139201544Y-128726784D01*
X139133624Y-128562812D01*
X139099000Y-128388741D01*
X139099000Y-128211259D01*
X139133624Y-128037188D01*
X139201544Y-127873216D01*
X139300147Y-127725646D01*
X139425646Y-127600147D01*
X139573216Y-127501544D01*
X139737188Y-127433624D01*
X139886488Y-127403927D01*
X139911258Y-127399000D01*
X140088742Y-127399000D01*
X140113512Y-127403927D01*
G37*
G36*
X99257714Y-125404382D02*
G01*
X99385322Y-125429765D01*
X99526148Y-125488097D01*
X99625727Y-125529344D01*
X99625728Y-125529345D01*
X99842089Y-125673912D01*
X100026088Y-125857911D01*
X100122685Y-126002479D01*
X100170656Y-126074273D01*
X100211903Y-126173852D01*
X100270235Y-126314678D01*
X100321000Y-126569893D01*
X100321000Y-126830107D01*
X100270235Y-127085322D01*
X100244292Y-127147953D01*
X100170656Y-127325727D01*
X100170655Y-127325728D01*
X100026088Y-127542089D01*
X99842089Y-127726088D01*
X99697521Y-127822685D01*
X99625727Y-127870656D01*
X99526148Y-127911903D01*
X99385322Y-127970235D01*
X99257714Y-127995618D01*
X99130109Y-128021000D01*
X98869891Y-128021000D01*
X98742286Y-127995618D01*
X98614678Y-127970235D01*
X98473852Y-127911903D01*
X98374273Y-127870656D01*
X98302479Y-127822685D01*
X98157911Y-127726088D01*
X97973912Y-127542089D01*
X97829345Y-127325728D01*
X97829344Y-127325727D01*
X97755708Y-127147953D01*
X97729765Y-127085322D01*
X97679000Y-126830107D01*
X97679000Y-126569893D01*
X97729765Y-126314678D01*
X97788097Y-126173852D01*
X97829344Y-126074273D01*
X97877315Y-126002479D01*
X97973912Y-125857911D01*
X98157911Y-125673912D01*
X98374272Y-125529345D01*
X98374273Y-125529344D01*
X98473852Y-125488097D01*
X98614678Y-125429765D01*
X98742286Y-125404382D01*
X98869891Y-125379000D01*
X99130109Y-125379000D01*
X99257714Y-125404382D01*
G37*
G36*
X118101000Y-128021000D02*
G01*
X115459000Y-128021000D01*
X115459000Y-125379000D01*
X118101000Y-125379000D01*
X118101000Y-128021000D01*
G37*
G36*
X110127547Y-112973791D02*
G01*
X111523580Y-113552047D01*
X111940480Y-113830611D01*
X112779978Y-114391545D01*
X113848455Y-115460022D01*
X114409389Y-116299520D01*
X114687953Y-116716420D01*
X115266209Y-118112453D01*
X115561000Y-119594471D01*
X115561000Y-121105529D01*
X115266209Y-122587547D01*
X114687953Y-123983580D01*
X114619267Y-124086376D01*
X113848455Y-125239978D01*
X112779978Y-126308455D01*
X111999270Y-126830107D01*
X111523580Y-127147953D01*
X110127547Y-127726209D01*
X108645529Y-128021000D01*
X107134471Y-128021000D01*
X105652453Y-127726209D01*
X104256420Y-127147953D01*
X103780730Y-126830107D01*
X103000022Y-126308455D01*
X101931545Y-125239978D01*
X101160733Y-124086376D01*
X101092047Y-123983580D01*
X100513791Y-122587547D01*
X100219000Y-121105529D01*
X100219000Y-119594471D01*
X100513791Y-118112453D01*
X101092047Y-116716420D01*
X101370611Y-116299520D01*
X101931545Y-115460022D01*
X103000022Y-114391545D01*
X103839520Y-113830611D01*
X104256420Y-113552047D01*
X105652453Y-112973791D01*
X107134471Y-112679000D01*
X108645529Y-112679000D01*
X110127547Y-112973791D01*
G37*
G36*
X140113512Y-124863927D02*
G01*
X140262812Y-124893624D01*
X140426784Y-124961544D01*
X140574354Y-125060147D01*
X140699853Y-125185646D01*
X140798456Y-125333216D01*
X140866376Y-125497188D01*
X140901000Y-125671259D01*
X140901000Y-125848741D01*
X140866376Y-126022812D01*
X140798456Y-126186784D01*
X140699853Y-126334354D01*
X140574354Y-126459853D01*
X140426784Y-126558456D01*
X140262812Y-126626376D01*
X140113512Y-126656073D01*
X140088742Y-126661000D01*
X139911258Y-126661000D01*
X139886488Y-126656073D01*
X139737188Y-126626376D01*
X139573216Y-126558456D01*
X139425646Y-126459853D01*
X139300147Y-126334354D01*
X139201544Y-126186784D01*
X139133624Y-126022812D01*
X139099000Y-125848741D01*
X139099000Y-125671259D01*
X139133624Y-125497188D01*
X139201544Y-125333216D01*
X139300147Y-125185646D01*
X139425646Y-125060147D01*
X139573216Y-124961544D01*
X139737188Y-124893624D01*
X139886488Y-124863927D01*
X139911258Y-124859000D01*
X140088742Y-124859000D01*
X140113512Y-124863927D01*
G37*
G36*
X140113512Y-122323927D02*
G01*
X140262812Y-122353624D01*
X140426784Y-122421544D01*
X140574354Y-122520147D01*
X140699853Y-122645646D01*
X140798456Y-122793216D01*
X140866376Y-122957188D01*
X140901000Y-123131259D01*
X140901000Y-123308741D01*
X140866376Y-123482812D01*
X140798456Y-123646784D01*
X140699853Y-123794354D01*
X140574354Y-123919853D01*
X140426784Y-124018456D01*
X140262812Y-124086376D01*
X140113512Y-124116073D01*
X140088742Y-124121000D01*
X139911258Y-124121000D01*
X139886488Y-124116073D01*
X139737188Y-124086376D01*
X139573216Y-124018456D01*
X139425646Y-123919853D01*
X139300147Y-123794354D01*
X139201544Y-123646784D01*
X139133624Y-123482812D01*
X139099000Y-123308741D01*
X139099000Y-123131259D01*
X139133624Y-122957188D01*
X139201544Y-122793216D01*
X139300147Y-122645646D01*
X139425646Y-122520147D01*
X139573216Y-122421544D01*
X139737188Y-122353624D01*
X139886488Y-122323927D01*
X139911258Y-122319000D01*
X140088742Y-122319000D01*
X140113512Y-122323927D01*
G37*
G36*
X140113512Y-119783927D02*
G01*
X140262812Y-119813624D01*
X140426784Y-119881544D01*
X140574354Y-119980147D01*
X140699853Y-120105646D01*
X140798456Y-120253216D01*
X140866376Y-120417188D01*
X140901000Y-120591259D01*
X140901000Y-120768741D01*
X140866376Y-120942812D01*
X140798456Y-121106784D01*
X140699853Y-121254354D01*
X140574354Y-121379853D01*
X140426784Y-121478456D01*
X140262812Y-121546376D01*
X140113512Y-121576073D01*
X140088742Y-121581000D01*
X139911258Y-121581000D01*
X139886488Y-121576073D01*
X139737188Y-121546376D01*
X139573216Y-121478456D01*
X139425646Y-121379853D01*
X139300147Y-121254354D01*
X139201544Y-121106784D01*
X139133624Y-120942812D01*
X139099000Y-120768741D01*
X139099000Y-120591259D01*
X139133624Y-120417188D01*
X139201544Y-120253216D01*
X139300147Y-120105646D01*
X139425646Y-119980147D01*
X139573216Y-119881544D01*
X139737188Y-119813624D01*
X139886488Y-119783927D01*
X139911258Y-119779000D01*
X140088742Y-119779000D01*
X140113512Y-119783927D01*
G37*
G36*
X140113512Y-117243927D02*
G01*
X140262812Y-117273624D01*
X140426784Y-117341544D01*
X140574354Y-117440147D01*
X140699853Y-117565646D01*
X140798456Y-117713216D01*
X140866376Y-117877188D01*
X140901000Y-118051259D01*
X140901000Y-118228741D01*
X140866376Y-118402812D01*
X140798456Y-118566784D01*
X140699853Y-118714354D01*
X140574354Y-118839853D01*
X140426784Y-118938456D01*
X140262812Y-119006376D01*
X140113512Y-119036073D01*
X140088742Y-119041000D01*
X139911258Y-119041000D01*
X139886488Y-119036073D01*
X139737188Y-119006376D01*
X139573216Y-118938456D01*
X139425646Y-118839853D01*
X139300147Y-118714354D01*
X139201544Y-118566784D01*
X139133624Y-118402812D01*
X139099000Y-118228741D01*
X139099000Y-118051259D01*
X139133624Y-117877188D01*
X139201544Y-117713216D01*
X139300147Y-117565646D01*
X139425646Y-117440147D01*
X139573216Y-117341544D01*
X139737188Y-117273624D01*
X139886488Y-117243927D01*
X139911258Y-117239000D01*
X140088742Y-117239000D01*
X140113512Y-117243927D01*
G37*
G36*
X99257715Y-112704383D02*
G01*
X99385322Y-112729765D01*
X99526148Y-112788097D01*
X99625727Y-112829344D01*
X99625728Y-112829345D01*
X99842089Y-112973912D01*
X100026088Y-113157911D01*
X100122685Y-113302479D01*
X100170656Y-113374273D01*
X100211903Y-113473852D01*
X100270235Y-113614678D01*
X100321000Y-113869893D01*
X100321000Y-114130107D01*
X100270235Y-114385322D01*
X100267657Y-114391545D01*
X100170656Y-114625727D01*
X100170655Y-114625728D01*
X100026088Y-114842089D01*
X99842089Y-115026088D01*
X99697521Y-115122685D01*
X99625727Y-115170656D01*
X99526148Y-115211903D01*
X99385322Y-115270235D01*
X99257715Y-115295617D01*
X99130109Y-115321000D01*
X98869891Y-115321000D01*
X98742285Y-115295617D01*
X98614678Y-115270235D01*
X98473852Y-115211903D01*
X98374273Y-115170656D01*
X98302479Y-115122685D01*
X98157911Y-115026088D01*
X97973912Y-114842089D01*
X97829345Y-114625728D01*
X97829344Y-114625727D01*
X97732343Y-114391545D01*
X97729765Y-114385322D01*
X97679000Y-114130107D01*
X97679000Y-113869893D01*
X97729765Y-113614678D01*
X97788097Y-113473852D01*
X97829344Y-113374273D01*
X97877315Y-113302479D01*
X97973912Y-113157911D01*
X98157911Y-112973912D01*
X98374272Y-112829345D01*
X98374273Y-112829344D01*
X98473852Y-112788097D01*
X98614678Y-112729765D01*
X98742285Y-112704383D01*
X98869891Y-112679000D01*
X99130109Y-112679000D01*
X99257715Y-112704383D01*
G37*
G36*
X118101000Y-115321000D02*
G01*
X115459000Y-115321000D01*
X115459000Y-112679000D01*
X118101000Y-112679000D01*
X118101000Y-115321000D01*
G37*
G36*
X182233642Y-110229781D02*
G01*
X182308209Y-110260668D01*
X182379416Y-110290163D01*
X182510608Y-110377822D01*
X182622178Y-110489392D01*
X182709837Y-110620584D01*
X182709838Y-110620586D01*
X182770219Y-110766358D01*
X182801000Y-110921107D01*
X182801000Y-111078893D01*
X182770219Y-111233642D01*
X182709838Y-111379414D01*
X182709837Y-111379416D01*
X182622178Y-111510608D01*
X182510608Y-111622178D01*
X182379416Y-111709837D01*
X182379415Y-111709838D01*
X182379414Y-111709838D01*
X182233642Y-111770219D01*
X182078893Y-111801000D01*
X181921107Y-111801000D01*
X181766358Y-111770219D01*
X181620586Y-111709838D01*
X181620585Y-111709838D01*
X181620584Y-111709837D01*
X181489392Y-111622178D01*
X181377822Y-111510608D01*
X181290163Y-111379416D01*
X181290162Y-111379414D01*
X181229781Y-111233642D01*
X181199000Y-111078893D01*
X181199000Y-110921107D01*
X181229781Y-110766358D01*
X181290162Y-110620586D01*
X181290163Y-110620584D01*
X181377822Y-110489392D01*
X181489392Y-110377822D01*
X181620584Y-110290163D01*
X181691791Y-110260668D01*
X181766358Y-110229781D01*
X181921107Y-110199000D01*
X182078893Y-110199000D01*
X182233642Y-110229781D01*
G37*
G36*
X96744098Y-105547033D02*
G01*
X97208350Y-105739332D01*
X97208352Y-105739333D01*
X97626168Y-106018509D01*
X97981491Y-106373832D01*
X98192342Y-106689393D01*
X98260668Y-106791650D01*
X98452967Y-107255902D01*
X98551000Y-107748747D01*
X98551000Y-108251253D01*
X98452967Y-108744098D01*
X98260668Y-109208350D01*
X98260667Y-109208352D01*
X97981491Y-109626168D01*
X97626168Y-109981491D01*
X97208352Y-110260667D01*
X97208351Y-110260668D01*
X97208350Y-110260668D01*
X96744098Y-110452967D01*
X96251253Y-110551000D01*
X95748747Y-110551000D01*
X95255902Y-110452967D01*
X94791650Y-110260668D01*
X94791649Y-110260668D01*
X94791648Y-110260667D01*
X94373832Y-109981491D01*
X94018509Y-109626168D01*
X93739333Y-109208352D01*
X93739332Y-109208350D01*
X93547033Y-108744098D01*
X93449000Y-108251253D01*
X93449000Y-107748747D01*
X93547033Y-107255902D01*
X93739332Y-106791650D01*
X93807658Y-106689393D01*
X94018509Y-106373832D01*
X94373832Y-106018509D01*
X94791648Y-105739333D01*
X94791650Y-105739332D01*
X95255902Y-105547033D01*
X95748747Y-105449000D01*
X96251253Y-105449000D01*
X96744098Y-105547033D01*
G37*
G36*
X182233642Y-106429781D02*
G01*
X182379414Y-106490162D01*
X182379416Y-106490163D01*
X182510608Y-106577822D01*
X182622178Y-106689392D01*
X182690504Y-106791650D01*
X182709838Y-106820586D01*
X182770219Y-106966358D01*
X182801000Y-107121107D01*
X182801000Y-107278893D01*
X182770219Y-107433642D01*
X182709838Y-107579414D01*
X182709837Y-107579416D01*
X182622178Y-107710608D01*
X182510608Y-107822178D01*
X182379416Y-107909837D01*
X182379415Y-107909838D01*
X182379414Y-107909838D01*
X182233642Y-107970219D01*
X182078893Y-108001000D01*
X181921107Y-108001000D01*
X181766358Y-107970219D01*
X181620586Y-107909838D01*
X181620585Y-107909838D01*
X181620584Y-107909837D01*
X181489392Y-107822178D01*
X181377822Y-107710608D01*
X181290163Y-107579416D01*
X181290162Y-107579414D01*
X181229781Y-107433642D01*
X181199000Y-107278893D01*
X181199000Y-107121107D01*
X181229781Y-106966358D01*
X181290162Y-106820586D01*
X181309496Y-106791650D01*
X181377822Y-106689392D01*
X181489392Y-106577822D01*
X181620584Y-106490163D01*
X181620586Y-106490162D01*
X181766358Y-106429781D01*
X181921107Y-106399000D01*
X182078893Y-106399000D01*
X182233642Y-106429781D01*
G37*
G36*
X105302585Y-103558802D02*
G01*
X105452410Y-103588604D01*
X105734674Y-103705521D01*
X105988705Y-103875259D01*
X106204741Y-104091295D01*
X106374479Y-104345326D01*
X106491396Y-104627590D01*
X106551000Y-104927240D01*
X106551000Y-105232760D01*
X106491396Y-105532410D01*
X106374479Y-105814674D01*
X106204741Y-106068705D01*
X105988705Y-106284741D01*
X105734674Y-106454479D01*
X105452410Y-106571396D01*
X105302585Y-106601198D01*
X105152761Y-106631000D01*
X104847239Y-106631000D01*
X104697415Y-106601198D01*
X104547590Y-106571396D01*
X104265326Y-106454479D01*
X104011295Y-106284741D01*
X103795259Y-106068705D01*
X103625521Y-105814674D01*
X103508604Y-105532410D01*
X103449000Y-105232760D01*
X103449000Y-104927240D01*
X103508604Y-104627590D01*
X103625521Y-104345326D01*
X103795259Y-104091295D01*
X104011295Y-103875259D01*
X104265326Y-103705521D01*
X104547590Y-103588604D01*
X104697415Y-103558802D01*
X104847239Y-103529000D01*
X105152761Y-103529000D01*
X105302585Y-103558802D01*
G37*
G36*
X106551000Y-101551000D02*
G01*
X103449000Y-101551000D01*
X103449000Y-98449000D01*
X106551000Y-98449000D01*
X106551000Y-101551000D01*
G37*
G36*
X96744098Y-96547033D02*
G01*
X97208350Y-96739332D01*
X97208352Y-96739333D01*
X97626168Y-97018509D01*
X97981491Y-97373832D01*
X98260667Y-97791648D01*
X98260668Y-97791650D01*
X98452967Y-98255902D01*
X98551000Y-98748747D01*
X98551000Y-99251253D01*
X98452967Y-99744098D01*
X98260668Y-100208350D01*
X98260667Y-100208352D01*
X97981491Y-100626168D01*
X97626168Y-100981491D01*
X97208352Y-101260667D01*
X97208351Y-101260668D01*
X97208350Y-101260668D01*
X96744098Y-101452967D01*
X96251253Y-101551000D01*
X95748747Y-101551000D01*
X95255902Y-101452967D01*
X94791650Y-101260668D01*
X94791649Y-101260668D01*
X94791648Y-101260667D01*
X94373832Y-100981491D01*
X94018509Y-100626168D01*
X93739333Y-100208352D01*
X93739332Y-100208350D01*
X93547033Y-99744098D01*
X93449000Y-99251253D01*
X93449000Y-98748747D01*
X93547033Y-98255902D01*
X93739332Y-97791650D01*
X93739333Y-97791648D01*
X94018509Y-97373832D01*
X94373832Y-97018509D01*
X94791648Y-96739333D01*
X94791650Y-96739332D01*
X95255902Y-96547033D01*
X95748747Y-96449000D01*
X96251253Y-96449000D01*
X96744098Y-96547033D01*
G37*
G36*
X115251000Y-96251000D02*
G01*
X112749000Y-96251000D01*
X112749000Y-93749000D01*
X115251000Y-93749000D01*
X115251000Y-96251000D01*
G37*
G36*
X121864903Y-93797075D02*
G01*
X122092571Y-93891378D01*
X122297466Y-94028285D01*
X122471715Y-94202534D01*
X122608622Y-94407429D01*
X122702925Y-94635097D01*
X122751000Y-94876787D01*
X122751000Y-95123213D01*
X122702925Y-95364903D01*
X122608622Y-95592571D01*
X122471715Y-95797466D01*
X122297466Y-95971715D01*
X122092571Y-96108622D01*
X122092570Y-96108623D01*
X122092569Y-96108623D01*
X121864903Y-96202925D01*
X121623214Y-96251000D01*
X121376786Y-96251000D01*
X121135097Y-96202925D01*
X120907431Y-96108623D01*
X120907430Y-96108623D01*
X120907429Y-96108622D01*
X120702534Y-95971715D01*
X120528285Y-95797466D01*
X120391378Y-95592571D01*
X120297075Y-95364903D01*
X120249000Y-95123213D01*
X120249000Y-94876787D01*
X120297075Y-94635097D01*
X120391378Y-94407429D01*
X120528285Y-94202534D01*
X120702534Y-94028285D01*
X120907429Y-93891378D01*
X121135097Y-93797075D01*
X121376786Y-93749000D01*
X121623214Y-93749000D01*
X121864903Y-93797075D01*
G37*
G36*
X100251000Y-85251000D02*
G01*
X97749000Y-85251000D01*
X97749000Y-82749000D01*
X100251000Y-82749000D01*
X100251000Y-85251000D01*
G37*
G36*
X106842732Y-82792665D02*
G01*
X106864903Y-82797075D01*
X107092571Y-82891378D01*
X107297466Y-83028285D01*
X107471715Y-83202534D01*
X107608622Y-83407429D01*
X107702925Y-83635097D01*
X107751000Y-83876787D01*
X107751000Y-84123213D01*
X107702925Y-84364903D01*
X107608622Y-84592571D01*
X107471715Y-84797466D01*
X107297466Y-84971715D01*
X107092571Y-85108622D01*
X107092570Y-85108623D01*
X107092569Y-85108623D01*
X106864903Y-85202925D01*
X106623214Y-85251000D01*
X106376786Y-85251000D01*
X106135097Y-85202925D01*
X105907431Y-85108623D01*
X105907430Y-85108623D01*
X105907429Y-85108622D01*
X105702534Y-84971715D01*
X105528285Y-84797466D01*
X105391378Y-84592571D01*
X105297075Y-84364903D01*
X105249000Y-84123213D01*
X105249000Y-83876787D01*
X105297075Y-83635097D01*
X105391378Y-83407429D01*
X105528285Y-83202534D01*
X105702534Y-83028285D01*
X105907429Y-82891378D01*
X106135097Y-82797075D01*
X106157268Y-82792665D01*
X106376786Y-82749000D01*
X106623214Y-82749000D01*
X106842732Y-82792665D01*
G37*
G36*
X117652915Y-81207334D02*
G01*
X117761491Y-81240271D01*
X117761494Y-81240272D01*
X117797600Y-81259571D01*
X117861556Y-81293756D01*
X117949264Y-81365736D01*
X118021244Y-81453443D01*
X118055429Y-81517399D01*
X118074728Y-81553505D01*
X118074729Y-81553508D01*
X118107666Y-81662084D01*
X118116000Y-81746702D01*
X118116000Y-82253297D01*
X118107666Y-82337916D01*
X118075252Y-82444767D01*
X118074728Y-82446495D01*
X118064761Y-82465141D01*
X118021244Y-82546557D01*
X117949264Y-82634264D01*
X117861557Y-82706244D01*
X117797601Y-82740429D01*
X117761495Y-82759728D01*
X117761492Y-82759729D01*
X117652916Y-82792666D01*
X117540000Y-82803787D01*
X117427085Y-82792666D01*
X117318509Y-82759729D01*
X117318506Y-82759728D01*
X117282400Y-82740429D01*
X117218444Y-82706244D01*
X117130737Y-82634264D01*
X117058757Y-82546557D01*
X117015239Y-82465141D01*
X117001625Y-82444766D01*
X116984298Y-82427439D01*
X116963924Y-82413826D01*
X116941285Y-82404448D01*
X116917252Y-82399668D01*
X116892748Y-82399668D01*
X116868715Y-82404448D01*
X116846076Y-82413826D01*
X116825701Y-82427440D01*
X116808374Y-82444767D01*
X116794761Y-82465141D01*
X116751244Y-82546557D01*
X116679264Y-82634264D01*
X116591557Y-82706244D01*
X116527601Y-82740429D01*
X116491495Y-82759728D01*
X116491492Y-82759729D01*
X116382916Y-82792666D01*
X116270000Y-82803787D01*
X116157085Y-82792666D01*
X116048509Y-82759729D01*
X116048506Y-82759728D01*
X116012400Y-82740429D01*
X115948444Y-82706244D01*
X115860737Y-82634264D01*
X115797622Y-82557359D01*
X115780297Y-82540034D01*
X115759923Y-82526420D01*
X115737284Y-82517043D01*
X115713250Y-82512263D01*
X115688746Y-82512263D01*
X115664713Y-82517044D01*
X115642074Y-82526421D01*
X115621700Y-82540035D01*
X115604373Y-82557362D01*
X115590759Y-82577736D01*
X115581382Y-82600375D01*
X115576000Y-82636660D01*
X115576000Y-82801000D01*
X114424000Y-82801000D01*
X114424000Y-81199000D01*
X115576000Y-81199000D01*
X115576000Y-81363341D01*
X115578402Y-81387727D01*
X115585515Y-81411176D01*
X115597066Y-81432787D01*
X115612611Y-81451729D01*
X115631553Y-81467274D01*
X115653164Y-81478825D01*
X115676613Y-81485938D01*
X115700999Y-81488340D01*
X115725385Y-81485938D01*
X115748834Y-81478825D01*
X115770445Y-81467274D01*
X115789387Y-81451729D01*
X115797608Y-81442657D01*
X115860736Y-81365736D01*
X115948443Y-81293756D01*
X116012399Y-81259571D01*
X116048505Y-81240272D01*
X116048508Y-81240271D01*
X116157084Y-81207334D01*
X116270000Y-81196213D01*
X116382915Y-81207334D01*
X116491491Y-81240271D01*
X116491494Y-81240272D01*
X116527600Y-81259571D01*
X116591556Y-81293756D01*
X116679264Y-81365736D01*
X116751244Y-81453443D01*
X116794761Y-81534859D01*
X116808375Y-81555234D01*
X116825702Y-81572561D01*
X116846076Y-81586174D01*
X116868715Y-81595552D01*
X116892748Y-81600332D01*
X116917252Y-81600332D01*
X116941285Y-81595552D01*
X116963924Y-81586174D01*
X116984299Y-81572560D01*
X117001626Y-81555233D01*
X117015239Y-81534860D01*
X117058756Y-81453444D01*
X117130736Y-81365736D01*
X117218443Y-81293756D01*
X117282399Y-81259571D01*
X117318505Y-81240272D01*
X117318508Y-81240271D01*
X117427084Y-81207334D01*
X117540000Y-81196213D01*
X117652915Y-81207334D01*
G37*
G36*
X175801000Y-75576000D02*
G01*
X175636660Y-75576000D01*
X175612274Y-75578402D01*
X175588825Y-75585515D01*
X175567214Y-75597066D01*
X175548272Y-75612611D01*
X175532727Y-75631553D01*
X175521176Y-75653164D01*
X175514063Y-75676613D01*
X175511661Y-75700999D01*
X175514063Y-75725385D01*
X175521176Y-75748834D01*
X175532727Y-75770445D01*
X175548272Y-75789387D01*
X175557345Y-75797609D01*
X175634264Y-75860736D01*
X175706244Y-75948443D01*
X175740429Y-76012399D01*
X175759728Y-76048505D01*
X175759729Y-76048508D01*
X175792666Y-76157084D01*
X175803787Y-76270000D01*
X175792666Y-76382916D01*
X175759729Y-76491492D01*
X175759728Y-76491495D01*
X175740429Y-76527601D01*
X175706244Y-76591557D01*
X175634264Y-76679264D01*
X175546557Y-76751244D01*
X175465141Y-76794761D01*
X175444766Y-76808375D01*
X175427439Y-76825702D01*
X175413826Y-76846076D01*
X175404448Y-76868715D01*
X175399668Y-76892748D01*
X175399668Y-76917252D01*
X175404448Y-76941285D01*
X175413826Y-76963924D01*
X175427440Y-76984299D01*
X175444767Y-77001626D01*
X175465141Y-77015239D01*
X175546557Y-77058756D01*
X175634264Y-77130736D01*
X175706244Y-77218443D01*
X175740429Y-77282399D01*
X175759728Y-77318505D01*
X175759729Y-77318508D01*
X175792666Y-77427084D01*
X175803787Y-77540000D01*
X175792666Y-77652916D01*
X175759729Y-77761492D01*
X175759728Y-77761495D01*
X175740429Y-77797601D01*
X175706244Y-77861557D01*
X175634264Y-77949264D01*
X175546557Y-78021244D01*
X175482601Y-78055429D01*
X175446495Y-78074728D01*
X175446492Y-78074729D01*
X175337916Y-78107666D01*
X175253298Y-78116000D01*
X174746702Y-78116000D01*
X174662084Y-78107666D01*
X174553508Y-78074729D01*
X174553505Y-78074728D01*
X174517399Y-78055429D01*
X174453443Y-78021244D01*
X174365736Y-77949264D01*
X174293756Y-77861557D01*
X174259571Y-77797601D01*
X174240272Y-77761495D01*
X174240271Y-77761492D01*
X174207334Y-77652916D01*
X174196213Y-77540000D01*
X174207334Y-77427084D01*
X174240271Y-77318508D01*
X174240272Y-77318505D01*
X174259571Y-77282399D01*
X174293756Y-77218443D01*
X174365736Y-77130736D01*
X174453443Y-77058756D01*
X174534859Y-77015239D01*
X174555234Y-77001625D01*
X174572561Y-76984298D01*
X174586174Y-76963924D01*
X174595552Y-76941285D01*
X174600332Y-76917252D01*
X174600332Y-76892748D01*
X174595552Y-76868715D01*
X174586174Y-76846076D01*
X174572560Y-76825701D01*
X174555233Y-76808374D01*
X174534859Y-76794761D01*
X174453443Y-76751244D01*
X174365736Y-76679264D01*
X174293756Y-76591557D01*
X174259571Y-76527601D01*
X174240272Y-76491495D01*
X174240271Y-76491492D01*
X174207334Y-76382916D01*
X174196213Y-76270000D01*
X174207334Y-76157084D01*
X174240271Y-76048508D01*
X174240272Y-76048505D01*
X174259571Y-76012399D01*
X174293756Y-75948443D01*
X174365736Y-75860736D01*
X174442646Y-75797617D01*
X174459965Y-75780298D01*
X174473579Y-75759923D01*
X174482957Y-75737284D01*
X174487737Y-75713251D01*
X174487737Y-75688747D01*
X174482957Y-75664714D01*
X174473579Y-75642075D01*
X174459966Y-75621701D01*
X174442639Y-75604374D01*
X174422264Y-75590760D01*
X174399625Y-75581382D01*
X174375592Y-75576602D01*
X174363340Y-75576000D01*
X174199000Y-75576000D01*
X174199000Y-74424000D01*
X175801000Y-74424000D01*
X175801000Y-75576000D01*
G37*
G36*
X188181632Y-68104677D02*
G01*
X188487005Y-68231167D01*
X188918868Y-68410050D01*
X189582362Y-68853383D01*
X190146617Y-69417638D01*
X190589950Y-70081132D01*
X190768833Y-70512995D01*
X190895323Y-70818368D01*
X191051000Y-71601010D01*
X191051000Y-72398990D01*
X190895323Y-73181632D01*
X190768833Y-73487005D01*
X190589950Y-73918868D01*
X190146617Y-74582362D01*
X189582362Y-75146617D01*
X188918868Y-75589950D01*
X188667668Y-75694000D01*
X188181632Y-75895323D01*
X187398990Y-76051000D01*
X186601010Y-76051000D01*
X185818368Y-75895323D01*
X185332332Y-75694000D01*
X185081132Y-75589950D01*
X184417638Y-75146617D01*
X183853383Y-74582362D01*
X183410050Y-73918868D01*
X183231167Y-73487005D01*
X183104677Y-73181632D01*
X182949000Y-72398990D01*
X182949000Y-71601010D01*
X183104677Y-70818368D01*
X183231167Y-70512995D01*
X183410050Y-70081132D01*
X183853383Y-69417638D01*
X184417638Y-68853383D01*
X185081132Y-68410050D01*
X185512995Y-68231167D01*
X185818368Y-68104677D01*
X186601010Y-67949000D01*
X187398990Y-67949000D01*
X188181632Y-68104677D01*
G37*
G36*
X120051000Y-75051000D02*
G01*
X117949000Y-75051000D01*
X117949000Y-72949000D01*
X120051000Y-72949000D01*
X120051000Y-75051000D01*
G37*
G36*
X121846564Y-72989389D02*
G01*
X122037833Y-73068615D01*
X122037835Y-73068616D01*
X122206975Y-73181632D01*
X122209973Y-73183635D01*
X122356365Y-73330027D01*
X122471385Y-73502167D01*
X122550611Y-73693436D01*
X122591000Y-73896484D01*
X122591000Y-74103516D01*
X122550611Y-74306564D01*
X122471385Y-74497833D01*
X122471384Y-74497835D01*
X122356365Y-74669973D01*
X122209973Y-74816365D01*
X122037835Y-74931384D01*
X122037834Y-74931385D01*
X122037833Y-74931385D01*
X121846564Y-75010611D01*
X121643516Y-75051000D01*
X121436484Y-75051000D01*
X121233436Y-75010611D01*
X121042167Y-74931385D01*
X121042166Y-74931385D01*
X121042165Y-74931384D01*
X120870027Y-74816365D01*
X120723635Y-74669973D01*
X120608616Y-74497835D01*
X120608615Y-74497833D01*
X120529389Y-74306564D01*
X120489000Y-74103516D01*
X120489000Y-73896484D01*
X120529389Y-73693436D01*
X120608615Y-73502167D01*
X120723635Y-73330027D01*
X120870027Y-73183635D01*
X120873025Y-73181632D01*
X121042165Y-73068616D01*
X121042167Y-73068615D01*
X121233436Y-72989389D01*
X121436484Y-72949000D01*
X121643516Y-72949000D01*
X121846564Y-72989389D01*
G37*
G36*
X129466564Y-72989389D02*
G01*
X129657833Y-73068615D01*
X129657835Y-73068616D01*
X129826975Y-73181632D01*
X129829973Y-73183635D01*
X129976365Y-73330027D01*
X130091385Y-73502167D01*
X130170611Y-73693436D01*
X130211000Y-73896484D01*
X130211000Y-74103516D01*
X130170611Y-74306564D01*
X130091385Y-74497833D01*
X130091384Y-74497835D01*
X129976365Y-74669973D01*
X129829973Y-74816365D01*
X129657835Y-74931384D01*
X129657834Y-74931385D01*
X129657833Y-74931385D01*
X129466564Y-75010611D01*
X129263516Y-75051000D01*
X129056484Y-75051000D01*
X128853436Y-75010611D01*
X128662167Y-74931385D01*
X128662166Y-74931385D01*
X128662165Y-74931384D01*
X128490027Y-74816365D01*
X128343635Y-74669973D01*
X128228616Y-74497835D01*
X128228615Y-74497833D01*
X128149389Y-74306564D01*
X128109000Y-74103516D01*
X128109000Y-73896484D01*
X128149389Y-73693436D01*
X128228615Y-73502167D01*
X128343635Y-73330027D01*
X128490027Y-73183635D01*
X128493025Y-73181632D01*
X128662165Y-73068616D01*
X128662167Y-73068615D01*
X128853436Y-72989389D01*
X129056484Y-72949000D01*
X129263516Y-72949000D01*
X129466564Y-72989389D01*
G37*
G36*
X129466564Y-67909389D02*
G01*
X129657833Y-67988615D01*
X129657835Y-67988616D01*
X129829973Y-68103635D01*
X129976365Y-68250027D01*
X130091385Y-68422167D01*
X130170611Y-68613436D01*
X130211000Y-68816484D01*
X130211000Y-69023516D01*
X130170611Y-69226564D01*
X130091466Y-69417638D01*
X130091384Y-69417835D01*
X129976365Y-69589973D01*
X129829973Y-69736365D01*
X129657835Y-69851384D01*
X129657834Y-69851385D01*
X129657833Y-69851385D01*
X129466564Y-69930611D01*
X129263516Y-69971000D01*
X129056484Y-69971000D01*
X128853436Y-69930611D01*
X128662167Y-69851385D01*
X128662166Y-69851385D01*
X128662165Y-69851384D01*
X128490027Y-69736365D01*
X128343635Y-69589973D01*
X128228616Y-69417835D01*
X128228534Y-69417638D01*
X128149389Y-69226564D01*
X128109000Y-69023516D01*
X128109000Y-68816484D01*
X128149389Y-68613436D01*
X128228615Y-68422167D01*
X128343635Y-68250027D01*
X128490027Y-68103635D01*
X128662165Y-67988616D01*
X128662167Y-67988615D01*
X128853436Y-67909389D01*
X129056484Y-67869000D01*
X129263516Y-67869000D01*
X129466564Y-67909389D01*
G37*
G36*
X119306564Y-67909389D02*
G01*
X119497833Y-67988615D01*
X119497835Y-67988616D01*
X119669973Y-68103635D01*
X119816365Y-68250027D01*
X119931385Y-68422167D01*
X120010611Y-68613436D01*
X120051000Y-68816484D01*
X120051000Y-69023516D01*
X120010611Y-69226564D01*
X119931466Y-69417638D01*
X119931384Y-69417835D01*
X119816365Y-69589973D01*
X119669973Y-69736365D01*
X119497835Y-69851384D01*
X119497834Y-69851385D01*
X119497833Y-69851385D01*
X119306564Y-69930611D01*
X119103516Y-69971000D01*
X118896484Y-69971000D01*
X118693436Y-69930611D01*
X118502167Y-69851385D01*
X118502166Y-69851385D01*
X118502165Y-69851384D01*
X118330027Y-69736365D01*
X118183635Y-69589973D01*
X118068616Y-69417835D01*
X118068534Y-69417638D01*
X117989389Y-69226564D01*
X117949000Y-69023516D01*
X117949000Y-68816484D01*
X117989389Y-68613436D01*
X118068615Y-68422167D01*
X118183635Y-68250027D01*
X118330027Y-68103635D01*
X118502165Y-67988616D01*
X118502167Y-67988615D01*
X118693436Y-67909389D01*
X118896484Y-67869000D01*
X119103516Y-67869000D01*
X119306564Y-67909389D01*
G37*
G36*
X121846564Y-67909389D02*
G01*
X122037833Y-67988615D01*
X122037835Y-67988616D01*
X122209973Y-68103635D01*
X122356365Y-68250027D01*
X122471385Y-68422167D01*
X122550611Y-68613436D01*
X122591000Y-68816484D01*
X122591000Y-69023516D01*
X122550611Y-69226564D01*
X122471466Y-69417638D01*
X122471384Y-69417835D01*
X122356365Y-69589973D01*
X122209973Y-69736365D01*
X122037835Y-69851384D01*
X122037834Y-69851385D01*
X122037833Y-69851385D01*
X121846564Y-69930611D01*
X121643516Y-69971000D01*
X121436484Y-69971000D01*
X121233436Y-69930611D01*
X121042167Y-69851385D01*
X121042166Y-69851385D01*
X121042165Y-69851384D01*
X120870027Y-69736365D01*
X120723635Y-69589973D01*
X120608616Y-69417835D01*
X120608534Y-69417638D01*
X120529389Y-69226564D01*
X120489000Y-69023516D01*
X120489000Y-68816484D01*
X120529389Y-68613436D01*
X120608615Y-68422167D01*
X120723635Y-68250027D01*
X120870027Y-68103635D01*
X121042165Y-67988616D01*
X121042167Y-67988615D01*
X121233436Y-67909389D01*
X121436484Y-67869000D01*
X121643516Y-67869000D01*
X121846564Y-67909389D01*
G37*
G36*
X137248228Y-64681703D02*
G01*
X137403100Y-64745853D01*
X137542481Y-64838985D01*
X137661015Y-64957519D01*
X137754147Y-65096900D01*
X137818297Y-65251772D01*
X137851000Y-65416184D01*
X137851000Y-65583816D01*
X137818297Y-65748228D01*
X137754147Y-65903100D01*
X137661015Y-66042481D01*
X137542481Y-66161015D01*
X137403100Y-66254147D01*
X137248228Y-66318297D01*
X137083816Y-66351000D01*
X136916184Y-66351000D01*
X136751772Y-66318297D01*
X136596900Y-66254147D01*
X136457519Y-66161015D01*
X136338985Y-66042481D01*
X136245853Y-65903100D01*
X136181703Y-65748228D01*
X136149000Y-65583816D01*
X136149000Y-65416184D01*
X136181703Y-65251772D01*
X136245853Y-65096900D01*
X136338985Y-64957519D01*
X136457519Y-64838985D01*
X136596900Y-64745853D01*
X136751772Y-64681703D01*
X136916184Y-64649000D01*
X137083816Y-64649000D01*
X137248228Y-64681703D01*
G37*
G36*
X101251000Y-66251000D02*
G01*
X98749000Y-66251000D01*
X98749000Y-63749000D01*
X101251000Y-63749000D01*
X101251000Y-66251000D01*
G37*
G36*
X107864903Y-63797075D02*
G01*
X108092571Y-63891378D01*
X108297466Y-64028285D01*
X108471715Y-64202534D01*
X108471716Y-64202536D01*
X108608623Y-64407431D01*
X108702925Y-64635097D01*
X108751000Y-64876786D01*
X108751000Y-65123214D01*
X108702925Y-65364903D01*
X108612249Y-65583816D01*
X108608622Y-65592571D01*
X108471715Y-65797466D01*
X108297466Y-65971715D01*
X108092571Y-66108622D01*
X108092570Y-66108623D01*
X108092569Y-66108623D01*
X107864903Y-66202925D01*
X107623214Y-66251000D01*
X107376786Y-66251000D01*
X107135097Y-66202925D01*
X106907431Y-66108623D01*
X106907430Y-66108623D01*
X106907429Y-66108622D01*
X106702534Y-65971715D01*
X106528285Y-65797466D01*
X106391378Y-65592571D01*
X106387752Y-65583816D01*
X106297075Y-65364903D01*
X106249000Y-65123214D01*
X106249000Y-64876786D01*
X106297075Y-64635097D01*
X106391377Y-64407431D01*
X106528284Y-64202536D01*
X106528285Y-64202534D01*
X106702534Y-64028285D01*
X106907429Y-63891378D01*
X107135097Y-63797075D01*
X107376786Y-63749000D01*
X107623214Y-63749000D01*
X107864903Y-63797075D01*
G37*
G36*
X137851000Y-62851000D02*
G01*
X136149000Y-62851000D01*
X136149000Y-61149000D01*
X137851000Y-61149000D01*
X137851000Y-62851000D01*
G37*
G36*
X124748228Y-60181703D02*
G01*
X124903100Y-60245853D01*
X125042481Y-60338985D01*
X125161015Y-60457519D01*
X125254147Y-60596900D01*
X125318297Y-60751772D01*
X125351000Y-60916184D01*
X125351000Y-61083816D01*
X125318297Y-61248228D01*
X125254147Y-61403100D01*
X125161015Y-61542481D01*
X125042481Y-61661015D01*
X124903100Y-61754147D01*
X124748228Y-61818297D01*
X124583816Y-61851000D01*
X124416184Y-61851000D01*
X124251772Y-61818297D01*
X124096900Y-61754147D01*
X123957519Y-61661015D01*
X123838985Y-61542481D01*
X123745853Y-61403100D01*
X123681703Y-61248228D01*
X123649000Y-61083816D01*
X123649000Y-60916184D01*
X123681703Y-60751772D01*
X123745853Y-60596900D01*
X123838985Y-60457519D01*
X123957519Y-60338985D01*
X124096900Y-60245853D01*
X124251772Y-60181703D01*
X124416184Y-60149000D01*
X124583816Y-60149000D01*
X124748228Y-60181703D01*
G37*
G36*
X121851000Y-61851000D02*
G01*
X120149000Y-61851000D01*
X120149000Y-60149000D01*
X121851000Y-60149000D01*
X121851000Y-61851000D01*
G37*
G36*
X188181632Y-50104677D02*
G01*
X188487005Y-50231167D01*
X188918868Y-50410050D01*
X189582362Y-50853383D01*
X190146617Y-51417638D01*
X190589950Y-52081132D01*
X190768833Y-52512995D01*
X190895323Y-52818368D01*
X191051000Y-53601010D01*
X191051000Y-54398990D01*
X190895323Y-55181632D01*
X190845879Y-55301000D01*
X190589950Y-55918868D01*
X190146617Y-56582362D01*
X189582362Y-57146617D01*
X188918868Y-57589950D01*
X188487005Y-57768833D01*
X188181632Y-57895323D01*
X187398990Y-58051000D01*
X186601010Y-58051000D01*
X185818368Y-57895323D01*
X185512995Y-57768833D01*
X185081132Y-57589950D01*
X184417638Y-57146617D01*
X183853383Y-56582362D01*
X183410050Y-55918868D01*
X183154121Y-55301000D01*
X183104677Y-55181632D01*
X182949000Y-54398990D01*
X182949000Y-53601010D01*
X183104677Y-52818368D01*
X183231167Y-52512995D01*
X183410050Y-52081132D01*
X183853383Y-51417638D01*
X184417638Y-50853383D01*
X185081132Y-50410050D01*
X185512995Y-50231167D01*
X185818368Y-50104677D01*
X186601010Y-49949000D01*
X187398990Y-49949000D01*
X188181632Y-50104677D01*
G37*
G36*
X138255039Y-50717825D02*
G01*
X138500279Y-50792218D01*
X138726293Y-50913025D01*
X138924396Y-51075604D01*
X139086975Y-51273706D01*
X139207782Y-51499720D01*
X139282175Y-51744960D01*
X139301000Y-51936095D01*
X139301000Y-54063905D01*
X139282175Y-54255040D01*
X139207782Y-54500280D01*
X139086975Y-54726294D01*
X139044624Y-54777899D01*
X138924397Y-54924397D01*
X138777899Y-55044624D01*
X138726294Y-55086975D01*
X138500280Y-55207782D01*
X138255040Y-55282175D01*
X138000000Y-55307294D01*
X137744961Y-55282175D01*
X137499721Y-55207782D01*
X137273707Y-55086975D01*
X137222102Y-55044624D01*
X137075604Y-54924397D01*
X136955377Y-54777899D01*
X136913026Y-54726294D01*
X136792219Y-54500280D01*
X136717826Y-54255040D01*
X136699001Y-54063905D01*
X136699000Y-51936096D01*
X136717825Y-51744961D01*
X136792218Y-51499721D01*
X136913025Y-51273707D01*
X137075604Y-51075604D01*
X137273706Y-50913025D01*
X137273705Y-50913025D01*
X137273707Y-50913024D01*
X137499718Y-50792219D01*
X137499720Y-50792218D01*
X137744960Y-50717825D01*
X138000000Y-50692706D01*
X138255039Y-50717825D01*
G37*
G36*
X143705039Y-50717825D02*
G01*
X143950279Y-50792218D01*
X144176293Y-50913025D01*
X144374396Y-51075604D01*
X144536975Y-51273706D01*
X144657782Y-51499720D01*
X144732175Y-51744960D01*
X144751000Y-51936095D01*
X144751000Y-54063905D01*
X144732175Y-54255040D01*
X144657782Y-54500280D01*
X144536975Y-54726294D01*
X144494624Y-54777899D01*
X144374397Y-54924397D01*
X144227899Y-55044624D01*
X144176294Y-55086975D01*
X143950280Y-55207782D01*
X143705040Y-55282175D01*
X143450000Y-55307294D01*
X143194961Y-55282175D01*
X142949721Y-55207782D01*
X142723707Y-55086975D01*
X142672102Y-55044624D01*
X142525604Y-54924397D01*
X142405377Y-54777899D01*
X142363026Y-54726294D01*
X142242219Y-54500280D01*
X142167826Y-54255040D01*
X142149001Y-54063905D01*
X142149000Y-51936096D01*
X142167825Y-51744961D01*
X142242218Y-51499721D01*
X142363025Y-51273707D01*
X142525604Y-51075604D01*
X142723706Y-50913025D01*
X142723705Y-50913025D01*
X142723707Y-50913024D01*
X142949718Y-50792219D01*
X142949720Y-50792218D01*
X143194960Y-50717825D01*
X143450000Y-50692706D01*
X143705039Y-50717825D01*
G37*
G36*
X120705039Y-50717825D02*
G01*
X120950279Y-50792218D01*
X121176293Y-50913025D01*
X121374396Y-51075604D01*
X121536975Y-51273706D01*
X121657782Y-51499720D01*
X121732175Y-51744960D01*
X121751000Y-51936095D01*
X121751000Y-54063905D01*
X121732175Y-54255040D01*
X121657782Y-54500280D01*
X121536975Y-54726294D01*
X121494624Y-54777899D01*
X121374397Y-54924397D01*
X121227899Y-55044624D01*
X121176294Y-55086975D01*
X120950280Y-55207782D01*
X120705040Y-55282175D01*
X120450000Y-55307294D01*
X120194961Y-55282175D01*
X119949721Y-55207782D01*
X119723707Y-55086975D01*
X119672102Y-55044624D01*
X119525604Y-54924397D01*
X119405377Y-54777899D01*
X119363026Y-54726294D01*
X119242219Y-54500280D01*
X119167826Y-54255040D01*
X119149001Y-54063905D01*
X119149000Y-51936096D01*
X119167825Y-51744961D01*
X119242218Y-51499721D01*
X119363025Y-51273707D01*
X119525604Y-51075604D01*
X119723706Y-50913025D01*
X119723705Y-50913025D01*
X119723707Y-50913024D01*
X119949718Y-50792219D01*
X119949720Y-50792218D01*
X120194960Y-50717825D01*
X120450000Y-50692706D01*
X120705039Y-50717825D01*
G37*
G36*
X115255039Y-50717825D02*
G01*
X115500279Y-50792218D01*
X115726293Y-50913025D01*
X115924396Y-51075604D01*
X116086975Y-51273706D01*
X116207782Y-51499720D01*
X116282175Y-51744960D01*
X116301000Y-51936095D01*
X116301000Y-54063905D01*
X116282175Y-54255040D01*
X116207782Y-54500280D01*
X116086975Y-54726294D01*
X116044624Y-54777899D01*
X115924397Y-54924397D01*
X115777899Y-55044624D01*
X115726294Y-55086975D01*
X115500280Y-55207782D01*
X115255040Y-55282175D01*
X115000000Y-55307294D01*
X114744961Y-55282175D01*
X114499721Y-55207782D01*
X114273707Y-55086975D01*
X114222102Y-55044624D01*
X114075604Y-54924397D01*
X113955377Y-54777899D01*
X113913026Y-54726294D01*
X113792219Y-54500280D01*
X113717826Y-54255040D01*
X113699001Y-54063905D01*
X113699000Y-51936096D01*
X113717825Y-51744961D01*
X113792218Y-51499721D01*
X113913025Y-51273707D01*
X114075604Y-51075604D01*
X114273706Y-50913025D01*
X114273705Y-50913025D01*
X114273707Y-50913024D01*
X114499718Y-50792219D01*
X114499720Y-50792218D01*
X114744960Y-50717825D01*
X115000000Y-50692706D01*
X115255039Y-50717825D01*
G37*
G36*
X110851000Y-55301000D02*
G01*
X108249000Y-55301000D01*
X108249000Y-50699000D01*
X110851000Y-50699000D01*
X110851000Y-55301000D01*
G37*
G36*
X133851000Y-55301000D02*
G01*
X131249000Y-55301000D01*
X131249000Y-50699000D01*
X133851000Y-50699000D01*
X133851000Y-55301000D01*
G37*
M02*
