M48
; DRILL file {KiCad (5.1.5)-3} date 08/06/2020 13:02:44
; FORMAT={-:-/ absolute / inch / decimal}
; #@! TF.CreationDate,2020-06-08T13:02:44+01:00
; #@! TF.GenerationSoftware,Kicad,Pcbnew,(5.1.5)-3
; #@! TF.FileFunction,Plated,1,2,PTH
FMAT,2
INCH
T1C0.0157
T2C0.0295
T3C0.0315
T4C0.0394
T5C0.0402
T6C0.0472
T7C0.0591
T8C0.0598
T9C0.0787
T10C0.0984
T11C0.1575
T12C0.3201
%
G90
G05
T1
X3.8583Y-5.2756
X3.8583Y-5.4331
X3.8976Y-2.4016
X3.937Y-3.6614
X3.9764Y-2.2441
X3.9764Y-2.7953
X3.9764Y-3.0709
X4.0551Y-2.4016
X4.125Y-2.8041
X4.1339Y-2.0866
X4.1339Y-2.9921
X4.1732Y-2.2835
X4.252Y-2.3622
X4.2913Y-3.0315
X4.2913Y-3.5433
X4.3307Y-2.7165
X4.3701Y-3.189
X4.3701Y-4.2913
X4.4094Y-4.0945
X4.4488Y-5.1575
X4.4783Y-3.435
X4.4882Y-3.937
X4.5669Y-5.1969
X4.6063Y-4.2126
X4.6161Y-3.5728
X4.6457Y-3.4646
X4.685Y-3.0709
X4.7244Y-3.189
X4.7244Y-4.8819
X4.8425Y-3.5827
X4.8819Y-4.4488
X4.9181Y-3.1465
X4.9213Y-2.874
X4.9528Y-4.2205
X4.9606Y-3.2283
X5.0Y-3.7402
X5.0295Y-2.5295
X5.0433Y-5.3504
X5.0787Y-3.3071
X5.1969Y-3.5827
X5.2362Y-2.6378
X5.2362Y-4.0157
X5.2598Y-5.0827
X5.2756Y-4.4488
X5.2756Y-4.8031
X5.2756Y-5.2362
X5.315Y-3.4646
X5.315Y-4.9764
X5.315Y-5.6693
X5.3543Y-3.6614
X5.3937Y-3.7795
X5.4055Y-5.3504
X5.437Y-4.9764
X5.437Y-5.0787
X5.4724Y-4.4094
X5.5118Y-3.5433
X5.5906Y-2.3622
X5.5906Y-3.5433
X5.5906Y-3.622
X5.6299Y-4.8425
X5.6693Y-4.6457
X5.6693Y-5.6299
X5.6772Y-5.2677
X5.748Y-4.4094
X5.748Y-4.7244
X5.7874Y-2.7953
X5.7874Y-3.3071
X5.8268Y-3.622
X5.8661Y-3.3858
X5.8976Y-3.1496
X5.9449Y-3.7795
X5.9449Y-4.6063
X5.9843Y-3.7402
X5.9843Y-5.3937
X5.9882Y-3.3386
X5.9961Y-3.1299
X6.0079Y-3.1732
X6.0236Y-3.5433
X6.0236Y-4.3701
X6.063Y-3.3465
X6.063Y-3.5433
X6.063Y-5.2677
X6.122Y-4.5866
X6.1417Y-2.6378
X6.1417Y-4.9213
X6.1732Y-4.5866
X6.1811Y-3.5039
X6.1811Y-5.6299
X6.185Y-5.1457
X6.2205Y-2.9528
X6.2564Y-3.1137
X6.2598Y-2.6378
X6.2638Y-4.815
X6.3031Y-3.2874
X6.3332Y-4.5276
X6.3386Y-5.1969
X6.3504Y-4.1811
X6.3775Y-4.7633
X6.378Y-2.2835
X6.378Y-2.3622
X6.4016Y-3.1575
X6.4016Y-4.2047
X6.4168Y-4.7239
X6.4173Y-2.2047
X6.457Y-4.1299
X6.4626Y-4.2579
X6.4941Y-3.2264
X6.4961Y-2.1654
X6.5039Y-4.2835
X6.5335Y-3.2283
X6.5354Y-2.7953
X6.5354Y-4.7244
X6.5354Y-4.8425
X6.5354Y-5.6299
X6.5359Y-4.8824
X6.5748Y-2.1654
X6.5748Y-2.2835
X6.5748Y-2.6772
X6.5748Y-5.4331
X6.5753Y-4.7239
X6.6024Y-4.7992
X6.6102Y-4.626
X6.6142Y-3.2677
X6.6142Y-3.7402
X6.6496Y-4.6417
X6.653Y-3.2259
X6.6535Y-2.1654
X6.6535Y-3.7402
X6.6535Y-3.937
X6.6732Y-4.3819
X6.6732Y-4.7923
X6.6748Y-3.3803
X6.6929Y-3.1083
X6.7087Y-4.6378
X6.7323Y-2.2047
X6.7717Y-2.2835
X6.7776Y-2.3563
X6.8031Y-4.3543
X6.8268Y-3.9488
X6.8386Y-5.3189
X6.8425Y-4.874
X6.9173Y-4.0394
X6.9291Y-3.4252
X6.9291Y-4.685
X6.9331Y-4.3268
X6.9685Y-2.9528
X6.9685Y-3.1102
X6.9685Y-5.5512
X6.9749Y-4.5999
X7.1654Y-4.0157
X7.1654Y-4.6063
X7.1654Y-5.3937
X7.2047Y-5.2756
X7.2047Y-5.6299
X7.2441Y-3.8189
X7.2835Y-3.1102
X7.3228Y-4.1732
X7.3228Y-4.5276
X7.3228Y-4.9213
X7.3622Y-3.2677
X7.3622Y-3.4252
X7.3622Y-5.1969
X7.4016Y-4.3307
X7.4016Y-4.7244
X7.4409Y-2.5984
X7.4409Y-4.0157
X7.4409Y-5.0394
T2
X6.8898Y-2.9528
X6.8898Y-3.0028
X6.8898Y-3.0528
X4.5276Y-3.2283
X4.5776Y-3.2283
X4.6276Y-3.2283
T3
X4.7638Y-2.4016
X4.9016Y-2.4016
X7.1654Y-4.2205
X7.1654Y-4.3701
X5.3937Y-2.4409
X5.3937Y-2.5787
T4
X4.685Y-2.7134
X4.685Y-2.9134
X4.785Y-2.7134
X4.785Y-2.9134
X5.085Y-2.7134
X5.085Y-2.9134
X5.5118Y-4.6512
X5.5118Y-4.7512
X5.5118Y-4.8512
X5.5118Y-4.9512
X5.5118Y-5.0512
X5.5118Y-5.1512
X5.5118Y-5.2512
X5.5118Y-5.3512
X5.5118Y-5.4512
X5.5118Y-5.5512
X5.0362Y-5.4724
X5.0362Y-5.5724
X5.1362Y-5.4724
X5.1362Y-5.5724
X5.2362Y-5.4724
X5.2362Y-5.5724
X7.0472Y-5.1181
X7.1457Y-5.1181
X7.2441Y-5.1181
X5.9055Y-5.0787
X6.0039Y-5.0787
X6.1024Y-5.0787
T5
X3.8976Y-4.4882
X3.8976Y-4.9882
X4.5976Y-4.4882
X4.5976Y-4.9882
T6
X4.4882Y-3.7402
X4.7835Y-3.7402
X3.937Y-2.5591
X4.2323Y-2.5591
X3.8976Y-3.3071
X4.1929Y-3.3071
T7
X5.2185Y-2.0866
X5.4331Y-2.0866
X5.6476Y-2.0866
X4.313Y-2.0866
X4.5276Y-2.0866
X4.7421Y-2.0866
T8
X4.1339Y-3.937
X4.1339Y-4.137
T10
X3.7795Y-3.8976
X3.7795Y-4.252
T11
X7.3622Y-2.126
X7.3622Y-2.8346
T12
X4.2476Y-4.7382
T4
G00X4.0551Y-5.3937
M15
G01X4.0551Y-5.4724
M16
G05
G00X4.1339Y-5.6181
M15
G01X4.2126Y-5.6181
M16
G05
G00X4.2913Y-5.3937
M15
G01X4.2913Y-5.4724
M16
G05
T9
G00X6.9252Y-5.4035
M15
G01X6.9252Y-5.4232
M16
G05
G00X7.3661Y-5.4035
M15
G01X7.3661Y-5.4232
M16
G05
G00X5.7835Y-5.3642
M15
G01X5.7835Y-5.3839
M16
G05
G00X6.2244Y-5.3642
M15
G01X6.2244Y-5.3839
M16
G05
T0
M30
