G04 #@! TF.GenerationSoftware,KiCad,Pcbnew,(5.1.5)-3*
G04 #@! TF.CreationDate,2020-06-08T13:02:41+01:00*
G04 #@! TF.ProjectId,25v PSU,32357620-5053-4552-9e6b-696361645f70,rev?*
G04 #@! TF.SameCoordinates,Original*
G04 #@! TF.FileFunction,Legend,Bot*
G04 #@! TF.FilePolarity,Positive*
%FSLAX46Y46*%
G04 Gerber Fmt 4.6, Leading zero omitted, Abs format (unit mm)*
G04 Created by KiCad (PCBNEW (5.1.5)-3) date 2020-06-08 13:02:41*
%MOMM*%
%LPD*%
G04 APERTURE LIST*
%ADD10C,0.300000*%
%ADD11C,0.010000*%
%ADD12C,0.150000*%
G04 APERTURE END LIST*
D10*
X167821428Y-121607142D02*
X167607142Y-121678571D01*
X167250000Y-121678571D01*
X167107142Y-121607142D01*
X167035714Y-121535714D01*
X166964285Y-121392857D01*
X166964285Y-121250000D01*
X167035714Y-121107142D01*
X167107142Y-121035714D01*
X167250000Y-120964285D01*
X167535714Y-120892857D01*
X167678571Y-120821428D01*
X167750000Y-120750000D01*
X167821428Y-120607142D01*
X167821428Y-120464285D01*
X167750000Y-120321428D01*
X167678571Y-120250000D01*
X167535714Y-120178571D01*
X167178571Y-120178571D01*
X166964285Y-120250000D01*
X165678571Y-121607142D02*
X165821428Y-121678571D01*
X166107142Y-121678571D01*
X166250000Y-121607142D01*
X166321428Y-121535714D01*
X166392857Y-121392857D01*
X166392857Y-120964285D01*
X166321428Y-120821428D01*
X166250000Y-120750000D01*
X166107142Y-120678571D01*
X165821428Y-120678571D01*
X165678571Y-120750000D01*
X165035714Y-121678571D02*
X165035714Y-120178571D01*
X164392857Y-121678571D02*
X164392857Y-120892857D01*
X164464285Y-120750000D01*
X164607142Y-120678571D01*
X164821428Y-120678571D01*
X164964285Y-120750000D01*
X165035714Y-120821428D01*
X163107142Y-121607142D02*
X163250000Y-121678571D01*
X163535714Y-121678571D01*
X163678571Y-121607142D01*
X163750000Y-121464285D01*
X163750000Y-120892857D01*
X163678571Y-120750000D01*
X163535714Y-120678571D01*
X163250000Y-120678571D01*
X163107142Y-120750000D01*
X163035714Y-120892857D01*
X163035714Y-121035714D01*
X163750000Y-121178571D01*
X162392857Y-121678571D02*
X162392857Y-120678571D01*
X162392857Y-120821428D02*
X162321428Y-120750000D01*
X162178571Y-120678571D01*
X161964285Y-120678571D01*
X161821428Y-120750000D01*
X161750000Y-120892857D01*
X161750000Y-121678571D01*
X161750000Y-120892857D02*
X161678571Y-120750000D01*
X161535714Y-120678571D01*
X161321428Y-120678571D01*
X161178571Y-120750000D01*
X161107142Y-120892857D01*
X161107142Y-121678571D01*
X159750000Y-121678571D02*
X159750000Y-120892857D01*
X159821428Y-120750000D01*
X159964285Y-120678571D01*
X160250000Y-120678571D01*
X160392857Y-120750000D01*
X159750000Y-121607142D02*
X159892857Y-121678571D01*
X160250000Y-121678571D01*
X160392857Y-121607142D01*
X160464285Y-121464285D01*
X160464285Y-121321428D01*
X160392857Y-121178571D01*
X160250000Y-121107142D01*
X159892857Y-121107142D01*
X159750000Y-121035714D01*
X159250000Y-120678571D02*
X158678571Y-120678571D01*
X159035714Y-120178571D02*
X159035714Y-121464285D01*
X158964285Y-121607142D01*
X158821428Y-121678571D01*
X158678571Y-121678571D01*
X158178571Y-121678571D02*
X158178571Y-120678571D01*
X158178571Y-120178571D02*
X158250000Y-120250000D01*
X158178571Y-120321428D01*
X158107142Y-120250000D01*
X158178571Y-120178571D01*
X158178571Y-120321428D01*
X156821428Y-121607142D02*
X156964285Y-121678571D01*
X157250000Y-121678571D01*
X157392857Y-121607142D01*
X157464285Y-121535714D01*
X157535714Y-121392857D01*
X157535714Y-120964285D01*
X157464285Y-120821428D01*
X157392857Y-120750000D01*
X157250000Y-120678571D01*
X156964285Y-120678571D01*
X156821428Y-120750000D01*
X154392857Y-121678571D02*
X154392857Y-120892857D01*
X154464285Y-120750000D01*
X154607142Y-120678571D01*
X154892857Y-120678571D01*
X155035714Y-120750000D01*
X154392857Y-121607142D02*
X154535714Y-121678571D01*
X154892857Y-121678571D01*
X155035714Y-121607142D01*
X155107142Y-121464285D01*
X155107142Y-121321428D01*
X155035714Y-121178571D01*
X154892857Y-121107142D01*
X154535714Y-121107142D01*
X154392857Y-121035714D01*
X153678571Y-120678571D02*
X153678571Y-121678571D01*
X153678571Y-120821428D02*
X153607142Y-120750000D01*
X153464285Y-120678571D01*
X153250000Y-120678571D01*
X153107142Y-120750000D01*
X153035714Y-120892857D01*
X153035714Y-121678571D01*
X151678571Y-121678571D02*
X151678571Y-120178571D01*
X151678571Y-121607142D02*
X151821428Y-121678571D01*
X152107142Y-121678571D01*
X152250000Y-121607142D01*
X152321428Y-121535714D01*
X152392857Y-121392857D01*
X152392857Y-120964285D01*
X152321428Y-120821428D01*
X152250000Y-120750000D01*
X152107142Y-120678571D01*
X151821428Y-120678571D01*
X151678571Y-120750000D01*
X149821428Y-121678571D02*
X149821428Y-120178571D01*
X149250000Y-120178571D01*
X149107142Y-120250000D01*
X149035714Y-120321428D01*
X148964285Y-120464285D01*
X148964285Y-120678571D01*
X149035714Y-120821428D01*
X149107142Y-120892857D01*
X149250000Y-120964285D01*
X149821428Y-120964285D01*
X147464285Y-121535714D02*
X147535714Y-121607142D01*
X147750000Y-121678571D01*
X147892857Y-121678571D01*
X148107142Y-121607142D01*
X148250000Y-121464285D01*
X148321428Y-121321428D01*
X148392857Y-121035714D01*
X148392857Y-120821428D01*
X148321428Y-120535714D01*
X148250000Y-120392857D01*
X148107142Y-120250000D01*
X147892857Y-120178571D01*
X147750000Y-120178571D01*
X147535714Y-120250000D01*
X147464285Y-120321428D01*
X146321428Y-120892857D02*
X146107142Y-120964285D01*
X146035714Y-121035714D01*
X145964285Y-121178571D01*
X145964285Y-121392857D01*
X146035714Y-121535714D01*
X146107142Y-121607142D01*
X146250000Y-121678571D01*
X146821428Y-121678571D01*
X146821428Y-120178571D01*
X146321428Y-120178571D01*
X146178571Y-120250000D01*
X146107142Y-120321428D01*
X146035714Y-120464285D01*
X146035714Y-120607142D01*
X146107142Y-120750000D01*
X146178571Y-120821428D01*
X146321428Y-120892857D01*
X146821428Y-120892857D01*
X143535714Y-121678571D02*
X143535714Y-120178571D01*
X143535714Y-121607142D02*
X143678571Y-121678571D01*
X143964285Y-121678571D01*
X144107142Y-121607142D01*
X144178571Y-121535714D01*
X144250000Y-121392857D01*
X144250000Y-120964285D01*
X144178571Y-120821428D01*
X144107142Y-120750000D01*
X143964285Y-120678571D01*
X143678571Y-120678571D01*
X143535714Y-120750000D01*
X142250000Y-121607142D02*
X142392857Y-121678571D01*
X142678571Y-121678571D01*
X142821428Y-121607142D01*
X142892857Y-121464285D01*
X142892857Y-120892857D01*
X142821428Y-120750000D01*
X142678571Y-120678571D01*
X142392857Y-120678571D01*
X142250000Y-120750000D01*
X142178571Y-120892857D01*
X142178571Y-121035714D01*
X142892857Y-121178571D01*
X141607142Y-121607142D02*
X141464285Y-121678571D01*
X141178571Y-121678571D01*
X141035714Y-121607142D01*
X140964285Y-121464285D01*
X140964285Y-121392857D01*
X141035714Y-121250000D01*
X141178571Y-121178571D01*
X141392857Y-121178571D01*
X141535714Y-121107142D01*
X141607142Y-120964285D01*
X141607142Y-120892857D01*
X141535714Y-120750000D01*
X141392857Y-120678571D01*
X141178571Y-120678571D01*
X141035714Y-120750000D01*
X140321428Y-121678571D02*
X140321428Y-120678571D01*
X140321428Y-120178571D02*
X140392857Y-120250000D01*
X140321428Y-120321428D01*
X140250000Y-120250000D01*
X140321428Y-120178571D01*
X140321428Y-120321428D01*
X138964285Y-120678571D02*
X138964285Y-121892857D01*
X139035714Y-122035714D01*
X139107142Y-122107142D01*
X139250000Y-122178571D01*
X139464285Y-122178571D01*
X139607142Y-122107142D01*
X138964285Y-121607142D02*
X139107142Y-121678571D01*
X139392857Y-121678571D01*
X139535714Y-121607142D01*
X139607142Y-121535714D01*
X139678571Y-121392857D01*
X139678571Y-120964285D01*
X139607142Y-120821428D01*
X139535714Y-120750000D01*
X139392857Y-120678571D01*
X139107142Y-120678571D01*
X138964285Y-120750000D01*
X138250000Y-120678571D02*
X138250000Y-121678571D01*
X138250000Y-120821428D02*
X138178571Y-120750000D01*
X138035714Y-120678571D01*
X137821428Y-120678571D01*
X137678571Y-120750000D01*
X137607142Y-120892857D01*
X137607142Y-121678571D01*
X136321428Y-121607142D02*
X136464285Y-121678571D01*
X136750000Y-121678571D01*
X136892857Y-121607142D01*
X136964285Y-121464285D01*
X136964285Y-120892857D01*
X136892857Y-120750000D01*
X136750000Y-120678571D01*
X136464285Y-120678571D01*
X136321428Y-120750000D01*
X136250000Y-120892857D01*
X136250000Y-121035714D01*
X136964285Y-121178571D01*
X134964285Y-121678571D02*
X134964285Y-120178571D01*
X134964285Y-121607142D02*
X135107142Y-121678571D01*
X135392857Y-121678571D01*
X135535714Y-121607142D01*
X135607142Y-121535714D01*
X135678571Y-121392857D01*
X135678571Y-120964285D01*
X135607142Y-120821428D01*
X135535714Y-120750000D01*
X135392857Y-120678571D01*
X135107142Y-120678571D01*
X134964285Y-120750000D01*
X132464285Y-120678571D02*
X132464285Y-121678571D01*
X133107142Y-120678571D02*
X133107142Y-121464285D01*
X133035714Y-121607142D01*
X132892857Y-121678571D01*
X132678571Y-121678571D01*
X132535714Y-121607142D01*
X132464285Y-121535714D01*
X131821428Y-121607142D02*
X131678571Y-121678571D01*
X131392857Y-121678571D01*
X131250000Y-121607142D01*
X131178571Y-121464285D01*
X131178571Y-121392857D01*
X131250000Y-121250000D01*
X131392857Y-121178571D01*
X131607142Y-121178571D01*
X131750000Y-121107142D01*
X131821428Y-120964285D01*
X131821428Y-120892857D01*
X131750000Y-120750000D01*
X131607142Y-120678571D01*
X131392857Y-120678571D01*
X131250000Y-120750000D01*
X130535714Y-121678571D02*
X130535714Y-120678571D01*
X130535714Y-120178571D02*
X130607142Y-120250000D01*
X130535714Y-120321428D01*
X130464285Y-120250000D01*
X130535714Y-120178571D01*
X130535714Y-120321428D01*
X129821428Y-120678571D02*
X129821428Y-121678571D01*
X129821428Y-120821428D02*
X129750000Y-120750000D01*
X129607142Y-120678571D01*
X129392857Y-120678571D01*
X129250000Y-120750000D01*
X129178571Y-120892857D01*
X129178571Y-121678571D01*
X127821428Y-120678571D02*
X127821428Y-121892857D01*
X127892857Y-122035714D01*
X127964285Y-122107142D01*
X128107142Y-122178571D01*
X128321428Y-122178571D01*
X128464285Y-122107142D01*
X127821428Y-121607142D02*
X127964285Y-121678571D01*
X128250000Y-121678571D01*
X128392857Y-121607142D01*
X128464285Y-121535714D01*
X128535714Y-121392857D01*
X128535714Y-120964285D01*
X128464285Y-120821428D01*
X128392857Y-120750000D01*
X128250000Y-120678571D01*
X127964285Y-120678571D01*
X127821428Y-120750000D01*
X125964285Y-121678571D02*
X125964285Y-120178571D01*
X125107142Y-121678571D02*
X125750000Y-120821428D01*
X125107142Y-120178571D02*
X125964285Y-121035714D01*
X124464285Y-121678571D02*
X124464285Y-120678571D01*
X124464285Y-120178571D02*
X124535714Y-120250000D01*
X124464285Y-120321428D01*
X124392857Y-120250000D01*
X124464285Y-120178571D01*
X124464285Y-120321428D01*
X122892857Y-121535714D02*
X122964285Y-121607142D01*
X123178571Y-121678571D01*
X123321428Y-121678571D01*
X123535714Y-121607142D01*
X123678571Y-121464285D01*
X123750000Y-121321428D01*
X123821428Y-121035714D01*
X123821428Y-120821428D01*
X123750000Y-120535714D01*
X123678571Y-120392857D01*
X123535714Y-120250000D01*
X123321428Y-120178571D01*
X123178571Y-120178571D01*
X122964285Y-120250000D01*
X122892857Y-120321428D01*
X121607142Y-121678571D02*
X121607142Y-120892857D01*
X121678571Y-120750000D01*
X121821428Y-120678571D01*
X122107142Y-120678571D01*
X122250000Y-120750000D01*
X121607142Y-121607142D02*
X121750000Y-121678571D01*
X122107142Y-121678571D01*
X122250000Y-121607142D01*
X122321428Y-121464285D01*
X122321428Y-121321428D01*
X122250000Y-121178571D01*
X122107142Y-121107142D01*
X121750000Y-121107142D01*
X121607142Y-121035714D01*
X120250000Y-121678571D02*
X120250000Y-120178571D01*
X120250000Y-121607142D02*
X120392857Y-121678571D01*
X120678571Y-121678571D01*
X120821428Y-121607142D01*
X120892857Y-121535714D01*
X120964285Y-121392857D01*
X120964285Y-120964285D01*
X120892857Y-120821428D01*
X120821428Y-120750000D01*
X120678571Y-120678571D01*
X120392857Y-120678571D01*
X120250000Y-120750000D01*
X176892857Y-117678571D02*
X176892857Y-116178571D01*
X176892857Y-116892857D02*
X176035714Y-116892857D01*
X176035714Y-117678571D02*
X176035714Y-116178571D01*
X174678571Y-117678571D02*
X174678571Y-116892857D01*
X174750000Y-116750000D01*
X174892857Y-116678571D01*
X175178571Y-116678571D01*
X175321428Y-116750000D01*
X174678571Y-117607142D02*
X174821428Y-117678571D01*
X175178571Y-117678571D01*
X175321428Y-117607142D01*
X175392857Y-117464285D01*
X175392857Y-117321428D01*
X175321428Y-117178571D01*
X175178571Y-117107142D01*
X174821428Y-117107142D01*
X174678571Y-117035714D01*
X173964285Y-117678571D02*
X173964285Y-116678571D01*
X173964285Y-116821428D02*
X173892857Y-116750000D01*
X173750000Y-116678571D01*
X173535714Y-116678571D01*
X173392857Y-116750000D01*
X173321428Y-116892857D01*
X173321428Y-117678571D01*
X173321428Y-116892857D02*
X173250000Y-116750000D01*
X173107142Y-116678571D01*
X172892857Y-116678571D01*
X172750000Y-116750000D01*
X172678571Y-116892857D01*
X172678571Y-117678571D01*
X171964285Y-117678571D02*
X171964285Y-116678571D01*
X171964285Y-116821428D02*
X171892857Y-116750000D01*
X171750000Y-116678571D01*
X171535714Y-116678571D01*
X171392857Y-116750000D01*
X171321428Y-116892857D01*
X171321428Y-117678571D01*
X171321428Y-116892857D02*
X171250000Y-116750000D01*
X171107142Y-116678571D01*
X170892857Y-116678571D01*
X170750000Y-116750000D01*
X170678571Y-116892857D01*
X170678571Y-117678571D01*
X169964285Y-117678571D02*
X169964285Y-116678571D01*
X169964285Y-116178571D02*
X170035714Y-116250000D01*
X169964285Y-116321428D01*
X169892857Y-116250000D01*
X169964285Y-116178571D01*
X169964285Y-116321428D01*
X168678571Y-117607142D02*
X168821428Y-117678571D01*
X169107142Y-117678571D01*
X169250000Y-117607142D01*
X169321428Y-117464285D01*
X169321428Y-116892857D01*
X169250000Y-116750000D01*
X169107142Y-116678571D01*
X168821428Y-116678571D01*
X168678571Y-116750000D01*
X168607142Y-116892857D01*
X168607142Y-117035714D01*
X169321428Y-117178571D01*
X168035714Y-116321428D02*
X167964285Y-116250000D01*
X167821428Y-116178571D01*
X167464285Y-116178571D01*
X167321428Y-116250000D01*
X167250000Y-116321428D01*
X167178571Y-116464285D01*
X167178571Y-116607142D01*
X167250000Y-116821428D01*
X168107142Y-117678571D01*
X167178571Y-117678571D01*
X165750000Y-117678571D02*
X166607142Y-117678571D01*
X166178571Y-117678571D02*
X166178571Y-116178571D01*
X166321428Y-116392857D01*
X166464285Y-116535714D01*
X166607142Y-116607142D01*
X165250000Y-116178571D02*
X164250000Y-116178571D01*
X164892857Y-117678571D01*
X162607142Y-116107142D02*
X163892857Y-118035714D01*
X161821428Y-116178571D02*
X161535714Y-116178571D01*
X161392857Y-116250000D01*
X161250000Y-116392857D01*
X161178571Y-116678571D01*
X161178571Y-117178571D01*
X161250000Y-117464285D01*
X161392857Y-117607142D01*
X161535714Y-117678571D01*
X161821428Y-117678571D01*
X161964285Y-117607142D01*
X162107142Y-117464285D01*
X162178571Y-117178571D01*
X162178571Y-116678571D01*
X162107142Y-116392857D01*
X161964285Y-116250000D01*
X161821428Y-116178571D01*
X160535714Y-116678571D02*
X160535714Y-118178571D01*
X160535714Y-116750000D02*
X160392857Y-116678571D01*
X160107142Y-116678571D01*
X159964285Y-116750000D01*
X159892857Y-116821428D01*
X159821428Y-116964285D01*
X159821428Y-117392857D01*
X159892857Y-117535714D01*
X159964285Y-117607142D01*
X160107142Y-117678571D01*
X160392857Y-117678571D01*
X160535714Y-117607142D01*
X158607142Y-117607142D02*
X158750000Y-117678571D01*
X159035714Y-117678571D01*
X159178571Y-117607142D01*
X159250000Y-117464285D01*
X159250000Y-116892857D01*
X159178571Y-116750000D01*
X159035714Y-116678571D01*
X158750000Y-116678571D01*
X158607142Y-116750000D01*
X158535714Y-116892857D01*
X158535714Y-117035714D01*
X159250000Y-117178571D01*
X157892857Y-116678571D02*
X157892857Y-117678571D01*
X157892857Y-116821428D02*
X157821428Y-116750000D01*
X157678571Y-116678571D01*
X157464285Y-116678571D01*
X157321428Y-116750000D01*
X157250000Y-116892857D01*
X157250000Y-117678571D01*
X156607142Y-117607142D02*
X156392857Y-117678571D01*
X156035714Y-117678571D01*
X155892857Y-117607142D01*
X155821428Y-117535714D01*
X155750000Y-117392857D01*
X155750000Y-117250000D01*
X155821428Y-117107142D01*
X155892857Y-117035714D01*
X156035714Y-116964285D01*
X156321428Y-116892857D01*
X156464285Y-116821428D01*
X156535714Y-116750000D01*
X156607142Y-116607142D01*
X156607142Y-116464285D01*
X156535714Y-116321428D01*
X156464285Y-116250000D01*
X156321428Y-116178571D01*
X155964285Y-116178571D01*
X155750000Y-116250000D01*
X154892857Y-117678571D02*
X155035714Y-117607142D01*
X155107142Y-117535714D01*
X155178571Y-117392857D01*
X155178571Y-116964285D01*
X155107142Y-116821428D01*
X155035714Y-116750000D01*
X154892857Y-116678571D01*
X154678571Y-116678571D01*
X154535714Y-116750000D01*
X154464285Y-116821428D01*
X154392857Y-116964285D01*
X154392857Y-117392857D01*
X154464285Y-117535714D01*
X154535714Y-117607142D01*
X154678571Y-117678571D01*
X154892857Y-117678571D01*
X153107142Y-116678571D02*
X153107142Y-117678571D01*
X153750000Y-116678571D02*
X153750000Y-117464285D01*
X153678571Y-117607142D01*
X153535714Y-117678571D01*
X153321428Y-117678571D01*
X153178571Y-117607142D01*
X153107142Y-117535714D01*
X152392857Y-117678571D02*
X152392857Y-116678571D01*
X152392857Y-116964285D02*
X152321428Y-116821428D01*
X152250000Y-116750000D01*
X152107142Y-116678571D01*
X151964285Y-116678571D01*
X150821428Y-117607142D02*
X150964285Y-117678571D01*
X151250000Y-117678571D01*
X151392857Y-117607142D01*
X151464285Y-117535714D01*
X151535714Y-117392857D01*
X151535714Y-116964285D01*
X151464285Y-116821428D01*
X151392857Y-116750000D01*
X151250000Y-116678571D01*
X150964285Y-116678571D01*
X150821428Y-116750000D01*
X149607142Y-117607142D02*
X149750000Y-117678571D01*
X150035714Y-117678571D01*
X150178571Y-117607142D01*
X150250000Y-117464285D01*
X150250000Y-116892857D01*
X150178571Y-116750000D01*
X150035714Y-116678571D01*
X149750000Y-116678571D01*
X149607142Y-116750000D01*
X149535714Y-116892857D01*
X149535714Y-117035714D01*
X150250000Y-117178571D01*
X148892857Y-117678571D02*
X148892857Y-116178571D01*
X148321428Y-116178571D01*
X148178571Y-116250000D01*
X148107142Y-116321428D01*
X148035714Y-116464285D01*
X148035714Y-116678571D01*
X148107142Y-116821428D01*
X148178571Y-116892857D01*
X148321428Y-116964285D01*
X148892857Y-116964285D01*
X147464285Y-117607142D02*
X147250000Y-117678571D01*
X146892857Y-117678571D01*
X146750000Y-117607142D01*
X146678571Y-117535714D01*
X146607142Y-117392857D01*
X146607142Y-117250000D01*
X146678571Y-117107142D01*
X146750000Y-117035714D01*
X146892857Y-116964285D01*
X147178571Y-116892857D01*
X147321428Y-116821428D01*
X147392857Y-116750000D01*
X147464285Y-116607142D01*
X147464285Y-116464285D01*
X147392857Y-116321428D01*
X147321428Y-116250000D01*
X147178571Y-116178571D01*
X146821428Y-116178571D01*
X146607142Y-116250000D01*
X145964285Y-116178571D02*
X145964285Y-117392857D01*
X145892857Y-117535714D01*
X145821428Y-117607142D01*
X145678571Y-117678571D01*
X145392857Y-117678571D01*
X145250000Y-117607142D01*
X145178571Y-117535714D01*
X145107142Y-117392857D01*
X145107142Y-116178571D01*
X177321428Y-114607142D02*
X177107142Y-114678571D01*
X176750000Y-114678571D01*
X176607142Y-114607142D01*
X176535714Y-114535714D01*
X176464285Y-114392857D01*
X176464285Y-114250000D01*
X176535714Y-114107142D01*
X176607142Y-114035714D01*
X176750000Y-113964285D01*
X177035714Y-113892857D01*
X177178571Y-113821428D01*
X177250000Y-113750000D01*
X177321428Y-113607142D01*
X177321428Y-113464285D01*
X177250000Y-113321428D01*
X177178571Y-113250000D01*
X177035714Y-113178571D01*
X176678571Y-113178571D01*
X176464285Y-113250000D01*
X175178571Y-114607142D02*
X175321428Y-114678571D01*
X175607142Y-114678571D01*
X175750000Y-114607142D01*
X175821428Y-114535714D01*
X175892857Y-114392857D01*
X175892857Y-113964285D01*
X175821428Y-113821428D01*
X175750000Y-113750000D01*
X175607142Y-113678571D01*
X175321428Y-113678571D01*
X175178571Y-113750000D01*
X174535714Y-114678571D02*
X174535714Y-113178571D01*
X173892857Y-114678571D02*
X173892857Y-113892857D01*
X173964285Y-113750000D01*
X174107142Y-113678571D01*
X174321428Y-113678571D01*
X174464285Y-113750000D01*
X174535714Y-113821428D01*
X172607142Y-114607142D02*
X172750000Y-114678571D01*
X173035714Y-114678571D01*
X173178571Y-114607142D01*
X173250000Y-114464285D01*
X173250000Y-113892857D01*
X173178571Y-113750000D01*
X173035714Y-113678571D01*
X172750000Y-113678571D01*
X172607142Y-113750000D01*
X172535714Y-113892857D01*
X172535714Y-114035714D01*
X173250000Y-114178571D01*
X171892857Y-114678571D02*
X171892857Y-113678571D01*
X171892857Y-113821428D02*
X171821428Y-113750000D01*
X171678571Y-113678571D01*
X171464285Y-113678571D01*
X171321428Y-113750000D01*
X171250000Y-113892857D01*
X171250000Y-114678571D01*
X171250000Y-113892857D02*
X171178571Y-113750000D01*
X171035714Y-113678571D01*
X170821428Y-113678571D01*
X170678571Y-113750000D01*
X170607142Y-113892857D01*
X170607142Y-114678571D01*
X169250000Y-114678571D02*
X169250000Y-113892857D01*
X169321428Y-113750000D01*
X169464285Y-113678571D01*
X169750000Y-113678571D01*
X169892857Y-113750000D01*
X169250000Y-114607142D02*
X169392857Y-114678571D01*
X169750000Y-114678571D01*
X169892857Y-114607142D01*
X169964285Y-114464285D01*
X169964285Y-114321428D01*
X169892857Y-114178571D01*
X169750000Y-114107142D01*
X169392857Y-114107142D01*
X169250000Y-114035714D01*
X168750000Y-113678571D02*
X168178571Y-113678571D01*
X168535714Y-113178571D02*
X168535714Y-114464285D01*
X168464285Y-114607142D01*
X168321428Y-114678571D01*
X168178571Y-114678571D01*
X167678571Y-114678571D02*
X167678571Y-113678571D01*
X167678571Y-113178571D02*
X167750000Y-113250000D01*
X167678571Y-113321428D01*
X167607142Y-113250000D01*
X167678571Y-113178571D01*
X167678571Y-113321428D01*
X166321428Y-114607142D02*
X166464285Y-114678571D01*
X166750000Y-114678571D01*
X166892857Y-114607142D01*
X166964285Y-114535714D01*
X167035714Y-114392857D01*
X167035714Y-113964285D01*
X166964285Y-113821428D01*
X166892857Y-113750000D01*
X166750000Y-113678571D01*
X166464285Y-113678571D01*
X166321428Y-113750000D01*
X165607142Y-114607142D02*
X165607142Y-114678571D01*
X165678571Y-114821428D01*
X165750000Y-114892857D01*
X163821428Y-114678571D02*
X163821428Y-113178571D01*
X163821428Y-113750000D02*
X163678571Y-113678571D01*
X163392857Y-113678571D01*
X163250000Y-113750000D01*
X163178571Y-113821428D01*
X163107142Y-113964285D01*
X163107142Y-114392857D01*
X163178571Y-114535714D01*
X163250000Y-114607142D01*
X163392857Y-114678571D01*
X163678571Y-114678571D01*
X163821428Y-114607142D01*
X162250000Y-114678571D02*
X162392857Y-114607142D01*
X162464285Y-114535714D01*
X162535714Y-114392857D01*
X162535714Y-113964285D01*
X162464285Y-113821428D01*
X162392857Y-113750000D01*
X162250000Y-113678571D01*
X162035714Y-113678571D01*
X161892857Y-113750000D01*
X161821428Y-113821428D01*
X161750000Y-113964285D01*
X161750000Y-114392857D01*
X161821428Y-114535714D01*
X161892857Y-114607142D01*
X162035714Y-114678571D01*
X162250000Y-114678571D01*
X160464285Y-114678571D02*
X160464285Y-113892857D01*
X160535714Y-113750000D01*
X160678571Y-113678571D01*
X160964285Y-113678571D01*
X161107142Y-113750000D01*
X160464285Y-114607142D02*
X160607142Y-114678571D01*
X160964285Y-114678571D01*
X161107142Y-114607142D01*
X161178571Y-114464285D01*
X161178571Y-114321428D01*
X161107142Y-114178571D01*
X160964285Y-114107142D01*
X160607142Y-114107142D01*
X160464285Y-114035714D01*
X159750000Y-114678571D02*
X159750000Y-113678571D01*
X159750000Y-113964285D02*
X159678571Y-113821428D01*
X159607142Y-113750000D01*
X159464285Y-113678571D01*
X159321428Y-113678571D01*
X158178571Y-114678571D02*
X158178571Y-113178571D01*
X158178571Y-114607142D02*
X158321428Y-114678571D01*
X158607142Y-114678571D01*
X158750000Y-114607142D01*
X158821428Y-114535714D01*
X158892857Y-114392857D01*
X158892857Y-113964285D01*
X158821428Y-113821428D01*
X158750000Y-113750000D01*
X158607142Y-113678571D01*
X158321428Y-113678571D01*
X158178571Y-113750000D01*
X155678571Y-114678571D02*
X155678571Y-113892857D01*
X155750000Y-113750000D01*
X155892857Y-113678571D01*
X156178571Y-113678571D01*
X156321428Y-113750000D01*
X155678571Y-114607142D02*
X155821428Y-114678571D01*
X156178571Y-114678571D01*
X156321428Y-114607142D01*
X156392857Y-114464285D01*
X156392857Y-114321428D01*
X156321428Y-114178571D01*
X156178571Y-114107142D01*
X155821428Y-114107142D01*
X155678571Y-114035714D01*
X154964285Y-113678571D02*
X154964285Y-114678571D01*
X154964285Y-113821428D02*
X154892857Y-113750000D01*
X154750000Y-113678571D01*
X154535714Y-113678571D01*
X154392857Y-113750000D01*
X154321428Y-113892857D01*
X154321428Y-114678571D01*
X152964285Y-114678571D02*
X152964285Y-113178571D01*
X152964285Y-114607142D02*
X153107142Y-114678571D01*
X153392857Y-114678571D01*
X153535714Y-114607142D01*
X153607142Y-114535714D01*
X153678571Y-114392857D01*
X153678571Y-113964285D01*
X153607142Y-113821428D01*
X153535714Y-113750000D01*
X153392857Y-113678571D01*
X153107142Y-113678571D01*
X152964285Y-113750000D01*
X151178571Y-114607142D02*
X151035714Y-114678571D01*
X150750000Y-114678571D01*
X150607142Y-114607142D01*
X150535714Y-114464285D01*
X150535714Y-114392857D01*
X150607142Y-114250000D01*
X150750000Y-114178571D01*
X150964285Y-114178571D01*
X151107142Y-114107142D01*
X151178571Y-113964285D01*
X151178571Y-113892857D01*
X151107142Y-113750000D01*
X150964285Y-113678571D01*
X150750000Y-113678571D01*
X150607142Y-113750000D01*
X149678571Y-114678571D02*
X149821428Y-114607142D01*
X149892857Y-114535714D01*
X149964285Y-114392857D01*
X149964285Y-113964285D01*
X149892857Y-113821428D01*
X149821428Y-113750000D01*
X149678571Y-113678571D01*
X149464285Y-113678571D01*
X149321428Y-113750000D01*
X149250000Y-113821428D01*
X149178571Y-113964285D01*
X149178571Y-114392857D01*
X149250000Y-114535714D01*
X149321428Y-114607142D01*
X149464285Y-114678571D01*
X149678571Y-114678571D01*
X148750000Y-113678571D02*
X148178571Y-113678571D01*
X148535714Y-114678571D02*
X148535714Y-113392857D01*
X148464285Y-113250000D01*
X148321428Y-113178571D01*
X148178571Y-113178571D01*
X147892857Y-113678571D02*
X147321428Y-113678571D01*
X147678571Y-113178571D02*
X147678571Y-114464285D01*
X147607142Y-114607142D01*
X147464285Y-114678571D01*
X147321428Y-114678571D01*
X146964285Y-113678571D02*
X146678571Y-114678571D01*
X146392857Y-113964285D01*
X146107142Y-114678571D01*
X145821428Y-113678571D01*
X144607142Y-114678571D02*
X144607142Y-113892857D01*
X144678571Y-113750000D01*
X144821428Y-113678571D01*
X145107142Y-113678571D01*
X145250000Y-113750000D01*
X144607142Y-114607142D02*
X144750000Y-114678571D01*
X145107142Y-114678571D01*
X145250000Y-114607142D01*
X145321428Y-114464285D01*
X145321428Y-114321428D01*
X145250000Y-114178571D01*
X145107142Y-114107142D01*
X144750000Y-114107142D01*
X144607142Y-114035714D01*
X143892857Y-114678571D02*
X143892857Y-113678571D01*
X143892857Y-113964285D02*
X143821428Y-113821428D01*
X143750000Y-113750000D01*
X143607142Y-113678571D01*
X143464285Y-113678571D01*
X142392857Y-114607142D02*
X142535714Y-114678571D01*
X142821428Y-114678571D01*
X142964285Y-114607142D01*
X143035714Y-114464285D01*
X143035714Y-113892857D01*
X142964285Y-113750000D01*
X142821428Y-113678571D01*
X142535714Y-113678571D01*
X142392857Y-113750000D01*
X142321428Y-113892857D01*
X142321428Y-114035714D01*
X143035714Y-114178571D01*
X139892857Y-114678571D02*
X139892857Y-113892857D01*
X139964285Y-113750000D01*
X140107142Y-113678571D01*
X140392857Y-113678571D01*
X140535714Y-113750000D01*
X139892857Y-114607142D02*
X140035714Y-114678571D01*
X140392857Y-114678571D01*
X140535714Y-114607142D01*
X140607142Y-114464285D01*
X140607142Y-114321428D01*
X140535714Y-114178571D01*
X140392857Y-114107142D01*
X140035714Y-114107142D01*
X139892857Y-114035714D01*
X139321428Y-113678571D02*
X138964285Y-114678571D01*
X138607142Y-113678571D01*
X137392857Y-114678571D02*
X137392857Y-113892857D01*
X137464285Y-113750000D01*
X137607142Y-113678571D01*
X137892857Y-113678571D01*
X138035714Y-113750000D01*
X137392857Y-114607142D02*
X137535714Y-114678571D01*
X137892857Y-114678571D01*
X138035714Y-114607142D01*
X138107142Y-114464285D01*
X138107142Y-114321428D01*
X138035714Y-114178571D01*
X137892857Y-114107142D01*
X137535714Y-114107142D01*
X137392857Y-114035714D01*
X136678571Y-114678571D02*
X136678571Y-113678571D01*
X136678571Y-113178571D02*
X136750000Y-113250000D01*
X136678571Y-113321428D01*
X136607142Y-113250000D01*
X136678571Y-113178571D01*
X136678571Y-113321428D01*
X135750000Y-114678571D02*
X135892857Y-114607142D01*
X135964285Y-114464285D01*
X135964285Y-113178571D01*
X134535714Y-114678571D02*
X134535714Y-113892857D01*
X134607142Y-113750000D01*
X134750000Y-113678571D01*
X135035714Y-113678571D01*
X135178571Y-113750000D01*
X134535714Y-114607142D02*
X134678571Y-114678571D01*
X135035714Y-114678571D01*
X135178571Y-114607142D01*
X135250000Y-114464285D01*
X135250000Y-114321428D01*
X135178571Y-114178571D01*
X135035714Y-114107142D01*
X134678571Y-114107142D01*
X134535714Y-114035714D01*
X133821428Y-114678571D02*
X133821428Y-113178571D01*
X133821428Y-113750000D02*
X133678571Y-113678571D01*
X133392857Y-113678571D01*
X133250000Y-113750000D01*
X133178571Y-113821428D01*
X133107142Y-113964285D01*
X133107142Y-114392857D01*
X133178571Y-114535714D01*
X133250000Y-114607142D01*
X133392857Y-114678571D01*
X133678571Y-114678571D01*
X133821428Y-114607142D01*
X132250000Y-114678571D02*
X132392857Y-114607142D01*
X132464285Y-114464285D01*
X132464285Y-113178571D01*
X131107142Y-114607142D02*
X131250000Y-114678571D01*
X131535714Y-114678571D01*
X131678571Y-114607142D01*
X131750000Y-114464285D01*
X131750000Y-113892857D01*
X131678571Y-113750000D01*
X131535714Y-113678571D01*
X131250000Y-113678571D01*
X131107142Y-113750000D01*
X131035714Y-113892857D01*
X131035714Y-114035714D01*
X131750000Y-114178571D01*
X129035714Y-114678571D02*
X129178571Y-114607142D01*
X129250000Y-114535714D01*
X129321428Y-114392857D01*
X129321428Y-113964285D01*
X129250000Y-113821428D01*
X129178571Y-113750000D01*
X129035714Y-113678571D01*
X128821428Y-113678571D01*
X128678571Y-113750000D01*
X128607142Y-113821428D01*
X128535714Y-113964285D01*
X128535714Y-114392857D01*
X128607142Y-114535714D01*
X128678571Y-114607142D01*
X128821428Y-114678571D01*
X129035714Y-114678571D01*
X127892857Y-113678571D02*
X127892857Y-114678571D01*
X127892857Y-113821428D02*
X127821428Y-113750000D01*
X127678571Y-113678571D01*
X127464285Y-113678571D01*
X127321428Y-113750000D01*
X127250000Y-113892857D01*
X127250000Y-114678571D01*
X124607142Y-113250000D02*
X124750000Y-113178571D01*
X124964285Y-113178571D01*
X125178571Y-113250000D01*
X125321428Y-113392857D01*
X125392857Y-113535714D01*
X125464285Y-113821428D01*
X125464285Y-114035714D01*
X125392857Y-114321428D01*
X125321428Y-114464285D01*
X125178571Y-114607142D01*
X124964285Y-114678571D01*
X124821428Y-114678571D01*
X124607142Y-114607142D01*
X124535714Y-114535714D01*
X124535714Y-114035714D01*
X124821428Y-114035714D01*
X123892857Y-114678571D02*
X123892857Y-113678571D01*
X123892857Y-113178571D02*
X123964285Y-113250000D01*
X123892857Y-113321428D01*
X123821428Y-113250000D01*
X123892857Y-113178571D01*
X123892857Y-113321428D01*
X123392857Y-113678571D02*
X122821428Y-113678571D01*
X123178571Y-113178571D02*
X123178571Y-114464285D01*
X123107142Y-114607142D01*
X122964285Y-114678571D01*
X122821428Y-114678571D01*
X122321428Y-114678571D02*
X122321428Y-113178571D01*
X122321428Y-113892857D02*
X121464285Y-113892857D01*
X121464285Y-114678571D02*
X121464285Y-113178571D01*
X120107142Y-113678571D02*
X120107142Y-114678571D01*
X120750000Y-113678571D02*
X120750000Y-114464285D01*
X120678571Y-114607142D01*
X120535714Y-114678571D01*
X120321428Y-114678571D01*
X120178571Y-114607142D01*
X120107142Y-114535714D01*
X119392857Y-114678571D02*
X119392857Y-113178571D01*
X119392857Y-113750000D02*
X119250000Y-113678571D01*
X118964285Y-113678571D01*
X118821428Y-113750000D01*
X118750000Y-113821428D01*
X118678571Y-113964285D01*
X118678571Y-114392857D01*
X118750000Y-114535714D01*
X118821428Y-114607142D01*
X118964285Y-114678571D01*
X119250000Y-114678571D01*
X119392857Y-114607142D01*
X176714285Y-111678571D02*
X176714285Y-110178571D01*
X176357142Y-110178571D01*
X176142857Y-110250000D01*
X176000000Y-110392857D01*
X175928571Y-110535714D01*
X175857142Y-110821428D01*
X175857142Y-111035714D01*
X175928571Y-111321428D01*
X176000000Y-111464285D01*
X176142857Y-111607142D01*
X176357142Y-111678571D01*
X176714285Y-111678571D01*
X174642857Y-111607142D02*
X174785714Y-111678571D01*
X175071428Y-111678571D01*
X175214285Y-111607142D01*
X175285714Y-111464285D01*
X175285714Y-110892857D01*
X175214285Y-110750000D01*
X175071428Y-110678571D01*
X174785714Y-110678571D01*
X174642857Y-110750000D01*
X174571428Y-110892857D01*
X174571428Y-111035714D01*
X175285714Y-111178571D01*
X174000000Y-111607142D02*
X173857142Y-111678571D01*
X173571428Y-111678571D01*
X173428571Y-111607142D01*
X173357142Y-111464285D01*
X173357142Y-111392857D01*
X173428571Y-111250000D01*
X173571428Y-111178571D01*
X173785714Y-111178571D01*
X173928571Y-111107142D01*
X174000000Y-110964285D01*
X174000000Y-110892857D01*
X173928571Y-110750000D01*
X173785714Y-110678571D01*
X173571428Y-110678571D01*
X173428571Y-110750000D01*
X172714285Y-111678571D02*
X172714285Y-110678571D01*
X172714285Y-110178571D02*
X172785714Y-110250000D01*
X172714285Y-110321428D01*
X172642857Y-110250000D01*
X172714285Y-110178571D01*
X172714285Y-110321428D01*
X171357142Y-110678571D02*
X171357142Y-111892857D01*
X171428571Y-112035714D01*
X171500000Y-112107142D01*
X171642857Y-112178571D01*
X171857142Y-112178571D01*
X172000000Y-112107142D01*
X171357142Y-111607142D02*
X171500000Y-111678571D01*
X171785714Y-111678571D01*
X171928571Y-111607142D01*
X172000000Y-111535714D01*
X172071428Y-111392857D01*
X172071428Y-110964285D01*
X172000000Y-110821428D01*
X171928571Y-110750000D01*
X171785714Y-110678571D01*
X171500000Y-110678571D01*
X171357142Y-110750000D01*
X170642857Y-110678571D02*
X170642857Y-111678571D01*
X170642857Y-110821428D02*
X170571428Y-110750000D01*
X170428571Y-110678571D01*
X170214285Y-110678571D01*
X170071428Y-110750000D01*
X170000000Y-110892857D01*
X170000000Y-111678571D01*
X168714285Y-111607142D02*
X168857142Y-111678571D01*
X169142857Y-111678571D01*
X169285714Y-111607142D01*
X169357142Y-111464285D01*
X169357142Y-110892857D01*
X169285714Y-110750000D01*
X169142857Y-110678571D01*
X168857142Y-110678571D01*
X168714285Y-110750000D01*
X168642857Y-110892857D01*
X168642857Y-111035714D01*
X169357142Y-111178571D01*
X167357142Y-111678571D02*
X167357142Y-110178571D01*
X167357142Y-111607142D02*
X167500000Y-111678571D01*
X167785714Y-111678571D01*
X167928571Y-111607142D01*
X168000000Y-111535714D01*
X168071428Y-111392857D01*
X168071428Y-110964285D01*
X168000000Y-110821428D01*
X167928571Y-110750000D01*
X167785714Y-110678571D01*
X167500000Y-110678571D01*
X167357142Y-110750000D01*
X164857142Y-111678571D02*
X164857142Y-110892857D01*
X164928571Y-110750000D01*
X165071428Y-110678571D01*
X165357142Y-110678571D01*
X165500000Y-110750000D01*
X164857142Y-111607142D02*
X165000000Y-111678571D01*
X165357142Y-111678571D01*
X165500000Y-111607142D01*
X165571428Y-111464285D01*
X165571428Y-111321428D01*
X165500000Y-111178571D01*
X165357142Y-111107142D01*
X165000000Y-111107142D01*
X164857142Y-111035714D01*
X164214285Y-111607142D02*
X164071428Y-111678571D01*
X163785714Y-111678571D01*
X163642857Y-111607142D01*
X163571428Y-111464285D01*
X163571428Y-111392857D01*
X163642857Y-111250000D01*
X163785714Y-111178571D01*
X164000000Y-111178571D01*
X164142857Y-111107142D01*
X164214285Y-110964285D01*
X164214285Y-110892857D01*
X164142857Y-110750000D01*
X164000000Y-110678571D01*
X163785714Y-110678571D01*
X163642857Y-110750000D01*
X161571428Y-111678571D02*
X161714285Y-111607142D01*
X161785714Y-111535714D01*
X161857142Y-111392857D01*
X161857142Y-110964285D01*
X161785714Y-110821428D01*
X161714285Y-110750000D01*
X161571428Y-110678571D01*
X161357142Y-110678571D01*
X161214285Y-110750000D01*
X161142857Y-110821428D01*
X161071428Y-110964285D01*
X161071428Y-111392857D01*
X161142857Y-111535714D01*
X161214285Y-111607142D01*
X161357142Y-111678571D01*
X161571428Y-111678571D01*
X160428571Y-110678571D02*
X160428571Y-112178571D01*
X160428571Y-110750000D02*
X160285714Y-110678571D01*
X160000000Y-110678571D01*
X159857142Y-110750000D01*
X159785714Y-110821428D01*
X159714285Y-110964285D01*
X159714285Y-111392857D01*
X159785714Y-111535714D01*
X159857142Y-111607142D01*
X160000000Y-111678571D01*
X160285714Y-111678571D01*
X160428571Y-111607142D01*
X158500000Y-111607142D02*
X158642857Y-111678571D01*
X158928571Y-111678571D01*
X159071428Y-111607142D01*
X159142857Y-111464285D01*
X159142857Y-110892857D01*
X159071428Y-110750000D01*
X158928571Y-110678571D01*
X158642857Y-110678571D01*
X158500000Y-110750000D01*
X158428571Y-110892857D01*
X158428571Y-111035714D01*
X159142857Y-111178571D01*
X157785714Y-110678571D02*
X157785714Y-111678571D01*
X157785714Y-110821428D02*
X157714285Y-110750000D01*
X157571428Y-110678571D01*
X157357142Y-110678571D01*
X157214285Y-110750000D01*
X157142857Y-110892857D01*
X157142857Y-111678571D01*
X155357142Y-111607142D02*
X155214285Y-111678571D01*
X154928571Y-111678571D01*
X154785714Y-111607142D01*
X154714285Y-111464285D01*
X154714285Y-111392857D01*
X154785714Y-111250000D01*
X154928571Y-111178571D01*
X155142857Y-111178571D01*
X155285714Y-111107142D01*
X155357142Y-110964285D01*
X155357142Y-110892857D01*
X155285714Y-110750000D01*
X155142857Y-110678571D01*
X154928571Y-110678571D01*
X154785714Y-110750000D01*
X153857142Y-111678571D02*
X154000000Y-111607142D01*
X154071428Y-111535714D01*
X154142857Y-111392857D01*
X154142857Y-110964285D01*
X154071428Y-110821428D01*
X154000000Y-110750000D01*
X153857142Y-110678571D01*
X153642857Y-110678571D01*
X153500000Y-110750000D01*
X153428571Y-110821428D01*
X153357142Y-110964285D01*
X153357142Y-111392857D01*
X153428571Y-111535714D01*
X153500000Y-111607142D01*
X153642857Y-111678571D01*
X153857142Y-111678571D01*
X152071428Y-110678571D02*
X152071428Y-111678571D01*
X152714285Y-110678571D02*
X152714285Y-111464285D01*
X152642857Y-111607142D01*
X152500000Y-111678571D01*
X152285714Y-111678571D01*
X152142857Y-111607142D01*
X152071428Y-111535714D01*
X151357142Y-111678571D02*
X151357142Y-110678571D01*
X151357142Y-110964285D02*
X151285714Y-110821428D01*
X151214285Y-110750000D01*
X151071428Y-110678571D01*
X150928571Y-110678571D01*
X149785714Y-111607142D02*
X149928571Y-111678571D01*
X150214285Y-111678571D01*
X150357142Y-111607142D01*
X150428571Y-111535714D01*
X150500000Y-111392857D01*
X150500000Y-110964285D01*
X150428571Y-110821428D01*
X150357142Y-110750000D01*
X150214285Y-110678571D01*
X149928571Y-110678571D01*
X149785714Y-110750000D01*
X148571428Y-111607142D02*
X148714285Y-111678571D01*
X149000000Y-111678571D01*
X149142857Y-111607142D01*
X149214285Y-111464285D01*
X149214285Y-110892857D01*
X149142857Y-110750000D01*
X149000000Y-110678571D01*
X148714285Y-110678571D01*
X148571428Y-110750000D01*
X148500000Y-110892857D01*
X148500000Y-111035714D01*
X149214285Y-111178571D01*
X146714285Y-111678571D02*
X146714285Y-110178571D01*
X146071428Y-111678571D02*
X146071428Y-110892857D01*
X146142857Y-110750000D01*
X146285714Y-110678571D01*
X146500000Y-110678571D01*
X146642857Y-110750000D01*
X146714285Y-110821428D01*
X144714285Y-111678571D02*
X144714285Y-110892857D01*
X144785714Y-110750000D01*
X144928571Y-110678571D01*
X145214285Y-110678571D01*
X145357142Y-110750000D01*
X144714285Y-111607142D02*
X144857142Y-111678571D01*
X145214285Y-111678571D01*
X145357142Y-111607142D01*
X145428571Y-111464285D01*
X145428571Y-111321428D01*
X145357142Y-111178571D01*
X145214285Y-111107142D01*
X144857142Y-111107142D01*
X144714285Y-111035714D01*
X144000000Y-111678571D02*
X144000000Y-110678571D01*
X144000000Y-110964285D02*
X143928571Y-110821428D01*
X143857142Y-110750000D01*
X143714285Y-110678571D01*
X143571428Y-110678571D01*
X142428571Y-111678571D02*
X142428571Y-110178571D01*
X142428571Y-111607142D02*
X142571428Y-111678571D01*
X142857142Y-111678571D01*
X143000000Y-111607142D01*
X143071428Y-111535714D01*
X143142857Y-111392857D01*
X143142857Y-110964285D01*
X143071428Y-110821428D01*
X143000000Y-110750000D01*
X142857142Y-110678571D01*
X142571428Y-110678571D01*
X142428571Y-110750000D01*
X141857142Y-110678571D02*
X141571428Y-111678571D01*
X141285714Y-110964285D01*
X141000000Y-111678571D01*
X140714285Y-110678571D01*
X139500000Y-111678571D02*
X139500000Y-110892857D01*
X139571428Y-110750000D01*
X139714285Y-110678571D01*
X140000000Y-110678571D01*
X140142857Y-110750000D01*
X139500000Y-111607142D02*
X139642857Y-111678571D01*
X140000000Y-111678571D01*
X140142857Y-111607142D01*
X140214285Y-111464285D01*
X140214285Y-111321428D01*
X140142857Y-111178571D01*
X140000000Y-111107142D01*
X139642857Y-111107142D01*
X139500000Y-111035714D01*
X138785714Y-111678571D02*
X138785714Y-110678571D01*
X138785714Y-110964285D02*
X138714285Y-110821428D01*
X138642857Y-110750000D01*
X138500000Y-110678571D01*
X138357142Y-110678571D01*
X137285714Y-111607142D02*
X137428571Y-111678571D01*
X137714285Y-111678571D01*
X137857142Y-111607142D01*
X137928571Y-111464285D01*
X137928571Y-110892857D01*
X137857142Y-110750000D01*
X137714285Y-110678571D01*
X137428571Y-110678571D01*
X137285714Y-110750000D01*
X137214285Y-110892857D01*
X137214285Y-111035714D01*
X137928571Y-111178571D01*
X175571428Y-101892857D02*
X176071428Y-101892857D01*
X176071428Y-102678571D02*
X176071428Y-101178571D01*
X175357142Y-101178571D01*
X174785714Y-102678571D02*
X174785714Y-101678571D01*
X174785714Y-101178571D02*
X174857142Y-101250000D01*
X174785714Y-101321428D01*
X174714285Y-101250000D01*
X174785714Y-101178571D01*
X174785714Y-101321428D01*
X174071428Y-101678571D02*
X174071428Y-102678571D01*
X174071428Y-101821428D02*
X174000000Y-101750000D01*
X173857142Y-101678571D01*
X173642857Y-101678571D01*
X173500000Y-101750000D01*
X173428571Y-101892857D01*
X173428571Y-102678571D01*
X172071428Y-102678571D02*
X172071428Y-101178571D01*
X172071428Y-102607142D02*
X172214285Y-102678571D01*
X172500000Y-102678571D01*
X172642857Y-102607142D01*
X172714285Y-102535714D01*
X172785714Y-102392857D01*
X172785714Y-101964285D01*
X172714285Y-101821428D01*
X172642857Y-101750000D01*
X172500000Y-101678571D01*
X172214285Y-101678571D01*
X172071428Y-101750000D01*
X170000000Y-102678571D02*
X170142857Y-102607142D01*
X170214285Y-102535714D01*
X170285714Y-102392857D01*
X170285714Y-101964285D01*
X170214285Y-101821428D01*
X170142857Y-101750000D01*
X170000000Y-101678571D01*
X169785714Y-101678571D01*
X169642857Y-101750000D01*
X169571428Y-101821428D01*
X169500000Y-101964285D01*
X169500000Y-102392857D01*
X169571428Y-102535714D01*
X169642857Y-102607142D01*
X169785714Y-102678571D01*
X170000000Y-102678571D01*
X168214285Y-101678571D02*
X168214285Y-102678571D01*
X168857142Y-101678571D02*
X168857142Y-102464285D01*
X168785714Y-102607142D01*
X168642857Y-102678571D01*
X168428571Y-102678571D01*
X168285714Y-102607142D01*
X168214285Y-102535714D01*
X167714285Y-101678571D02*
X167142857Y-101678571D01*
X167500000Y-101178571D02*
X167500000Y-102464285D01*
X167428571Y-102607142D01*
X167285714Y-102678571D01*
X167142857Y-102678571D01*
X165500000Y-102678571D02*
X165500000Y-101678571D01*
X165500000Y-101821428D02*
X165428571Y-101750000D01*
X165285714Y-101678571D01*
X165071428Y-101678571D01*
X164928571Y-101750000D01*
X164857142Y-101892857D01*
X164857142Y-102678571D01*
X164857142Y-101892857D02*
X164785714Y-101750000D01*
X164642857Y-101678571D01*
X164428571Y-101678571D01*
X164285714Y-101750000D01*
X164214285Y-101892857D01*
X164214285Y-102678571D01*
X163285714Y-102678571D02*
X163428571Y-102607142D01*
X163500000Y-102535714D01*
X163571428Y-102392857D01*
X163571428Y-101964285D01*
X163500000Y-101821428D01*
X163428571Y-101750000D01*
X163285714Y-101678571D01*
X163071428Y-101678571D01*
X162928571Y-101750000D01*
X162857142Y-101821428D01*
X162785714Y-101964285D01*
X162785714Y-102392857D01*
X162857142Y-102535714D01*
X162928571Y-102607142D01*
X163071428Y-102678571D01*
X163285714Y-102678571D01*
X162142857Y-102678571D02*
X162142857Y-101678571D01*
X162142857Y-101964285D02*
X162071428Y-101821428D01*
X162000000Y-101750000D01*
X161857142Y-101678571D01*
X161714285Y-101678571D01*
X160642857Y-102607142D02*
X160785714Y-102678571D01*
X161071428Y-102678571D01*
X161214285Y-102607142D01*
X161285714Y-102464285D01*
X161285714Y-101892857D01*
X161214285Y-101750000D01*
X161071428Y-101678571D01*
X160785714Y-101678571D01*
X160642857Y-101750000D01*
X160571428Y-101892857D01*
X160571428Y-102035714D01*
X161285714Y-102178571D01*
X158785714Y-102678571D02*
X158785714Y-101678571D01*
X158785714Y-101178571D02*
X158857142Y-101250000D01*
X158785714Y-101321428D01*
X158714285Y-101250000D01*
X158785714Y-101178571D01*
X158785714Y-101321428D01*
X158071428Y-101678571D02*
X158071428Y-102678571D01*
X158071428Y-101821428D02*
X158000000Y-101750000D01*
X157857142Y-101678571D01*
X157642857Y-101678571D01*
X157500000Y-101750000D01*
X157428571Y-101892857D01*
X157428571Y-102678571D01*
X156928571Y-101678571D02*
X156357142Y-101678571D01*
X156714285Y-102678571D02*
X156714285Y-101392857D01*
X156642857Y-101250000D01*
X156500000Y-101178571D01*
X156357142Y-101178571D01*
X155642857Y-102678571D02*
X155785714Y-102607142D01*
X155857142Y-102535714D01*
X155928571Y-102392857D01*
X155928571Y-101964285D01*
X155857142Y-101821428D01*
X155785714Y-101750000D01*
X155642857Y-101678571D01*
X155428571Y-101678571D01*
X155285714Y-101750000D01*
X155214285Y-101821428D01*
X155142857Y-101964285D01*
X155142857Y-102392857D01*
X155214285Y-102535714D01*
X155285714Y-102607142D01*
X155428571Y-102678571D01*
X155642857Y-102678571D01*
X154500000Y-102678571D02*
X154500000Y-101678571D01*
X154500000Y-101964285D02*
X154428571Y-101821428D01*
X154357142Y-101750000D01*
X154214285Y-101678571D01*
X154071428Y-101678571D01*
X153571428Y-102678571D02*
X153571428Y-101678571D01*
X153571428Y-101821428D02*
X153500000Y-101750000D01*
X153357142Y-101678571D01*
X153142857Y-101678571D01*
X153000000Y-101750000D01*
X152928571Y-101892857D01*
X152928571Y-102678571D01*
X152928571Y-101892857D02*
X152857142Y-101750000D01*
X152714285Y-101678571D01*
X152500000Y-101678571D01*
X152357142Y-101750000D01*
X152285714Y-101892857D01*
X152285714Y-102678571D01*
X150928571Y-102678571D02*
X150928571Y-101892857D01*
X151000000Y-101750000D01*
X151142857Y-101678571D01*
X151428571Y-101678571D01*
X151571428Y-101750000D01*
X150928571Y-102607142D02*
X151071428Y-102678571D01*
X151428571Y-102678571D01*
X151571428Y-102607142D01*
X151642857Y-102464285D01*
X151642857Y-102321428D01*
X151571428Y-102178571D01*
X151428571Y-102107142D01*
X151071428Y-102107142D01*
X150928571Y-102035714D01*
X150428571Y-101678571D02*
X149857142Y-101678571D01*
X150214285Y-101178571D02*
X150214285Y-102464285D01*
X150142857Y-102607142D01*
X150000000Y-102678571D01*
X149857142Y-102678571D01*
X149357142Y-102678571D02*
X149357142Y-101678571D01*
X149357142Y-101178571D02*
X149428571Y-101250000D01*
X149357142Y-101321428D01*
X149285714Y-101250000D01*
X149357142Y-101178571D01*
X149357142Y-101321428D01*
X148428571Y-102678571D02*
X148571428Y-102607142D01*
X148642857Y-102535714D01*
X148714285Y-102392857D01*
X148714285Y-101964285D01*
X148642857Y-101821428D01*
X148571428Y-101750000D01*
X148428571Y-101678571D01*
X148214285Y-101678571D01*
X148071428Y-101750000D01*
X148000000Y-101821428D01*
X147928571Y-101964285D01*
X147928571Y-102392857D01*
X148000000Y-102535714D01*
X148071428Y-102607142D01*
X148214285Y-102678571D01*
X148428571Y-102678571D01*
X147285714Y-101678571D02*
X147285714Y-102678571D01*
X147285714Y-101821428D02*
X147214285Y-101750000D01*
X147071428Y-101678571D01*
X146857142Y-101678571D01*
X146714285Y-101750000D01*
X146642857Y-101892857D01*
X146642857Y-102678571D01*
X144142857Y-102678571D02*
X144142857Y-101892857D01*
X144214285Y-101750000D01*
X144357142Y-101678571D01*
X144642857Y-101678571D01*
X144785714Y-101750000D01*
X144142857Y-102607142D02*
X144285714Y-102678571D01*
X144642857Y-102678571D01*
X144785714Y-102607142D01*
X144857142Y-102464285D01*
X144857142Y-102321428D01*
X144785714Y-102178571D01*
X144642857Y-102107142D01*
X144285714Y-102107142D01*
X144142857Y-102035714D01*
X143642857Y-101678571D02*
X143071428Y-101678571D01*
X143428571Y-101178571D02*
X143428571Y-102464285D01*
X143357142Y-102607142D01*
X143214285Y-102678571D01*
X143071428Y-102678571D01*
X141428571Y-102678571D02*
X141428571Y-101178571D01*
X140785714Y-102678571D02*
X140785714Y-101892857D01*
X140857142Y-101750000D01*
X141000000Y-101678571D01*
X141214285Y-101678571D01*
X141357142Y-101750000D01*
X141428571Y-101821428D01*
X140285714Y-101678571D02*
X139714285Y-101678571D01*
X140071428Y-101178571D02*
X140071428Y-102464285D01*
X140000000Y-102607142D01*
X139857142Y-102678571D01*
X139714285Y-102678571D01*
X139428571Y-101678571D02*
X138857142Y-101678571D01*
X139214285Y-101178571D02*
X139214285Y-102464285D01*
X139142857Y-102607142D01*
X139000000Y-102678571D01*
X138857142Y-102678571D01*
X138357142Y-101678571D02*
X138357142Y-103178571D01*
X138357142Y-101750000D02*
X138214285Y-101678571D01*
X137928571Y-101678571D01*
X137785714Y-101750000D01*
X137714285Y-101821428D01*
X137642857Y-101964285D01*
X137642857Y-102392857D01*
X137714285Y-102535714D01*
X137785714Y-102607142D01*
X137928571Y-102678571D01*
X138214285Y-102678571D01*
X138357142Y-102607142D01*
X137071428Y-102607142D02*
X136928571Y-102678571D01*
X136642857Y-102678571D01*
X136500000Y-102607142D01*
X136428571Y-102464285D01*
X136428571Y-102392857D01*
X136500000Y-102250000D01*
X136642857Y-102178571D01*
X136857142Y-102178571D01*
X137000000Y-102107142D01*
X137071428Y-101964285D01*
X137071428Y-101892857D01*
X137000000Y-101750000D01*
X136857142Y-101678571D01*
X136642857Y-101678571D01*
X136500000Y-101750000D01*
X135785714Y-102535714D02*
X135714285Y-102607142D01*
X135785714Y-102678571D01*
X135857142Y-102607142D01*
X135785714Y-102535714D01*
X135785714Y-102678571D01*
X135785714Y-101750000D02*
X135714285Y-101821428D01*
X135785714Y-101892857D01*
X135857142Y-101821428D01*
X135785714Y-101750000D01*
X135785714Y-101892857D01*
X133999999Y-101107142D02*
X135285714Y-103035714D01*
X132428571Y-101107142D02*
X133714285Y-103035714D01*
X131928571Y-102678571D02*
X131928571Y-101178571D01*
X131285714Y-102678571D02*
X131285714Y-101892857D01*
X131357142Y-101750000D01*
X131499999Y-101678571D01*
X131714285Y-101678571D01*
X131857142Y-101750000D01*
X131928571Y-101821428D01*
X129928571Y-102678571D02*
X129928571Y-101892857D01*
X129999999Y-101750000D01*
X130142857Y-101678571D01*
X130428571Y-101678571D01*
X130571428Y-101750000D01*
X129928571Y-102607142D02*
X130071428Y-102678571D01*
X130428571Y-102678571D01*
X130571428Y-102607142D01*
X130642857Y-102464285D01*
X130642857Y-102321428D01*
X130571428Y-102178571D01*
X130428571Y-102107142D01*
X130071428Y-102107142D01*
X129928571Y-102035714D01*
X129214285Y-102678571D02*
X129214285Y-101678571D01*
X129214285Y-101821428D02*
X129142857Y-101750000D01*
X128999999Y-101678571D01*
X128785714Y-101678571D01*
X128642857Y-101750000D01*
X128571428Y-101892857D01*
X128571428Y-102678571D01*
X128571428Y-101892857D02*
X128499999Y-101750000D01*
X128357142Y-101678571D01*
X128142857Y-101678571D01*
X127999999Y-101750000D01*
X127928571Y-101892857D01*
X127928571Y-102678571D01*
X127214285Y-102678571D02*
X127214285Y-101678571D01*
X127214285Y-101178571D02*
X127285714Y-101250000D01*
X127214285Y-101321428D01*
X127142857Y-101250000D01*
X127214285Y-101178571D01*
X127214285Y-101321428D01*
X126571428Y-102607142D02*
X126428571Y-102678571D01*
X126142857Y-102678571D01*
X125999999Y-102607142D01*
X125928571Y-102464285D01*
X125928571Y-102392857D01*
X125999999Y-102250000D01*
X126142857Y-102178571D01*
X126357142Y-102178571D01*
X126499999Y-102107142D01*
X126571428Y-101964285D01*
X126571428Y-101892857D01*
X126499999Y-101750000D01*
X126357142Y-101678571D01*
X126142857Y-101678571D01*
X125999999Y-101750000D01*
X125285714Y-102678571D02*
X125285714Y-101178571D01*
X124642857Y-102678571D02*
X124642857Y-101892857D01*
X124714285Y-101750000D01*
X124857142Y-101678571D01*
X125071428Y-101678571D01*
X125214285Y-101750000D01*
X125285714Y-101821428D01*
X123928571Y-102535714D02*
X123857142Y-102607142D01*
X123928571Y-102678571D01*
X123999999Y-102607142D01*
X123928571Y-102535714D01*
X123928571Y-102678571D01*
X123285714Y-102607142D02*
X123142857Y-102678571D01*
X122857142Y-102678571D01*
X122714285Y-102607142D01*
X122642857Y-102464285D01*
X122642857Y-102392857D01*
X122714285Y-102250000D01*
X122857142Y-102178571D01*
X123071428Y-102178571D01*
X123214285Y-102107142D01*
X123285714Y-101964285D01*
X123285714Y-101892857D01*
X123214285Y-101750000D01*
X123071428Y-101678571D01*
X122857142Y-101678571D01*
X122714285Y-101750000D01*
X121357142Y-102607142D02*
X121499999Y-102678571D01*
X121785714Y-102678571D01*
X121928571Y-102607142D01*
X121999999Y-102535714D01*
X122071428Y-102392857D01*
X122071428Y-101964285D01*
X121999999Y-101821428D01*
X121928571Y-101750000D01*
X121785714Y-101678571D01*
X121499999Y-101678571D01*
X121357142Y-101750000D01*
X120714285Y-102678571D02*
X120714285Y-101678571D01*
X120714285Y-101178571D02*
X120785714Y-101250000D01*
X120714285Y-101321428D01*
X120642857Y-101250000D01*
X120714285Y-101178571D01*
X120714285Y-101321428D01*
X119428571Y-102607142D02*
X119571428Y-102678571D01*
X119857142Y-102678571D01*
X119999999Y-102607142D01*
X120071428Y-102464285D01*
X120071428Y-101892857D01*
X119999999Y-101750000D01*
X119857142Y-101678571D01*
X119571428Y-101678571D01*
X119428571Y-101750000D01*
X119357142Y-101892857D01*
X119357142Y-102035714D01*
X120071428Y-102178571D01*
X118714285Y-101678571D02*
X118714285Y-102678571D01*
X118714285Y-101821428D02*
X118642857Y-101750000D01*
X118499999Y-101678571D01*
X118285714Y-101678571D01*
X118142857Y-101750000D01*
X118071428Y-101892857D01*
X118071428Y-102678571D01*
X116714285Y-102607142D02*
X116857142Y-102678571D01*
X117142857Y-102678571D01*
X117285714Y-102607142D01*
X117357142Y-102535714D01*
X117428571Y-102392857D01*
X117428571Y-101964285D01*
X117357142Y-101821428D01*
X117285714Y-101750000D01*
X117142857Y-101678571D01*
X116857142Y-101678571D01*
X116714285Y-101750000D01*
X115499999Y-102607142D02*
X115642857Y-102678571D01*
X115928571Y-102678571D01*
X116071428Y-102607142D01*
X116142857Y-102464285D01*
X116142857Y-101892857D01*
X116071428Y-101750000D01*
X115928571Y-101678571D01*
X115642857Y-101678571D01*
X115499999Y-101750000D01*
X115428571Y-101892857D01*
X115428571Y-102035714D01*
X116142857Y-102178571D01*
X113714285Y-101107142D02*
X114999999Y-103035714D01*
X176214285Y-98678571D02*
X176214285Y-97178571D01*
X175857142Y-97178571D01*
X175642857Y-97250000D01*
X175500000Y-97392857D01*
X175428571Y-97535714D01*
X175357142Y-97821428D01*
X175357142Y-98035714D01*
X175428571Y-98321428D01*
X175500000Y-98464285D01*
X175642857Y-98607142D01*
X175857142Y-98678571D01*
X176214285Y-98678571D01*
X174142857Y-98607142D02*
X174285714Y-98678571D01*
X174571428Y-98678571D01*
X174714285Y-98607142D01*
X174785714Y-98464285D01*
X174785714Y-97892857D01*
X174714285Y-97750000D01*
X174571428Y-97678571D01*
X174285714Y-97678571D01*
X174142857Y-97750000D01*
X174071428Y-97892857D01*
X174071428Y-98035714D01*
X174785714Y-98178571D01*
X173500000Y-98607142D02*
X173357142Y-98678571D01*
X173071428Y-98678571D01*
X172928571Y-98607142D01*
X172857142Y-98464285D01*
X172857142Y-98392857D01*
X172928571Y-98250000D01*
X173071428Y-98178571D01*
X173285714Y-98178571D01*
X173428571Y-98107142D01*
X173500000Y-97964285D01*
X173500000Y-97892857D01*
X173428571Y-97750000D01*
X173285714Y-97678571D01*
X173071428Y-97678571D01*
X172928571Y-97750000D01*
X172214285Y-98678571D02*
X172214285Y-97678571D01*
X172214285Y-97178571D02*
X172285714Y-97250000D01*
X172214285Y-97321428D01*
X172142857Y-97250000D01*
X172214285Y-97178571D01*
X172214285Y-97321428D01*
X170857142Y-97678571D02*
X170857142Y-98892857D01*
X170928571Y-99035714D01*
X171000000Y-99107142D01*
X171142857Y-99178571D01*
X171357142Y-99178571D01*
X171500000Y-99107142D01*
X170857142Y-98607142D02*
X171000000Y-98678571D01*
X171285714Y-98678571D01*
X171428571Y-98607142D01*
X171500000Y-98535714D01*
X171571428Y-98392857D01*
X171571428Y-97964285D01*
X171500000Y-97821428D01*
X171428571Y-97750000D01*
X171285714Y-97678571D01*
X171000000Y-97678571D01*
X170857142Y-97750000D01*
X170142857Y-97678571D02*
X170142857Y-98678571D01*
X170142857Y-97821428D02*
X170071428Y-97750000D01*
X169928571Y-97678571D01*
X169714285Y-97678571D01*
X169571428Y-97750000D01*
X169500000Y-97892857D01*
X169500000Y-98678571D01*
X168214285Y-98607142D02*
X168357142Y-98678571D01*
X168642857Y-98678571D01*
X168785714Y-98607142D01*
X168857142Y-98464285D01*
X168857142Y-97892857D01*
X168785714Y-97750000D01*
X168642857Y-97678571D01*
X168357142Y-97678571D01*
X168214285Y-97750000D01*
X168142857Y-97892857D01*
X168142857Y-98035714D01*
X168857142Y-98178571D01*
X166857142Y-98678571D02*
X166857142Y-97178571D01*
X166857142Y-98607142D02*
X167000000Y-98678571D01*
X167285714Y-98678571D01*
X167428571Y-98607142D01*
X167500000Y-98535714D01*
X167571428Y-98392857D01*
X167571428Y-97964285D01*
X167500000Y-97821428D01*
X167428571Y-97750000D01*
X167285714Y-97678571D01*
X167000000Y-97678571D01*
X166857142Y-97750000D01*
X164357142Y-98678571D02*
X164357142Y-97892857D01*
X164428571Y-97750000D01*
X164571428Y-97678571D01*
X164857142Y-97678571D01*
X165000000Y-97750000D01*
X164357142Y-98607142D02*
X164500000Y-98678571D01*
X164857142Y-98678571D01*
X165000000Y-98607142D01*
X165071428Y-98464285D01*
X165071428Y-98321428D01*
X165000000Y-98178571D01*
X164857142Y-98107142D01*
X164500000Y-98107142D01*
X164357142Y-98035714D01*
X163642857Y-97678571D02*
X163642857Y-98678571D01*
X163642857Y-97821428D02*
X163571428Y-97750000D01*
X163428571Y-97678571D01*
X163214285Y-97678571D01*
X163071428Y-97750000D01*
X163000000Y-97892857D01*
X163000000Y-98678571D01*
X161642857Y-98678571D02*
X161642857Y-97178571D01*
X161642857Y-98607142D02*
X161785714Y-98678571D01*
X162071428Y-98678571D01*
X162214285Y-98607142D01*
X162285714Y-98535714D01*
X162357142Y-98392857D01*
X162357142Y-97964285D01*
X162285714Y-97821428D01*
X162214285Y-97750000D01*
X162071428Y-97678571D01*
X161785714Y-97678571D01*
X161642857Y-97750000D01*
X159785714Y-98678571D02*
X159785714Y-97678571D01*
X159785714Y-97821428D02*
X159714285Y-97750000D01*
X159571428Y-97678571D01*
X159357142Y-97678571D01*
X159214285Y-97750000D01*
X159142857Y-97892857D01*
X159142857Y-98678571D01*
X159142857Y-97892857D02*
X159071428Y-97750000D01*
X158928571Y-97678571D01*
X158714285Y-97678571D01*
X158571428Y-97750000D01*
X158500000Y-97892857D01*
X158500000Y-98678571D01*
X157142857Y-98678571D02*
X157142857Y-97892857D01*
X157214285Y-97750000D01*
X157357142Y-97678571D01*
X157642857Y-97678571D01*
X157785714Y-97750000D01*
X157142857Y-98607142D02*
X157285714Y-98678571D01*
X157642857Y-98678571D01*
X157785714Y-98607142D01*
X157857142Y-98464285D01*
X157857142Y-98321428D01*
X157785714Y-98178571D01*
X157642857Y-98107142D01*
X157285714Y-98107142D01*
X157142857Y-98035714D01*
X155785714Y-98678571D02*
X155785714Y-97178571D01*
X155785714Y-98607142D02*
X155928571Y-98678571D01*
X156214285Y-98678571D01*
X156357142Y-98607142D01*
X156428571Y-98535714D01*
X156500000Y-98392857D01*
X156500000Y-97964285D01*
X156428571Y-97821428D01*
X156357142Y-97750000D01*
X156214285Y-97678571D01*
X155928571Y-97678571D01*
X155785714Y-97750000D01*
X154500000Y-98607142D02*
X154642857Y-98678571D01*
X154928571Y-98678571D01*
X155071428Y-98607142D01*
X155142857Y-98464285D01*
X155142857Y-97892857D01*
X155071428Y-97750000D01*
X154928571Y-97678571D01*
X154642857Y-97678571D01*
X154500000Y-97750000D01*
X154428571Y-97892857D01*
X154428571Y-98035714D01*
X155142857Y-98178571D01*
X152642857Y-98678571D02*
X152642857Y-97178571D01*
X152642857Y-97750000D02*
X152500000Y-97678571D01*
X152214285Y-97678571D01*
X152071428Y-97750000D01*
X152000000Y-97821428D01*
X151928571Y-97964285D01*
X151928571Y-98392857D01*
X152000000Y-98535714D01*
X152071428Y-98607142D01*
X152214285Y-98678571D01*
X152500000Y-98678571D01*
X152642857Y-98607142D01*
X151428571Y-97678571D02*
X151071428Y-98678571D01*
X150714285Y-97678571D02*
X151071428Y-98678571D01*
X151214285Y-99035714D01*
X151285714Y-99107142D01*
X151428571Y-99178571D01*
X149000000Y-98678571D02*
X149000000Y-97178571D01*
X149000000Y-97892857D02*
X148142857Y-97892857D01*
X148142857Y-98678571D02*
X148142857Y-97178571D01*
X146785714Y-98678571D02*
X146785714Y-97892857D01*
X146857142Y-97750000D01*
X147000000Y-97678571D01*
X147285714Y-97678571D01*
X147428571Y-97750000D01*
X146785714Y-98607142D02*
X146928571Y-98678571D01*
X147285714Y-98678571D01*
X147428571Y-98607142D01*
X147500000Y-98464285D01*
X147500000Y-98321428D01*
X147428571Y-98178571D01*
X147285714Y-98107142D01*
X146928571Y-98107142D01*
X146785714Y-98035714D01*
X146071428Y-98678571D02*
X146071428Y-97678571D01*
X146071428Y-97821428D02*
X146000000Y-97750000D01*
X145857142Y-97678571D01*
X145642857Y-97678571D01*
X145500000Y-97750000D01*
X145428571Y-97892857D01*
X145428571Y-98678571D01*
X145428571Y-97892857D02*
X145357142Y-97750000D01*
X145214285Y-97678571D01*
X145000000Y-97678571D01*
X144857142Y-97750000D01*
X144785714Y-97892857D01*
X144785714Y-98678571D01*
X144071428Y-98678571D02*
X144071428Y-97678571D01*
X144071428Y-97178571D02*
X144142857Y-97250000D01*
X144071428Y-97321428D01*
X144000000Y-97250000D01*
X144071428Y-97178571D01*
X144071428Y-97321428D01*
X143428571Y-98607142D02*
X143285714Y-98678571D01*
X143000000Y-98678571D01*
X142857142Y-98607142D01*
X142785714Y-98464285D01*
X142785714Y-98392857D01*
X142857142Y-98250000D01*
X143000000Y-98178571D01*
X143214285Y-98178571D01*
X143357142Y-98107142D01*
X143428571Y-97964285D01*
X143428571Y-97892857D01*
X143357142Y-97750000D01*
X143214285Y-97678571D01*
X143000000Y-97678571D01*
X142857142Y-97750000D01*
X142142857Y-98678571D02*
X142142857Y-97178571D01*
X141500000Y-98678571D02*
X141500000Y-97892857D01*
X141571428Y-97750000D01*
X141714285Y-97678571D01*
X141928571Y-97678571D01*
X142071428Y-97750000D01*
X142142857Y-97821428D01*
X139714285Y-98607142D02*
X139500000Y-98678571D01*
X139142857Y-98678571D01*
X139000000Y-98607142D01*
X138928571Y-98535714D01*
X138857142Y-98392857D01*
X138857142Y-98250000D01*
X138928571Y-98107142D01*
X139000000Y-98035714D01*
X139142857Y-97964285D01*
X139428571Y-97892857D01*
X139571428Y-97821428D01*
X139642857Y-97750000D01*
X139714285Y-97607142D01*
X139714285Y-97464285D01*
X139642857Y-97321428D01*
X139571428Y-97250000D01*
X139428571Y-97178571D01*
X139071428Y-97178571D01*
X138857142Y-97250000D01*
X137571428Y-98678571D02*
X137571428Y-97892857D01*
X137642857Y-97750000D01*
X137785714Y-97678571D01*
X138071428Y-97678571D01*
X138214285Y-97750000D01*
X137571428Y-98607142D02*
X137714285Y-98678571D01*
X138071428Y-98678571D01*
X138214285Y-98607142D01*
X138285714Y-98464285D01*
X138285714Y-98321428D01*
X138214285Y-98178571D01*
X138071428Y-98107142D01*
X137714285Y-98107142D01*
X137571428Y-98035714D01*
X136857142Y-98678571D02*
X136857142Y-97678571D01*
X136857142Y-97821428D02*
X136785714Y-97750000D01*
X136642857Y-97678571D01*
X136428571Y-97678571D01*
X136285714Y-97750000D01*
X136214285Y-97892857D01*
X136214285Y-98678571D01*
X136214285Y-97892857D02*
X136142857Y-97750000D01*
X136000000Y-97678571D01*
X135785714Y-97678571D01*
X135642857Y-97750000D01*
X135571428Y-97892857D01*
X135571428Y-98678571D01*
X134928571Y-98607142D02*
X134785714Y-98678571D01*
X134500000Y-98678571D01*
X134357142Y-98607142D01*
X134285714Y-98464285D01*
X134285714Y-98392857D01*
X134357142Y-98250000D01*
X134500000Y-98178571D01*
X134714285Y-98178571D01*
X134857142Y-98107142D01*
X134928571Y-97964285D01*
X134928571Y-97892857D01*
X134857142Y-97750000D01*
X134714285Y-97678571D01*
X134500000Y-97678571D01*
X134357142Y-97750000D01*
X131285714Y-97535714D02*
X131428571Y-97464285D01*
X131714285Y-97464285D01*
X131857142Y-97535714D01*
X132000000Y-97678571D01*
X132071428Y-97821428D01*
X132071428Y-98107142D01*
X132000000Y-98250000D01*
X131857142Y-98392857D01*
X131714285Y-98464285D01*
X131428571Y-98464285D01*
X131285714Y-98392857D01*
X131571428Y-96964285D02*
X131928571Y-97035714D01*
X132285714Y-97250000D01*
X132500000Y-97607142D01*
X132571428Y-97964285D01*
X132500000Y-98321428D01*
X132285714Y-98678571D01*
X131928571Y-98892857D01*
X131571428Y-98964285D01*
X131214285Y-98892857D01*
X130857142Y-98678571D01*
X130642857Y-98321428D01*
X130571428Y-97964285D01*
X130642857Y-97607142D01*
X130857142Y-97250000D01*
X131214285Y-97035714D01*
X131571428Y-96964285D01*
X128857142Y-97321428D02*
X128785714Y-97250000D01*
X128642857Y-97178571D01*
X128285714Y-97178571D01*
X128142857Y-97250000D01*
X128071428Y-97321428D01*
X128000000Y-97464285D01*
X128000000Y-97607142D01*
X128071428Y-97821428D01*
X128928571Y-98678571D01*
X128000000Y-98678571D01*
X127071428Y-97178571D02*
X126928571Y-97178571D01*
X126785714Y-97250000D01*
X126714285Y-97321428D01*
X126642857Y-97464285D01*
X126571428Y-97750000D01*
X126571428Y-98107142D01*
X126642857Y-98392857D01*
X126714285Y-98535714D01*
X126785714Y-98607142D01*
X126928571Y-98678571D01*
X127071428Y-98678571D01*
X127214285Y-98607142D01*
X127285714Y-98535714D01*
X127357142Y-98392857D01*
X127428571Y-98107142D01*
X127428571Y-97750000D01*
X127357142Y-97464285D01*
X127285714Y-97321428D01*
X127214285Y-97250000D01*
X127071428Y-97178571D01*
X126000000Y-97321428D02*
X125928571Y-97250000D01*
X125785714Y-97178571D01*
X125428571Y-97178571D01*
X125285714Y-97250000D01*
X125214285Y-97321428D01*
X125142857Y-97464285D01*
X125142857Y-97607142D01*
X125214285Y-97821428D01*
X126071428Y-98678571D01*
X125142857Y-98678571D01*
X124214285Y-97178571D02*
X124071428Y-97178571D01*
X123928571Y-97250000D01*
X123857142Y-97321428D01*
X123785714Y-97464285D01*
X123714285Y-97750000D01*
X123714285Y-98107142D01*
X123785714Y-98392857D01*
X123857142Y-98535714D01*
X123928571Y-98607142D01*
X124071428Y-98678571D01*
X124214285Y-98678571D01*
X124357142Y-98607142D01*
X124428571Y-98535714D01*
X124500000Y-98392857D01*
X124571428Y-98107142D01*
X124571428Y-97750000D01*
X124500000Y-97464285D01*
X124428571Y-97321428D01*
X124357142Y-97250000D01*
X124214285Y-97178571D01*
D11*
G36*
X182602318Y-118083933D02*
G01*
X182466071Y-118131172D01*
X182339221Y-118205527D01*
X182225933Y-118306987D01*
X182130372Y-118435543D01*
X182087446Y-118516572D01*
X182050295Y-118629908D01*
X182032288Y-118760751D01*
X182034283Y-118895265D01*
X182056423Y-119017158D01*
X182116936Y-119166107D01*
X182204686Y-119295309D01*
X182315212Y-119402223D01*
X182444054Y-119484306D01*
X182586753Y-119539016D01*
X182738849Y-119563810D01*
X182895881Y-119556147D01*
X182973286Y-119539772D01*
X183124141Y-119481089D01*
X183258125Y-119391543D01*
X183372006Y-119273893D01*
X183462552Y-119130902D01*
X183470212Y-119115286D01*
X183496694Y-119056686D01*
X183513322Y-119007334D01*
X183522350Y-118955270D01*
X183526032Y-118888539D01*
X183526643Y-118815929D01*
X183525633Y-118728691D01*
X183521072Y-118665624D01*
X183510666Y-118614636D01*
X183492121Y-118563633D01*
X183469230Y-118513313D01*
X183383846Y-118370470D01*
X183278699Y-118254810D01*
X183157955Y-118166325D01*
X183025779Y-118105005D01*
X182886337Y-118070839D01*
X182743795Y-118063818D01*
X182602318Y-118083933D01*
G37*
X182602318Y-118083933D02*
X182466071Y-118131172D01*
X182339221Y-118205527D01*
X182225933Y-118306987D01*
X182130372Y-118435543D01*
X182087446Y-118516572D01*
X182050295Y-118629908D01*
X182032288Y-118760751D01*
X182034283Y-118895265D01*
X182056423Y-119017158D01*
X182116936Y-119166107D01*
X182204686Y-119295309D01*
X182315212Y-119402223D01*
X182444054Y-119484306D01*
X182586753Y-119539016D01*
X182738849Y-119563810D01*
X182895881Y-119556147D01*
X182973286Y-119539772D01*
X183124141Y-119481089D01*
X183258125Y-119391543D01*
X183372006Y-119273893D01*
X183462552Y-119130902D01*
X183470212Y-119115286D01*
X183496694Y-119056686D01*
X183513322Y-119007334D01*
X183522350Y-118955270D01*
X183526032Y-118888539D01*
X183526643Y-118815929D01*
X183525633Y-118728691D01*
X183521072Y-118665624D01*
X183510666Y-118614636D01*
X183492121Y-118563633D01*
X183469230Y-118513313D01*
X183383846Y-118370470D01*
X183278699Y-118254810D01*
X183157955Y-118166325D01*
X183025779Y-118105005D01*
X182886337Y-118070839D01*
X182743795Y-118063818D01*
X182602318Y-118083933D01*
G36*
X169958429Y-119300089D02*
G01*
X169804124Y-119300723D01*
X169751679Y-119301042D01*
X169030500Y-119305786D01*
X169021429Y-122072572D01*
X169020231Y-122447756D01*
X169019168Y-122788417D01*
X169018173Y-123096318D01*
X169017177Y-123373221D01*
X169016112Y-123620888D01*
X169014909Y-123841081D01*
X169013501Y-124035562D01*
X169011818Y-124206094D01*
X169009794Y-124354440D01*
X169007359Y-124482361D01*
X169004446Y-124591620D01*
X169000985Y-124683979D01*
X168996910Y-124761200D01*
X168992151Y-124825046D01*
X168986640Y-124877278D01*
X168980309Y-124919660D01*
X168973090Y-124953953D01*
X168964915Y-124981920D01*
X168955715Y-125005324D01*
X168945423Y-125025925D01*
X168933969Y-125045487D01*
X168921285Y-125065772D01*
X168907305Y-125088543D01*
X168904439Y-125093393D01*
X168856360Y-125175433D01*
X170246072Y-125165929D01*
X170255143Y-125013295D01*
X170260082Y-124940045D01*
X170265229Y-124897696D01*
X170272214Y-124880892D01*
X170282663Y-124884277D01*
X170291429Y-124893960D01*
X170329612Y-124929229D01*
X170391845Y-124974563D01*
X170469359Y-125024546D01*
X170553387Y-125073761D01*
X170635161Y-125116791D01*
X170697948Y-125145101D01*
X170845046Y-125191624D01*
X171013820Y-125224579D01*
X171191809Y-125242707D01*
X171366553Y-125244750D01*
X171525593Y-125229447D01*
X171528212Y-125229009D01*
X171745832Y-125174402D01*
X171949545Y-125087401D01*
X172137387Y-124969876D01*
X172307393Y-124823697D01*
X172457598Y-124650734D01*
X172586036Y-124452857D01*
X172690743Y-124231936D01*
X172747754Y-124068286D01*
X172785349Y-123931375D01*
X172813229Y-123798798D01*
X172832247Y-123662502D01*
X172843255Y-123514433D01*
X172847105Y-123346537D01*
X172845400Y-123209440D01*
X171506641Y-123209440D01*
X171500306Y-123439329D01*
X171480321Y-123637111D01*
X171446073Y-123804539D01*
X171396945Y-123943369D01*
X171332324Y-124055358D01*
X171251595Y-124142259D01*
X171158409Y-124203692D01*
X171109920Y-124226626D01*
X171067866Y-124240375D01*
X171020980Y-124246666D01*
X170957996Y-124247222D01*
X170890143Y-124244773D01*
X170756705Y-124233004D01*
X170651168Y-124209955D01*
X170618000Y-124198410D01*
X170542265Y-124164311D01*
X170462386Y-124121491D01*
X170427500Y-124100057D01*
X170336786Y-124040556D01*
X170336786Y-122154584D01*
X170436572Y-122094771D01*
X170575733Y-122027185D01*
X170717913Y-121987214D01*
X170857910Y-121974622D01*
X170990526Y-121989173D01*
X171110560Y-122030632D01*
X171212812Y-122098763D01*
X171245805Y-122131466D01*
X171325333Y-122238619D01*
X171389701Y-122368327D01*
X171439447Y-122522814D01*
X171475109Y-122704302D01*
X171497225Y-122915015D01*
X171506333Y-123157175D01*
X171506641Y-123209440D01*
X172845400Y-123209440D01*
X172844690Y-123152374D01*
X172829395Y-122853713D01*
X172798642Y-122584325D01*
X172751619Y-122340285D01*
X172687518Y-122117670D01*
X172605528Y-121912556D01*
X172576270Y-121851746D01*
X172458419Y-121653440D01*
X172316004Y-121477212D01*
X172152371Y-121325908D01*
X171970869Y-121202371D01*
X171774847Y-121109447D01*
X171657345Y-121071115D01*
X171541946Y-121048359D01*
X171403093Y-121034820D01*
X171252426Y-121030492D01*
X171101587Y-121035368D01*
X170962215Y-121049444D01*
X170850309Y-121071525D01*
X170717116Y-121114828D01*
X170588021Y-121170511D01*
X170475072Y-121232936D01*
X170414957Y-121275303D01*
X170373490Y-121306807D01*
X170344455Y-121325990D01*
X170337850Y-121328714D01*
X170335802Y-121311163D01*
X170333893Y-121260875D01*
X170332164Y-121181400D01*
X170330659Y-121076286D01*
X170329419Y-120949083D01*
X170328487Y-120803339D01*
X170327905Y-120642603D01*
X170327714Y-120478884D01*
X170327821Y-120269188D01*
X170328342Y-120092396D01*
X170329584Y-119945126D01*
X170331852Y-119823997D01*
X170335450Y-119725627D01*
X170340683Y-119646634D01*
X170347856Y-119583638D01*
X170357274Y-119533255D01*
X170369242Y-119492105D01*
X170384065Y-119456806D01*
X170402048Y-119423977D01*
X170423495Y-119390235D01*
X170426255Y-119386057D01*
X170453917Y-119342356D01*
X170470618Y-119312305D01*
X170472857Y-119305967D01*
X170455357Y-119303967D01*
X170405426Y-119302340D01*
X170326915Y-119301112D01*
X170223677Y-119300311D01*
X170099564Y-119299961D01*
X169958429Y-119300089D01*
G37*
X169958429Y-119300089D02*
X169804124Y-119300723D01*
X169751679Y-119301042D01*
X169030500Y-119305786D01*
X169021429Y-122072572D01*
X169020231Y-122447756D01*
X169019168Y-122788417D01*
X169018173Y-123096318D01*
X169017177Y-123373221D01*
X169016112Y-123620888D01*
X169014909Y-123841081D01*
X169013501Y-124035562D01*
X169011818Y-124206094D01*
X169009794Y-124354440D01*
X169007359Y-124482361D01*
X169004446Y-124591620D01*
X169000985Y-124683979D01*
X168996910Y-124761200D01*
X168992151Y-124825046D01*
X168986640Y-124877278D01*
X168980309Y-124919660D01*
X168973090Y-124953953D01*
X168964915Y-124981920D01*
X168955715Y-125005324D01*
X168945423Y-125025925D01*
X168933969Y-125045487D01*
X168921285Y-125065772D01*
X168907305Y-125088543D01*
X168904439Y-125093393D01*
X168856360Y-125175433D01*
X170246072Y-125165929D01*
X170255143Y-125013295D01*
X170260082Y-124940045D01*
X170265229Y-124897696D01*
X170272214Y-124880892D01*
X170282663Y-124884277D01*
X170291429Y-124893960D01*
X170329612Y-124929229D01*
X170391845Y-124974563D01*
X170469359Y-125024546D01*
X170553387Y-125073761D01*
X170635161Y-125116791D01*
X170697948Y-125145101D01*
X170845046Y-125191624D01*
X171013820Y-125224579D01*
X171191809Y-125242707D01*
X171366553Y-125244750D01*
X171525593Y-125229447D01*
X171528212Y-125229009D01*
X171745832Y-125174402D01*
X171949545Y-125087401D01*
X172137387Y-124969876D01*
X172307393Y-124823697D01*
X172457598Y-124650734D01*
X172586036Y-124452857D01*
X172690743Y-124231936D01*
X172747754Y-124068286D01*
X172785349Y-123931375D01*
X172813229Y-123798798D01*
X172832247Y-123662502D01*
X172843255Y-123514433D01*
X172847105Y-123346537D01*
X172845400Y-123209440D01*
X171506641Y-123209440D01*
X171500306Y-123439329D01*
X171480321Y-123637111D01*
X171446073Y-123804539D01*
X171396945Y-123943369D01*
X171332324Y-124055358D01*
X171251595Y-124142259D01*
X171158409Y-124203692D01*
X171109920Y-124226626D01*
X171067866Y-124240375D01*
X171020980Y-124246666D01*
X170957996Y-124247222D01*
X170890143Y-124244773D01*
X170756705Y-124233004D01*
X170651168Y-124209955D01*
X170618000Y-124198410D01*
X170542265Y-124164311D01*
X170462386Y-124121491D01*
X170427500Y-124100057D01*
X170336786Y-124040556D01*
X170336786Y-122154584D01*
X170436572Y-122094771D01*
X170575733Y-122027185D01*
X170717913Y-121987214D01*
X170857910Y-121974622D01*
X170990526Y-121989173D01*
X171110560Y-122030632D01*
X171212812Y-122098763D01*
X171245805Y-122131466D01*
X171325333Y-122238619D01*
X171389701Y-122368327D01*
X171439447Y-122522814D01*
X171475109Y-122704302D01*
X171497225Y-122915015D01*
X171506333Y-123157175D01*
X171506641Y-123209440D01*
X172845400Y-123209440D01*
X172844690Y-123152374D01*
X172829395Y-122853713D01*
X172798642Y-122584325D01*
X172751619Y-122340285D01*
X172687518Y-122117670D01*
X172605528Y-121912556D01*
X172576270Y-121851746D01*
X172458419Y-121653440D01*
X172316004Y-121477212D01*
X172152371Y-121325908D01*
X171970869Y-121202371D01*
X171774847Y-121109447D01*
X171657345Y-121071115D01*
X171541946Y-121048359D01*
X171403093Y-121034820D01*
X171252426Y-121030492D01*
X171101587Y-121035368D01*
X170962215Y-121049444D01*
X170850309Y-121071525D01*
X170717116Y-121114828D01*
X170588021Y-121170511D01*
X170475072Y-121232936D01*
X170414957Y-121275303D01*
X170373490Y-121306807D01*
X170344455Y-121325990D01*
X170337850Y-121328714D01*
X170335802Y-121311163D01*
X170333893Y-121260875D01*
X170332164Y-121181400D01*
X170330659Y-121076286D01*
X170329419Y-120949083D01*
X170328487Y-120803339D01*
X170327905Y-120642603D01*
X170327714Y-120478884D01*
X170327821Y-120269188D01*
X170328342Y-120092396D01*
X170329584Y-119945126D01*
X170331852Y-119823997D01*
X170335450Y-119725627D01*
X170340683Y-119646634D01*
X170347856Y-119583638D01*
X170357274Y-119533255D01*
X170369242Y-119492105D01*
X170384065Y-119456806D01*
X170402048Y-119423977D01*
X170423495Y-119390235D01*
X170426255Y-119386057D01*
X170453917Y-119342356D01*
X170470618Y-119312305D01*
X170472857Y-119305967D01*
X170455357Y-119303967D01*
X170405426Y-119302340D01*
X170326915Y-119301112D01*
X170223677Y-119300311D01*
X170099564Y-119299961D01*
X169958429Y-119300089D01*
G36*
X174814368Y-121027730D02*
G01*
X174724477Y-121034535D01*
X174467285Y-121068753D01*
X174239515Y-121123331D01*
X174040057Y-121199020D01*
X173867803Y-121296570D01*
X173721641Y-121416732D01*
X173600464Y-121560258D01*
X173503161Y-121727898D01*
X173432109Y-121909286D01*
X173414073Y-121967146D01*
X173398368Y-122021329D01*
X173384808Y-122074752D01*
X173373208Y-122130333D01*
X173363383Y-122190988D01*
X173355147Y-122259635D01*
X173348316Y-122339190D01*
X173342705Y-122432572D01*
X173338128Y-122542696D01*
X173334400Y-122672481D01*
X173331335Y-122824842D01*
X173328750Y-123002698D01*
X173326458Y-123208965D01*
X173324275Y-123446561D01*
X173322714Y-123632857D01*
X173312215Y-124911929D01*
X173244179Y-125035018D01*
X173211962Y-125094317D01*
X173187988Y-125140377D01*
X173176550Y-125164893D01*
X173176143Y-125166553D01*
X173193625Y-125168454D01*
X173243426Y-125170205D01*
X173321579Y-125171758D01*
X173424118Y-125173062D01*
X173547078Y-125174070D01*
X173686490Y-125174731D01*
X173838389Y-125174997D01*
X173856500Y-125175000D01*
X174536857Y-125175000D01*
X174536857Y-125020786D01*
X174538018Y-124951094D01*
X174541113Y-124897794D01*
X174545568Y-124869217D01*
X174547537Y-124866572D01*
X174565545Y-124877653D01*
X174602607Y-124906736D01*
X174650778Y-124947579D01*
X174651859Y-124948524D01*
X174739765Y-125013971D01*
X174850783Y-125079688D01*
X174972369Y-125139219D01*
X175091979Y-125186109D01*
X175144643Y-125202133D01*
X175249449Y-125222485D01*
X175378050Y-125235472D01*
X175518675Y-125240909D01*
X175659552Y-125238611D01*
X175788907Y-125228392D01*
X175879429Y-125213689D01*
X176101420Y-125148499D01*
X176301271Y-125055594D01*
X176477681Y-124936126D01*
X176629350Y-124791247D01*
X176754976Y-124622110D01*
X176853259Y-124429867D01*
X176895659Y-124313214D01*
X176922232Y-124199833D01*
X176939842Y-124063722D01*
X176947990Y-123917437D01*
X176947722Y-123896151D01*
X175720679Y-123896151D01*
X175710504Y-124004850D01*
X175676622Y-124095185D01*
X175614000Y-124178995D01*
X175589948Y-124203571D01*
X175504449Y-124270011D01*
X175405627Y-124312574D01*
X175287232Y-124333177D01*
X175162555Y-124334694D01*
X175044302Y-124324677D01*
X174953761Y-124305085D01*
X174914440Y-124290370D01*
X174843568Y-124250265D01*
X174768475Y-124193863D01*
X174699962Y-124130561D01*
X174648828Y-124069755D01*
X174635250Y-124047449D01*
X174624695Y-124016212D01*
X174617190Y-123966507D01*
X174612387Y-123893587D01*
X174609935Y-123792703D01*
X174609429Y-123696689D01*
X174609772Y-123584750D01*
X174611157Y-123503809D01*
X174614119Y-123448585D01*
X174619192Y-123413794D01*
X174626910Y-123394154D01*
X174637808Y-123384380D01*
X174641179Y-123382824D01*
X174670471Y-123378029D01*
X174728244Y-123374108D01*
X174806696Y-123371414D01*
X174898026Y-123370299D01*
X174917857Y-123370298D01*
X175039937Y-123372246D01*
X175134251Y-123378041D01*
X175209193Y-123388475D01*
X175271097Y-123403714D01*
X175424651Y-123461784D01*
X175545068Y-123533179D01*
X175633390Y-123619039D01*
X175690661Y-123720507D01*
X175717922Y-123838725D01*
X175720679Y-123896151D01*
X176947722Y-123896151D01*
X176946177Y-123773533D01*
X176933904Y-123644565D01*
X176924330Y-123592460D01*
X176863199Y-123398997D01*
X176770243Y-123220993D01*
X176647217Y-123060155D01*
X176495876Y-122918190D01*
X176317975Y-122796806D01*
X176115268Y-122697709D01*
X175942929Y-122637533D01*
X175827747Y-122605919D01*
X175717577Y-122581354D01*
X175605281Y-122563039D01*
X175483725Y-122550178D01*
X175345771Y-122541972D01*
X175184285Y-122537624D01*
X175038285Y-122536400D01*
X174605355Y-122535215D01*
X174613649Y-122405080D01*
X174637199Y-122263883D01*
X174687297Y-122142518D01*
X174761809Y-122044017D01*
X174858601Y-121971409D01*
X174943829Y-121935979D01*
X175065944Y-121913650D01*
X175211317Y-121910443D01*
X175373133Y-121925177D01*
X175544578Y-121956670D01*
X175718837Y-122003740D01*
X175889096Y-122065203D01*
X176012824Y-122121417D01*
X176072353Y-122150283D01*
X176117758Y-122170443D01*
X176140850Y-122178310D01*
X176142103Y-122178058D01*
X176150071Y-122160437D01*
X176169969Y-122113733D01*
X176199923Y-122042418D01*
X176238061Y-121950969D01*
X176282512Y-121843859D01*
X176327695Y-121734549D01*
X176508333Y-121296740D01*
X176379845Y-121275636D01*
X176324154Y-121265047D01*
X176240436Y-121247263D01*
X176135861Y-121223898D01*
X176017601Y-121196565D01*
X175892828Y-121166881D01*
X175843143Y-121154818D01*
X175628193Y-121104962D01*
X175440005Y-121067584D01*
X175271554Y-121041927D01*
X175115814Y-121027235D01*
X174965760Y-121022755D01*
X174814368Y-121027730D01*
G37*
X174814368Y-121027730D02*
X174724477Y-121034535D01*
X174467285Y-121068753D01*
X174239515Y-121123331D01*
X174040057Y-121199020D01*
X173867803Y-121296570D01*
X173721641Y-121416732D01*
X173600464Y-121560258D01*
X173503161Y-121727898D01*
X173432109Y-121909286D01*
X173414073Y-121967146D01*
X173398368Y-122021329D01*
X173384808Y-122074752D01*
X173373208Y-122130333D01*
X173363383Y-122190988D01*
X173355147Y-122259635D01*
X173348316Y-122339190D01*
X173342705Y-122432572D01*
X173338128Y-122542696D01*
X173334400Y-122672481D01*
X173331335Y-122824842D01*
X173328750Y-123002698D01*
X173326458Y-123208965D01*
X173324275Y-123446561D01*
X173322714Y-123632857D01*
X173312215Y-124911929D01*
X173244179Y-125035018D01*
X173211962Y-125094317D01*
X173187988Y-125140377D01*
X173176550Y-125164893D01*
X173176143Y-125166553D01*
X173193625Y-125168454D01*
X173243426Y-125170205D01*
X173321579Y-125171758D01*
X173424118Y-125173062D01*
X173547078Y-125174070D01*
X173686490Y-125174731D01*
X173838389Y-125174997D01*
X173856500Y-125175000D01*
X174536857Y-125175000D01*
X174536857Y-125020786D01*
X174538018Y-124951094D01*
X174541113Y-124897794D01*
X174545568Y-124869217D01*
X174547537Y-124866572D01*
X174565545Y-124877653D01*
X174602607Y-124906736D01*
X174650778Y-124947579D01*
X174651859Y-124948524D01*
X174739765Y-125013971D01*
X174850783Y-125079688D01*
X174972369Y-125139219D01*
X175091979Y-125186109D01*
X175144643Y-125202133D01*
X175249449Y-125222485D01*
X175378050Y-125235472D01*
X175518675Y-125240909D01*
X175659552Y-125238611D01*
X175788907Y-125228392D01*
X175879429Y-125213689D01*
X176101420Y-125148499D01*
X176301271Y-125055594D01*
X176477681Y-124936126D01*
X176629350Y-124791247D01*
X176754976Y-124622110D01*
X176853259Y-124429867D01*
X176895659Y-124313214D01*
X176922232Y-124199833D01*
X176939842Y-124063722D01*
X176947990Y-123917437D01*
X176947722Y-123896151D01*
X175720679Y-123896151D01*
X175710504Y-124004850D01*
X175676622Y-124095185D01*
X175614000Y-124178995D01*
X175589948Y-124203571D01*
X175504449Y-124270011D01*
X175405627Y-124312574D01*
X175287232Y-124333177D01*
X175162555Y-124334694D01*
X175044302Y-124324677D01*
X174953761Y-124305085D01*
X174914440Y-124290370D01*
X174843568Y-124250265D01*
X174768475Y-124193863D01*
X174699962Y-124130561D01*
X174648828Y-124069755D01*
X174635250Y-124047449D01*
X174624695Y-124016212D01*
X174617190Y-123966507D01*
X174612387Y-123893587D01*
X174609935Y-123792703D01*
X174609429Y-123696689D01*
X174609772Y-123584750D01*
X174611157Y-123503809D01*
X174614119Y-123448585D01*
X174619192Y-123413794D01*
X174626910Y-123394154D01*
X174637808Y-123384380D01*
X174641179Y-123382824D01*
X174670471Y-123378029D01*
X174728244Y-123374108D01*
X174806696Y-123371414D01*
X174898026Y-123370299D01*
X174917857Y-123370298D01*
X175039937Y-123372246D01*
X175134251Y-123378041D01*
X175209193Y-123388475D01*
X175271097Y-123403714D01*
X175424651Y-123461784D01*
X175545068Y-123533179D01*
X175633390Y-123619039D01*
X175690661Y-123720507D01*
X175717922Y-123838725D01*
X175720679Y-123896151D01*
X176947722Y-123896151D01*
X176946177Y-123773533D01*
X176933904Y-123644565D01*
X176924330Y-123592460D01*
X176863199Y-123398997D01*
X176770243Y-123220993D01*
X176647217Y-123060155D01*
X176495876Y-122918190D01*
X176317975Y-122796806D01*
X176115268Y-122697709D01*
X175942929Y-122637533D01*
X175827747Y-122605919D01*
X175717577Y-122581354D01*
X175605281Y-122563039D01*
X175483725Y-122550178D01*
X175345771Y-122541972D01*
X175184285Y-122537624D01*
X175038285Y-122536400D01*
X174605355Y-122535215D01*
X174613649Y-122405080D01*
X174637199Y-122263883D01*
X174687297Y-122142518D01*
X174761809Y-122044017D01*
X174858601Y-121971409D01*
X174943829Y-121935979D01*
X175065944Y-121913650D01*
X175211317Y-121910443D01*
X175373133Y-121925177D01*
X175544578Y-121956670D01*
X175718837Y-122003740D01*
X175889096Y-122065203D01*
X176012824Y-122121417D01*
X176072353Y-122150283D01*
X176117758Y-122170443D01*
X176140850Y-122178310D01*
X176142103Y-122178058D01*
X176150071Y-122160437D01*
X176169969Y-122113733D01*
X176199923Y-122042418D01*
X176238061Y-121950969D01*
X176282512Y-121843859D01*
X176327695Y-121734549D01*
X176508333Y-121296740D01*
X176379845Y-121275636D01*
X176324154Y-121265047D01*
X176240436Y-121247263D01*
X176135861Y-121223898D01*
X176017601Y-121196565D01*
X175892828Y-121166881D01*
X175843143Y-121154818D01*
X175628193Y-121104962D01*
X175440005Y-121067584D01*
X175271554Y-121041927D01*
X175115814Y-121027235D01*
X174965760Y-121022755D01*
X174814368Y-121027730D01*
G36*
X178418622Y-119569231D02*
G01*
X178222981Y-119590649D01*
X178033438Y-119628985D01*
X177842283Y-119686238D01*
X177641804Y-119764409D01*
X177424292Y-119865496D01*
X177385120Y-119885076D01*
X177295228Y-119929362D01*
X177210447Y-119969239D01*
X177139145Y-120000898D01*
X177089690Y-120020532D01*
X177082092Y-120023004D01*
X177009286Y-120044817D01*
X177335197Y-120518944D01*
X177414877Y-120634823D01*
X177487728Y-120740694D01*
X177551270Y-120832962D01*
X177603028Y-120908033D01*
X177640523Y-120962313D01*
X177661277Y-120992207D01*
X177664649Y-120996941D01*
X177678345Y-120987042D01*
X177712057Y-120957285D01*
X177759756Y-120913073D01*
X177786080Y-120888084D01*
X177935228Y-120769456D01*
X178102732Y-120679313D01*
X178247072Y-120629936D01*
X178333717Y-120614429D01*
X178442204Y-120604979D01*
X178559773Y-120601761D01*
X178673666Y-120604951D01*
X178771121Y-120614724D01*
X178810010Y-120622209D01*
X178985288Y-120682512D01*
X179143235Y-120774590D01*
X179283732Y-120898273D01*
X179406665Y-121053393D01*
X179511915Y-121239781D01*
X179599365Y-121457270D01*
X179668900Y-121705692D01*
X179710225Y-121918357D01*
X179721006Y-122012241D01*
X179728352Y-122133524D01*
X179732333Y-122273493D01*
X179733021Y-122423431D01*
X179730486Y-122574622D01*
X179724800Y-122718351D01*
X179716033Y-122845903D01*
X179704256Y-122948562D01*
X179701707Y-122964401D01*
X179645519Y-123219536D01*
X179568964Y-123445342D01*
X179471574Y-123642831D01*
X179352886Y-123813014D01*
X179268637Y-123905022D01*
X179117230Y-124029943D01*
X178951183Y-124122540D01*
X178773299Y-124182309D01*
X178586378Y-124208746D01*
X178393222Y-124201348D01*
X178196631Y-124159611D01*
X178080403Y-124118771D01*
X177919562Y-124036990D01*
X177753787Y-123919678D01*
X177660927Y-123840345D01*
X177608786Y-123794429D01*
X177567820Y-123760742D01*
X177544502Y-123744510D01*
X177541607Y-123744015D01*
X177531200Y-123760601D01*
X177504233Y-123804432D01*
X177463004Y-123871748D01*
X177409811Y-123958794D01*
X177346950Y-124061810D01*
X177276719Y-124177041D01*
X177237628Y-124241231D01*
X176939036Y-124731677D01*
X177311839Y-124915915D01*
X177446631Y-124982093D01*
X177555825Y-125034278D01*
X177646093Y-125075060D01*
X177724112Y-125107033D01*
X177796556Y-125132787D01*
X177870099Y-125154914D01*
X177951416Y-125176007D01*
X178029357Y-125194530D01*
X178098634Y-125208863D01*
X178171083Y-125219694D01*
X178253958Y-125227626D01*
X178354512Y-125233258D01*
X178479997Y-125237192D01*
X178564572Y-125238891D01*
X178685246Y-125240050D01*
X178800958Y-125239465D01*
X178904049Y-125237304D01*
X178986862Y-125233732D01*
X179041740Y-125228917D01*
X179044992Y-125228437D01*
X179329957Y-125166786D01*
X179597558Y-125073285D01*
X179847703Y-124947993D01*
X180080296Y-124790974D01*
X180295243Y-124602289D01*
X180492450Y-124382000D01*
X180635273Y-124186214D01*
X180787320Y-123929949D01*
X180910227Y-123659317D01*
X181004590Y-123372149D01*
X181071001Y-123066276D01*
X181110056Y-122739528D01*
X181122360Y-122407739D01*
X181112241Y-122086779D01*
X181080439Y-121790646D01*
X181025946Y-121514345D01*
X180947750Y-121252881D01*
X180844841Y-121001258D01*
X180832553Y-120975190D01*
X180697180Y-120731507D01*
X180530911Y-120499618D01*
X180338459Y-120284323D01*
X180124534Y-120090422D01*
X179893845Y-119922715D01*
X179678891Y-119799696D01*
X179461742Y-119703345D01*
X179244132Y-119633551D01*
X179017638Y-119588413D01*
X178773834Y-119566031D01*
X178628072Y-119562731D01*
X178418622Y-119569231D01*
G37*
X178418622Y-119569231D02*
X178222981Y-119590649D01*
X178033438Y-119628985D01*
X177842283Y-119686238D01*
X177641804Y-119764409D01*
X177424292Y-119865496D01*
X177385120Y-119885076D01*
X177295228Y-119929362D01*
X177210447Y-119969239D01*
X177139145Y-120000898D01*
X177089690Y-120020532D01*
X177082092Y-120023004D01*
X177009286Y-120044817D01*
X177335197Y-120518944D01*
X177414877Y-120634823D01*
X177487728Y-120740694D01*
X177551270Y-120832962D01*
X177603028Y-120908033D01*
X177640523Y-120962313D01*
X177661277Y-120992207D01*
X177664649Y-120996941D01*
X177678345Y-120987042D01*
X177712057Y-120957285D01*
X177759756Y-120913073D01*
X177786080Y-120888084D01*
X177935228Y-120769456D01*
X178102732Y-120679313D01*
X178247072Y-120629936D01*
X178333717Y-120614429D01*
X178442204Y-120604979D01*
X178559773Y-120601761D01*
X178673666Y-120604951D01*
X178771121Y-120614724D01*
X178810010Y-120622209D01*
X178985288Y-120682512D01*
X179143235Y-120774590D01*
X179283732Y-120898273D01*
X179406665Y-121053393D01*
X179511915Y-121239781D01*
X179599365Y-121457270D01*
X179668900Y-121705692D01*
X179710225Y-121918357D01*
X179721006Y-122012241D01*
X179728352Y-122133524D01*
X179732333Y-122273493D01*
X179733021Y-122423431D01*
X179730486Y-122574622D01*
X179724800Y-122718351D01*
X179716033Y-122845903D01*
X179704256Y-122948562D01*
X179701707Y-122964401D01*
X179645519Y-123219536D01*
X179568964Y-123445342D01*
X179471574Y-123642831D01*
X179352886Y-123813014D01*
X179268637Y-123905022D01*
X179117230Y-124029943D01*
X178951183Y-124122540D01*
X178773299Y-124182309D01*
X178586378Y-124208746D01*
X178393222Y-124201348D01*
X178196631Y-124159611D01*
X178080403Y-124118771D01*
X177919562Y-124036990D01*
X177753787Y-123919678D01*
X177660927Y-123840345D01*
X177608786Y-123794429D01*
X177567820Y-123760742D01*
X177544502Y-123744510D01*
X177541607Y-123744015D01*
X177531200Y-123760601D01*
X177504233Y-123804432D01*
X177463004Y-123871748D01*
X177409811Y-123958794D01*
X177346950Y-124061810D01*
X177276719Y-124177041D01*
X177237628Y-124241231D01*
X176939036Y-124731677D01*
X177311839Y-124915915D01*
X177446631Y-124982093D01*
X177555825Y-125034278D01*
X177646093Y-125075060D01*
X177724112Y-125107033D01*
X177796556Y-125132787D01*
X177870099Y-125154914D01*
X177951416Y-125176007D01*
X178029357Y-125194530D01*
X178098634Y-125208863D01*
X178171083Y-125219694D01*
X178253958Y-125227626D01*
X178354512Y-125233258D01*
X178479997Y-125237192D01*
X178564572Y-125238891D01*
X178685246Y-125240050D01*
X178800958Y-125239465D01*
X178904049Y-125237304D01*
X178986862Y-125233732D01*
X179041740Y-125228917D01*
X179044992Y-125228437D01*
X179329957Y-125166786D01*
X179597558Y-125073285D01*
X179847703Y-124947993D01*
X180080296Y-124790974D01*
X180295243Y-124602289D01*
X180492450Y-124382000D01*
X180635273Y-124186214D01*
X180787320Y-123929949D01*
X180910227Y-123659317D01*
X181004590Y-123372149D01*
X181071001Y-123066276D01*
X181110056Y-122739528D01*
X181122360Y-122407739D01*
X181112241Y-122086779D01*
X181080439Y-121790646D01*
X181025946Y-121514345D01*
X180947750Y-121252881D01*
X180844841Y-121001258D01*
X180832553Y-120975190D01*
X180697180Y-120731507D01*
X180530911Y-120499618D01*
X180338459Y-120284323D01*
X180124534Y-120090422D01*
X179893845Y-119922715D01*
X179678891Y-119799696D01*
X179461742Y-119703345D01*
X179244132Y-119633551D01*
X179017638Y-119588413D01*
X178773834Y-119566031D01*
X178628072Y-119562731D01*
X178418622Y-119569231D01*
G36*
X186870089Y-118661660D02*
G01*
X186520540Y-118661707D01*
X186357830Y-118661714D01*
X183753429Y-118661715D01*
X183753429Y-118815238D01*
X183737043Y-119002063D01*
X183687588Y-119174367D01*
X183604620Y-119333175D01*
X183487695Y-119479510D01*
X183448136Y-119519032D01*
X183305830Y-119631138D01*
X183148922Y-119712899D01*
X182982072Y-119764353D01*
X182809939Y-119785537D01*
X182637185Y-119776487D01*
X182468470Y-119737242D01*
X182308454Y-119667838D01*
X182161798Y-119568311D01*
X182095932Y-119508265D01*
X181973192Y-119361043D01*
X181883188Y-119199147D01*
X181826706Y-119024427D01*
X181804529Y-118838735D01*
X181804234Y-118820467D01*
X181803072Y-118661720D01*
X181733300Y-118661717D01*
X181671405Y-118670118D01*
X181614865Y-118690556D01*
X181611128Y-118692667D01*
X181598358Y-118699293D01*
X181586632Y-118704454D01*
X181575906Y-118709651D01*
X181566139Y-118716390D01*
X181557288Y-118726171D01*
X181549311Y-118740500D01*
X181542165Y-118760878D01*
X181535808Y-118788808D01*
X181530198Y-118825795D01*
X181525293Y-118873340D01*
X181521049Y-118932947D01*
X181517424Y-119006119D01*
X181514377Y-119094359D01*
X181511864Y-119199170D01*
X181509844Y-119322055D01*
X181508274Y-119464517D01*
X181507112Y-119628060D01*
X181506314Y-119814186D01*
X181505840Y-120024398D01*
X181505646Y-120260200D01*
X181505690Y-120523094D01*
X181505930Y-120814584D01*
X181506323Y-121136172D01*
X181506827Y-121489362D01*
X181507400Y-121875657D01*
X181507999Y-122296560D01*
X181508068Y-122347840D01*
X181508605Y-122771426D01*
X181509061Y-123160230D01*
X181509484Y-123515753D01*
X181509921Y-123839498D01*
X181510422Y-124132966D01*
X181511035Y-124397661D01*
X181511808Y-124635085D01*
X181512789Y-124846740D01*
X181514026Y-125034129D01*
X181515568Y-125198754D01*
X181517463Y-125342117D01*
X181519759Y-125465720D01*
X181522504Y-125571067D01*
X181525747Y-125659659D01*
X181529536Y-125733000D01*
X181533919Y-125792590D01*
X181538945Y-125839933D01*
X181544661Y-125876531D01*
X181551116Y-125903886D01*
X181558359Y-125923502D01*
X181566437Y-125936879D01*
X181575398Y-125945521D01*
X181585292Y-125950930D01*
X181596165Y-125954608D01*
X181608067Y-125958058D01*
X181621046Y-125962782D01*
X181624217Y-125964220D01*
X181634181Y-125967451D01*
X181650859Y-125970420D01*
X181675707Y-125973137D01*
X181710180Y-125975613D01*
X181755736Y-125977858D01*
X181813830Y-125979883D01*
X181885919Y-125981698D01*
X181973458Y-125983315D01*
X182077905Y-125984743D01*
X182200715Y-125985993D01*
X182343345Y-125987076D01*
X182507251Y-125988002D01*
X182693890Y-125988782D01*
X182904716Y-125989426D01*
X183141188Y-125989946D01*
X183404761Y-125990351D01*
X183696890Y-125990652D01*
X184019034Y-125990860D01*
X184372647Y-125990985D01*
X184759186Y-125991038D01*
X185180108Y-125991029D01*
X185316456Y-125991016D01*
X185746716Y-125990947D01*
X186142164Y-125990834D01*
X186504273Y-125990665D01*
X186834517Y-125990430D01*
X187134371Y-125990116D01*
X187405308Y-125989713D01*
X187648800Y-125989207D01*
X187866323Y-125988589D01*
X188059350Y-125987846D01*
X188229354Y-125986968D01*
X188377810Y-125985941D01*
X188506190Y-125984756D01*
X188615969Y-125983400D01*
X188708620Y-125981862D01*
X188785617Y-125980130D01*
X188848434Y-125978194D01*
X188898544Y-125976040D01*
X188937421Y-125973659D01*
X188966538Y-125971037D01*
X188987371Y-125968165D01*
X189001391Y-125965030D01*
X189009034Y-125962159D01*
X189022618Y-125956430D01*
X189035090Y-125952206D01*
X189046498Y-125947985D01*
X189056889Y-125942268D01*
X189066309Y-125933555D01*
X189074808Y-125920345D01*
X189082430Y-125901137D01*
X189089225Y-125874433D01*
X189095238Y-125838730D01*
X189100517Y-125792530D01*
X189105110Y-125734332D01*
X189109064Y-125662635D01*
X189112425Y-125575940D01*
X189115241Y-125472746D01*
X189117560Y-125351553D01*
X189119428Y-125210860D01*
X189119916Y-125156857D01*
X188635704Y-125156857D01*
X186924256Y-125156857D01*
X186957187Y-125106964D01*
X186989947Y-125055693D01*
X187017689Y-125006869D01*
X187040807Y-124957076D01*
X187059697Y-124902898D01*
X187074751Y-124840916D01*
X187086367Y-124767715D01*
X187094936Y-124679878D01*
X187100856Y-124573988D01*
X187104519Y-124446628D01*
X187106321Y-124294381D01*
X187106656Y-124113832D01*
X187105919Y-123901562D01*
X187105501Y-123822755D01*
X187100786Y-122977911D01*
X186565572Y-123706557D01*
X186413946Y-123913265D01*
X186282581Y-124093260D01*
X186170057Y-124248925D01*
X186074957Y-124382647D01*
X185995862Y-124496809D01*
X185931353Y-124593797D01*
X185880012Y-124675994D01*
X185840420Y-124745786D01*
X185811160Y-124805558D01*
X185790812Y-124857693D01*
X185777958Y-124904576D01*
X185771181Y-124948593D01*
X185769060Y-124992127D01*
X185770179Y-125037564D01*
X185770464Y-125043275D01*
X185776357Y-125156933D01*
X183900771Y-125156857D01*
X184040278Y-125016189D01*
X184078135Y-124977715D01*
X184114047Y-124940279D01*
X184149593Y-124901814D01*
X184186347Y-124860258D01*
X184225886Y-124813545D01*
X184269786Y-124759610D01*
X184319623Y-124696390D01*
X184376972Y-124621818D01*
X184443411Y-124533832D01*
X184520515Y-124430365D01*
X184609861Y-124309354D01*
X184713024Y-124168734D01*
X184831580Y-124006440D01*
X184967105Y-123820407D01*
X185121177Y-123608571D01*
X185247462Y-123434804D01*
X185405954Y-123216501D01*
X185544216Y-123025629D01*
X185663499Y-122860374D01*
X185765057Y-122718926D01*
X185850141Y-122599471D01*
X185920005Y-122500198D01*
X185975900Y-122419295D01*
X186019080Y-122354949D01*
X186050797Y-122305347D01*
X186072302Y-122268679D01*
X186084850Y-122243132D01*
X186089692Y-122226893D01*
X186088237Y-122218355D01*
X186070599Y-122195635D01*
X186032466Y-122147543D01*
X185976138Y-122076938D01*
X185903916Y-121986678D01*
X185818101Y-121879621D01*
X185720994Y-121758627D01*
X185614896Y-121626554D01*
X185502109Y-121486260D01*
X185384932Y-121340603D01*
X185265667Y-121192444D01*
X185200067Y-121111000D01*
X183571314Y-121111000D01*
X183503621Y-121233465D01*
X183435929Y-121355929D01*
X183435929Y-124911929D01*
X183503621Y-125034393D01*
X183571314Y-125156857D01*
X182770559Y-125156857D01*
X182579398Y-125156802D01*
X182421501Y-125156551D01*
X182293848Y-125155979D01*
X182193419Y-125154959D01*
X182117193Y-125153365D01*
X182062148Y-125151070D01*
X182025264Y-125147950D01*
X182003521Y-125143877D01*
X181993898Y-125138725D01*
X181993373Y-125132367D01*
X181998926Y-125124679D01*
X181998984Y-125124615D01*
X182021860Y-125091524D01*
X182052151Y-125037719D01*
X182078903Y-124984008D01*
X182129643Y-124875643D01*
X182134818Y-122993322D01*
X182139993Y-121111000D01*
X183571314Y-121111000D01*
X185200067Y-121111000D01*
X185146615Y-121044639D01*
X185030077Y-120900047D01*
X184918354Y-120761528D01*
X184813746Y-120631939D01*
X184718556Y-120514140D01*
X184635083Y-120410988D01*
X184565629Y-120325343D01*
X184512494Y-120260062D01*
X184481285Y-120222000D01*
X184360097Y-120079670D01*
X184243507Y-119951230D01*
X184135603Y-119840886D01*
X184040470Y-119752841D01*
X183972957Y-119698862D01*
X183893127Y-119641429D01*
X185729108Y-119641429D01*
X185728592Y-119749165D01*
X185733724Y-119828372D01*
X185753015Y-119901805D01*
X185782877Y-119971415D01*
X185802288Y-120010741D01*
X185823159Y-120049707D01*
X185847396Y-120090901D01*
X185876906Y-120136908D01*
X185913594Y-120190317D01*
X185959368Y-120253714D01*
X186016135Y-120329685D01*
X186085800Y-120420817D01*
X186170270Y-120529698D01*
X186271453Y-120658914D01*
X186391253Y-120811052D01*
X186531579Y-120988698D01*
X186547429Y-121008742D01*
X187100786Y-121708508D01*
X187106143Y-120933504D01*
X187107221Y-120701368D01*
X187106992Y-120504846D01*
X187105443Y-120343292D01*
X187102563Y-120216056D01*
X187098341Y-120122492D01*
X187092766Y-120061952D01*
X187090893Y-120050468D01*
X187061495Y-119929499D01*
X187022978Y-119820446D01*
X186979026Y-119732763D01*
X186952621Y-119695574D01*
X186907060Y-119641429D01*
X187771530Y-119641429D01*
X187977745Y-119641605D01*
X188150188Y-119642179D01*
X188291373Y-119643217D01*
X188403812Y-119644787D01*
X188490017Y-119646954D01*
X188552502Y-119649788D01*
X188593779Y-119653353D01*
X188616360Y-119657718D01*
X188622759Y-119662949D01*
X188622317Y-119664107D01*
X188603991Y-119691769D01*
X188573396Y-119735615D01*
X188557567Y-119757791D01*
X188541202Y-119779920D01*
X188526492Y-119799709D01*
X188513344Y-119819106D01*
X188501667Y-119840058D01*
X188491368Y-119864512D01*
X188482354Y-119894416D01*
X188474532Y-119931717D01*
X188467809Y-119978363D01*
X188462094Y-120036301D01*
X188457293Y-120107479D01*
X188453315Y-120193844D01*
X188450065Y-120297344D01*
X188447452Y-120419925D01*
X188445383Y-120563537D01*
X188443766Y-120730125D01*
X188442507Y-120921637D01*
X188441515Y-121140022D01*
X188440696Y-121387226D01*
X188439958Y-121665196D01*
X188439209Y-121975881D01*
X188438508Y-122261300D01*
X188437847Y-122579492D01*
X188437503Y-122883077D01*
X188437468Y-123170115D01*
X188437732Y-123438669D01*
X188438285Y-123686798D01*
X188439120Y-123912563D01*
X188440227Y-124114026D01*
X188441596Y-124289246D01*
X188443219Y-124436286D01*
X188445087Y-124553206D01*
X188447189Y-124638067D01*
X188449518Y-124688929D01*
X188449959Y-124694304D01*
X188466008Y-124817613D01*
X188491064Y-124916644D01*
X188529221Y-125003070D01*
X188584572Y-125088565D01*
X188591496Y-125097893D01*
X188635704Y-125156857D01*
X189119916Y-125156857D01*
X189120892Y-125049168D01*
X189122001Y-124864976D01*
X189122801Y-124656784D01*
X189123339Y-124423091D01*
X189123662Y-124162398D01*
X189123817Y-123873204D01*
X189123854Y-123554009D01*
X189123817Y-123203313D01*
X189123755Y-122819614D01*
X189123715Y-122401414D01*
X189123714Y-122318393D01*
X189123691Y-121895789D01*
X189123612Y-121507981D01*
X189123467Y-121153480D01*
X189123244Y-120830797D01*
X189122931Y-120538442D01*
X189122517Y-120274927D01*
X189121991Y-120038762D01*
X189121340Y-119828458D01*
X189120553Y-119642526D01*
X189119619Y-119479475D01*
X189118526Y-119337818D01*
X189117263Y-119216064D01*
X189115817Y-119112725D01*
X189114179Y-119026311D01*
X189112334Y-118955333D01*
X189110274Y-118898301D01*
X189107985Y-118853727D01*
X189105456Y-118820121D01*
X189102676Y-118795993D01*
X189099633Y-118779856D01*
X189096316Y-118770218D01*
X189096193Y-118769978D01*
X189089360Y-118755255D01*
X189083670Y-118741926D01*
X189077374Y-118729922D01*
X189068728Y-118719173D01*
X189055986Y-118709611D01*
X189037400Y-118701167D01*
X189011226Y-118693771D01*
X188975716Y-118687354D01*
X188929125Y-118681848D01*
X188869707Y-118677183D01*
X188795715Y-118673291D01*
X188705403Y-118670102D01*
X188597025Y-118667547D01*
X188468835Y-118665558D01*
X188319087Y-118664065D01*
X188146034Y-118662998D01*
X187947931Y-118662291D01*
X187723031Y-118661872D01*
X187469588Y-118661673D01*
X187185856Y-118661626D01*
X186870089Y-118661660D01*
G37*
X186870089Y-118661660D02*
X186520540Y-118661707D01*
X186357830Y-118661714D01*
X183753429Y-118661715D01*
X183753429Y-118815238D01*
X183737043Y-119002063D01*
X183687588Y-119174367D01*
X183604620Y-119333175D01*
X183487695Y-119479510D01*
X183448136Y-119519032D01*
X183305830Y-119631138D01*
X183148922Y-119712899D01*
X182982072Y-119764353D01*
X182809939Y-119785537D01*
X182637185Y-119776487D01*
X182468470Y-119737242D01*
X182308454Y-119667838D01*
X182161798Y-119568311D01*
X182095932Y-119508265D01*
X181973192Y-119361043D01*
X181883188Y-119199147D01*
X181826706Y-119024427D01*
X181804529Y-118838735D01*
X181804234Y-118820467D01*
X181803072Y-118661720D01*
X181733300Y-118661717D01*
X181671405Y-118670118D01*
X181614865Y-118690556D01*
X181611128Y-118692667D01*
X181598358Y-118699293D01*
X181586632Y-118704454D01*
X181575906Y-118709651D01*
X181566139Y-118716390D01*
X181557288Y-118726171D01*
X181549311Y-118740500D01*
X181542165Y-118760878D01*
X181535808Y-118788808D01*
X181530198Y-118825795D01*
X181525293Y-118873340D01*
X181521049Y-118932947D01*
X181517424Y-119006119D01*
X181514377Y-119094359D01*
X181511864Y-119199170D01*
X181509844Y-119322055D01*
X181508274Y-119464517D01*
X181507112Y-119628060D01*
X181506314Y-119814186D01*
X181505840Y-120024398D01*
X181505646Y-120260200D01*
X181505690Y-120523094D01*
X181505930Y-120814584D01*
X181506323Y-121136172D01*
X181506827Y-121489362D01*
X181507400Y-121875657D01*
X181507999Y-122296560D01*
X181508068Y-122347840D01*
X181508605Y-122771426D01*
X181509061Y-123160230D01*
X181509484Y-123515753D01*
X181509921Y-123839498D01*
X181510422Y-124132966D01*
X181511035Y-124397661D01*
X181511808Y-124635085D01*
X181512789Y-124846740D01*
X181514026Y-125034129D01*
X181515568Y-125198754D01*
X181517463Y-125342117D01*
X181519759Y-125465720D01*
X181522504Y-125571067D01*
X181525747Y-125659659D01*
X181529536Y-125733000D01*
X181533919Y-125792590D01*
X181538945Y-125839933D01*
X181544661Y-125876531D01*
X181551116Y-125903886D01*
X181558359Y-125923502D01*
X181566437Y-125936879D01*
X181575398Y-125945521D01*
X181585292Y-125950930D01*
X181596165Y-125954608D01*
X181608067Y-125958058D01*
X181621046Y-125962782D01*
X181624217Y-125964220D01*
X181634181Y-125967451D01*
X181650859Y-125970420D01*
X181675707Y-125973137D01*
X181710180Y-125975613D01*
X181755736Y-125977858D01*
X181813830Y-125979883D01*
X181885919Y-125981698D01*
X181973458Y-125983315D01*
X182077905Y-125984743D01*
X182200715Y-125985993D01*
X182343345Y-125987076D01*
X182507251Y-125988002D01*
X182693890Y-125988782D01*
X182904716Y-125989426D01*
X183141188Y-125989946D01*
X183404761Y-125990351D01*
X183696890Y-125990652D01*
X184019034Y-125990860D01*
X184372647Y-125990985D01*
X184759186Y-125991038D01*
X185180108Y-125991029D01*
X185316456Y-125991016D01*
X185746716Y-125990947D01*
X186142164Y-125990834D01*
X186504273Y-125990665D01*
X186834517Y-125990430D01*
X187134371Y-125990116D01*
X187405308Y-125989713D01*
X187648800Y-125989207D01*
X187866323Y-125988589D01*
X188059350Y-125987846D01*
X188229354Y-125986968D01*
X188377810Y-125985941D01*
X188506190Y-125984756D01*
X188615969Y-125983400D01*
X188708620Y-125981862D01*
X188785617Y-125980130D01*
X188848434Y-125978194D01*
X188898544Y-125976040D01*
X188937421Y-125973659D01*
X188966538Y-125971037D01*
X188987371Y-125968165D01*
X189001391Y-125965030D01*
X189009034Y-125962159D01*
X189022618Y-125956430D01*
X189035090Y-125952206D01*
X189046498Y-125947985D01*
X189056889Y-125942268D01*
X189066309Y-125933555D01*
X189074808Y-125920345D01*
X189082430Y-125901137D01*
X189089225Y-125874433D01*
X189095238Y-125838730D01*
X189100517Y-125792530D01*
X189105110Y-125734332D01*
X189109064Y-125662635D01*
X189112425Y-125575940D01*
X189115241Y-125472746D01*
X189117560Y-125351553D01*
X189119428Y-125210860D01*
X189119916Y-125156857D01*
X188635704Y-125156857D01*
X186924256Y-125156857D01*
X186957187Y-125106964D01*
X186989947Y-125055693D01*
X187017689Y-125006869D01*
X187040807Y-124957076D01*
X187059697Y-124902898D01*
X187074751Y-124840916D01*
X187086367Y-124767715D01*
X187094936Y-124679878D01*
X187100856Y-124573988D01*
X187104519Y-124446628D01*
X187106321Y-124294381D01*
X187106656Y-124113832D01*
X187105919Y-123901562D01*
X187105501Y-123822755D01*
X187100786Y-122977911D01*
X186565572Y-123706557D01*
X186413946Y-123913265D01*
X186282581Y-124093260D01*
X186170057Y-124248925D01*
X186074957Y-124382647D01*
X185995862Y-124496809D01*
X185931353Y-124593797D01*
X185880012Y-124675994D01*
X185840420Y-124745786D01*
X185811160Y-124805558D01*
X185790812Y-124857693D01*
X185777958Y-124904576D01*
X185771181Y-124948593D01*
X185769060Y-124992127D01*
X185770179Y-125037564D01*
X185770464Y-125043275D01*
X185776357Y-125156933D01*
X183900771Y-125156857D01*
X184040278Y-125016189D01*
X184078135Y-124977715D01*
X184114047Y-124940279D01*
X184149593Y-124901814D01*
X184186347Y-124860258D01*
X184225886Y-124813545D01*
X184269786Y-124759610D01*
X184319623Y-124696390D01*
X184376972Y-124621818D01*
X184443411Y-124533832D01*
X184520515Y-124430365D01*
X184609861Y-124309354D01*
X184713024Y-124168734D01*
X184831580Y-124006440D01*
X184967105Y-123820407D01*
X185121177Y-123608571D01*
X185247462Y-123434804D01*
X185405954Y-123216501D01*
X185544216Y-123025629D01*
X185663499Y-122860374D01*
X185765057Y-122718926D01*
X185850141Y-122599471D01*
X185920005Y-122500198D01*
X185975900Y-122419295D01*
X186019080Y-122354949D01*
X186050797Y-122305347D01*
X186072302Y-122268679D01*
X186084850Y-122243132D01*
X186089692Y-122226893D01*
X186088237Y-122218355D01*
X186070599Y-122195635D01*
X186032466Y-122147543D01*
X185976138Y-122076938D01*
X185903916Y-121986678D01*
X185818101Y-121879621D01*
X185720994Y-121758627D01*
X185614896Y-121626554D01*
X185502109Y-121486260D01*
X185384932Y-121340603D01*
X185265667Y-121192444D01*
X185200067Y-121111000D01*
X183571314Y-121111000D01*
X183503621Y-121233465D01*
X183435929Y-121355929D01*
X183435929Y-124911929D01*
X183503621Y-125034393D01*
X183571314Y-125156857D01*
X182770559Y-125156857D01*
X182579398Y-125156802D01*
X182421501Y-125156551D01*
X182293848Y-125155979D01*
X182193419Y-125154959D01*
X182117193Y-125153365D01*
X182062148Y-125151070D01*
X182025264Y-125147950D01*
X182003521Y-125143877D01*
X181993898Y-125138725D01*
X181993373Y-125132367D01*
X181998926Y-125124679D01*
X181998984Y-125124615D01*
X182021860Y-125091524D01*
X182052151Y-125037719D01*
X182078903Y-124984008D01*
X182129643Y-124875643D01*
X182134818Y-122993322D01*
X182139993Y-121111000D01*
X183571314Y-121111000D01*
X185200067Y-121111000D01*
X185146615Y-121044639D01*
X185030077Y-120900047D01*
X184918354Y-120761528D01*
X184813746Y-120631939D01*
X184718556Y-120514140D01*
X184635083Y-120410988D01*
X184565629Y-120325343D01*
X184512494Y-120260062D01*
X184481285Y-120222000D01*
X184360097Y-120079670D01*
X184243507Y-119951230D01*
X184135603Y-119840886D01*
X184040470Y-119752841D01*
X183972957Y-119698862D01*
X183893127Y-119641429D01*
X185729108Y-119641429D01*
X185728592Y-119749165D01*
X185733724Y-119828372D01*
X185753015Y-119901805D01*
X185782877Y-119971415D01*
X185802288Y-120010741D01*
X185823159Y-120049707D01*
X185847396Y-120090901D01*
X185876906Y-120136908D01*
X185913594Y-120190317D01*
X185959368Y-120253714D01*
X186016135Y-120329685D01*
X186085800Y-120420817D01*
X186170270Y-120529698D01*
X186271453Y-120658914D01*
X186391253Y-120811052D01*
X186531579Y-120988698D01*
X186547429Y-121008742D01*
X187100786Y-121708508D01*
X187106143Y-120933504D01*
X187107221Y-120701368D01*
X187106992Y-120504846D01*
X187105443Y-120343292D01*
X187102563Y-120216056D01*
X187098341Y-120122492D01*
X187092766Y-120061952D01*
X187090893Y-120050468D01*
X187061495Y-119929499D01*
X187022978Y-119820446D01*
X186979026Y-119732763D01*
X186952621Y-119695574D01*
X186907060Y-119641429D01*
X187771530Y-119641429D01*
X187977745Y-119641605D01*
X188150188Y-119642179D01*
X188291373Y-119643217D01*
X188403812Y-119644787D01*
X188490017Y-119646954D01*
X188552502Y-119649788D01*
X188593779Y-119653353D01*
X188616360Y-119657718D01*
X188622759Y-119662949D01*
X188622317Y-119664107D01*
X188603991Y-119691769D01*
X188573396Y-119735615D01*
X188557567Y-119757791D01*
X188541202Y-119779920D01*
X188526492Y-119799709D01*
X188513344Y-119819106D01*
X188501667Y-119840058D01*
X188491368Y-119864512D01*
X188482354Y-119894416D01*
X188474532Y-119931717D01*
X188467809Y-119978363D01*
X188462094Y-120036301D01*
X188457293Y-120107479D01*
X188453315Y-120193844D01*
X188450065Y-120297344D01*
X188447452Y-120419925D01*
X188445383Y-120563537D01*
X188443766Y-120730125D01*
X188442507Y-120921637D01*
X188441515Y-121140022D01*
X188440696Y-121387226D01*
X188439958Y-121665196D01*
X188439209Y-121975881D01*
X188438508Y-122261300D01*
X188437847Y-122579492D01*
X188437503Y-122883077D01*
X188437468Y-123170115D01*
X188437732Y-123438669D01*
X188438285Y-123686798D01*
X188439120Y-123912563D01*
X188440227Y-124114026D01*
X188441596Y-124289246D01*
X188443219Y-124436286D01*
X188445087Y-124553206D01*
X188447189Y-124638067D01*
X188449518Y-124688929D01*
X188449959Y-124694304D01*
X188466008Y-124817613D01*
X188491064Y-124916644D01*
X188529221Y-125003070D01*
X188584572Y-125088565D01*
X188591496Y-125097893D01*
X188635704Y-125156857D01*
X189119916Y-125156857D01*
X189120892Y-125049168D01*
X189122001Y-124864976D01*
X189122801Y-124656784D01*
X189123339Y-124423091D01*
X189123662Y-124162398D01*
X189123817Y-123873204D01*
X189123854Y-123554009D01*
X189123817Y-123203313D01*
X189123755Y-122819614D01*
X189123715Y-122401414D01*
X189123714Y-122318393D01*
X189123691Y-121895789D01*
X189123612Y-121507981D01*
X189123467Y-121153480D01*
X189123244Y-120830797D01*
X189122931Y-120538442D01*
X189122517Y-120274927D01*
X189121991Y-120038762D01*
X189121340Y-119828458D01*
X189120553Y-119642526D01*
X189119619Y-119479475D01*
X189118526Y-119337818D01*
X189117263Y-119216064D01*
X189115817Y-119112725D01*
X189114179Y-119026311D01*
X189112334Y-118955333D01*
X189110274Y-118898301D01*
X189107985Y-118853727D01*
X189105456Y-118820121D01*
X189102676Y-118795993D01*
X189099633Y-118779856D01*
X189096316Y-118770218D01*
X189096193Y-118769978D01*
X189089360Y-118755255D01*
X189083670Y-118741926D01*
X189077374Y-118729922D01*
X189068728Y-118719173D01*
X189055986Y-118709611D01*
X189037400Y-118701167D01*
X189011226Y-118693771D01*
X188975716Y-118687354D01*
X188929125Y-118681848D01*
X188869707Y-118677183D01*
X188795715Y-118673291D01*
X188705403Y-118670102D01*
X188597025Y-118667547D01*
X188468835Y-118665558D01*
X188319087Y-118664065D01*
X188146034Y-118662998D01*
X187947931Y-118662291D01*
X187723031Y-118661872D01*
X187469588Y-118661673D01*
X187185856Y-118661626D01*
X186870089Y-118661660D01*
G36*
X182860122Y-110287776D02*
G01*
X182754388Y-110288355D01*
X182677868Y-110289922D01*
X182625628Y-110292972D01*
X182592737Y-110297996D01*
X182574263Y-110305489D01*
X182565273Y-110315944D01*
X182560837Y-110329853D01*
X182560406Y-110331654D01*
X182553667Y-110364145D01*
X182541192Y-110428252D01*
X182524281Y-110517151D01*
X182504229Y-110624019D01*
X182482336Y-110742033D01*
X182481571Y-110746178D01*
X182459641Y-110861831D01*
X182439123Y-110964014D01*
X182421341Y-111046598D01*
X182407619Y-111103456D01*
X182399282Y-111128458D01*
X182398884Y-111128901D01*
X182374323Y-111141110D01*
X182323685Y-111161456D01*
X182257905Y-111185545D01*
X182257539Y-111185674D01*
X182174683Y-111216818D01*
X182077000Y-111256491D01*
X181984923Y-111296381D01*
X181980566Y-111298353D01*
X181830593Y-111366420D01*
X181498502Y-111139639D01*
X181396626Y-111070504D01*
X181304343Y-111008697D01*
X181226997Y-110957733D01*
X181169936Y-110921127D01*
X181138505Y-110902394D01*
X181135521Y-110901004D01*
X181112679Y-110907190D01*
X181070018Y-110937035D01*
X181005872Y-110991947D01*
X180918579Y-111073334D01*
X180829465Y-111159922D01*
X180743559Y-111245247D01*
X180666673Y-111323108D01*
X180603436Y-111388697D01*
X180558477Y-111437205D01*
X180536424Y-111463825D01*
X180535604Y-111465195D01*
X180533166Y-111483463D01*
X180542350Y-111513295D01*
X180565426Y-111558721D01*
X180604663Y-111623770D01*
X180662330Y-111712470D01*
X180739205Y-111826657D01*
X180807430Y-111927162D01*
X180868418Y-112017303D01*
X180918644Y-112091849D01*
X180954584Y-112145565D01*
X180972713Y-112173218D01*
X180973854Y-112175095D01*
X180971641Y-112201590D01*
X180954862Y-112253086D01*
X180926858Y-112319851D01*
X180916878Y-112341172D01*
X180873328Y-112436159D01*
X180826866Y-112543937D01*
X180789123Y-112637192D01*
X180761927Y-112706406D01*
X180740325Y-112759006D01*
X180727842Y-112786497D01*
X180726291Y-112788616D01*
X180703332Y-112792124D01*
X180649214Y-112801738D01*
X180571132Y-112816089D01*
X180476281Y-112833807D01*
X180371857Y-112853525D01*
X180265056Y-112873874D01*
X180163074Y-112893486D01*
X180073106Y-112910991D01*
X180002347Y-112925022D01*
X179957994Y-112934209D01*
X179947115Y-112936807D01*
X179935878Y-112943218D01*
X179927395Y-112957697D01*
X179921286Y-112985133D01*
X179917168Y-113030411D01*
X179914659Y-113098420D01*
X179913379Y-113194047D01*
X179912946Y-113322180D01*
X179912923Y-113374701D01*
X179912923Y-113801845D01*
X180015500Y-113822091D01*
X180072569Y-113833070D01*
X180157731Y-113849095D01*
X180260628Y-113868233D01*
X180370904Y-113888551D01*
X180401385Y-113894132D01*
X180503145Y-113913917D01*
X180591795Y-113933373D01*
X180659892Y-113950697D01*
X180699996Y-113964088D01*
X180706677Y-113968079D01*
X180723081Y-113996342D01*
X180746601Y-114051109D01*
X180772684Y-114121588D01*
X180777858Y-114136769D01*
X180812044Y-114230896D01*
X180854477Y-114337101D01*
X180896003Y-114432473D01*
X180896208Y-114432916D01*
X180965360Y-114582525D01*
X180510488Y-115251617D01*
X180802500Y-115544116D01*
X180890820Y-115631170D01*
X180971375Y-115707909D01*
X181039640Y-115770237D01*
X181091092Y-115814056D01*
X181121206Y-115835270D01*
X181125526Y-115836616D01*
X181150889Y-115826016D01*
X181202642Y-115796547D01*
X181275132Y-115751705D01*
X181362706Y-115694984D01*
X181457388Y-115631462D01*
X181553484Y-115566668D01*
X181639163Y-115510287D01*
X181708984Y-115465788D01*
X181757506Y-115436639D01*
X181779218Y-115426308D01*
X181805707Y-115435050D01*
X181855938Y-115458087D01*
X181919549Y-115490631D01*
X181926292Y-115494249D01*
X182011954Y-115537210D01*
X182070694Y-115558279D01*
X182107228Y-115558503D01*
X182126269Y-115538928D01*
X182126380Y-115538654D01*
X182135898Y-115515472D01*
X182158597Y-115460441D01*
X182192718Y-115377822D01*
X182236500Y-115271872D01*
X182288184Y-115146852D01*
X182346008Y-115007020D01*
X182402009Y-114871637D01*
X182463553Y-114722234D01*
X182520061Y-114583832D01*
X182569839Y-114460673D01*
X182611194Y-114357002D01*
X182642432Y-114277059D01*
X182661859Y-114225088D01*
X182667846Y-114205692D01*
X182652832Y-114183443D01*
X182613561Y-114147982D01*
X182561193Y-114108887D01*
X182412059Y-113985245D01*
X182295489Y-113843522D01*
X182212882Y-113686704D01*
X182165634Y-113517775D01*
X182155143Y-113339722D01*
X182162769Y-113257539D01*
X182204318Y-113087031D01*
X182275877Y-112936459D01*
X182373005Y-112807309D01*
X182491266Y-112701064D01*
X182626220Y-112619210D01*
X182773429Y-112563232D01*
X182928456Y-112534615D01*
X183086861Y-112534844D01*
X183244206Y-112565405D01*
X183396054Y-112627782D01*
X183537965Y-112723460D01*
X183597197Y-112777572D01*
X183710797Y-112916520D01*
X183789894Y-113068361D01*
X183835014Y-113228667D01*
X183846684Y-113393012D01*
X183825431Y-113556971D01*
X183771780Y-113716118D01*
X183686260Y-113866025D01*
X183569395Y-114002267D01*
X183438807Y-114108887D01*
X183384412Y-114149642D01*
X183345986Y-114184718D01*
X183332154Y-114205726D01*
X183339397Y-114228635D01*
X183359995Y-114283365D01*
X183392254Y-114365672D01*
X183434479Y-114471315D01*
X183484977Y-114596050D01*
X183542052Y-114735636D01*
X183598146Y-114871670D01*
X183660033Y-115021201D01*
X183717356Y-115159767D01*
X183768356Y-115283107D01*
X183811273Y-115386964D01*
X183844347Y-115467080D01*
X183865819Y-115519195D01*
X183873775Y-115538654D01*
X183892571Y-115558423D01*
X183928926Y-115558365D01*
X183987521Y-115537441D01*
X184073032Y-115494613D01*
X184073708Y-115494249D01*
X184138093Y-115461012D01*
X184190139Y-115436802D01*
X184219488Y-115426404D01*
X184220783Y-115426308D01*
X184242876Y-115436855D01*
X184291652Y-115466184D01*
X184361669Y-115510827D01*
X184447486Y-115567314D01*
X184542612Y-115631462D01*
X184639460Y-115696411D01*
X184726747Y-115752896D01*
X184798819Y-115797421D01*
X184850023Y-115826490D01*
X184874474Y-115836616D01*
X184896990Y-115823307D01*
X184942258Y-115786112D01*
X185005756Y-115729128D01*
X185082961Y-115656449D01*
X185169349Y-115572171D01*
X185197601Y-115544016D01*
X185489713Y-115251416D01*
X185267369Y-114925104D01*
X185199798Y-114824897D01*
X185140493Y-114734963D01*
X185092783Y-114660510D01*
X185059993Y-114606751D01*
X185045452Y-114578894D01*
X185045026Y-114576912D01*
X185052692Y-114550655D01*
X185073311Y-114497837D01*
X185103315Y-114427310D01*
X185124375Y-114380093D01*
X185163752Y-114289694D01*
X185200835Y-114198366D01*
X185229585Y-114121200D01*
X185237395Y-114097692D01*
X185259583Y-114034916D01*
X185281273Y-113986411D01*
X185293187Y-113968079D01*
X185319477Y-113956859D01*
X185376858Y-113940954D01*
X185457882Y-113922167D01*
X185555105Y-113902299D01*
X185598615Y-113894132D01*
X185709104Y-113873829D01*
X185815084Y-113854170D01*
X185906199Y-113837088D01*
X185972092Y-113824518D01*
X185984500Y-113822091D01*
X186087077Y-113801845D01*
X186087077Y-113374701D01*
X186086847Y-113234246D01*
X186085901Y-113127979D01*
X186083859Y-113051013D01*
X186080338Y-112998460D01*
X186074957Y-112965433D01*
X186067334Y-112947045D01*
X186057088Y-112938408D01*
X186052885Y-112936807D01*
X186027530Y-112931127D01*
X185971516Y-112919795D01*
X185892036Y-112904179D01*
X185796288Y-112885647D01*
X185691467Y-112865569D01*
X185584768Y-112845312D01*
X185483387Y-112826246D01*
X185394521Y-112809739D01*
X185325363Y-112797159D01*
X185283111Y-112789875D01*
X185273710Y-112788616D01*
X185265193Y-112771763D01*
X185246340Y-112726870D01*
X185220676Y-112662430D01*
X185210877Y-112637192D01*
X185171352Y-112539686D01*
X185124808Y-112431959D01*
X185083123Y-112341172D01*
X185052450Y-112271753D01*
X185032044Y-112214710D01*
X185025232Y-112179777D01*
X185026318Y-112175095D01*
X185040715Y-112152991D01*
X185073588Y-112103831D01*
X185121410Y-112032848D01*
X185180652Y-111945278D01*
X185247785Y-111846357D01*
X185261059Y-111826830D01*
X185338954Y-111711140D01*
X185396213Y-111623044D01*
X185435119Y-111558486D01*
X185457956Y-111513411D01*
X185467006Y-111483763D01*
X185464552Y-111465485D01*
X185464489Y-111465369D01*
X185445173Y-111441361D01*
X185402449Y-111394947D01*
X185340949Y-111330937D01*
X185265302Y-111254145D01*
X185180139Y-111169382D01*
X185170535Y-111159922D01*
X185063210Y-111055989D01*
X184980385Y-110979675D01*
X184920395Y-110929571D01*
X184881577Y-110904270D01*
X184864480Y-110901004D01*
X184839527Y-110915250D01*
X184787745Y-110948156D01*
X184714480Y-110996208D01*
X184625080Y-111055890D01*
X184524889Y-111123688D01*
X184501499Y-111139639D01*
X184169407Y-111366420D01*
X184019435Y-111298353D01*
X183928230Y-111258685D01*
X183830331Y-111218791D01*
X183746169Y-111186983D01*
X183742462Y-111185674D01*
X183676631Y-111161576D01*
X183625884Y-111141200D01*
X183601158Y-111128936D01*
X183601116Y-111128901D01*
X183593271Y-111106734D01*
X183579934Y-111052217D01*
X183562430Y-110971480D01*
X183542083Y-110870650D01*
X183520218Y-110755856D01*
X183518429Y-110746178D01*
X183496496Y-110627904D01*
X183476360Y-110520542D01*
X183459320Y-110430917D01*
X183446672Y-110365851D01*
X183439716Y-110332168D01*
X183439594Y-110331654D01*
X183435361Y-110317325D01*
X183427129Y-110306507D01*
X183409967Y-110298706D01*
X183378942Y-110293429D01*
X183329122Y-110290182D01*
X183255576Y-110288472D01*
X183153371Y-110287807D01*
X183017575Y-110287693D01*
X183000000Y-110287692D01*
X182860122Y-110287776D01*
G37*
X182860122Y-110287776D02*
X182754388Y-110288355D01*
X182677868Y-110289922D01*
X182625628Y-110292972D01*
X182592737Y-110297996D01*
X182574263Y-110305489D01*
X182565273Y-110315944D01*
X182560837Y-110329853D01*
X182560406Y-110331654D01*
X182553667Y-110364145D01*
X182541192Y-110428252D01*
X182524281Y-110517151D01*
X182504229Y-110624019D01*
X182482336Y-110742033D01*
X182481571Y-110746178D01*
X182459641Y-110861831D01*
X182439123Y-110964014D01*
X182421341Y-111046598D01*
X182407619Y-111103456D01*
X182399282Y-111128458D01*
X182398884Y-111128901D01*
X182374323Y-111141110D01*
X182323685Y-111161456D01*
X182257905Y-111185545D01*
X182257539Y-111185674D01*
X182174683Y-111216818D01*
X182077000Y-111256491D01*
X181984923Y-111296381D01*
X181980566Y-111298353D01*
X181830593Y-111366420D01*
X181498502Y-111139639D01*
X181396626Y-111070504D01*
X181304343Y-111008697D01*
X181226997Y-110957733D01*
X181169936Y-110921127D01*
X181138505Y-110902394D01*
X181135521Y-110901004D01*
X181112679Y-110907190D01*
X181070018Y-110937035D01*
X181005872Y-110991947D01*
X180918579Y-111073334D01*
X180829465Y-111159922D01*
X180743559Y-111245247D01*
X180666673Y-111323108D01*
X180603436Y-111388697D01*
X180558477Y-111437205D01*
X180536424Y-111463825D01*
X180535604Y-111465195D01*
X180533166Y-111483463D01*
X180542350Y-111513295D01*
X180565426Y-111558721D01*
X180604663Y-111623770D01*
X180662330Y-111712470D01*
X180739205Y-111826657D01*
X180807430Y-111927162D01*
X180868418Y-112017303D01*
X180918644Y-112091849D01*
X180954584Y-112145565D01*
X180972713Y-112173218D01*
X180973854Y-112175095D01*
X180971641Y-112201590D01*
X180954862Y-112253086D01*
X180926858Y-112319851D01*
X180916878Y-112341172D01*
X180873328Y-112436159D01*
X180826866Y-112543937D01*
X180789123Y-112637192D01*
X180761927Y-112706406D01*
X180740325Y-112759006D01*
X180727842Y-112786497D01*
X180726291Y-112788616D01*
X180703332Y-112792124D01*
X180649214Y-112801738D01*
X180571132Y-112816089D01*
X180476281Y-112833807D01*
X180371857Y-112853525D01*
X180265056Y-112873874D01*
X180163074Y-112893486D01*
X180073106Y-112910991D01*
X180002347Y-112925022D01*
X179957994Y-112934209D01*
X179947115Y-112936807D01*
X179935878Y-112943218D01*
X179927395Y-112957697D01*
X179921286Y-112985133D01*
X179917168Y-113030411D01*
X179914659Y-113098420D01*
X179913379Y-113194047D01*
X179912946Y-113322180D01*
X179912923Y-113374701D01*
X179912923Y-113801845D01*
X180015500Y-113822091D01*
X180072569Y-113833070D01*
X180157731Y-113849095D01*
X180260628Y-113868233D01*
X180370904Y-113888551D01*
X180401385Y-113894132D01*
X180503145Y-113913917D01*
X180591795Y-113933373D01*
X180659892Y-113950697D01*
X180699996Y-113964088D01*
X180706677Y-113968079D01*
X180723081Y-113996342D01*
X180746601Y-114051109D01*
X180772684Y-114121588D01*
X180777858Y-114136769D01*
X180812044Y-114230896D01*
X180854477Y-114337101D01*
X180896003Y-114432473D01*
X180896208Y-114432916D01*
X180965360Y-114582525D01*
X180510488Y-115251617D01*
X180802500Y-115544116D01*
X180890820Y-115631170D01*
X180971375Y-115707909D01*
X181039640Y-115770237D01*
X181091092Y-115814056D01*
X181121206Y-115835270D01*
X181125526Y-115836616D01*
X181150889Y-115826016D01*
X181202642Y-115796547D01*
X181275132Y-115751705D01*
X181362706Y-115694984D01*
X181457388Y-115631462D01*
X181553484Y-115566668D01*
X181639163Y-115510287D01*
X181708984Y-115465788D01*
X181757506Y-115436639D01*
X181779218Y-115426308D01*
X181805707Y-115435050D01*
X181855938Y-115458087D01*
X181919549Y-115490631D01*
X181926292Y-115494249D01*
X182011954Y-115537210D01*
X182070694Y-115558279D01*
X182107228Y-115558503D01*
X182126269Y-115538928D01*
X182126380Y-115538654D01*
X182135898Y-115515472D01*
X182158597Y-115460441D01*
X182192718Y-115377822D01*
X182236500Y-115271872D01*
X182288184Y-115146852D01*
X182346008Y-115007020D01*
X182402009Y-114871637D01*
X182463553Y-114722234D01*
X182520061Y-114583832D01*
X182569839Y-114460673D01*
X182611194Y-114357002D01*
X182642432Y-114277059D01*
X182661859Y-114225088D01*
X182667846Y-114205692D01*
X182652832Y-114183443D01*
X182613561Y-114147982D01*
X182561193Y-114108887D01*
X182412059Y-113985245D01*
X182295489Y-113843522D01*
X182212882Y-113686704D01*
X182165634Y-113517775D01*
X182155143Y-113339722D01*
X182162769Y-113257539D01*
X182204318Y-113087031D01*
X182275877Y-112936459D01*
X182373005Y-112807309D01*
X182491266Y-112701064D01*
X182626220Y-112619210D01*
X182773429Y-112563232D01*
X182928456Y-112534615D01*
X183086861Y-112534844D01*
X183244206Y-112565405D01*
X183396054Y-112627782D01*
X183537965Y-112723460D01*
X183597197Y-112777572D01*
X183710797Y-112916520D01*
X183789894Y-113068361D01*
X183835014Y-113228667D01*
X183846684Y-113393012D01*
X183825431Y-113556971D01*
X183771780Y-113716118D01*
X183686260Y-113866025D01*
X183569395Y-114002267D01*
X183438807Y-114108887D01*
X183384412Y-114149642D01*
X183345986Y-114184718D01*
X183332154Y-114205726D01*
X183339397Y-114228635D01*
X183359995Y-114283365D01*
X183392254Y-114365672D01*
X183434479Y-114471315D01*
X183484977Y-114596050D01*
X183542052Y-114735636D01*
X183598146Y-114871670D01*
X183660033Y-115021201D01*
X183717356Y-115159767D01*
X183768356Y-115283107D01*
X183811273Y-115386964D01*
X183844347Y-115467080D01*
X183865819Y-115519195D01*
X183873775Y-115538654D01*
X183892571Y-115558423D01*
X183928926Y-115558365D01*
X183987521Y-115537441D01*
X184073032Y-115494613D01*
X184073708Y-115494249D01*
X184138093Y-115461012D01*
X184190139Y-115436802D01*
X184219488Y-115426404D01*
X184220783Y-115426308D01*
X184242876Y-115436855D01*
X184291652Y-115466184D01*
X184361669Y-115510827D01*
X184447486Y-115567314D01*
X184542612Y-115631462D01*
X184639460Y-115696411D01*
X184726747Y-115752896D01*
X184798819Y-115797421D01*
X184850023Y-115826490D01*
X184874474Y-115836616D01*
X184896990Y-115823307D01*
X184942258Y-115786112D01*
X185005756Y-115729128D01*
X185082961Y-115656449D01*
X185169349Y-115572171D01*
X185197601Y-115544016D01*
X185489713Y-115251416D01*
X185267369Y-114925104D01*
X185199798Y-114824897D01*
X185140493Y-114734963D01*
X185092783Y-114660510D01*
X185059993Y-114606751D01*
X185045452Y-114578894D01*
X185045026Y-114576912D01*
X185052692Y-114550655D01*
X185073311Y-114497837D01*
X185103315Y-114427310D01*
X185124375Y-114380093D01*
X185163752Y-114289694D01*
X185200835Y-114198366D01*
X185229585Y-114121200D01*
X185237395Y-114097692D01*
X185259583Y-114034916D01*
X185281273Y-113986411D01*
X185293187Y-113968079D01*
X185319477Y-113956859D01*
X185376858Y-113940954D01*
X185457882Y-113922167D01*
X185555105Y-113902299D01*
X185598615Y-113894132D01*
X185709104Y-113873829D01*
X185815084Y-113854170D01*
X185906199Y-113837088D01*
X185972092Y-113824518D01*
X185984500Y-113822091D01*
X186087077Y-113801845D01*
X186087077Y-113374701D01*
X186086847Y-113234246D01*
X186085901Y-113127979D01*
X186083859Y-113051013D01*
X186080338Y-112998460D01*
X186074957Y-112965433D01*
X186067334Y-112947045D01*
X186057088Y-112938408D01*
X186052885Y-112936807D01*
X186027530Y-112931127D01*
X185971516Y-112919795D01*
X185892036Y-112904179D01*
X185796288Y-112885647D01*
X185691467Y-112865569D01*
X185584768Y-112845312D01*
X185483387Y-112826246D01*
X185394521Y-112809739D01*
X185325363Y-112797159D01*
X185283111Y-112789875D01*
X185273710Y-112788616D01*
X185265193Y-112771763D01*
X185246340Y-112726870D01*
X185220676Y-112662430D01*
X185210877Y-112637192D01*
X185171352Y-112539686D01*
X185124808Y-112431959D01*
X185083123Y-112341172D01*
X185052450Y-112271753D01*
X185032044Y-112214710D01*
X185025232Y-112179777D01*
X185026318Y-112175095D01*
X185040715Y-112152991D01*
X185073588Y-112103831D01*
X185121410Y-112032848D01*
X185180652Y-111945278D01*
X185247785Y-111846357D01*
X185261059Y-111826830D01*
X185338954Y-111711140D01*
X185396213Y-111623044D01*
X185435119Y-111558486D01*
X185457956Y-111513411D01*
X185467006Y-111483763D01*
X185464552Y-111465485D01*
X185464489Y-111465369D01*
X185445173Y-111441361D01*
X185402449Y-111394947D01*
X185340949Y-111330937D01*
X185265302Y-111254145D01*
X185180139Y-111169382D01*
X185170535Y-111159922D01*
X185063210Y-111055989D01*
X184980385Y-110979675D01*
X184920395Y-110929571D01*
X184881577Y-110904270D01*
X184864480Y-110901004D01*
X184839527Y-110915250D01*
X184787745Y-110948156D01*
X184714480Y-110996208D01*
X184625080Y-111055890D01*
X184524889Y-111123688D01*
X184501499Y-111139639D01*
X184169407Y-111366420D01*
X184019435Y-111298353D01*
X183928230Y-111258685D01*
X183830331Y-111218791D01*
X183746169Y-111186983D01*
X183742462Y-111185674D01*
X183676631Y-111161576D01*
X183625884Y-111141200D01*
X183601158Y-111128936D01*
X183601116Y-111128901D01*
X183593271Y-111106734D01*
X183579934Y-111052217D01*
X183562430Y-110971480D01*
X183542083Y-110870650D01*
X183520218Y-110755856D01*
X183518429Y-110746178D01*
X183496496Y-110627904D01*
X183476360Y-110520542D01*
X183459320Y-110430917D01*
X183446672Y-110365851D01*
X183439716Y-110332168D01*
X183439594Y-110331654D01*
X183435361Y-110317325D01*
X183427129Y-110306507D01*
X183409967Y-110298706D01*
X183378942Y-110293429D01*
X183329122Y-110290182D01*
X183255576Y-110288472D01*
X183153371Y-110287807D01*
X183017575Y-110287693D01*
X183000000Y-110287692D01*
X182860122Y-110287776D01*
G36*
X178754776Y-116647838D02*
G01*
X178677472Y-116698361D01*
X178640186Y-116743590D01*
X178610647Y-116825663D01*
X178608301Y-116890607D01*
X178613615Y-116977445D01*
X178813885Y-117065103D01*
X178911261Y-117109887D01*
X178974887Y-117145913D01*
X179007971Y-117177117D01*
X179013720Y-117207436D01*
X178995342Y-117240805D01*
X178975077Y-117262923D01*
X178916111Y-117298393D01*
X178851976Y-117300879D01*
X178793074Y-117273235D01*
X178749803Y-117218320D01*
X178742064Y-117198928D01*
X178704994Y-117138364D01*
X178662346Y-117112552D01*
X178603846Y-117090471D01*
X178603846Y-117174184D01*
X178609018Y-117231150D01*
X178629277Y-117279189D01*
X178671738Y-117334346D01*
X178678049Y-117341514D01*
X178725280Y-117390585D01*
X178765879Y-117416920D01*
X178816672Y-117429035D01*
X178858780Y-117433003D01*
X178934098Y-117433991D01*
X178987714Y-117421466D01*
X179021162Y-117402869D01*
X179073732Y-117361975D01*
X179110121Y-117317748D01*
X179133150Y-117262126D01*
X179145641Y-117187047D01*
X179150413Y-117084449D01*
X179150794Y-117032376D01*
X179149499Y-116969948D01*
X179031529Y-116969948D01*
X179030161Y-117003438D01*
X179026751Y-117008923D01*
X179004247Y-117001472D01*
X178955818Y-116981753D01*
X178891092Y-116953718D01*
X178877557Y-116947692D01*
X178795756Y-116906096D01*
X178750688Y-116869538D01*
X178740783Y-116835296D01*
X178764474Y-116800648D01*
X178784040Y-116785339D01*
X178854640Y-116754721D01*
X178920720Y-116759780D01*
X178976041Y-116797151D01*
X179014364Y-116863473D01*
X179026651Y-116916116D01*
X179031529Y-116969948D01*
X179149499Y-116969948D01*
X179148270Y-116910720D01*
X179138968Y-116820710D01*
X179120540Y-116755167D01*
X179090640Y-116706912D01*
X179046920Y-116668767D01*
X179027859Y-116656440D01*
X178941274Y-116624336D01*
X178846478Y-116622316D01*
X178754776Y-116647838D01*
G37*
X178754776Y-116647838D02*
X178677472Y-116698361D01*
X178640186Y-116743590D01*
X178610647Y-116825663D01*
X178608301Y-116890607D01*
X178613615Y-116977445D01*
X178813885Y-117065103D01*
X178911261Y-117109887D01*
X178974887Y-117145913D01*
X179007971Y-117177117D01*
X179013720Y-117207436D01*
X178995342Y-117240805D01*
X178975077Y-117262923D01*
X178916111Y-117298393D01*
X178851976Y-117300879D01*
X178793074Y-117273235D01*
X178749803Y-117218320D01*
X178742064Y-117198928D01*
X178704994Y-117138364D01*
X178662346Y-117112552D01*
X178603846Y-117090471D01*
X178603846Y-117174184D01*
X178609018Y-117231150D01*
X178629277Y-117279189D01*
X178671738Y-117334346D01*
X178678049Y-117341514D01*
X178725280Y-117390585D01*
X178765879Y-117416920D01*
X178816672Y-117429035D01*
X178858780Y-117433003D01*
X178934098Y-117433991D01*
X178987714Y-117421466D01*
X179021162Y-117402869D01*
X179073732Y-117361975D01*
X179110121Y-117317748D01*
X179133150Y-117262126D01*
X179145641Y-117187047D01*
X179150413Y-117084449D01*
X179150794Y-117032376D01*
X179149499Y-116969948D01*
X179031529Y-116969948D01*
X179030161Y-117003438D01*
X179026751Y-117008923D01*
X179004247Y-117001472D01*
X178955818Y-116981753D01*
X178891092Y-116953718D01*
X178877557Y-116947692D01*
X178795756Y-116906096D01*
X178750688Y-116869538D01*
X178740783Y-116835296D01*
X178764474Y-116800648D01*
X178784040Y-116785339D01*
X178854640Y-116754721D01*
X178920720Y-116759780D01*
X178976041Y-116797151D01*
X179014364Y-116863473D01*
X179026651Y-116916116D01*
X179031529Y-116969948D01*
X179149499Y-116969948D01*
X179148270Y-116910720D01*
X179138968Y-116820710D01*
X179120540Y-116755167D01*
X179090640Y-116706912D01*
X179046920Y-116668767D01*
X179027859Y-116656440D01*
X178941274Y-116624336D01*
X178846478Y-116622316D01*
X178754776Y-116647838D01*
G36*
X179429193Y-116636782D02*
G01*
X179405839Y-116646988D01*
X179350098Y-116691134D01*
X179302431Y-116754967D01*
X179272952Y-116823087D01*
X179268154Y-116856670D01*
X179284240Y-116903556D01*
X179319525Y-116928365D01*
X179357356Y-116943387D01*
X179374679Y-116946155D01*
X179383114Y-116926066D01*
X179399770Y-116882351D01*
X179407077Y-116862598D01*
X179448052Y-116794271D01*
X179507378Y-116760191D01*
X179583448Y-116761239D01*
X179589082Y-116762581D01*
X179629695Y-116781836D01*
X179659552Y-116819375D01*
X179679945Y-116879809D01*
X179692164Y-116967751D01*
X179697500Y-117087813D01*
X179698000Y-117151698D01*
X179698248Y-117252403D01*
X179699874Y-117321054D01*
X179704199Y-117364673D01*
X179712546Y-117390282D01*
X179726235Y-117404903D01*
X179746589Y-117415558D01*
X179747766Y-117416095D01*
X179786962Y-117432667D01*
X179806381Y-117438769D01*
X179809365Y-117420319D01*
X179811919Y-117369323D01*
X179813860Y-117292308D01*
X179815003Y-117195805D01*
X179815231Y-117125184D01*
X179814068Y-116988525D01*
X179809521Y-116884851D01*
X179800001Y-116808108D01*
X179783919Y-116752246D01*
X179759687Y-116711212D01*
X179725714Y-116678954D01*
X179692167Y-116656440D01*
X179611501Y-116626476D01*
X179517619Y-116619718D01*
X179429193Y-116636782D01*
G37*
X179429193Y-116636782D02*
X179405839Y-116646988D01*
X179350098Y-116691134D01*
X179302431Y-116754967D01*
X179272952Y-116823087D01*
X179268154Y-116856670D01*
X179284240Y-116903556D01*
X179319525Y-116928365D01*
X179357356Y-116943387D01*
X179374679Y-116946155D01*
X179383114Y-116926066D01*
X179399770Y-116882351D01*
X179407077Y-116862598D01*
X179448052Y-116794271D01*
X179507378Y-116760191D01*
X179583448Y-116761239D01*
X179589082Y-116762581D01*
X179629695Y-116781836D01*
X179659552Y-116819375D01*
X179679945Y-116879809D01*
X179692164Y-116967751D01*
X179697500Y-117087813D01*
X179698000Y-117151698D01*
X179698248Y-117252403D01*
X179699874Y-117321054D01*
X179704199Y-117364673D01*
X179712546Y-117390282D01*
X179726235Y-117404903D01*
X179746589Y-117415558D01*
X179747766Y-117416095D01*
X179786962Y-117432667D01*
X179806381Y-117438769D01*
X179809365Y-117420319D01*
X179811919Y-117369323D01*
X179813860Y-117292308D01*
X179815003Y-117195805D01*
X179815231Y-117125184D01*
X179814068Y-116988525D01*
X179809521Y-116884851D01*
X179800001Y-116808108D01*
X179783919Y-116752246D01*
X179759687Y-116711212D01*
X179725714Y-116678954D01*
X179692167Y-116656440D01*
X179611501Y-116626476D01*
X179517619Y-116619718D01*
X179429193Y-116636782D01*
G36*
X180112667Y-116633528D02*
G01*
X180056410Y-116659117D01*
X180012253Y-116690124D01*
X179979899Y-116724795D01*
X179957562Y-116769520D01*
X179943454Y-116830692D01*
X179935789Y-116914701D01*
X179932780Y-117027940D01*
X179932462Y-117102509D01*
X179932462Y-117393420D01*
X179982227Y-117416095D01*
X180021424Y-117432667D01*
X180040843Y-117438769D01*
X180044558Y-117420610D01*
X180047505Y-117371648D01*
X180049309Y-117300153D01*
X180049692Y-117243385D01*
X180051339Y-117161371D01*
X180055778Y-117096309D01*
X180062260Y-117056467D01*
X180067410Y-117048000D01*
X180102023Y-117056646D01*
X180156360Y-117078823D01*
X180219278Y-117108886D01*
X180279632Y-117141192D01*
X180326279Y-117170098D01*
X180348074Y-117189961D01*
X180348161Y-117190175D01*
X180346286Y-117226935D01*
X180329475Y-117262026D01*
X180299961Y-117290528D01*
X180256884Y-117300061D01*
X180220068Y-117298950D01*
X180167926Y-117298133D01*
X180140556Y-117310349D01*
X180124118Y-117342624D01*
X180122045Y-117348710D01*
X180114919Y-117394739D01*
X180133976Y-117422687D01*
X180183647Y-117436007D01*
X180237303Y-117438470D01*
X180333858Y-117420210D01*
X180383841Y-117394131D01*
X180445571Y-117332868D01*
X180478310Y-117257670D01*
X180481247Y-117178211D01*
X180453576Y-117104167D01*
X180411953Y-117057769D01*
X180370396Y-117031793D01*
X180305078Y-116998907D01*
X180228962Y-116965557D01*
X180216274Y-116960461D01*
X180132667Y-116923565D01*
X180084470Y-116891046D01*
X180068970Y-116858718D01*
X180083450Y-116822394D01*
X180108308Y-116794000D01*
X180167061Y-116759039D01*
X180231707Y-116756417D01*
X180290992Y-116783358D01*
X180333661Y-116837088D01*
X180339261Y-116850950D01*
X180371867Y-116901936D01*
X180419470Y-116939787D01*
X180479539Y-116970850D01*
X180479539Y-116882768D01*
X180476003Y-116828951D01*
X180460844Y-116786534D01*
X180427232Y-116741279D01*
X180394965Y-116706420D01*
X180344791Y-116657062D01*
X180305807Y-116630547D01*
X180263936Y-116619911D01*
X180216540Y-116618154D01*
X180112667Y-116633528D01*
G37*
X180112667Y-116633528D02*
X180056410Y-116659117D01*
X180012253Y-116690124D01*
X179979899Y-116724795D01*
X179957562Y-116769520D01*
X179943454Y-116830692D01*
X179935789Y-116914701D01*
X179932780Y-117027940D01*
X179932462Y-117102509D01*
X179932462Y-117393420D01*
X179982227Y-117416095D01*
X180021424Y-117432667D01*
X180040843Y-117438769D01*
X180044558Y-117420610D01*
X180047505Y-117371648D01*
X180049309Y-117300153D01*
X180049692Y-117243385D01*
X180051339Y-117161371D01*
X180055778Y-117096309D01*
X180062260Y-117056467D01*
X180067410Y-117048000D01*
X180102023Y-117056646D01*
X180156360Y-117078823D01*
X180219278Y-117108886D01*
X180279632Y-117141192D01*
X180326279Y-117170098D01*
X180348074Y-117189961D01*
X180348161Y-117190175D01*
X180346286Y-117226935D01*
X180329475Y-117262026D01*
X180299961Y-117290528D01*
X180256884Y-117300061D01*
X180220068Y-117298950D01*
X180167926Y-117298133D01*
X180140556Y-117310349D01*
X180124118Y-117342624D01*
X180122045Y-117348710D01*
X180114919Y-117394739D01*
X180133976Y-117422687D01*
X180183647Y-117436007D01*
X180237303Y-117438470D01*
X180333858Y-117420210D01*
X180383841Y-117394131D01*
X180445571Y-117332868D01*
X180478310Y-117257670D01*
X180481247Y-117178211D01*
X180453576Y-117104167D01*
X180411953Y-117057769D01*
X180370396Y-117031793D01*
X180305078Y-116998907D01*
X180228962Y-116965557D01*
X180216274Y-116960461D01*
X180132667Y-116923565D01*
X180084470Y-116891046D01*
X180068970Y-116858718D01*
X180083450Y-116822394D01*
X180108308Y-116794000D01*
X180167061Y-116759039D01*
X180231707Y-116756417D01*
X180290992Y-116783358D01*
X180333661Y-116837088D01*
X180339261Y-116850950D01*
X180371867Y-116901936D01*
X180419470Y-116939787D01*
X180479539Y-116970850D01*
X180479539Y-116882768D01*
X180476003Y-116828951D01*
X180460844Y-116786534D01*
X180427232Y-116741279D01*
X180394965Y-116706420D01*
X180344791Y-116657062D01*
X180305807Y-116630547D01*
X180263936Y-116619911D01*
X180216540Y-116618154D01*
X180112667Y-116633528D01*
G36*
X180604071Y-116636662D02*
G01*
X180601089Y-116688068D01*
X180598753Y-116766192D01*
X180597251Y-116864857D01*
X180596769Y-116968343D01*
X180596769Y-117318533D01*
X180658599Y-117380363D01*
X180701207Y-117418462D01*
X180738610Y-117433895D01*
X180789730Y-117432918D01*
X180810022Y-117430433D01*
X180873446Y-117423200D01*
X180925905Y-117419055D01*
X180938692Y-117418672D01*
X180981801Y-117421176D01*
X181043456Y-117427462D01*
X181067362Y-117430433D01*
X181126078Y-117435028D01*
X181165536Y-117425046D01*
X181204662Y-117394228D01*
X181218785Y-117380363D01*
X181280615Y-117318533D01*
X181280615Y-116663503D01*
X181230850Y-116640829D01*
X181187998Y-116624034D01*
X181162927Y-116618154D01*
X181156499Y-116636736D01*
X181150491Y-116688655D01*
X181145303Y-116768172D01*
X181141336Y-116869546D01*
X181139423Y-116955192D01*
X181134077Y-117292231D01*
X181087440Y-117298825D01*
X181045024Y-117294214D01*
X181024240Y-117279287D01*
X181018430Y-117251377D01*
X181013470Y-117191925D01*
X181009754Y-117108466D01*
X181007676Y-117008532D01*
X181007376Y-116957104D01*
X181007077Y-116661054D01*
X180945546Y-116639604D01*
X180901996Y-116625020D01*
X180878306Y-116618219D01*
X180877623Y-116618154D01*
X180875246Y-116636642D01*
X180872634Y-116687906D01*
X180870005Y-116765649D01*
X180867579Y-116863574D01*
X180865885Y-116955192D01*
X180860539Y-117292231D01*
X180743308Y-117292231D01*
X180737928Y-116984746D01*
X180732549Y-116677261D01*
X180675399Y-116647707D01*
X180633203Y-116627413D01*
X180608230Y-116618204D01*
X180607509Y-116618154D01*
X180604071Y-116636662D01*
G37*
X180604071Y-116636662D02*
X180601089Y-116688068D01*
X180598753Y-116766192D01*
X180597251Y-116864857D01*
X180596769Y-116968343D01*
X180596769Y-117318533D01*
X180658599Y-117380363D01*
X180701207Y-117418462D01*
X180738610Y-117433895D01*
X180789730Y-117432918D01*
X180810022Y-117430433D01*
X180873446Y-117423200D01*
X180925905Y-117419055D01*
X180938692Y-117418672D01*
X180981801Y-117421176D01*
X181043456Y-117427462D01*
X181067362Y-117430433D01*
X181126078Y-117435028D01*
X181165536Y-117425046D01*
X181204662Y-117394228D01*
X181218785Y-117380363D01*
X181280615Y-117318533D01*
X181280615Y-116663503D01*
X181230850Y-116640829D01*
X181187998Y-116624034D01*
X181162927Y-116618154D01*
X181156499Y-116636736D01*
X181150491Y-116688655D01*
X181145303Y-116768172D01*
X181141336Y-116869546D01*
X181139423Y-116955192D01*
X181134077Y-117292231D01*
X181087440Y-117298825D01*
X181045024Y-117294214D01*
X181024240Y-117279287D01*
X181018430Y-117251377D01*
X181013470Y-117191925D01*
X181009754Y-117108466D01*
X181007676Y-117008532D01*
X181007376Y-116957104D01*
X181007077Y-116661054D01*
X180945546Y-116639604D01*
X180901996Y-116625020D01*
X180878306Y-116618219D01*
X180877623Y-116618154D01*
X180875246Y-116636642D01*
X180872634Y-116687906D01*
X180870005Y-116765649D01*
X180867579Y-116863574D01*
X180865885Y-116955192D01*
X180860539Y-117292231D01*
X180743308Y-117292231D01*
X180737928Y-116984746D01*
X180732549Y-116677261D01*
X180675399Y-116647707D01*
X180633203Y-116627413D01*
X180608230Y-116618204D01*
X180607509Y-116618154D01*
X180604071Y-116636662D01*
G36*
X181397919Y-116780289D02*
G01*
X181398167Y-116926320D01*
X181399128Y-117038655D01*
X181401206Y-117122678D01*
X181404807Y-117183769D01*
X181410335Y-117227309D01*
X181418196Y-117258679D01*
X181428793Y-117283262D01*
X181436818Y-117297294D01*
X181503272Y-117373388D01*
X181587530Y-117421084D01*
X181680751Y-117438199D01*
X181774100Y-117422546D01*
X181829688Y-117394418D01*
X181888043Y-117345760D01*
X181927814Y-117286333D01*
X181951810Y-117208507D01*
X181962839Y-117104652D01*
X181964401Y-117028462D01*
X181964191Y-117022986D01*
X181827692Y-117022986D01*
X181826859Y-117110355D01*
X181823039Y-117168192D01*
X181814254Y-117206029D01*
X181798526Y-117233398D01*
X181779734Y-117254042D01*
X181716625Y-117293890D01*
X181648863Y-117297295D01*
X181584821Y-117264025D01*
X181579836Y-117259517D01*
X181558561Y-117236067D01*
X181545221Y-117208166D01*
X181537999Y-117166641D01*
X181535077Y-117102316D01*
X181534615Y-117031200D01*
X181535617Y-116941858D01*
X181539762Y-116882258D01*
X181548764Y-116843089D01*
X181564333Y-116815040D01*
X181577098Y-116800144D01*
X181636400Y-116762575D01*
X181704699Y-116758057D01*
X181769890Y-116786753D01*
X181782472Y-116797406D01*
X181803889Y-116821063D01*
X181817256Y-116849251D01*
X181824434Y-116891245D01*
X181827281Y-116956319D01*
X181827692Y-117022986D01*
X181964191Y-117022986D01*
X181959678Y-116905765D01*
X181943638Y-116813577D01*
X181913472Y-116744269D01*
X181866371Y-116690211D01*
X181829688Y-116662505D01*
X181763010Y-116632572D01*
X181685728Y-116618678D01*
X181613890Y-116622397D01*
X181573692Y-116637400D01*
X181557918Y-116641670D01*
X181547450Y-116625750D01*
X181540144Y-116583089D01*
X181534615Y-116518106D01*
X181528563Y-116445732D01*
X181520156Y-116402187D01*
X181504859Y-116377287D01*
X181478136Y-116360845D01*
X181461346Y-116353564D01*
X181397846Y-116326963D01*
X181397919Y-116780289D01*
G37*
X181397919Y-116780289D02*
X181398167Y-116926320D01*
X181399128Y-117038655D01*
X181401206Y-117122678D01*
X181404807Y-117183769D01*
X181410335Y-117227309D01*
X181418196Y-117258679D01*
X181428793Y-117283262D01*
X181436818Y-117297294D01*
X181503272Y-117373388D01*
X181587530Y-117421084D01*
X181680751Y-117438199D01*
X181774100Y-117422546D01*
X181829688Y-117394418D01*
X181888043Y-117345760D01*
X181927814Y-117286333D01*
X181951810Y-117208507D01*
X181962839Y-117104652D01*
X181964401Y-117028462D01*
X181964191Y-117022986D01*
X181827692Y-117022986D01*
X181826859Y-117110355D01*
X181823039Y-117168192D01*
X181814254Y-117206029D01*
X181798526Y-117233398D01*
X181779734Y-117254042D01*
X181716625Y-117293890D01*
X181648863Y-117297295D01*
X181584821Y-117264025D01*
X181579836Y-117259517D01*
X181558561Y-117236067D01*
X181545221Y-117208166D01*
X181537999Y-117166641D01*
X181535077Y-117102316D01*
X181534615Y-117031200D01*
X181535617Y-116941858D01*
X181539762Y-116882258D01*
X181548764Y-116843089D01*
X181564333Y-116815040D01*
X181577098Y-116800144D01*
X181636400Y-116762575D01*
X181704699Y-116758057D01*
X181769890Y-116786753D01*
X181782472Y-116797406D01*
X181803889Y-116821063D01*
X181817256Y-116849251D01*
X181824434Y-116891245D01*
X181827281Y-116956319D01*
X181827692Y-117022986D01*
X181964191Y-117022986D01*
X181959678Y-116905765D01*
X181943638Y-116813577D01*
X181913472Y-116744269D01*
X181866371Y-116690211D01*
X181829688Y-116662505D01*
X181763010Y-116632572D01*
X181685728Y-116618678D01*
X181613890Y-116622397D01*
X181573692Y-116637400D01*
X181557918Y-116641670D01*
X181547450Y-116625750D01*
X181540144Y-116583089D01*
X181534615Y-116518106D01*
X181528563Y-116445732D01*
X181520156Y-116402187D01*
X181504859Y-116377287D01*
X181478136Y-116360845D01*
X181461346Y-116353564D01*
X181397846Y-116326963D01*
X181397919Y-116780289D01*
G36*
X182286638Y-116624670D02*
G01*
X182197883Y-116657421D01*
X182125978Y-116715350D01*
X182097856Y-116756128D01*
X182067198Y-116830954D01*
X182067835Y-116885058D01*
X182100013Y-116921446D01*
X182111919Y-116927633D01*
X182163325Y-116946925D01*
X182189578Y-116941982D01*
X182198470Y-116909587D01*
X182198923Y-116891692D01*
X182215203Y-116825859D01*
X182257635Y-116779807D01*
X182316612Y-116757564D01*
X182382525Y-116763161D01*
X182436105Y-116792229D01*
X182454202Y-116808810D01*
X182467029Y-116828925D01*
X182475694Y-116859332D01*
X182481304Y-116906788D01*
X182484965Y-116978050D01*
X182487785Y-117079875D01*
X182488516Y-117112115D01*
X182491180Y-117222410D01*
X182494208Y-117300036D01*
X182498750Y-117351396D01*
X182505954Y-117382890D01*
X182516967Y-117400920D01*
X182532940Y-117411888D01*
X182543166Y-117416733D01*
X182586594Y-117433301D01*
X182612158Y-117438769D01*
X182620605Y-117420507D01*
X182625761Y-117365296D01*
X182627654Y-117272499D01*
X182626311Y-117141478D01*
X182625893Y-117121269D01*
X182622942Y-117001733D01*
X182619452Y-116914449D01*
X182614486Y-116852591D01*
X182607107Y-116809336D01*
X182596376Y-116777860D01*
X182581355Y-116751339D01*
X182573498Y-116739975D01*
X182528447Y-116689692D01*
X182478060Y-116650581D01*
X182471892Y-116647167D01*
X182381542Y-116620212D01*
X182286638Y-116624670D01*
G37*
X182286638Y-116624670D02*
X182197883Y-116657421D01*
X182125978Y-116715350D01*
X182097856Y-116756128D01*
X182067198Y-116830954D01*
X182067835Y-116885058D01*
X182100013Y-116921446D01*
X182111919Y-116927633D01*
X182163325Y-116946925D01*
X182189578Y-116941982D01*
X182198470Y-116909587D01*
X182198923Y-116891692D01*
X182215203Y-116825859D01*
X182257635Y-116779807D01*
X182316612Y-116757564D01*
X182382525Y-116763161D01*
X182436105Y-116792229D01*
X182454202Y-116808810D01*
X182467029Y-116828925D01*
X182475694Y-116859332D01*
X182481304Y-116906788D01*
X182484965Y-116978050D01*
X182487785Y-117079875D01*
X182488516Y-117112115D01*
X182491180Y-117222410D01*
X182494208Y-117300036D01*
X182498750Y-117351396D01*
X182505954Y-117382890D01*
X182516967Y-117400920D01*
X182532940Y-117411888D01*
X182543166Y-117416733D01*
X182586594Y-117433301D01*
X182612158Y-117438769D01*
X182620605Y-117420507D01*
X182625761Y-117365296D01*
X182627654Y-117272499D01*
X182626311Y-117141478D01*
X182625893Y-117121269D01*
X182622942Y-117001733D01*
X182619452Y-116914449D01*
X182614486Y-116852591D01*
X182607107Y-116809336D01*
X182596376Y-116777860D01*
X182581355Y-116751339D01*
X182573498Y-116739975D01*
X182528447Y-116689692D01*
X182478060Y-116650581D01*
X182471892Y-116647167D01*
X182381542Y-116620212D01*
X182286638Y-116624670D01*
G36*
X182946499Y-116626303D02*
G01*
X182869940Y-116654733D01*
X182869064Y-116655279D01*
X182821715Y-116690127D01*
X182786759Y-116730852D01*
X182762175Y-116783925D01*
X182745938Y-116855814D01*
X182736025Y-116952992D01*
X182730414Y-117081928D01*
X182729923Y-117100298D01*
X182722859Y-117377287D01*
X182782305Y-117408028D01*
X182825319Y-117428802D01*
X182851290Y-117438646D01*
X182852491Y-117438769D01*
X182856986Y-117420606D01*
X182860556Y-117371612D01*
X182862752Y-117300031D01*
X182863231Y-117242068D01*
X182863242Y-117148170D01*
X182867534Y-117089203D01*
X182882497Y-117061079D01*
X182914518Y-117059706D01*
X182969986Y-117080998D01*
X183053731Y-117120136D01*
X183115311Y-117152643D01*
X183146983Y-117180845D01*
X183156294Y-117211582D01*
X183156308Y-117213104D01*
X183140943Y-117266054D01*
X183095453Y-117294660D01*
X183025834Y-117298803D01*
X182975687Y-117298084D01*
X182949246Y-117312527D01*
X182932757Y-117347218D01*
X182923267Y-117391416D01*
X182936943Y-117416493D01*
X182942093Y-117420082D01*
X182990575Y-117434496D01*
X183058469Y-117436537D01*
X183128388Y-117426983D01*
X183177932Y-117409522D01*
X183246430Y-117351364D01*
X183285366Y-117270408D01*
X183293077Y-117207160D01*
X183287193Y-117150111D01*
X183265899Y-117103542D01*
X183223735Y-117062181D01*
X183155241Y-117020755D01*
X183054956Y-116973993D01*
X183048846Y-116971350D01*
X182958510Y-116929617D01*
X182902765Y-116895391D01*
X182878871Y-116864635D01*
X182884087Y-116833311D01*
X182915672Y-116797383D01*
X182925117Y-116789116D01*
X182988383Y-116757058D01*
X183053936Y-116758407D01*
X183111028Y-116789838D01*
X183148907Y-116848024D01*
X183152426Y-116859446D01*
X183186700Y-116914837D01*
X183230191Y-116941518D01*
X183293077Y-116967960D01*
X183293077Y-116899548D01*
X183273948Y-116800110D01*
X183217169Y-116708902D01*
X183187622Y-116678389D01*
X183120458Y-116639228D01*
X183035044Y-116621500D01*
X182946499Y-116626303D01*
G37*
X182946499Y-116626303D02*
X182869940Y-116654733D01*
X182869064Y-116655279D01*
X182821715Y-116690127D01*
X182786759Y-116730852D01*
X182762175Y-116783925D01*
X182745938Y-116855814D01*
X182736025Y-116952992D01*
X182730414Y-117081928D01*
X182729923Y-117100298D01*
X182722859Y-117377287D01*
X182782305Y-117408028D01*
X182825319Y-117428802D01*
X182851290Y-117438646D01*
X182852491Y-117438769D01*
X182856986Y-117420606D01*
X182860556Y-117371612D01*
X182862752Y-117300031D01*
X182863231Y-117242068D01*
X182863242Y-117148170D01*
X182867534Y-117089203D01*
X182882497Y-117061079D01*
X182914518Y-117059706D01*
X182969986Y-117080998D01*
X183053731Y-117120136D01*
X183115311Y-117152643D01*
X183146983Y-117180845D01*
X183156294Y-117211582D01*
X183156308Y-117213104D01*
X183140943Y-117266054D01*
X183095453Y-117294660D01*
X183025834Y-117298803D01*
X182975687Y-117298084D01*
X182949246Y-117312527D01*
X182932757Y-117347218D01*
X182923267Y-117391416D01*
X182936943Y-117416493D01*
X182942093Y-117420082D01*
X182990575Y-117434496D01*
X183058469Y-117436537D01*
X183128388Y-117426983D01*
X183177932Y-117409522D01*
X183246430Y-117351364D01*
X183285366Y-117270408D01*
X183293077Y-117207160D01*
X183287193Y-117150111D01*
X183265899Y-117103542D01*
X183223735Y-117062181D01*
X183155241Y-117020755D01*
X183054956Y-116973993D01*
X183048846Y-116971350D01*
X182958510Y-116929617D01*
X182902765Y-116895391D01*
X182878871Y-116864635D01*
X182884087Y-116833311D01*
X182915672Y-116797383D01*
X182925117Y-116789116D01*
X182988383Y-116757058D01*
X183053936Y-116758407D01*
X183111028Y-116789838D01*
X183148907Y-116848024D01*
X183152426Y-116859446D01*
X183186700Y-116914837D01*
X183230191Y-116941518D01*
X183293077Y-116967960D01*
X183293077Y-116899548D01*
X183273948Y-116800110D01*
X183217169Y-116708902D01*
X183187622Y-116678389D01*
X183120458Y-116639228D01*
X183035044Y-116621500D01*
X182946499Y-116626303D01*
G36*
X183840154Y-116492120D02*
G01*
X183834428Y-116571980D01*
X183827851Y-116619039D01*
X183818738Y-116639566D01*
X183805402Y-116639829D01*
X183801077Y-116637378D01*
X183743556Y-116619636D01*
X183668732Y-116620672D01*
X183592661Y-116638910D01*
X183545082Y-116662505D01*
X183496298Y-116700198D01*
X183460636Y-116742855D01*
X183436155Y-116797057D01*
X183420913Y-116869384D01*
X183412970Y-116966419D01*
X183410384Y-117094742D01*
X183410338Y-117119358D01*
X183410308Y-117395870D01*
X183471839Y-117417320D01*
X183515541Y-117431912D01*
X183539518Y-117438706D01*
X183540223Y-117438769D01*
X183542585Y-117420345D01*
X183544594Y-117369526D01*
X183546099Y-117292993D01*
X183546947Y-117197430D01*
X183547077Y-117139329D01*
X183547349Y-117024771D01*
X183548748Y-116942667D01*
X183552151Y-116886393D01*
X183558433Y-116849326D01*
X183568471Y-116824844D01*
X183583139Y-116806325D01*
X183592298Y-116797406D01*
X183655211Y-116761466D01*
X183723864Y-116758775D01*
X183786152Y-116789170D01*
X183797671Y-116800144D01*
X183814567Y-116820779D01*
X183826286Y-116845256D01*
X183833767Y-116880647D01*
X183837946Y-116934026D01*
X183839763Y-117012466D01*
X183840154Y-117120617D01*
X183840154Y-117395870D01*
X183901685Y-117417320D01*
X183945387Y-117431912D01*
X183969364Y-117438706D01*
X183970070Y-117438769D01*
X183971874Y-117420069D01*
X183973500Y-117367322D01*
X183974883Y-117285557D01*
X183975958Y-117179805D01*
X183976660Y-117055094D01*
X183976923Y-116916455D01*
X183976923Y-116381806D01*
X183849923Y-116328236D01*
X183840154Y-116492120D01*
G37*
X183840154Y-116492120D02*
X183834428Y-116571980D01*
X183827851Y-116619039D01*
X183818738Y-116639566D01*
X183805402Y-116639829D01*
X183801077Y-116637378D01*
X183743556Y-116619636D01*
X183668732Y-116620672D01*
X183592661Y-116638910D01*
X183545082Y-116662505D01*
X183496298Y-116700198D01*
X183460636Y-116742855D01*
X183436155Y-116797057D01*
X183420913Y-116869384D01*
X183412970Y-116966419D01*
X183410384Y-117094742D01*
X183410338Y-117119358D01*
X183410308Y-117395870D01*
X183471839Y-117417320D01*
X183515541Y-117431912D01*
X183539518Y-117438706D01*
X183540223Y-117438769D01*
X183542585Y-117420345D01*
X183544594Y-117369526D01*
X183546099Y-117292993D01*
X183546947Y-117197430D01*
X183547077Y-117139329D01*
X183547349Y-117024771D01*
X183548748Y-116942667D01*
X183552151Y-116886393D01*
X183558433Y-116849326D01*
X183568471Y-116824844D01*
X183583139Y-116806325D01*
X183592298Y-116797406D01*
X183655211Y-116761466D01*
X183723864Y-116758775D01*
X183786152Y-116789170D01*
X183797671Y-116800144D01*
X183814567Y-116820779D01*
X183826286Y-116845256D01*
X183833767Y-116880647D01*
X183837946Y-116934026D01*
X183839763Y-117012466D01*
X183840154Y-117120617D01*
X183840154Y-117395870D01*
X183901685Y-117417320D01*
X183945387Y-117431912D01*
X183969364Y-117438706D01*
X183970070Y-117438769D01*
X183971874Y-117420069D01*
X183973500Y-117367322D01*
X183974883Y-117285557D01*
X183975958Y-117179805D01*
X183976660Y-117055094D01*
X183976923Y-116916455D01*
X183976923Y-116381806D01*
X183849923Y-116328236D01*
X183840154Y-116492120D01*
G36*
X185465746Y-116599745D02*
G01*
X185388714Y-116651567D01*
X185329184Y-116726412D01*
X185293622Y-116821654D01*
X185286429Y-116891756D01*
X185287246Y-116921009D01*
X185294086Y-116943407D01*
X185312888Y-116963474D01*
X185349592Y-116985733D01*
X185410138Y-117014709D01*
X185500466Y-117054927D01*
X185500923Y-117055129D01*
X185584067Y-117093210D01*
X185652247Y-117127025D01*
X185698495Y-117152933D01*
X185715842Y-117167295D01*
X185715846Y-117167411D01*
X185700557Y-117198685D01*
X185664804Y-117233157D01*
X185623758Y-117257990D01*
X185602963Y-117262923D01*
X185546230Y-117245862D01*
X185497373Y-117203133D01*
X185473535Y-117156155D01*
X185450603Y-117121522D01*
X185405682Y-117082081D01*
X185352877Y-117048009D01*
X185306290Y-117029480D01*
X185296548Y-117028462D01*
X185285582Y-117045215D01*
X185284921Y-117088039D01*
X185292980Y-117145781D01*
X185308173Y-117207289D01*
X185328914Y-117261409D01*
X185329962Y-117263510D01*
X185392379Y-117350660D01*
X185473274Y-117409939D01*
X185565144Y-117439034D01*
X185660487Y-117435634D01*
X185751802Y-117397428D01*
X185755862Y-117394741D01*
X185827694Y-117329642D01*
X185874927Y-117244705D01*
X185901066Y-117133021D01*
X185904574Y-117101643D01*
X185910787Y-116953536D01*
X185903339Y-116884468D01*
X185715846Y-116884468D01*
X185713410Y-116927552D01*
X185700086Y-116940126D01*
X185666868Y-116930719D01*
X185614506Y-116908483D01*
X185555976Y-116880610D01*
X185554521Y-116879872D01*
X185504911Y-116853777D01*
X185485000Y-116836363D01*
X185489910Y-116818107D01*
X185510584Y-116794120D01*
X185563181Y-116759406D01*
X185619823Y-116756856D01*
X185670631Y-116782119D01*
X185705724Y-116830847D01*
X185715846Y-116884468D01*
X185903339Y-116884468D01*
X185898008Y-116835036D01*
X185865222Y-116741055D01*
X185819579Y-116675215D01*
X185737198Y-116608681D01*
X185646454Y-116575676D01*
X185553815Y-116573573D01*
X185465746Y-116599745D01*
G37*
X185465746Y-116599745D02*
X185388714Y-116651567D01*
X185329184Y-116726412D01*
X185293622Y-116821654D01*
X185286429Y-116891756D01*
X185287246Y-116921009D01*
X185294086Y-116943407D01*
X185312888Y-116963474D01*
X185349592Y-116985733D01*
X185410138Y-117014709D01*
X185500466Y-117054927D01*
X185500923Y-117055129D01*
X185584067Y-117093210D01*
X185652247Y-117127025D01*
X185698495Y-117152933D01*
X185715842Y-117167295D01*
X185715846Y-117167411D01*
X185700557Y-117198685D01*
X185664804Y-117233157D01*
X185623758Y-117257990D01*
X185602963Y-117262923D01*
X185546230Y-117245862D01*
X185497373Y-117203133D01*
X185473535Y-117156155D01*
X185450603Y-117121522D01*
X185405682Y-117082081D01*
X185352877Y-117048009D01*
X185306290Y-117029480D01*
X185296548Y-117028462D01*
X185285582Y-117045215D01*
X185284921Y-117088039D01*
X185292980Y-117145781D01*
X185308173Y-117207289D01*
X185328914Y-117261409D01*
X185329962Y-117263510D01*
X185392379Y-117350660D01*
X185473274Y-117409939D01*
X185565144Y-117439034D01*
X185660487Y-117435634D01*
X185751802Y-117397428D01*
X185755862Y-117394741D01*
X185827694Y-117329642D01*
X185874927Y-117244705D01*
X185901066Y-117133021D01*
X185904574Y-117101643D01*
X185910787Y-116953536D01*
X185903339Y-116884468D01*
X185715846Y-116884468D01*
X185713410Y-116927552D01*
X185700086Y-116940126D01*
X185666868Y-116930719D01*
X185614506Y-116908483D01*
X185555976Y-116880610D01*
X185554521Y-116879872D01*
X185504911Y-116853777D01*
X185485000Y-116836363D01*
X185489910Y-116818107D01*
X185510584Y-116794120D01*
X185563181Y-116759406D01*
X185619823Y-116756856D01*
X185670631Y-116782119D01*
X185705724Y-116830847D01*
X185715846Y-116884468D01*
X185903339Y-116884468D01*
X185898008Y-116835036D01*
X185865222Y-116741055D01*
X185819579Y-116675215D01*
X185737198Y-116608681D01*
X185646454Y-116575676D01*
X185553815Y-116573573D01*
X185465746Y-116599745D01*
G36*
X186983114Y-116587256D02*
G01*
X186891536Y-116635409D01*
X186823951Y-116712905D01*
X186799943Y-116762727D01*
X186781262Y-116837533D01*
X186771699Y-116932052D01*
X186770792Y-117035210D01*
X186778079Y-117135935D01*
X186793097Y-117223153D01*
X186815385Y-117285791D01*
X186822235Y-117296579D01*
X186903368Y-117377105D01*
X186999734Y-117425336D01*
X187104299Y-117439450D01*
X187210032Y-117417629D01*
X187239457Y-117404547D01*
X187296759Y-117364231D01*
X187347050Y-117310775D01*
X187351803Y-117303995D01*
X187371122Y-117271321D01*
X187383892Y-117236394D01*
X187391436Y-117190414D01*
X187395076Y-117124584D01*
X187396135Y-117030105D01*
X187396154Y-117008923D01*
X187396106Y-117002182D01*
X187200769Y-117002182D01*
X187199632Y-117091349D01*
X187195159Y-117150520D01*
X187185754Y-117188741D01*
X187169824Y-117215053D01*
X187161692Y-117223846D01*
X187114942Y-117257261D01*
X187069553Y-117255737D01*
X187023660Y-117226752D01*
X186996288Y-117195809D01*
X186980077Y-117150643D01*
X186970974Y-117079420D01*
X186970349Y-117071114D01*
X186968796Y-116942037D01*
X186985035Y-116846172D01*
X187018848Y-116784107D01*
X187070016Y-116756432D01*
X187088280Y-116754923D01*
X187136240Y-116762513D01*
X187169047Y-116788808D01*
X187189105Y-116839095D01*
X187198822Y-116918664D01*
X187200769Y-117002182D01*
X187396106Y-117002182D01*
X187395426Y-116908249D01*
X187392371Y-116837906D01*
X187385678Y-116789163D01*
X187374040Y-116753288D01*
X187356147Y-116721548D01*
X187352192Y-116715648D01*
X187285733Y-116636104D01*
X187213315Y-116589929D01*
X187125151Y-116571599D01*
X187095213Y-116570703D01*
X186983114Y-116587256D01*
G37*
X186983114Y-116587256D02*
X186891536Y-116635409D01*
X186823951Y-116712905D01*
X186799943Y-116762727D01*
X186781262Y-116837533D01*
X186771699Y-116932052D01*
X186770792Y-117035210D01*
X186778079Y-117135935D01*
X186793097Y-117223153D01*
X186815385Y-117285791D01*
X186822235Y-117296579D01*
X186903368Y-117377105D01*
X186999734Y-117425336D01*
X187104299Y-117439450D01*
X187210032Y-117417629D01*
X187239457Y-117404547D01*
X187296759Y-117364231D01*
X187347050Y-117310775D01*
X187351803Y-117303995D01*
X187371122Y-117271321D01*
X187383892Y-117236394D01*
X187391436Y-117190414D01*
X187395076Y-117124584D01*
X187396135Y-117030105D01*
X187396154Y-117008923D01*
X187396106Y-117002182D01*
X187200769Y-117002182D01*
X187199632Y-117091349D01*
X187195159Y-117150520D01*
X187185754Y-117188741D01*
X187169824Y-117215053D01*
X187161692Y-117223846D01*
X187114942Y-117257261D01*
X187069553Y-117255737D01*
X187023660Y-117226752D01*
X186996288Y-117195809D01*
X186980077Y-117150643D01*
X186970974Y-117079420D01*
X186970349Y-117071114D01*
X186968796Y-116942037D01*
X186985035Y-116846172D01*
X187018848Y-116784107D01*
X187070016Y-116756432D01*
X187088280Y-116754923D01*
X187136240Y-116762513D01*
X187169047Y-116788808D01*
X187189105Y-116839095D01*
X187198822Y-116918664D01*
X187200769Y-117002182D01*
X187396106Y-117002182D01*
X187395426Y-116908249D01*
X187392371Y-116837906D01*
X187385678Y-116789163D01*
X187374040Y-116753288D01*
X187356147Y-116721548D01*
X187352192Y-116715648D01*
X187285733Y-116636104D01*
X187213315Y-116589929D01*
X187125151Y-116571599D01*
X187095213Y-116570703D01*
X186983114Y-116587256D01*
G36*
X184728336Y-116595089D02*
G01*
X184665633Y-116631358D01*
X184622039Y-116667358D01*
X184590155Y-116705075D01*
X184568190Y-116751199D01*
X184554351Y-116812421D01*
X184546847Y-116895431D01*
X184543883Y-117006919D01*
X184543539Y-117087062D01*
X184543539Y-117382065D01*
X184709615Y-117456515D01*
X184719385Y-117133402D01*
X184723421Y-117012729D01*
X184727656Y-116925141D01*
X184732903Y-116864650D01*
X184739975Y-116825268D01*
X184749689Y-116801007D01*
X184762856Y-116785880D01*
X184767081Y-116782606D01*
X184831091Y-116757034D01*
X184895792Y-116767153D01*
X184934308Y-116794000D01*
X184949975Y-116813024D01*
X184960820Y-116837988D01*
X184967712Y-116875834D01*
X184971521Y-116933502D01*
X184973117Y-117017935D01*
X184973385Y-117105928D01*
X184973437Y-117216323D01*
X184975328Y-117294463D01*
X184981655Y-117347165D01*
X184995017Y-117381242D01*
X185018015Y-117403511D01*
X185053246Y-117420787D01*
X185100303Y-117438738D01*
X185151697Y-117458278D01*
X185145579Y-117111485D01*
X185143116Y-116986468D01*
X185140233Y-116894082D01*
X185136102Y-116827881D01*
X185129893Y-116781420D01*
X185120774Y-116748256D01*
X185107917Y-116721944D01*
X185092416Y-116698729D01*
X185017629Y-116624569D01*
X184926372Y-116581684D01*
X184827117Y-116571412D01*
X184728336Y-116595089D01*
G37*
X184728336Y-116595089D02*
X184665633Y-116631358D01*
X184622039Y-116667358D01*
X184590155Y-116705075D01*
X184568190Y-116751199D01*
X184554351Y-116812421D01*
X184546847Y-116895431D01*
X184543883Y-117006919D01*
X184543539Y-117087062D01*
X184543539Y-117382065D01*
X184709615Y-117456515D01*
X184719385Y-117133402D01*
X184723421Y-117012729D01*
X184727656Y-116925141D01*
X184732903Y-116864650D01*
X184739975Y-116825268D01*
X184749689Y-116801007D01*
X184762856Y-116785880D01*
X184767081Y-116782606D01*
X184831091Y-116757034D01*
X184895792Y-116767153D01*
X184934308Y-116794000D01*
X184949975Y-116813024D01*
X184960820Y-116837988D01*
X184967712Y-116875834D01*
X184971521Y-116933502D01*
X184973117Y-117017935D01*
X184973385Y-117105928D01*
X184973437Y-117216323D01*
X184975328Y-117294463D01*
X184981655Y-117347165D01*
X184995017Y-117381242D01*
X185018015Y-117403511D01*
X185053246Y-117420787D01*
X185100303Y-117438738D01*
X185151697Y-117458278D01*
X185145579Y-117111485D01*
X185143116Y-116986468D01*
X185140233Y-116894082D01*
X185136102Y-116827881D01*
X185129893Y-116781420D01*
X185120774Y-116748256D01*
X185107917Y-116721944D01*
X185092416Y-116698729D01*
X185017629Y-116624569D01*
X184926372Y-116581684D01*
X184827117Y-116571412D01*
X184728336Y-116595089D01*
G36*
X186231114Y-116584505D02*
G01*
X186156461Y-116621727D01*
X186090569Y-116690261D01*
X186072423Y-116715648D01*
X186052655Y-116748866D01*
X186039828Y-116784945D01*
X186032490Y-116833098D01*
X186029187Y-116902536D01*
X186028462Y-116994206D01*
X186031737Y-117119830D01*
X186043123Y-117214154D01*
X186064959Y-117284523D01*
X186099581Y-117338286D01*
X186149330Y-117382788D01*
X186152986Y-117385423D01*
X186202015Y-117412377D01*
X186261055Y-117425712D01*
X186336141Y-117429000D01*
X186458205Y-117429000D01*
X186458256Y-117547497D01*
X186459392Y-117613492D01*
X186466314Y-117652202D01*
X186484402Y-117675419D01*
X186519038Y-117694933D01*
X186527355Y-117698920D01*
X186566280Y-117717603D01*
X186596417Y-117729403D01*
X186618826Y-117730422D01*
X186634567Y-117716761D01*
X186644698Y-117684522D01*
X186650277Y-117629804D01*
X186652365Y-117548711D01*
X186652019Y-117437344D01*
X186650300Y-117291802D01*
X186649763Y-117248269D01*
X186647828Y-117098205D01*
X186646096Y-117000042D01*
X186458308Y-117000042D01*
X186457252Y-117083364D01*
X186452562Y-117137880D01*
X186441949Y-117173837D01*
X186423128Y-117201482D01*
X186410350Y-117214965D01*
X186358110Y-117254417D01*
X186311858Y-117257628D01*
X186264133Y-117225049D01*
X186262923Y-117223846D01*
X186243506Y-117198668D01*
X186231693Y-117164447D01*
X186225735Y-117111748D01*
X186223880Y-117031131D01*
X186223846Y-117013271D01*
X186228330Y-116902175D01*
X186242926Y-116825161D01*
X186269350Y-116778147D01*
X186309317Y-116757050D01*
X186332416Y-116754923D01*
X186387238Y-116764900D01*
X186424842Y-116797752D01*
X186447477Y-116857857D01*
X186457394Y-116949598D01*
X186458308Y-117000042D01*
X186646096Y-117000042D01*
X186645778Y-116982060D01*
X186643127Y-116894679D01*
X186639394Y-116830905D01*
X186634093Y-116785582D01*
X186626742Y-116753555D01*
X186616857Y-116729668D01*
X186603954Y-116708764D01*
X186598421Y-116700898D01*
X186525031Y-116626595D01*
X186432240Y-116584467D01*
X186324904Y-116572722D01*
X186231114Y-116584505D01*
G37*
X186231114Y-116584505D02*
X186156461Y-116621727D01*
X186090569Y-116690261D01*
X186072423Y-116715648D01*
X186052655Y-116748866D01*
X186039828Y-116784945D01*
X186032490Y-116833098D01*
X186029187Y-116902536D01*
X186028462Y-116994206D01*
X186031737Y-117119830D01*
X186043123Y-117214154D01*
X186064959Y-117284523D01*
X186099581Y-117338286D01*
X186149330Y-117382788D01*
X186152986Y-117385423D01*
X186202015Y-117412377D01*
X186261055Y-117425712D01*
X186336141Y-117429000D01*
X186458205Y-117429000D01*
X186458256Y-117547497D01*
X186459392Y-117613492D01*
X186466314Y-117652202D01*
X186484402Y-117675419D01*
X186519038Y-117694933D01*
X186527355Y-117698920D01*
X186566280Y-117717603D01*
X186596417Y-117729403D01*
X186618826Y-117730422D01*
X186634567Y-117716761D01*
X186644698Y-117684522D01*
X186650277Y-117629804D01*
X186652365Y-117548711D01*
X186652019Y-117437344D01*
X186650300Y-117291802D01*
X186649763Y-117248269D01*
X186647828Y-117098205D01*
X186646096Y-117000042D01*
X186458308Y-117000042D01*
X186457252Y-117083364D01*
X186452562Y-117137880D01*
X186441949Y-117173837D01*
X186423128Y-117201482D01*
X186410350Y-117214965D01*
X186358110Y-117254417D01*
X186311858Y-117257628D01*
X186264133Y-117225049D01*
X186262923Y-117223846D01*
X186243506Y-117198668D01*
X186231693Y-117164447D01*
X186225735Y-117111748D01*
X186223880Y-117031131D01*
X186223846Y-117013271D01*
X186228330Y-116902175D01*
X186242926Y-116825161D01*
X186269350Y-116778147D01*
X186309317Y-116757050D01*
X186332416Y-116754923D01*
X186387238Y-116764900D01*
X186424842Y-116797752D01*
X186447477Y-116857857D01*
X186457394Y-116949598D01*
X186458308Y-117000042D01*
X186646096Y-117000042D01*
X186645778Y-116982060D01*
X186643127Y-116894679D01*
X186639394Y-116830905D01*
X186634093Y-116785582D01*
X186626742Y-116753555D01*
X186616857Y-116729668D01*
X186603954Y-116708764D01*
X186598421Y-116700898D01*
X186525031Y-116626595D01*
X186432240Y-116584467D01*
X186324904Y-116572722D01*
X186231114Y-116584505D01*
G36*
X180000000Y-107000000D02*
G01*
X179000000Y-107000000D01*
X179000000Y-108000000D01*
X180000000Y-108000000D01*
X180000000Y-107000000D01*
G37*
X180000000Y-107000000D02*
X179000000Y-107000000D01*
X179000000Y-108000000D01*
X180000000Y-108000000D01*
X180000000Y-107000000D01*
G36*
X181000000Y-107000000D02*
G01*
X180000000Y-107000000D01*
X180000000Y-108000000D01*
X181000000Y-108000000D01*
X181000000Y-107000000D01*
G37*
X181000000Y-107000000D02*
X180000000Y-107000000D01*
X180000000Y-108000000D01*
X181000000Y-108000000D01*
X181000000Y-107000000D01*
G36*
X183000000Y-107000000D02*
G01*
X182000000Y-107000000D01*
X182000000Y-108000000D01*
X183000000Y-108000000D01*
X183000000Y-107000000D01*
G37*
X183000000Y-107000000D02*
X182000000Y-107000000D01*
X182000000Y-108000000D01*
X183000000Y-108000000D01*
X183000000Y-107000000D01*
G36*
X185000000Y-107000000D02*
G01*
X184000000Y-107000000D01*
X184000000Y-108000000D01*
X185000000Y-108000000D01*
X185000000Y-107000000D01*
G37*
X185000000Y-107000000D02*
X184000000Y-107000000D01*
X184000000Y-108000000D01*
X185000000Y-108000000D01*
X185000000Y-107000000D01*
G36*
X186000000Y-107000000D02*
G01*
X185000000Y-107000000D01*
X185000000Y-108000000D01*
X186000000Y-108000000D01*
X186000000Y-107000000D01*
G37*
X186000000Y-107000000D02*
X185000000Y-107000000D01*
X185000000Y-108000000D01*
X186000000Y-108000000D01*
X186000000Y-107000000D01*
G36*
X187000000Y-107000000D02*
G01*
X186000000Y-107000000D01*
X186000000Y-108000000D01*
X187000000Y-108000000D01*
X187000000Y-107000000D01*
G37*
X187000000Y-107000000D02*
X186000000Y-107000000D01*
X186000000Y-108000000D01*
X187000000Y-108000000D01*
X187000000Y-107000000D01*
G36*
X188000000Y-107000000D02*
G01*
X187000000Y-107000000D01*
X187000000Y-108000000D01*
X188000000Y-108000000D01*
X188000000Y-107000000D01*
G37*
X188000000Y-107000000D02*
X187000000Y-107000000D01*
X187000000Y-108000000D01*
X188000000Y-108000000D01*
X188000000Y-107000000D01*
G36*
X180000000Y-106000000D02*
G01*
X179000000Y-106000000D01*
X179000000Y-107000000D01*
X180000000Y-107000000D01*
X180000000Y-106000000D01*
G37*
X180000000Y-106000000D02*
X179000000Y-106000000D01*
X179000000Y-107000000D01*
X180000000Y-107000000D01*
X180000000Y-106000000D01*
G36*
X181000000Y-106000000D02*
G01*
X180000000Y-106000000D01*
X180000000Y-107000000D01*
X181000000Y-107000000D01*
X181000000Y-106000000D01*
G37*
X181000000Y-106000000D02*
X180000000Y-106000000D01*
X180000000Y-107000000D01*
X181000000Y-107000000D01*
X181000000Y-106000000D01*
G36*
X182000000Y-106000000D02*
G01*
X181000000Y-106000000D01*
X181000000Y-107000000D01*
X182000000Y-107000000D01*
X182000000Y-106000000D01*
G37*
X182000000Y-106000000D02*
X181000000Y-106000000D01*
X181000000Y-107000000D01*
X182000000Y-107000000D01*
X182000000Y-106000000D01*
G36*
X183000000Y-106000000D02*
G01*
X182000000Y-106000000D01*
X182000000Y-107000000D01*
X183000000Y-107000000D01*
X183000000Y-106000000D01*
G37*
X183000000Y-106000000D02*
X182000000Y-106000000D01*
X182000000Y-107000000D01*
X183000000Y-107000000D01*
X183000000Y-106000000D01*
G36*
X185000000Y-106000000D02*
G01*
X184000000Y-106000000D01*
X184000000Y-107000000D01*
X185000000Y-107000000D01*
X185000000Y-106000000D01*
G37*
X185000000Y-106000000D02*
X184000000Y-106000000D01*
X184000000Y-107000000D01*
X185000000Y-107000000D01*
X185000000Y-106000000D01*
G36*
X186000000Y-106000000D02*
G01*
X185000000Y-106000000D01*
X185000000Y-107000000D01*
X186000000Y-107000000D01*
X186000000Y-106000000D01*
G37*
X186000000Y-106000000D02*
X185000000Y-106000000D01*
X185000000Y-107000000D01*
X186000000Y-107000000D01*
X186000000Y-106000000D01*
G36*
X187000000Y-106000000D02*
G01*
X186000000Y-106000000D01*
X186000000Y-107000000D01*
X187000000Y-107000000D01*
X187000000Y-106000000D01*
G37*
X187000000Y-106000000D02*
X186000000Y-106000000D01*
X186000000Y-107000000D01*
X187000000Y-107000000D01*
X187000000Y-106000000D01*
G36*
X188000000Y-106000000D02*
G01*
X187000000Y-106000000D01*
X187000000Y-107000000D01*
X188000000Y-107000000D01*
X188000000Y-106000000D01*
G37*
X188000000Y-106000000D02*
X187000000Y-106000000D01*
X187000000Y-107000000D01*
X188000000Y-107000000D01*
X188000000Y-106000000D01*
G36*
X180000000Y-105000000D02*
G01*
X179000000Y-105000000D01*
X179000000Y-106000000D01*
X180000000Y-106000000D01*
X180000000Y-105000000D01*
G37*
X180000000Y-105000000D02*
X179000000Y-105000000D01*
X179000000Y-106000000D01*
X180000000Y-106000000D01*
X180000000Y-105000000D01*
G36*
X181000000Y-105000000D02*
G01*
X180000000Y-105000000D01*
X180000000Y-106000000D01*
X181000000Y-106000000D01*
X181000000Y-105000000D01*
G37*
X181000000Y-105000000D02*
X180000000Y-105000000D01*
X180000000Y-106000000D01*
X181000000Y-106000000D01*
X181000000Y-105000000D01*
G36*
X182000000Y-105000000D02*
G01*
X181000000Y-105000000D01*
X181000000Y-106000000D01*
X182000000Y-106000000D01*
X182000000Y-105000000D01*
G37*
X182000000Y-105000000D02*
X181000000Y-105000000D01*
X181000000Y-106000000D01*
X182000000Y-106000000D01*
X182000000Y-105000000D01*
G36*
X183000000Y-105000000D02*
G01*
X182000000Y-105000000D01*
X182000000Y-106000000D01*
X183000000Y-106000000D01*
X183000000Y-105000000D01*
G37*
X183000000Y-105000000D02*
X182000000Y-105000000D01*
X182000000Y-106000000D01*
X183000000Y-106000000D01*
X183000000Y-105000000D01*
G36*
X185000000Y-105000000D02*
G01*
X184000000Y-105000000D01*
X184000000Y-106000000D01*
X185000000Y-106000000D01*
X185000000Y-105000000D01*
G37*
X185000000Y-105000000D02*
X184000000Y-105000000D01*
X184000000Y-106000000D01*
X185000000Y-106000000D01*
X185000000Y-105000000D01*
G36*
X186000000Y-105000000D02*
G01*
X185000000Y-105000000D01*
X185000000Y-106000000D01*
X186000000Y-106000000D01*
X186000000Y-105000000D01*
G37*
X186000000Y-105000000D02*
X185000000Y-105000000D01*
X185000000Y-106000000D01*
X186000000Y-106000000D01*
X186000000Y-105000000D01*
G36*
X187000000Y-105000000D02*
G01*
X186000000Y-105000000D01*
X186000000Y-106000000D01*
X187000000Y-106000000D01*
X187000000Y-105000000D01*
G37*
X187000000Y-105000000D02*
X186000000Y-105000000D01*
X186000000Y-106000000D01*
X187000000Y-106000000D01*
X187000000Y-105000000D01*
G36*
X181000000Y-104000000D02*
G01*
X180000000Y-104000000D01*
X180000000Y-105000000D01*
X181000000Y-105000000D01*
X181000000Y-104000000D01*
G37*
X181000000Y-104000000D02*
X180000000Y-104000000D01*
X180000000Y-105000000D01*
X181000000Y-105000000D01*
X181000000Y-104000000D01*
G36*
X182000000Y-104000000D02*
G01*
X181000000Y-104000000D01*
X181000000Y-105000000D01*
X182000000Y-105000000D01*
X182000000Y-104000000D01*
G37*
X182000000Y-104000000D02*
X181000000Y-104000000D01*
X181000000Y-105000000D01*
X182000000Y-105000000D01*
X182000000Y-104000000D01*
G36*
X184000000Y-104000000D02*
G01*
X183000000Y-104000000D01*
X183000000Y-105000000D01*
X184000000Y-105000000D01*
X184000000Y-104000000D01*
G37*
X184000000Y-104000000D02*
X183000000Y-104000000D01*
X183000000Y-105000000D01*
X184000000Y-105000000D01*
X184000000Y-104000000D01*
G36*
X185000000Y-104000000D02*
G01*
X184000000Y-104000000D01*
X184000000Y-105000000D01*
X185000000Y-105000000D01*
X185000000Y-104000000D01*
G37*
X185000000Y-104000000D02*
X184000000Y-104000000D01*
X184000000Y-105000000D01*
X185000000Y-105000000D01*
X185000000Y-104000000D01*
G36*
X186000000Y-104000000D02*
G01*
X185000000Y-104000000D01*
X185000000Y-105000000D01*
X186000000Y-105000000D01*
X186000000Y-104000000D01*
G37*
X186000000Y-104000000D02*
X185000000Y-104000000D01*
X185000000Y-105000000D01*
X186000000Y-105000000D01*
X186000000Y-104000000D01*
G36*
X187000000Y-104000000D02*
G01*
X186000000Y-104000000D01*
X186000000Y-105000000D01*
X187000000Y-105000000D01*
X187000000Y-104000000D01*
G37*
X187000000Y-104000000D02*
X186000000Y-104000000D01*
X186000000Y-105000000D01*
X187000000Y-105000000D01*
X187000000Y-104000000D01*
G36*
X181000000Y-103000000D02*
G01*
X180000000Y-103000000D01*
X180000000Y-104000000D01*
X181000000Y-104000000D01*
X181000000Y-103000000D01*
G37*
X181000000Y-103000000D02*
X180000000Y-103000000D01*
X180000000Y-104000000D01*
X181000000Y-104000000D01*
X181000000Y-103000000D01*
G36*
X183000000Y-103000000D02*
G01*
X182000000Y-103000000D01*
X182000000Y-104000000D01*
X183000000Y-104000000D01*
X183000000Y-103000000D01*
G37*
X183000000Y-103000000D02*
X182000000Y-103000000D01*
X182000000Y-104000000D01*
X183000000Y-104000000D01*
X183000000Y-103000000D01*
G36*
X184000000Y-103000000D02*
G01*
X183000000Y-103000000D01*
X183000000Y-104000000D01*
X184000000Y-104000000D01*
X184000000Y-103000000D01*
G37*
X184000000Y-103000000D02*
X183000000Y-103000000D01*
X183000000Y-104000000D01*
X184000000Y-104000000D01*
X184000000Y-103000000D01*
G36*
X185000000Y-103000000D02*
G01*
X184000000Y-103000000D01*
X184000000Y-104000000D01*
X185000000Y-104000000D01*
X185000000Y-103000000D01*
G37*
X185000000Y-103000000D02*
X184000000Y-103000000D01*
X184000000Y-104000000D01*
X185000000Y-104000000D01*
X185000000Y-103000000D01*
G36*
X186000000Y-103000000D02*
G01*
X185000000Y-103000000D01*
X185000000Y-104000000D01*
X186000000Y-104000000D01*
X186000000Y-103000000D01*
G37*
X186000000Y-103000000D02*
X185000000Y-103000000D01*
X185000000Y-104000000D01*
X186000000Y-104000000D01*
X186000000Y-103000000D01*
G36*
X183000000Y-102000000D02*
G01*
X182000000Y-102000000D01*
X182000000Y-103000000D01*
X183000000Y-103000000D01*
X183000000Y-102000000D01*
G37*
X183000000Y-102000000D02*
X182000000Y-102000000D01*
X182000000Y-103000000D01*
X183000000Y-103000000D01*
X183000000Y-102000000D01*
G36*
X184000000Y-102000000D02*
G01*
X183000000Y-102000000D01*
X183000000Y-103000000D01*
X184000000Y-103000000D01*
X184000000Y-102000000D01*
G37*
X184000000Y-102000000D02*
X183000000Y-102000000D01*
X183000000Y-103000000D01*
X184000000Y-103000000D01*
X184000000Y-102000000D01*
G36*
X185000000Y-102000000D02*
G01*
X184000000Y-102000000D01*
X184000000Y-103000000D01*
X185000000Y-103000000D01*
X185000000Y-102000000D01*
G37*
X185000000Y-102000000D02*
X184000000Y-102000000D01*
X184000000Y-103000000D01*
X185000000Y-103000000D01*
X185000000Y-102000000D01*
G36*
X186000000Y-102000000D02*
G01*
X185000000Y-102000000D01*
X185000000Y-103000000D01*
X186000000Y-103000000D01*
X186000000Y-102000000D01*
G37*
X186000000Y-102000000D02*
X185000000Y-102000000D01*
X185000000Y-103000000D01*
X186000000Y-103000000D01*
X186000000Y-102000000D01*
G36*
X180000000Y-101000000D02*
G01*
X179000000Y-101000000D01*
X179000000Y-102000000D01*
X180000000Y-102000000D01*
X180000000Y-101000000D01*
G37*
X180000000Y-101000000D02*
X179000000Y-101000000D01*
X179000000Y-102000000D01*
X180000000Y-102000000D01*
X180000000Y-101000000D01*
G36*
X182000000Y-101000000D02*
G01*
X181000000Y-101000000D01*
X181000000Y-102000000D01*
X182000000Y-102000000D01*
X182000000Y-101000000D01*
G37*
X182000000Y-101000000D02*
X181000000Y-101000000D01*
X181000000Y-102000000D01*
X182000000Y-102000000D01*
X182000000Y-101000000D01*
G36*
X183000000Y-101000000D02*
G01*
X182000000Y-101000000D01*
X182000000Y-102000000D01*
X183000000Y-102000000D01*
X183000000Y-101000000D01*
G37*
X183000000Y-101000000D02*
X182000000Y-101000000D01*
X182000000Y-102000000D01*
X183000000Y-102000000D01*
X183000000Y-101000000D01*
G36*
X184000000Y-101000000D02*
G01*
X183000000Y-101000000D01*
X183000000Y-102000000D01*
X184000000Y-102000000D01*
X184000000Y-101000000D01*
G37*
X184000000Y-101000000D02*
X183000000Y-101000000D01*
X183000000Y-102000000D01*
X184000000Y-102000000D01*
X184000000Y-101000000D01*
G36*
X185000000Y-101000000D02*
G01*
X184000000Y-101000000D01*
X184000000Y-102000000D01*
X185000000Y-102000000D01*
X185000000Y-101000000D01*
G37*
X185000000Y-101000000D02*
X184000000Y-101000000D01*
X184000000Y-102000000D01*
X185000000Y-102000000D01*
X185000000Y-101000000D01*
G36*
X182000000Y-100000000D02*
G01*
X181000000Y-100000000D01*
X181000000Y-101000000D01*
X182000000Y-101000000D01*
X182000000Y-100000000D01*
G37*
X182000000Y-100000000D02*
X181000000Y-100000000D01*
X181000000Y-101000000D01*
X182000000Y-101000000D01*
X182000000Y-100000000D01*
G36*
X183000000Y-100000000D02*
G01*
X182000000Y-100000000D01*
X182000000Y-101000000D01*
X183000000Y-101000000D01*
X183000000Y-100000000D01*
G37*
X183000000Y-100000000D02*
X182000000Y-100000000D01*
X182000000Y-101000000D01*
X183000000Y-101000000D01*
X183000000Y-100000000D01*
G36*
X184000000Y-100000000D02*
G01*
X183000000Y-100000000D01*
X183000000Y-101000000D01*
X184000000Y-101000000D01*
X184000000Y-100000000D01*
G37*
X184000000Y-100000000D02*
X183000000Y-100000000D01*
X183000000Y-101000000D01*
X184000000Y-101000000D01*
X184000000Y-100000000D01*
G36*
X185000000Y-100000000D02*
G01*
X184000000Y-100000000D01*
X184000000Y-101000000D01*
X185000000Y-101000000D01*
X185000000Y-100000000D01*
G37*
X185000000Y-100000000D02*
X184000000Y-100000000D01*
X184000000Y-101000000D01*
X185000000Y-101000000D01*
X185000000Y-100000000D01*
G36*
X182000000Y-99000000D02*
G01*
X181000000Y-99000000D01*
X181000000Y-100000000D01*
X182000000Y-100000000D01*
X182000000Y-99000000D01*
G37*
X182000000Y-99000000D02*
X181000000Y-99000000D01*
X181000000Y-100000000D01*
X182000000Y-100000000D01*
X182000000Y-99000000D01*
G36*
X183000000Y-99000000D02*
G01*
X182000000Y-99000000D01*
X182000000Y-100000000D01*
X183000000Y-100000000D01*
X183000000Y-99000000D01*
G37*
X183000000Y-99000000D02*
X182000000Y-99000000D01*
X182000000Y-100000000D01*
X183000000Y-100000000D01*
X183000000Y-99000000D01*
G36*
X184000000Y-99000000D02*
G01*
X183000000Y-99000000D01*
X183000000Y-100000000D01*
X184000000Y-100000000D01*
X184000000Y-99000000D01*
G37*
X184000000Y-99000000D02*
X183000000Y-99000000D01*
X183000000Y-100000000D01*
X184000000Y-100000000D01*
X184000000Y-99000000D01*
G36*
X182000000Y-98000000D02*
G01*
X181000000Y-98000000D01*
X181000000Y-99000000D01*
X182000000Y-99000000D01*
X182000000Y-98000000D01*
G37*
X182000000Y-98000000D02*
X181000000Y-98000000D01*
X181000000Y-99000000D01*
X182000000Y-99000000D01*
X182000000Y-98000000D01*
G36*
X183000000Y-98000000D02*
G01*
X182000000Y-98000000D01*
X182000000Y-99000000D01*
X183000000Y-99000000D01*
X183000000Y-98000000D01*
G37*
X183000000Y-98000000D02*
X182000000Y-98000000D01*
X182000000Y-99000000D01*
X183000000Y-99000000D01*
X183000000Y-98000000D01*
G36*
X184000000Y-98000000D02*
G01*
X183000000Y-98000000D01*
X183000000Y-99000000D01*
X184000000Y-99000000D01*
X184000000Y-98000000D01*
G37*
X184000000Y-98000000D02*
X183000000Y-98000000D01*
X183000000Y-99000000D01*
X184000000Y-99000000D01*
X184000000Y-98000000D01*
G36*
X183000000Y-97000000D02*
G01*
X182000000Y-97000000D01*
X182000000Y-98000000D01*
X183000000Y-98000000D01*
X183000000Y-97000000D01*
G37*
X183000000Y-97000000D02*
X182000000Y-97000000D01*
X182000000Y-98000000D01*
X183000000Y-98000000D01*
X183000000Y-97000000D01*
G36*
X184000000Y-97000000D02*
G01*
X183000000Y-97000000D01*
X183000000Y-98000000D01*
X184000000Y-98000000D01*
X184000000Y-97000000D01*
G37*
X184000000Y-97000000D02*
X183000000Y-97000000D01*
X183000000Y-98000000D01*
X184000000Y-98000000D01*
X184000000Y-97000000D01*
G36*
X184000000Y-96000000D02*
G01*
X183000000Y-96000000D01*
X183000000Y-97000000D01*
X184000000Y-97000000D01*
X184000000Y-96000000D01*
G37*
X184000000Y-96000000D02*
X183000000Y-96000000D01*
X183000000Y-97000000D01*
X184000000Y-97000000D01*
X184000000Y-96000000D01*
D12*
M02*
