M48
; DRILL file {KiCad (5.1.4)-1} date 12/04/2020 16:51:05
; FORMAT={-:-/ absolute / inch / decimal}
; #@! TF.CreationDate,2020-04-12T16:51:05+01:00
; #@! TF.GenerationSoftware,Kicad,Pcbnew,(5.1.4)-1
; #@! TF.FileFunction,Plated,1,2,PTH
FMAT,2
INCH
T1C0.0157
T2C0.0197
T3C0.0295
T4C0.0315
T5C0.0394
T6C0.0402
T7C0.0591
T8C0.0598
T9C0.0787
T10C0.0984
T11C0.3201
%
G90
G05
T1
X1.589Y-2.829
X1.92Y-2.88
X2.05Y-3.15
X2.061Y-2.989
X2.1Y-2.95
X2.1481Y-3.0762
X2.35Y-3.05
X2.35Y-3.3
X2.45Y-2.85
X2.55Y-3.15
X2.85Y-3.4
X2.95Y-2.8
X3.0Y-2.8
X3.05Y-2.7
X3.15Y-2.4
X3.25Y-2.75
X3.48Y-2.56
X3.5Y-2.6
X3.55Y-1.6819
X3.55Y-1.85
X3.6Y-2.6
X3.62Y-2.56
X3.7Y-1.9
X3.85Y-1.9
X3.85Y-2.15
X3.9Y-2.15
X3.9495Y-2.5995
X4.0495Y-2.4995
X4.05Y-2.6
X4.08Y-2.862
X4.15Y-2.5
X4.15Y-2.7
X4.2Y-1.7
X4.2Y-2.46
X4.2Y-2.64
X4.2Y-2.9
X4.2Y-2.95
X4.2Y-3.05
X4.2Y-3.1
X4.3Y-1.8
X4.3112Y-3.1
X4.35Y-1.6
X4.35Y-2.75
X4.3772Y-3.0248
X4.4Y-2.52
X4.4Y-2.65
X4.4Y-2.6984
X4.4Y-2.85
X4.45Y-2.4
X4.45Y-2.6984
X4.45Y-3.0
X4.4866Y-3.1366
X4.5Y-1.8
X4.5Y-2.6984
X4.5Y-3.0
X4.54Y-2.34
X4.55Y-1.95
X4.55Y-2.85
X4.55Y-3.0
X4.55Y-3.0
X4.552Y-3.152
X4.5955Y-2.9955
X4.6Y-2.4
X4.6Y-2.45
X4.6Y-3.1
X4.65Y-2.0
X4.65Y-3.05
X4.68Y-3.08
X4.6948Y-2.7448
X4.7Y-2.9
X4.7209Y-3.0512
X4.7324Y-3.2324
X4.75Y-2.7
X4.75Y-2.85
X4.8Y-3.45
X4.8166Y-2.7666
X4.8448Y-2.5948
X4.85Y-2.1
X4.85Y-3.25
X4.85Y-3.45
X4.86Y-3.06
X4.8876Y-2.0624
X4.9Y-2.15
X4.9Y-2.25
X4.953Y-2.047
X4.9657Y-2.6157
X5.0Y-2.9
X5.0Y-2.95
X5.0Y-3.0
X5.05Y-1.95
X5.06Y-2.9
X5.08Y-3.12
X5.15Y-1.95
X5.18Y-2.92
X5.45Y-1.75
X5.5Y-1.75
X5.5Y-2.1
X5.5Y-2.45
X5.55Y-3.4
X5.68Y-2.54
X5.7Y-2.7
X5.7Y-2.7
X5.7Y-2.7
X5.7161Y-2.6315
X5.75Y-2.2
X5.75Y-2.85
X5.95Y-2.55
X6.05Y-2.35
X6.05Y-2.45
T2
X6.1762Y-1.95
X6.1978Y-1.8978
X6.1978Y-2.0022
X6.25Y-1.8762
X6.25Y-2.0238
X6.3022Y-1.8978
X6.3022Y-2.0022
X6.3238Y-1.95
X1.1762Y-2.0
X1.1978Y-1.9478
X1.1978Y-2.0522
X1.25Y-1.9262
X1.25Y-2.0738
X1.3022Y-1.9478
X1.3022Y-2.0522
X1.3238Y-2.0
T3
X3.8Y-2.7
X3.8Y-2.75
X3.8Y-2.8
X5.5Y-1.9
X5.55Y-1.9
X5.6Y-1.9
T4
X3.25Y-2.3516
X3.25Y-2.45
X3.55Y-2.3516
X3.55Y-2.45
X4.1Y-3.25
X4.2496Y-3.25
X3.85Y-2.3516
X3.85Y-2.45
T5
X5.8Y-1.65
X5.8Y-1.75
X4.6Y-1.5
X4.6Y-1.7
X4.7Y-1.5
X4.7Y-1.7
X5.0Y-1.5
X5.0Y-1.7
X3.85Y-1.75
X3.85Y-2.0453
X3.1Y-1.7547
X3.1Y-2.05
X5.3531Y-2.8
X5.4516Y-2.8
X5.55Y-2.8
X6.0031Y-2.8
X6.1016Y-2.8
X6.2Y-2.8
X1.65Y-2.65
X1.75Y-2.65
X1.85Y-2.65
X1.95Y-2.65
X2.05Y-2.65
X2.15Y-2.65
X2.25Y-2.65
X2.35Y-2.65
X2.45Y-2.65
X2.55Y-2.65
X2.2Y-3.1
X2.2Y-3.2
X2.3Y-3.1
X2.3Y-3.2
X2.4Y-3.1
X2.4Y-3.2
T6
X1.65Y-1.65
X1.65Y-2.15
X2.35Y-1.65
X2.35Y-2.15
T7
X3.6354Y-1.35
X3.85Y-1.35
X4.0646Y-1.35
X2.9Y-1.35
X3.1146Y-1.35
X3.3291Y-1.35
T8
X1.9Y-1.3
X2.1Y-1.3
T10
X1.25Y-2.0
X6.25Y-1.5
X1.25Y-1.5
X6.25Y-1.95
T11
X2.0Y-1.9
T9
G00X5.2311Y-3.0854
M15
G01X5.2311Y-3.1051
M16
G05
G00X5.672Y-3.0854
M15
G01X5.672Y-3.1051
M16
G05
G00X5.8811Y-3.0854
M15
G01X5.8811Y-3.1051
M16
G05
G00X6.322Y-3.0854
M15
G01X6.322Y-3.1051
M16
G05
T0
M30
