G04 #@! TF.GenerationSoftware,KiCad,Pcbnew,(5.1.4)-1*
G04 #@! TF.CreationDate,2020-04-12T16:51:03+01:00*
G04 #@! TF.ProjectId,25v PSU,32357620-5053-4552-9e6b-696361645f70,rev?*
G04 #@! TF.SameCoordinates,Original*
G04 #@! TF.FileFunction,Soldermask,Top*
G04 #@! TF.FilePolarity,Negative*
%FSLAX46Y46*%
G04 Gerber Fmt 4.6, Leading zero omitted, Abs format (unit mm)*
G04 Created by KiCad (PCBNEW (5.1.4)-1) date 2020-04-12 16:51:03*
%MOMM*%
%LPD*%
G04 APERTURE LIST*
%ADD10C,0.100000*%
G04 APERTURE END LIST*
D10*
G36*
X124719928Y-84001764D02*
G01*
X124741009Y-84008160D01*
X124760445Y-84018548D01*
X124777476Y-84032524D01*
X124791452Y-84049555D01*
X124801840Y-84068991D01*
X124808236Y-84090072D01*
X124811000Y-84118140D01*
X124811000Y-85931860D01*
X124808236Y-85959928D01*
X124801840Y-85981009D01*
X124791452Y-86000445D01*
X124777476Y-86017476D01*
X124760445Y-86031452D01*
X124741009Y-86041840D01*
X124719928Y-86048236D01*
X124691860Y-86051000D01*
X124228140Y-86051000D01*
X124200072Y-86048236D01*
X124178991Y-86041840D01*
X124159555Y-86031452D01*
X124142524Y-86017476D01*
X124128548Y-86000445D01*
X124118160Y-85981009D01*
X124111764Y-85959928D01*
X124109000Y-85931860D01*
X124109000Y-84118140D01*
X124111764Y-84090072D01*
X124118160Y-84068991D01*
X124128548Y-84049555D01*
X124142524Y-84032524D01*
X124159555Y-84018548D01*
X124178991Y-84008160D01*
X124200072Y-84001764D01*
X124228140Y-83999000D01*
X124691860Y-83999000D01*
X124719928Y-84001764D01*
X124719928Y-84001764D01*
G37*
G36*
X125989928Y-84001764D02*
G01*
X126011009Y-84008160D01*
X126030445Y-84018548D01*
X126047476Y-84032524D01*
X126061452Y-84049555D01*
X126071840Y-84068991D01*
X126078236Y-84090072D01*
X126081000Y-84118140D01*
X126081000Y-85931860D01*
X126078236Y-85959928D01*
X126071840Y-85981009D01*
X126061452Y-86000445D01*
X126047476Y-86017476D01*
X126030445Y-86031452D01*
X126011009Y-86041840D01*
X125989928Y-86048236D01*
X125961860Y-86051000D01*
X125498140Y-86051000D01*
X125470072Y-86048236D01*
X125448991Y-86041840D01*
X125429555Y-86031452D01*
X125412524Y-86017476D01*
X125398548Y-86000445D01*
X125388160Y-85981009D01*
X125381764Y-85959928D01*
X125379000Y-85931860D01*
X125379000Y-84118140D01*
X125381764Y-84090072D01*
X125388160Y-84068991D01*
X125398548Y-84049555D01*
X125412524Y-84032524D01*
X125429555Y-84018548D01*
X125448991Y-84008160D01*
X125470072Y-84001764D01*
X125498140Y-83999000D01*
X125961860Y-83999000D01*
X125989928Y-84001764D01*
X125989928Y-84001764D01*
G37*
G36*
X127259928Y-84001764D02*
G01*
X127281009Y-84008160D01*
X127300445Y-84018548D01*
X127317476Y-84032524D01*
X127331452Y-84049555D01*
X127341840Y-84068991D01*
X127348236Y-84090072D01*
X127351000Y-84118140D01*
X127351000Y-85931860D01*
X127348236Y-85959928D01*
X127341840Y-85981009D01*
X127331452Y-86000445D01*
X127317476Y-86017476D01*
X127300445Y-86031452D01*
X127281009Y-86041840D01*
X127259928Y-86048236D01*
X127231860Y-86051000D01*
X126768140Y-86051000D01*
X126740072Y-86048236D01*
X126718991Y-86041840D01*
X126699555Y-86031452D01*
X126682524Y-86017476D01*
X126668548Y-86000445D01*
X126658160Y-85981009D01*
X126651764Y-85959928D01*
X126649000Y-85931860D01*
X126649000Y-84118140D01*
X126651764Y-84090072D01*
X126658160Y-84068991D01*
X126668548Y-84049555D01*
X126682524Y-84032524D01*
X126699555Y-84018548D01*
X126718991Y-84008160D01*
X126740072Y-84001764D01*
X126768140Y-83999000D01*
X127231860Y-83999000D01*
X127259928Y-84001764D01*
X127259928Y-84001764D01*
G37*
G36*
X119639928Y-84001764D02*
G01*
X119661009Y-84008160D01*
X119680445Y-84018548D01*
X119697476Y-84032524D01*
X119711452Y-84049555D01*
X119721840Y-84068991D01*
X119728236Y-84090072D01*
X119731000Y-84118140D01*
X119731000Y-85931860D01*
X119728236Y-85959928D01*
X119721840Y-85981009D01*
X119711452Y-86000445D01*
X119697476Y-86017476D01*
X119680445Y-86031452D01*
X119661009Y-86041840D01*
X119639928Y-86048236D01*
X119611860Y-86051000D01*
X119148140Y-86051000D01*
X119120072Y-86048236D01*
X119098991Y-86041840D01*
X119079555Y-86031452D01*
X119062524Y-86017476D01*
X119048548Y-86000445D01*
X119038160Y-85981009D01*
X119031764Y-85959928D01*
X119029000Y-85931860D01*
X119029000Y-84118140D01*
X119031764Y-84090072D01*
X119038160Y-84068991D01*
X119048548Y-84049555D01*
X119062524Y-84032524D01*
X119079555Y-84018548D01*
X119098991Y-84008160D01*
X119120072Y-84001764D01*
X119148140Y-83999000D01*
X119611860Y-83999000D01*
X119639928Y-84001764D01*
X119639928Y-84001764D01*
G37*
G36*
X122179928Y-84001764D02*
G01*
X122201009Y-84008160D01*
X122220445Y-84018548D01*
X122237476Y-84032524D01*
X122251452Y-84049555D01*
X122261840Y-84068991D01*
X122268236Y-84090072D01*
X122271000Y-84118140D01*
X122271000Y-85931860D01*
X122268236Y-85959928D01*
X122261840Y-85981009D01*
X122251452Y-86000445D01*
X122237476Y-86017476D01*
X122220445Y-86031452D01*
X122201009Y-86041840D01*
X122179928Y-86048236D01*
X122151860Y-86051000D01*
X121688140Y-86051000D01*
X121660072Y-86048236D01*
X121638991Y-86041840D01*
X121619555Y-86031452D01*
X121602524Y-86017476D01*
X121588548Y-86000445D01*
X121578160Y-85981009D01*
X121571764Y-85959928D01*
X121569000Y-85931860D01*
X121569000Y-84118140D01*
X121571764Y-84090072D01*
X121578160Y-84068991D01*
X121588548Y-84049555D01*
X121602524Y-84032524D01*
X121619555Y-84018548D01*
X121638991Y-84008160D01*
X121660072Y-84001764D01*
X121688140Y-83999000D01*
X122151860Y-83999000D01*
X122179928Y-84001764D01*
X122179928Y-84001764D01*
G37*
G36*
X123449928Y-84001764D02*
G01*
X123471009Y-84008160D01*
X123490445Y-84018548D01*
X123507476Y-84032524D01*
X123521452Y-84049555D01*
X123531840Y-84068991D01*
X123538236Y-84090072D01*
X123541000Y-84118140D01*
X123541000Y-85931860D01*
X123538236Y-85959928D01*
X123531840Y-85981009D01*
X123521452Y-86000445D01*
X123507476Y-86017476D01*
X123490445Y-86031452D01*
X123471009Y-86041840D01*
X123449928Y-86048236D01*
X123421860Y-86051000D01*
X122958140Y-86051000D01*
X122930072Y-86048236D01*
X122908991Y-86041840D01*
X122889555Y-86031452D01*
X122872524Y-86017476D01*
X122858548Y-86000445D01*
X122848160Y-85981009D01*
X122841764Y-85959928D01*
X122839000Y-85931860D01*
X122839000Y-84118140D01*
X122841764Y-84090072D01*
X122848160Y-84068991D01*
X122858548Y-84049555D01*
X122872524Y-84032524D01*
X122889555Y-84018548D01*
X122908991Y-84008160D01*
X122930072Y-84001764D01*
X122958140Y-83999000D01*
X123421860Y-83999000D01*
X123449928Y-84001764D01*
X123449928Y-84001764D01*
G37*
G36*
X120909928Y-84001764D02*
G01*
X120931009Y-84008160D01*
X120950445Y-84018548D01*
X120967476Y-84032524D01*
X120981452Y-84049555D01*
X120991840Y-84068991D01*
X120998236Y-84090072D01*
X121001000Y-84118140D01*
X121001000Y-85931860D01*
X120998236Y-85959928D01*
X120991840Y-85981009D01*
X120981452Y-86000445D01*
X120967476Y-86017476D01*
X120950445Y-86031452D01*
X120931009Y-86041840D01*
X120909928Y-86048236D01*
X120881860Y-86051000D01*
X120418140Y-86051000D01*
X120390072Y-86048236D01*
X120368991Y-86041840D01*
X120349555Y-86031452D01*
X120332524Y-86017476D01*
X120318548Y-86000445D01*
X120308160Y-85981009D01*
X120301764Y-85959928D01*
X120299000Y-85931860D01*
X120299000Y-84118140D01*
X120301764Y-84090072D01*
X120308160Y-84068991D01*
X120318548Y-84049555D01*
X120332524Y-84032524D01*
X120349555Y-84018548D01*
X120368991Y-84008160D01*
X120390072Y-84001764D01*
X120418140Y-83999000D01*
X120881860Y-83999000D01*
X120909928Y-84001764D01*
X120909928Y-84001764D01*
G37*
G36*
X117615562Y-83495681D02*
G01*
X117650481Y-83506274D01*
X117682663Y-83523476D01*
X117710873Y-83546627D01*
X117734024Y-83574837D01*
X117751226Y-83607019D01*
X117761819Y-83641938D01*
X117766000Y-83684395D01*
X117766000Y-84825605D01*
X117761819Y-84868062D01*
X117751226Y-84902981D01*
X117734024Y-84935163D01*
X117710873Y-84963373D01*
X117682663Y-84986524D01*
X117650481Y-85003726D01*
X117615562Y-85014319D01*
X117573105Y-85018500D01*
X116106895Y-85018500D01*
X116064438Y-85014319D01*
X116029519Y-85003726D01*
X115997337Y-84986524D01*
X115969127Y-84963373D01*
X115945976Y-84935163D01*
X115928774Y-84902981D01*
X115918181Y-84868062D01*
X115914000Y-84825605D01*
X115914000Y-83684395D01*
X115918181Y-83641938D01*
X115928774Y-83607019D01*
X115945976Y-83574837D01*
X115969127Y-83546627D01*
X115997337Y-83523476D01*
X116029519Y-83506274D01*
X116064438Y-83495681D01*
X116106895Y-83491500D01*
X117573105Y-83491500D01*
X117615562Y-83495681D01*
X117615562Y-83495681D01*
G37*
G36*
X114664499Y-82853445D02*
G01*
X114701995Y-82864820D01*
X114736554Y-82883292D01*
X114766847Y-82908153D01*
X114791708Y-82938446D01*
X114810180Y-82973005D01*
X114821555Y-83010501D01*
X114826000Y-83055638D01*
X114826000Y-83794362D01*
X114821555Y-83839499D01*
X114810180Y-83876995D01*
X114791708Y-83911554D01*
X114766847Y-83941847D01*
X114736554Y-83966708D01*
X114701995Y-83985180D01*
X114664499Y-83996555D01*
X114619362Y-84001000D01*
X113980638Y-84001000D01*
X113935501Y-83996555D01*
X113898005Y-83985180D01*
X113863446Y-83966708D01*
X113833153Y-83941847D01*
X113808292Y-83911554D01*
X113789820Y-83876995D01*
X113778445Y-83839499D01*
X113774000Y-83794362D01*
X113774000Y-83055638D01*
X113778445Y-83010501D01*
X113789820Y-82973005D01*
X113808292Y-82938446D01*
X113833153Y-82908153D01*
X113863446Y-82883292D01*
X113898005Y-82864820D01*
X113935501Y-82853445D01*
X113980638Y-82849000D01*
X114619362Y-82849000D01*
X114664499Y-82853445D01*
X114664499Y-82853445D01*
G37*
G36*
X104373642Y-81779781D02*
G01*
X104489736Y-81827869D01*
X104519416Y-81840163D01*
X104650608Y-81927822D01*
X104762178Y-82039392D01*
X104849837Y-82170584D01*
X104849838Y-82170586D01*
X104910219Y-82316358D01*
X104941000Y-82471107D01*
X104941000Y-82628893D01*
X104910219Y-82783642D01*
X104851239Y-82926031D01*
X104849837Y-82929416D01*
X104762178Y-83060608D01*
X104650608Y-83172178D01*
X104519416Y-83259837D01*
X104519415Y-83259838D01*
X104519414Y-83259838D01*
X104373642Y-83320219D01*
X104218893Y-83351000D01*
X104061107Y-83351000D01*
X103906358Y-83320219D01*
X103760586Y-83259838D01*
X103760585Y-83259838D01*
X103760584Y-83259837D01*
X103629392Y-83172178D01*
X103517822Y-83060608D01*
X103430163Y-82929416D01*
X103428761Y-82926031D01*
X103369781Y-82783642D01*
X103339000Y-82628893D01*
X103339000Y-82471107D01*
X103369781Y-82316358D01*
X103430162Y-82170586D01*
X103430163Y-82170584D01*
X103517822Y-82039392D01*
X103629392Y-81927822D01*
X103760584Y-81840163D01*
X103790264Y-81827869D01*
X103906358Y-81779781D01*
X104061107Y-81749000D01*
X104218893Y-81749000D01*
X104373642Y-81779781D01*
X104373642Y-81779781D01*
G37*
G36*
X108173642Y-81779781D02*
G01*
X108289736Y-81827869D01*
X108319416Y-81840163D01*
X108450608Y-81927822D01*
X108562178Y-82039392D01*
X108649837Y-82170584D01*
X108649838Y-82170586D01*
X108710219Y-82316358D01*
X108741000Y-82471107D01*
X108741000Y-82628893D01*
X108710219Y-82783642D01*
X108651239Y-82926031D01*
X108649837Y-82929416D01*
X108562178Y-83060608D01*
X108450608Y-83172178D01*
X108319416Y-83259837D01*
X108319415Y-83259838D01*
X108319414Y-83259838D01*
X108173642Y-83320219D01*
X108018893Y-83351000D01*
X107861107Y-83351000D01*
X107706358Y-83320219D01*
X107560586Y-83259838D01*
X107560585Y-83259838D01*
X107560584Y-83259837D01*
X107429392Y-83172178D01*
X107317822Y-83060608D01*
X107230163Y-82929416D01*
X107228761Y-82926031D01*
X107169781Y-82783642D01*
X107139000Y-82628893D01*
X107139000Y-82471107D01*
X107169781Y-82316358D01*
X107230162Y-82170586D01*
X107230163Y-82170584D01*
X107317822Y-82039392D01*
X107429392Y-81927822D01*
X107560584Y-81840163D01*
X107590264Y-81827869D01*
X107706358Y-81779781D01*
X107861107Y-81749000D01*
X108018893Y-81749000D01*
X108173642Y-81779781D01*
X108173642Y-81779781D01*
G37*
G36*
X114664499Y-81103445D02*
G01*
X114701995Y-81114820D01*
X114736554Y-81133292D01*
X114766847Y-81158153D01*
X114791708Y-81188446D01*
X114810180Y-81223005D01*
X114821555Y-81260501D01*
X114826000Y-81305638D01*
X114826000Y-82044362D01*
X114821555Y-82089499D01*
X114810180Y-82126995D01*
X114791708Y-82161554D01*
X114766847Y-82191847D01*
X114736554Y-82216708D01*
X114701995Y-82235180D01*
X114664499Y-82246555D01*
X114619362Y-82251000D01*
X113980638Y-82251000D01*
X113935501Y-82246555D01*
X113898005Y-82235180D01*
X113863446Y-82216708D01*
X113833153Y-82191847D01*
X113808292Y-82161554D01*
X113789820Y-82126995D01*
X113778445Y-82089499D01*
X113774000Y-82044362D01*
X113774000Y-81305638D01*
X113778445Y-81260501D01*
X113789820Y-81223005D01*
X113808292Y-81188446D01*
X113833153Y-81158153D01*
X113863446Y-81133292D01*
X113898005Y-81114820D01*
X113935501Y-81103445D01*
X113980638Y-81099000D01*
X114619362Y-81099000D01*
X114664499Y-81103445D01*
X114664499Y-81103445D01*
G37*
G36*
X61070442Y-80385518D02*
G01*
X61136627Y-80392037D01*
X61306466Y-80443557D01*
X61462991Y-80527222D01*
X61488889Y-80548476D01*
X61600186Y-80639814D01*
X61675947Y-80732131D01*
X61712778Y-80777009D01*
X61796443Y-80933534D01*
X61847963Y-81103373D01*
X61865359Y-81280000D01*
X61847963Y-81456627D01*
X61796443Y-81626466D01*
X61712778Y-81782991D01*
X61683448Y-81818729D01*
X61600186Y-81920186D01*
X61504939Y-81998352D01*
X61462991Y-82032778D01*
X61306466Y-82116443D01*
X61136627Y-82167963D01*
X61075646Y-82173969D01*
X61004260Y-82181000D01*
X60915740Y-82181000D01*
X60844354Y-82173969D01*
X60783373Y-82167963D01*
X60613534Y-82116443D01*
X60457009Y-82032778D01*
X60415061Y-81998352D01*
X60319814Y-81920186D01*
X60236552Y-81818729D01*
X60207222Y-81782991D01*
X60123557Y-81626466D01*
X60072037Y-81456627D01*
X60054641Y-81280000D01*
X60072037Y-81103373D01*
X60123557Y-80933534D01*
X60207222Y-80777009D01*
X60244053Y-80732131D01*
X60319814Y-80639814D01*
X60431111Y-80548476D01*
X60457009Y-80527222D01*
X60613534Y-80443557D01*
X60783373Y-80392037D01*
X60849558Y-80385518D01*
X60915740Y-80379000D01*
X61004260Y-80379000D01*
X61070442Y-80385518D01*
X61070442Y-80385518D01*
G37*
G36*
X58530442Y-80385518D02*
G01*
X58596627Y-80392037D01*
X58766466Y-80443557D01*
X58922991Y-80527222D01*
X58948889Y-80548476D01*
X59060186Y-80639814D01*
X59135947Y-80732131D01*
X59172778Y-80777009D01*
X59256443Y-80933534D01*
X59307963Y-81103373D01*
X59325359Y-81280000D01*
X59307963Y-81456627D01*
X59256443Y-81626466D01*
X59172778Y-81782991D01*
X59143448Y-81818729D01*
X59060186Y-81920186D01*
X58964939Y-81998352D01*
X58922991Y-82032778D01*
X58766466Y-82116443D01*
X58596627Y-82167963D01*
X58535646Y-82173969D01*
X58464260Y-82181000D01*
X58375740Y-82181000D01*
X58304354Y-82173969D01*
X58243373Y-82167963D01*
X58073534Y-82116443D01*
X57917009Y-82032778D01*
X57875061Y-81998352D01*
X57779814Y-81920186D01*
X57696552Y-81818729D01*
X57667222Y-81782991D01*
X57583557Y-81626466D01*
X57532037Y-81456627D01*
X57514641Y-81280000D01*
X57532037Y-81103373D01*
X57583557Y-80933534D01*
X57667222Y-80777009D01*
X57704053Y-80732131D01*
X57779814Y-80639814D01*
X57891111Y-80548476D01*
X57917009Y-80527222D01*
X58073534Y-80443557D01*
X58243373Y-80392037D01*
X58309558Y-80385518D01*
X58375740Y-80379000D01*
X58464260Y-80379000D01*
X58530442Y-80385518D01*
X58530442Y-80385518D01*
G37*
G36*
X56781000Y-82181000D02*
G01*
X54979000Y-82181000D01*
X54979000Y-80379000D01*
X56781000Y-80379000D01*
X56781000Y-82181000D01*
X56781000Y-82181000D01*
G37*
G36*
X117615562Y-80520681D02*
G01*
X117650481Y-80531274D01*
X117682663Y-80548476D01*
X117710873Y-80571627D01*
X117734024Y-80599837D01*
X117751226Y-80632019D01*
X117761819Y-80666938D01*
X117766000Y-80709395D01*
X117766000Y-81850605D01*
X117761819Y-81893062D01*
X117751226Y-81927981D01*
X117734024Y-81960163D01*
X117710873Y-81988373D01*
X117682663Y-82011524D01*
X117650481Y-82028726D01*
X117615562Y-82039319D01*
X117573105Y-82043500D01*
X116106895Y-82043500D01*
X116064438Y-82039319D01*
X116029519Y-82028726D01*
X115997337Y-82011524D01*
X115969127Y-81988373D01*
X115945976Y-81960163D01*
X115928774Y-81927981D01*
X115918181Y-81893062D01*
X115914000Y-81850605D01*
X115914000Y-80709395D01*
X115918181Y-80666938D01*
X115928774Y-80632019D01*
X115945976Y-80599837D01*
X115969127Y-80571627D01*
X115997337Y-80548476D01*
X116029519Y-80531274D01*
X116064438Y-80520681D01*
X116106895Y-80516500D01*
X117573105Y-80516500D01*
X117615562Y-80520681D01*
X117615562Y-80520681D01*
G37*
G36*
X122179928Y-79051764D02*
G01*
X122201009Y-79058160D01*
X122220445Y-79068548D01*
X122237476Y-79082524D01*
X122251452Y-79099555D01*
X122261840Y-79118991D01*
X122268236Y-79140072D01*
X122271000Y-79168140D01*
X122271000Y-80981860D01*
X122268236Y-81009928D01*
X122261840Y-81031009D01*
X122251452Y-81050445D01*
X122237476Y-81067476D01*
X122220445Y-81081452D01*
X122201009Y-81091840D01*
X122179928Y-81098236D01*
X122151860Y-81101000D01*
X121688140Y-81101000D01*
X121660072Y-81098236D01*
X121638991Y-81091840D01*
X121619555Y-81081452D01*
X121602524Y-81067476D01*
X121588548Y-81050445D01*
X121578160Y-81031009D01*
X121571764Y-81009928D01*
X121569000Y-80981860D01*
X121569000Y-79168140D01*
X121571764Y-79140072D01*
X121578160Y-79118991D01*
X121588548Y-79099555D01*
X121602524Y-79082524D01*
X121619555Y-79068548D01*
X121638991Y-79058160D01*
X121660072Y-79051764D01*
X121688140Y-79049000D01*
X122151860Y-79049000D01*
X122179928Y-79051764D01*
X122179928Y-79051764D01*
G37*
G36*
X125989928Y-79051764D02*
G01*
X126011009Y-79058160D01*
X126030445Y-79068548D01*
X126047476Y-79082524D01*
X126061452Y-79099555D01*
X126071840Y-79118991D01*
X126078236Y-79140072D01*
X126081000Y-79168140D01*
X126081000Y-80981860D01*
X126078236Y-81009928D01*
X126071840Y-81031009D01*
X126061452Y-81050445D01*
X126047476Y-81067476D01*
X126030445Y-81081452D01*
X126011009Y-81091840D01*
X125989928Y-81098236D01*
X125961860Y-81101000D01*
X125498140Y-81101000D01*
X125470072Y-81098236D01*
X125448991Y-81091840D01*
X125429555Y-81081452D01*
X125412524Y-81067476D01*
X125398548Y-81050445D01*
X125388160Y-81031009D01*
X125381764Y-81009928D01*
X125379000Y-80981860D01*
X125379000Y-79168140D01*
X125381764Y-79140072D01*
X125388160Y-79118991D01*
X125398548Y-79099555D01*
X125412524Y-79082524D01*
X125429555Y-79068548D01*
X125448991Y-79058160D01*
X125470072Y-79051764D01*
X125498140Y-79049000D01*
X125961860Y-79049000D01*
X125989928Y-79051764D01*
X125989928Y-79051764D01*
G37*
G36*
X123449928Y-79051764D02*
G01*
X123471009Y-79058160D01*
X123490445Y-79068548D01*
X123507476Y-79082524D01*
X123521452Y-79099555D01*
X123531840Y-79118991D01*
X123538236Y-79140072D01*
X123541000Y-79168140D01*
X123541000Y-80981860D01*
X123538236Y-81009928D01*
X123531840Y-81031009D01*
X123521452Y-81050445D01*
X123507476Y-81067476D01*
X123490445Y-81081452D01*
X123471009Y-81091840D01*
X123449928Y-81098236D01*
X123421860Y-81101000D01*
X122958140Y-81101000D01*
X122930072Y-81098236D01*
X122908991Y-81091840D01*
X122889555Y-81081452D01*
X122872524Y-81067476D01*
X122858548Y-81050445D01*
X122848160Y-81031009D01*
X122841764Y-81009928D01*
X122839000Y-80981860D01*
X122839000Y-79168140D01*
X122841764Y-79140072D01*
X122848160Y-79118991D01*
X122858548Y-79099555D01*
X122872524Y-79082524D01*
X122889555Y-79068548D01*
X122908991Y-79058160D01*
X122930072Y-79051764D01*
X122958140Y-79049000D01*
X123421860Y-79049000D01*
X123449928Y-79051764D01*
X123449928Y-79051764D01*
G37*
G36*
X127259928Y-79051764D02*
G01*
X127281009Y-79058160D01*
X127300445Y-79068548D01*
X127317476Y-79082524D01*
X127331452Y-79099555D01*
X127341840Y-79118991D01*
X127348236Y-79140072D01*
X127351000Y-79168140D01*
X127351000Y-80981860D01*
X127348236Y-81009928D01*
X127341840Y-81031009D01*
X127331452Y-81050445D01*
X127317476Y-81067476D01*
X127300445Y-81081452D01*
X127281009Y-81091840D01*
X127259928Y-81098236D01*
X127231860Y-81101000D01*
X126768140Y-81101000D01*
X126740072Y-81098236D01*
X126718991Y-81091840D01*
X126699555Y-81081452D01*
X126682524Y-81067476D01*
X126668548Y-81050445D01*
X126658160Y-81031009D01*
X126651764Y-81009928D01*
X126649000Y-80981860D01*
X126649000Y-79168140D01*
X126651764Y-79140072D01*
X126658160Y-79118991D01*
X126668548Y-79099555D01*
X126682524Y-79082524D01*
X126699555Y-79068548D01*
X126718991Y-79058160D01*
X126740072Y-79051764D01*
X126768140Y-79049000D01*
X127231860Y-79049000D01*
X127259928Y-79051764D01*
X127259928Y-79051764D01*
G37*
G36*
X120909928Y-79051764D02*
G01*
X120931009Y-79058160D01*
X120950445Y-79068548D01*
X120967476Y-79082524D01*
X120981452Y-79099555D01*
X120991840Y-79118991D01*
X120998236Y-79140072D01*
X121001000Y-79168140D01*
X121001000Y-80981860D01*
X120998236Y-81009928D01*
X120991840Y-81031009D01*
X120981452Y-81050445D01*
X120967476Y-81067476D01*
X120950445Y-81081452D01*
X120931009Y-81091840D01*
X120909928Y-81098236D01*
X120881860Y-81101000D01*
X120418140Y-81101000D01*
X120390072Y-81098236D01*
X120368991Y-81091840D01*
X120349555Y-81081452D01*
X120332524Y-81067476D01*
X120318548Y-81050445D01*
X120308160Y-81031009D01*
X120301764Y-81009928D01*
X120299000Y-80981860D01*
X120299000Y-79168140D01*
X120301764Y-79140072D01*
X120308160Y-79118991D01*
X120318548Y-79099555D01*
X120332524Y-79082524D01*
X120349555Y-79068548D01*
X120368991Y-79058160D01*
X120390072Y-79051764D01*
X120418140Y-79049000D01*
X120881860Y-79049000D01*
X120909928Y-79051764D01*
X120909928Y-79051764D01*
G37*
G36*
X124719928Y-79051764D02*
G01*
X124741009Y-79058160D01*
X124760445Y-79068548D01*
X124777476Y-79082524D01*
X124791452Y-79099555D01*
X124801840Y-79118991D01*
X124808236Y-79140072D01*
X124811000Y-79168140D01*
X124811000Y-80981860D01*
X124808236Y-81009928D01*
X124801840Y-81031009D01*
X124791452Y-81050445D01*
X124777476Y-81067476D01*
X124760445Y-81081452D01*
X124741009Y-81091840D01*
X124719928Y-81098236D01*
X124691860Y-81101000D01*
X124228140Y-81101000D01*
X124200072Y-81098236D01*
X124178991Y-81091840D01*
X124159555Y-81081452D01*
X124142524Y-81067476D01*
X124128548Y-81050445D01*
X124118160Y-81031009D01*
X124111764Y-81009928D01*
X124109000Y-80981860D01*
X124109000Y-79168140D01*
X124111764Y-79140072D01*
X124118160Y-79118991D01*
X124128548Y-79099555D01*
X124142524Y-79082524D01*
X124159555Y-79068548D01*
X124178991Y-79058160D01*
X124200072Y-79051764D01*
X124228140Y-79049000D01*
X124691860Y-79049000D01*
X124719928Y-79051764D01*
X124719928Y-79051764D01*
G37*
G36*
X119639928Y-79051764D02*
G01*
X119661009Y-79058160D01*
X119680445Y-79068548D01*
X119697476Y-79082524D01*
X119711452Y-79099555D01*
X119721840Y-79118991D01*
X119728236Y-79140072D01*
X119731000Y-79168140D01*
X119731000Y-80981860D01*
X119728236Y-81009928D01*
X119721840Y-81031009D01*
X119711452Y-81050445D01*
X119697476Y-81067476D01*
X119680445Y-81081452D01*
X119661009Y-81091840D01*
X119639928Y-81098236D01*
X119611860Y-81101000D01*
X119148140Y-81101000D01*
X119120072Y-81098236D01*
X119098991Y-81091840D01*
X119079555Y-81081452D01*
X119062524Y-81067476D01*
X119048548Y-81050445D01*
X119038160Y-81031009D01*
X119031764Y-81009928D01*
X119029000Y-80981860D01*
X119029000Y-79168140D01*
X119031764Y-79140072D01*
X119038160Y-79118991D01*
X119048548Y-79099555D01*
X119062524Y-79082524D01*
X119079555Y-79068548D01*
X119098991Y-79058160D01*
X119120072Y-79051764D01*
X119148140Y-79049000D01*
X119611860Y-79049000D01*
X119639928Y-79051764D01*
X119639928Y-79051764D01*
G37*
G36*
X134171000Y-80171000D02*
G01*
X131569000Y-80171000D01*
X131569000Y-77069000D01*
X134171000Y-77069000D01*
X134171000Y-80171000D01*
X134171000Y-80171000D01*
G37*
G36*
X145371000Y-80171000D02*
G01*
X142769000Y-80171000D01*
X142769000Y-77069000D01*
X145371000Y-77069000D01*
X145371000Y-80171000D01*
X145371000Y-80171000D01*
G37*
G36*
X161881000Y-80171000D02*
G01*
X159279000Y-80171000D01*
X159279000Y-77069000D01*
X161881000Y-77069000D01*
X161881000Y-80171000D01*
X161881000Y-80171000D01*
G37*
G36*
X150681000Y-80171000D02*
G01*
X148079000Y-80171000D01*
X148079000Y-77069000D01*
X150681000Y-77069000D01*
X150681000Y-80171000D01*
X150681000Y-80171000D01*
G37*
G36*
X61070443Y-77845519D02*
G01*
X61136627Y-77852037D01*
X61306466Y-77903557D01*
X61462991Y-77987222D01*
X61498729Y-78016552D01*
X61600186Y-78099814D01*
X61683448Y-78201271D01*
X61712778Y-78237009D01*
X61796443Y-78393534D01*
X61847963Y-78563373D01*
X61865359Y-78740000D01*
X61847963Y-78916627D01*
X61796443Y-79086466D01*
X61796442Y-79086468D01*
X61779058Y-79118991D01*
X61712778Y-79242991D01*
X61683448Y-79278729D01*
X61600186Y-79380186D01*
X61498729Y-79463448D01*
X61462991Y-79492778D01*
X61306466Y-79576443D01*
X61136627Y-79627963D01*
X61070442Y-79634482D01*
X61004260Y-79641000D01*
X60915740Y-79641000D01*
X60849558Y-79634482D01*
X60783373Y-79627963D01*
X60613534Y-79576443D01*
X60457009Y-79492778D01*
X60421271Y-79463448D01*
X60319814Y-79380186D01*
X60236552Y-79278729D01*
X60207222Y-79242991D01*
X60140942Y-79118991D01*
X60123558Y-79086468D01*
X60123557Y-79086466D01*
X60072037Y-78916627D01*
X60054641Y-78740000D01*
X60072037Y-78563373D01*
X60123557Y-78393534D01*
X60207222Y-78237009D01*
X60236552Y-78201271D01*
X60319814Y-78099814D01*
X60421271Y-78016552D01*
X60457009Y-77987222D01*
X60613534Y-77903557D01*
X60783373Y-77852037D01*
X60849557Y-77845519D01*
X60915740Y-77839000D01*
X61004260Y-77839000D01*
X61070443Y-77845519D01*
X61070443Y-77845519D01*
G37*
G36*
X58530443Y-77845519D02*
G01*
X58596627Y-77852037D01*
X58766466Y-77903557D01*
X58922991Y-77987222D01*
X58958729Y-78016552D01*
X59060186Y-78099814D01*
X59143448Y-78201271D01*
X59172778Y-78237009D01*
X59256443Y-78393534D01*
X59307963Y-78563373D01*
X59325359Y-78740000D01*
X59307963Y-78916627D01*
X59256443Y-79086466D01*
X59256442Y-79086468D01*
X59239058Y-79118991D01*
X59172778Y-79242991D01*
X59143448Y-79278729D01*
X59060186Y-79380186D01*
X58958729Y-79463448D01*
X58922991Y-79492778D01*
X58766466Y-79576443D01*
X58596627Y-79627963D01*
X58530442Y-79634482D01*
X58464260Y-79641000D01*
X58375740Y-79641000D01*
X58309558Y-79634482D01*
X58243373Y-79627963D01*
X58073534Y-79576443D01*
X57917009Y-79492778D01*
X57881271Y-79463448D01*
X57779814Y-79380186D01*
X57696552Y-79278729D01*
X57667222Y-79242991D01*
X57600942Y-79118991D01*
X57583558Y-79086468D01*
X57583557Y-79086466D01*
X57532037Y-78916627D01*
X57514641Y-78740000D01*
X57532037Y-78563373D01*
X57583557Y-78393534D01*
X57667222Y-78237009D01*
X57696552Y-78201271D01*
X57779814Y-78099814D01*
X57881271Y-78016552D01*
X57917009Y-77987222D01*
X58073534Y-77903557D01*
X58243373Y-77852037D01*
X58309557Y-77845519D01*
X58375740Y-77839000D01*
X58464260Y-77839000D01*
X58530443Y-77845519D01*
X58530443Y-77845519D01*
G37*
G36*
X55990443Y-77845519D02*
G01*
X56056627Y-77852037D01*
X56226466Y-77903557D01*
X56382991Y-77987222D01*
X56418729Y-78016552D01*
X56520186Y-78099814D01*
X56603448Y-78201271D01*
X56632778Y-78237009D01*
X56716443Y-78393534D01*
X56767963Y-78563373D01*
X56785359Y-78740000D01*
X56767963Y-78916627D01*
X56716443Y-79086466D01*
X56716442Y-79086468D01*
X56699058Y-79118991D01*
X56632778Y-79242991D01*
X56603448Y-79278729D01*
X56520186Y-79380186D01*
X56418729Y-79463448D01*
X56382991Y-79492778D01*
X56226466Y-79576443D01*
X56056627Y-79627963D01*
X55990442Y-79634482D01*
X55924260Y-79641000D01*
X55835740Y-79641000D01*
X55769558Y-79634482D01*
X55703373Y-79627963D01*
X55533534Y-79576443D01*
X55377009Y-79492778D01*
X55341271Y-79463448D01*
X55239814Y-79380186D01*
X55156552Y-79278729D01*
X55127222Y-79242991D01*
X55060942Y-79118991D01*
X55043558Y-79086468D01*
X55043557Y-79086466D01*
X54992037Y-78916627D01*
X54974641Y-78740000D01*
X54992037Y-78563373D01*
X55043557Y-78393534D01*
X55127222Y-78237009D01*
X55156552Y-78201271D01*
X55239814Y-78099814D01*
X55341271Y-78016552D01*
X55377009Y-77987222D01*
X55533534Y-77903557D01*
X55703373Y-77852037D01*
X55769557Y-77845519D01*
X55835740Y-77839000D01*
X55924260Y-77839000D01*
X55990443Y-77845519D01*
X55990443Y-77845519D01*
G37*
G36*
X80904928Y-75111764D02*
G01*
X80926009Y-75118160D01*
X80945445Y-75128548D01*
X80962476Y-75142524D01*
X80976452Y-75159555D01*
X80986840Y-75178991D01*
X80993236Y-75200072D01*
X80996000Y-75228140D01*
X80996000Y-77041860D01*
X80993236Y-77069928D01*
X80986840Y-77091009D01*
X80976452Y-77110445D01*
X80962476Y-77127476D01*
X80945445Y-77141452D01*
X80926009Y-77151840D01*
X80904928Y-77158236D01*
X80876860Y-77161000D01*
X80413140Y-77161000D01*
X80385072Y-77158236D01*
X80363991Y-77151840D01*
X80344555Y-77141452D01*
X80327524Y-77127476D01*
X80313548Y-77110445D01*
X80303160Y-77091009D01*
X80296764Y-77069928D01*
X80294000Y-77041860D01*
X80294000Y-75228140D01*
X80296764Y-75200072D01*
X80303160Y-75178991D01*
X80313548Y-75159555D01*
X80327524Y-75142524D01*
X80344555Y-75128548D01*
X80363991Y-75118160D01*
X80385072Y-75111764D01*
X80413140Y-75109000D01*
X80876860Y-75109000D01*
X80904928Y-75111764D01*
X80904928Y-75111764D01*
G37*
G36*
X78364928Y-75111764D02*
G01*
X78386009Y-75118160D01*
X78405445Y-75128548D01*
X78422476Y-75142524D01*
X78436452Y-75159555D01*
X78446840Y-75178991D01*
X78453236Y-75200072D01*
X78456000Y-75228140D01*
X78456000Y-77041860D01*
X78453236Y-77069928D01*
X78446840Y-77091009D01*
X78436452Y-77110445D01*
X78422476Y-77127476D01*
X78405445Y-77141452D01*
X78386009Y-77151840D01*
X78364928Y-77158236D01*
X78336860Y-77161000D01*
X77873140Y-77161000D01*
X77845072Y-77158236D01*
X77823991Y-77151840D01*
X77804555Y-77141452D01*
X77787524Y-77127476D01*
X77773548Y-77110445D01*
X77763160Y-77091009D01*
X77756764Y-77069928D01*
X77754000Y-77041860D01*
X77754000Y-75228140D01*
X77756764Y-75200072D01*
X77763160Y-75178991D01*
X77773548Y-75159555D01*
X77787524Y-75142524D01*
X77804555Y-75128548D01*
X77823991Y-75118160D01*
X77845072Y-75111764D01*
X77873140Y-75109000D01*
X78336860Y-75109000D01*
X78364928Y-75111764D01*
X78364928Y-75111764D01*
G37*
G36*
X77094928Y-75111764D02*
G01*
X77116009Y-75118160D01*
X77135445Y-75128548D01*
X77152476Y-75142524D01*
X77166452Y-75159555D01*
X77176840Y-75178991D01*
X77183236Y-75200072D01*
X77186000Y-75228140D01*
X77186000Y-77041860D01*
X77183236Y-77069928D01*
X77176840Y-77091009D01*
X77166452Y-77110445D01*
X77152476Y-77127476D01*
X77135445Y-77141452D01*
X77116009Y-77151840D01*
X77094928Y-77158236D01*
X77066860Y-77161000D01*
X76603140Y-77161000D01*
X76575072Y-77158236D01*
X76553991Y-77151840D01*
X76534555Y-77141452D01*
X76517524Y-77127476D01*
X76503548Y-77110445D01*
X76493160Y-77091009D01*
X76486764Y-77069928D01*
X76484000Y-77041860D01*
X76484000Y-75228140D01*
X76486764Y-75200072D01*
X76493160Y-75178991D01*
X76503548Y-75159555D01*
X76517524Y-75142524D01*
X76534555Y-75128548D01*
X76553991Y-75118160D01*
X76575072Y-75111764D01*
X76603140Y-75109000D01*
X77066860Y-75109000D01*
X77094928Y-75111764D01*
X77094928Y-75111764D01*
G37*
G36*
X70744928Y-75111764D02*
G01*
X70766009Y-75118160D01*
X70785445Y-75128548D01*
X70802476Y-75142524D01*
X70816452Y-75159555D01*
X70826840Y-75178991D01*
X70833236Y-75200072D01*
X70836000Y-75228140D01*
X70836000Y-77041860D01*
X70833236Y-77069928D01*
X70826840Y-77091009D01*
X70816452Y-77110445D01*
X70802476Y-77127476D01*
X70785445Y-77141452D01*
X70766009Y-77151840D01*
X70744928Y-77158236D01*
X70716860Y-77161000D01*
X70253140Y-77161000D01*
X70225072Y-77158236D01*
X70203991Y-77151840D01*
X70184555Y-77141452D01*
X70167524Y-77127476D01*
X70153548Y-77110445D01*
X70143160Y-77091009D01*
X70136764Y-77069928D01*
X70134000Y-77041860D01*
X70134000Y-75228140D01*
X70136764Y-75200072D01*
X70143160Y-75178991D01*
X70153548Y-75159555D01*
X70167524Y-75142524D01*
X70184555Y-75128548D01*
X70203991Y-75118160D01*
X70225072Y-75111764D01*
X70253140Y-75109000D01*
X70716860Y-75109000D01*
X70744928Y-75111764D01*
X70744928Y-75111764D01*
G37*
G36*
X72014928Y-75111764D02*
G01*
X72036009Y-75118160D01*
X72055445Y-75128548D01*
X72072476Y-75142524D01*
X72086452Y-75159555D01*
X72096840Y-75178991D01*
X72103236Y-75200072D01*
X72106000Y-75228140D01*
X72106000Y-77041860D01*
X72103236Y-77069928D01*
X72096840Y-77091009D01*
X72086452Y-77110445D01*
X72072476Y-77127476D01*
X72055445Y-77141452D01*
X72036009Y-77151840D01*
X72014928Y-77158236D01*
X71986860Y-77161000D01*
X71523140Y-77161000D01*
X71495072Y-77158236D01*
X71473991Y-77151840D01*
X71454555Y-77141452D01*
X71437524Y-77127476D01*
X71423548Y-77110445D01*
X71413160Y-77091009D01*
X71406764Y-77069928D01*
X71404000Y-77041860D01*
X71404000Y-75228140D01*
X71406764Y-75200072D01*
X71413160Y-75178991D01*
X71423548Y-75159555D01*
X71437524Y-75142524D01*
X71454555Y-75128548D01*
X71473991Y-75118160D01*
X71495072Y-75111764D01*
X71523140Y-75109000D01*
X71986860Y-75109000D01*
X72014928Y-75111764D01*
X72014928Y-75111764D01*
G37*
G36*
X79634928Y-75111764D02*
G01*
X79656009Y-75118160D01*
X79675445Y-75128548D01*
X79692476Y-75142524D01*
X79706452Y-75159555D01*
X79716840Y-75178991D01*
X79723236Y-75200072D01*
X79726000Y-75228140D01*
X79726000Y-77041860D01*
X79723236Y-77069928D01*
X79716840Y-77091009D01*
X79706452Y-77110445D01*
X79692476Y-77127476D01*
X79675445Y-77141452D01*
X79656009Y-77151840D01*
X79634928Y-77158236D01*
X79606860Y-77161000D01*
X79143140Y-77161000D01*
X79115072Y-77158236D01*
X79093991Y-77151840D01*
X79074555Y-77141452D01*
X79057524Y-77127476D01*
X79043548Y-77110445D01*
X79033160Y-77091009D01*
X79026764Y-77069928D01*
X79024000Y-77041860D01*
X79024000Y-75228140D01*
X79026764Y-75200072D01*
X79033160Y-75178991D01*
X79043548Y-75159555D01*
X79057524Y-75142524D01*
X79074555Y-75128548D01*
X79093991Y-75118160D01*
X79115072Y-75111764D01*
X79143140Y-75109000D01*
X79606860Y-75109000D01*
X79634928Y-75111764D01*
X79634928Y-75111764D01*
G37*
G36*
X73284928Y-75111764D02*
G01*
X73306009Y-75118160D01*
X73325445Y-75128548D01*
X73342476Y-75142524D01*
X73356452Y-75159555D01*
X73366840Y-75178991D01*
X73373236Y-75200072D01*
X73376000Y-75228140D01*
X73376000Y-77041860D01*
X73373236Y-77069928D01*
X73366840Y-77091009D01*
X73356452Y-77110445D01*
X73342476Y-77127476D01*
X73325445Y-77141452D01*
X73306009Y-77151840D01*
X73284928Y-77158236D01*
X73256860Y-77161000D01*
X72793140Y-77161000D01*
X72765072Y-77158236D01*
X72743991Y-77151840D01*
X72724555Y-77141452D01*
X72707524Y-77127476D01*
X72693548Y-77110445D01*
X72683160Y-77091009D01*
X72676764Y-77069928D01*
X72674000Y-77041860D01*
X72674000Y-75228140D01*
X72676764Y-75200072D01*
X72683160Y-75178991D01*
X72693548Y-75159555D01*
X72707524Y-75142524D01*
X72724555Y-75128548D01*
X72743991Y-75118160D01*
X72765072Y-75111764D01*
X72793140Y-75109000D01*
X73256860Y-75109000D01*
X73284928Y-75111764D01*
X73284928Y-75111764D01*
G37*
G36*
X69474928Y-75111764D02*
G01*
X69496009Y-75118160D01*
X69515445Y-75128548D01*
X69532476Y-75142524D01*
X69546452Y-75159555D01*
X69556840Y-75178991D01*
X69563236Y-75200072D01*
X69566000Y-75228140D01*
X69566000Y-77041860D01*
X69563236Y-77069928D01*
X69556840Y-77091009D01*
X69546452Y-77110445D01*
X69532476Y-77127476D01*
X69515445Y-77141452D01*
X69496009Y-77151840D01*
X69474928Y-77158236D01*
X69446860Y-77161000D01*
X68983140Y-77161000D01*
X68955072Y-77158236D01*
X68933991Y-77151840D01*
X68914555Y-77141452D01*
X68897524Y-77127476D01*
X68883548Y-77110445D01*
X68873160Y-77091009D01*
X68866764Y-77069928D01*
X68864000Y-77041860D01*
X68864000Y-75228140D01*
X68866764Y-75200072D01*
X68873160Y-75178991D01*
X68883548Y-75159555D01*
X68897524Y-75142524D01*
X68914555Y-75128548D01*
X68933991Y-75118160D01*
X68955072Y-75111764D01*
X68983140Y-75109000D01*
X69446860Y-75109000D01*
X69474928Y-75111764D01*
X69474928Y-75111764D01*
G37*
G36*
X85454499Y-75628445D02*
G01*
X85491995Y-75639820D01*
X85526554Y-75658292D01*
X85556847Y-75683153D01*
X85581708Y-75713446D01*
X85600180Y-75748005D01*
X85611555Y-75785501D01*
X85616000Y-75830638D01*
X85616000Y-76569362D01*
X85611555Y-76614499D01*
X85600180Y-76651995D01*
X85581708Y-76686554D01*
X85556847Y-76716847D01*
X85526554Y-76741708D01*
X85491995Y-76760180D01*
X85454499Y-76771555D01*
X85409362Y-76776000D01*
X84770638Y-76776000D01*
X84725501Y-76771555D01*
X84688005Y-76760180D01*
X84653446Y-76741708D01*
X84623153Y-76716847D01*
X84598292Y-76686554D01*
X84579820Y-76651995D01*
X84568445Y-76614499D01*
X84564000Y-76569362D01*
X84564000Y-75830638D01*
X84568445Y-75785501D01*
X84579820Y-75748005D01*
X84598292Y-75713446D01*
X84623153Y-75683153D01*
X84653446Y-75658292D01*
X84688005Y-75639820D01*
X84725501Y-75628445D01*
X84770638Y-75624000D01*
X85409362Y-75624000D01*
X85454499Y-75628445D01*
X85454499Y-75628445D01*
G37*
G36*
X82914499Y-75628445D02*
G01*
X82951995Y-75639820D01*
X82986554Y-75658292D01*
X83016847Y-75683153D01*
X83041708Y-75713446D01*
X83060180Y-75748005D01*
X83071555Y-75785501D01*
X83076000Y-75830638D01*
X83076000Y-76569362D01*
X83071555Y-76614499D01*
X83060180Y-76651995D01*
X83041708Y-76686554D01*
X83016847Y-76716847D01*
X82986554Y-76741708D01*
X82951995Y-76760180D01*
X82914499Y-76771555D01*
X82869362Y-76776000D01*
X82230638Y-76776000D01*
X82185501Y-76771555D01*
X82148005Y-76760180D01*
X82113446Y-76741708D01*
X82083153Y-76716847D01*
X82058292Y-76686554D01*
X82039820Y-76651995D01*
X82028445Y-76614499D01*
X82024000Y-76569362D01*
X82024000Y-75830638D01*
X82028445Y-75785501D01*
X82039820Y-75748005D01*
X82058292Y-75713446D01*
X82083153Y-75683153D01*
X82113446Y-75658292D01*
X82148005Y-75639820D01*
X82185501Y-75628445D01*
X82230638Y-75624000D01*
X82869362Y-75624000D01*
X82914499Y-75628445D01*
X82914499Y-75628445D01*
G37*
G36*
X85454499Y-73878445D02*
G01*
X85491995Y-73889820D01*
X85526554Y-73908292D01*
X85556847Y-73933153D01*
X85581708Y-73963446D01*
X85600180Y-73998005D01*
X85611555Y-74035501D01*
X85616000Y-74080638D01*
X85616000Y-74819362D01*
X85611555Y-74864499D01*
X85600180Y-74901995D01*
X85581708Y-74936554D01*
X85556847Y-74966847D01*
X85526554Y-74991708D01*
X85491995Y-75010180D01*
X85454499Y-75021555D01*
X85409362Y-75026000D01*
X84770638Y-75026000D01*
X84725501Y-75021555D01*
X84688005Y-75010180D01*
X84653446Y-74991708D01*
X84623153Y-74966847D01*
X84598292Y-74936554D01*
X84579820Y-74901995D01*
X84568445Y-74864499D01*
X84564000Y-74819362D01*
X84564000Y-74080638D01*
X84568445Y-74035501D01*
X84579820Y-73998005D01*
X84598292Y-73963446D01*
X84623153Y-73933153D01*
X84653446Y-73908292D01*
X84688005Y-73889820D01*
X84725501Y-73878445D01*
X84770638Y-73874000D01*
X85409362Y-73874000D01*
X85454499Y-73878445D01*
X85454499Y-73878445D01*
G37*
G36*
X82914499Y-73878445D02*
G01*
X82951995Y-73889820D01*
X82986554Y-73908292D01*
X83016847Y-73933153D01*
X83041708Y-73963446D01*
X83060180Y-73998005D01*
X83071555Y-74035501D01*
X83076000Y-74080638D01*
X83076000Y-74819362D01*
X83071555Y-74864499D01*
X83060180Y-74901995D01*
X83041708Y-74936554D01*
X83016847Y-74966847D01*
X82986554Y-74991708D01*
X82951995Y-75010180D01*
X82914499Y-75021555D01*
X82869362Y-75026000D01*
X82230638Y-75026000D01*
X82185501Y-75021555D01*
X82148005Y-75010180D01*
X82113446Y-74991708D01*
X82083153Y-74966847D01*
X82058292Y-74936554D01*
X82039820Y-74901995D01*
X82028445Y-74864499D01*
X82024000Y-74819362D01*
X82024000Y-74080638D01*
X82028445Y-74035501D01*
X82039820Y-73998005D01*
X82058292Y-73963446D01*
X82083153Y-73933153D01*
X82113446Y-73908292D01*
X82148005Y-73889820D01*
X82185501Y-73878445D01*
X82230638Y-73874000D01*
X82869362Y-73874000D01*
X82914499Y-73878445D01*
X82914499Y-73878445D01*
G37*
G36*
X116156000Y-74951000D02*
G01*
X109904000Y-74951000D01*
X109904000Y-73249000D01*
X116156000Y-73249000D01*
X116156000Y-74951000D01*
X116156000Y-74951000D01*
G37*
G36*
X44814499Y-72298445D02*
G01*
X44851995Y-72309820D01*
X44886554Y-72328292D01*
X44916847Y-72353153D01*
X44941708Y-72383446D01*
X44960180Y-72418005D01*
X44971555Y-72455501D01*
X44976000Y-72500638D01*
X44976000Y-73239362D01*
X44971555Y-73284499D01*
X44960180Y-73321995D01*
X44941708Y-73356554D01*
X44916847Y-73386847D01*
X44886554Y-73411708D01*
X44851995Y-73430180D01*
X44814499Y-73441555D01*
X44769362Y-73446000D01*
X44130638Y-73446000D01*
X44085501Y-73441555D01*
X44048005Y-73430180D01*
X44013446Y-73411708D01*
X43983153Y-73386847D01*
X43958292Y-73356554D01*
X43939820Y-73321995D01*
X43928445Y-73284499D01*
X43924000Y-73239362D01*
X43924000Y-72500638D01*
X43928445Y-72455501D01*
X43939820Y-72418005D01*
X43958292Y-72383446D01*
X43983153Y-72353153D01*
X44013446Y-72328292D01*
X44048005Y-72309820D01*
X44085501Y-72298445D01*
X44130638Y-72294000D01*
X44769362Y-72294000D01*
X44814499Y-72298445D01*
X44814499Y-72298445D01*
G37*
G36*
X47354499Y-72298445D02*
G01*
X47391995Y-72309820D01*
X47426554Y-72328292D01*
X47456847Y-72353153D01*
X47481708Y-72383446D01*
X47500180Y-72418005D01*
X47511555Y-72455501D01*
X47516000Y-72500638D01*
X47516000Y-73239362D01*
X47511555Y-73284499D01*
X47500180Y-73321995D01*
X47481708Y-73356554D01*
X47456847Y-73386847D01*
X47426554Y-73411708D01*
X47391995Y-73430180D01*
X47354499Y-73441555D01*
X47309362Y-73446000D01*
X46670638Y-73446000D01*
X46625501Y-73441555D01*
X46588005Y-73430180D01*
X46553446Y-73411708D01*
X46523153Y-73386847D01*
X46498292Y-73356554D01*
X46479820Y-73321995D01*
X46468445Y-73284499D01*
X46464000Y-73239362D01*
X46464000Y-72500638D01*
X46468445Y-72455501D01*
X46479820Y-72418005D01*
X46498292Y-72383446D01*
X46523153Y-72353153D01*
X46553446Y-72328292D01*
X46588005Y-72309820D01*
X46625501Y-72298445D01*
X46670638Y-72294000D01*
X47309362Y-72294000D01*
X47354499Y-72298445D01*
X47354499Y-72298445D01*
G37*
G36*
X42274499Y-72298445D02*
G01*
X42311995Y-72309820D01*
X42346554Y-72328292D01*
X42376847Y-72353153D01*
X42401708Y-72383446D01*
X42420180Y-72418005D01*
X42431555Y-72455501D01*
X42436000Y-72500638D01*
X42436000Y-73239362D01*
X42431555Y-73284499D01*
X42420180Y-73321995D01*
X42401708Y-73356554D01*
X42376847Y-73386847D01*
X42346554Y-73411708D01*
X42311995Y-73430180D01*
X42274499Y-73441555D01*
X42229362Y-73446000D01*
X41590638Y-73446000D01*
X41545501Y-73441555D01*
X41508005Y-73430180D01*
X41473446Y-73411708D01*
X41443153Y-73386847D01*
X41418292Y-73356554D01*
X41399820Y-73321995D01*
X41388445Y-73284499D01*
X41384000Y-73239362D01*
X41384000Y-72500638D01*
X41388445Y-72455501D01*
X41399820Y-72418005D01*
X41418292Y-72383446D01*
X41443153Y-72353153D01*
X41473446Y-72328292D01*
X41508005Y-72309820D01*
X41545501Y-72298445D01*
X41590638Y-72294000D01*
X42229362Y-72294000D01*
X42274499Y-72298445D01*
X42274499Y-72298445D01*
G37*
G36*
X118131000Y-72976000D02*
G01*
X116429000Y-72976000D01*
X116429000Y-66724000D01*
X118131000Y-66724000D01*
X118131000Y-72976000D01*
X118131000Y-72976000D01*
G37*
G36*
X109631000Y-72976000D02*
G01*
X107929000Y-72976000D01*
X107929000Y-66724000D01*
X109631000Y-66724000D01*
X109631000Y-72976000D01*
X109631000Y-72976000D01*
G37*
G36*
X80904928Y-70161764D02*
G01*
X80926009Y-70168160D01*
X80945445Y-70178548D01*
X80962476Y-70192524D01*
X80976452Y-70209555D01*
X80986840Y-70228991D01*
X80993236Y-70250072D01*
X80996000Y-70278140D01*
X80996000Y-72091860D01*
X80993236Y-72119928D01*
X80986840Y-72141009D01*
X80976452Y-72160445D01*
X80962476Y-72177476D01*
X80945445Y-72191452D01*
X80926009Y-72201840D01*
X80904928Y-72208236D01*
X80876860Y-72211000D01*
X80413140Y-72211000D01*
X80385072Y-72208236D01*
X80363991Y-72201840D01*
X80344555Y-72191452D01*
X80327524Y-72177476D01*
X80313548Y-72160445D01*
X80303160Y-72141009D01*
X80296764Y-72119928D01*
X80294000Y-72091860D01*
X80294000Y-70278140D01*
X80296764Y-70250072D01*
X80303160Y-70228991D01*
X80313548Y-70209555D01*
X80327524Y-70192524D01*
X80344555Y-70178548D01*
X80363991Y-70168160D01*
X80385072Y-70161764D01*
X80413140Y-70159000D01*
X80876860Y-70159000D01*
X80904928Y-70161764D01*
X80904928Y-70161764D01*
G37*
G36*
X79634928Y-70161764D02*
G01*
X79656009Y-70168160D01*
X79675445Y-70178548D01*
X79692476Y-70192524D01*
X79706452Y-70209555D01*
X79716840Y-70228991D01*
X79723236Y-70250072D01*
X79726000Y-70278140D01*
X79726000Y-72091860D01*
X79723236Y-72119928D01*
X79716840Y-72141009D01*
X79706452Y-72160445D01*
X79692476Y-72177476D01*
X79675445Y-72191452D01*
X79656009Y-72201840D01*
X79634928Y-72208236D01*
X79606860Y-72211000D01*
X79143140Y-72211000D01*
X79115072Y-72208236D01*
X79093991Y-72201840D01*
X79074555Y-72191452D01*
X79057524Y-72177476D01*
X79043548Y-72160445D01*
X79033160Y-72141009D01*
X79026764Y-72119928D01*
X79024000Y-72091860D01*
X79024000Y-70278140D01*
X79026764Y-70250072D01*
X79033160Y-70228991D01*
X79043548Y-70209555D01*
X79057524Y-70192524D01*
X79074555Y-70178548D01*
X79093991Y-70168160D01*
X79115072Y-70161764D01*
X79143140Y-70159000D01*
X79606860Y-70159000D01*
X79634928Y-70161764D01*
X79634928Y-70161764D01*
G37*
G36*
X78364928Y-70161764D02*
G01*
X78386009Y-70168160D01*
X78405445Y-70178548D01*
X78422476Y-70192524D01*
X78436452Y-70209555D01*
X78446840Y-70228991D01*
X78453236Y-70250072D01*
X78456000Y-70278140D01*
X78456000Y-72091860D01*
X78453236Y-72119928D01*
X78446840Y-72141009D01*
X78436452Y-72160445D01*
X78422476Y-72177476D01*
X78405445Y-72191452D01*
X78386009Y-72201840D01*
X78364928Y-72208236D01*
X78336860Y-72211000D01*
X77873140Y-72211000D01*
X77845072Y-72208236D01*
X77823991Y-72201840D01*
X77804555Y-72191452D01*
X77787524Y-72177476D01*
X77773548Y-72160445D01*
X77763160Y-72141009D01*
X77756764Y-72119928D01*
X77754000Y-72091860D01*
X77754000Y-70278140D01*
X77756764Y-70250072D01*
X77763160Y-70228991D01*
X77773548Y-70209555D01*
X77787524Y-70192524D01*
X77804555Y-70178548D01*
X77823991Y-70168160D01*
X77845072Y-70161764D01*
X77873140Y-70159000D01*
X78336860Y-70159000D01*
X78364928Y-70161764D01*
X78364928Y-70161764D01*
G37*
G36*
X77094928Y-70161764D02*
G01*
X77116009Y-70168160D01*
X77135445Y-70178548D01*
X77152476Y-70192524D01*
X77166452Y-70209555D01*
X77176840Y-70228991D01*
X77183236Y-70250072D01*
X77186000Y-70278140D01*
X77186000Y-72091860D01*
X77183236Y-72119928D01*
X77176840Y-72141009D01*
X77166452Y-72160445D01*
X77152476Y-72177476D01*
X77135445Y-72191452D01*
X77116009Y-72201840D01*
X77094928Y-72208236D01*
X77066860Y-72211000D01*
X76603140Y-72211000D01*
X76575072Y-72208236D01*
X76553991Y-72201840D01*
X76534555Y-72191452D01*
X76517524Y-72177476D01*
X76503548Y-72160445D01*
X76493160Y-72141009D01*
X76486764Y-72119928D01*
X76484000Y-72091860D01*
X76484000Y-70278140D01*
X76486764Y-70250072D01*
X76493160Y-70228991D01*
X76503548Y-70209555D01*
X76517524Y-70192524D01*
X76534555Y-70178548D01*
X76553991Y-70168160D01*
X76575072Y-70161764D01*
X76603140Y-70159000D01*
X77066860Y-70159000D01*
X77094928Y-70161764D01*
X77094928Y-70161764D01*
G37*
G36*
X69474928Y-70161764D02*
G01*
X69496009Y-70168160D01*
X69515445Y-70178548D01*
X69532476Y-70192524D01*
X69546452Y-70209555D01*
X69556840Y-70228991D01*
X69563236Y-70250072D01*
X69566000Y-70278140D01*
X69566000Y-72091860D01*
X69563236Y-72119928D01*
X69556840Y-72141009D01*
X69546452Y-72160445D01*
X69532476Y-72177476D01*
X69515445Y-72191452D01*
X69496009Y-72201840D01*
X69474928Y-72208236D01*
X69446860Y-72211000D01*
X68983140Y-72211000D01*
X68955072Y-72208236D01*
X68933991Y-72201840D01*
X68914555Y-72191452D01*
X68897524Y-72177476D01*
X68883548Y-72160445D01*
X68873160Y-72141009D01*
X68866764Y-72119928D01*
X68864000Y-72091860D01*
X68864000Y-70278140D01*
X68866764Y-70250072D01*
X68873160Y-70228991D01*
X68883548Y-70209555D01*
X68897524Y-70192524D01*
X68914555Y-70178548D01*
X68933991Y-70168160D01*
X68955072Y-70161764D01*
X68983140Y-70159000D01*
X69446860Y-70159000D01*
X69474928Y-70161764D01*
X69474928Y-70161764D01*
G37*
G36*
X73284928Y-70161764D02*
G01*
X73306009Y-70168160D01*
X73325445Y-70178548D01*
X73342476Y-70192524D01*
X73356452Y-70209555D01*
X73366840Y-70228991D01*
X73373236Y-70250072D01*
X73376000Y-70278140D01*
X73376000Y-72091860D01*
X73373236Y-72119928D01*
X73366840Y-72141009D01*
X73356452Y-72160445D01*
X73342476Y-72177476D01*
X73325445Y-72191452D01*
X73306009Y-72201840D01*
X73284928Y-72208236D01*
X73256860Y-72211000D01*
X72793140Y-72211000D01*
X72765072Y-72208236D01*
X72743991Y-72201840D01*
X72724555Y-72191452D01*
X72707524Y-72177476D01*
X72693548Y-72160445D01*
X72683160Y-72141009D01*
X72676764Y-72119928D01*
X72674000Y-72091860D01*
X72674000Y-70278140D01*
X72676764Y-70250072D01*
X72683160Y-70228991D01*
X72693548Y-70209555D01*
X72707524Y-70192524D01*
X72724555Y-70178548D01*
X72743991Y-70168160D01*
X72765072Y-70161764D01*
X72793140Y-70159000D01*
X73256860Y-70159000D01*
X73284928Y-70161764D01*
X73284928Y-70161764D01*
G37*
G36*
X72014928Y-70161764D02*
G01*
X72036009Y-70168160D01*
X72055445Y-70178548D01*
X72072476Y-70192524D01*
X72086452Y-70209555D01*
X72096840Y-70228991D01*
X72103236Y-70250072D01*
X72106000Y-70278140D01*
X72106000Y-72091860D01*
X72103236Y-72119928D01*
X72096840Y-72141009D01*
X72086452Y-72160445D01*
X72072476Y-72177476D01*
X72055445Y-72191452D01*
X72036009Y-72201840D01*
X72014928Y-72208236D01*
X71986860Y-72211000D01*
X71523140Y-72211000D01*
X71495072Y-72208236D01*
X71473991Y-72201840D01*
X71454555Y-72191452D01*
X71437524Y-72177476D01*
X71423548Y-72160445D01*
X71413160Y-72141009D01*
X71406764Y-72119928D01*
X71404000Y-72091860D01*
X71404000Y-70278140D01*
X71406764Y-70250072D01*
X71413160Y-70228991D01*
X71423548Y-70209555D01*
X71437524Y-70192524D01*
X71454555Y-70178548D01*
X71473991Y-70168160D01*
X71495072Y-70161764D01*
X71523140Y-70159000D01*
X71986860Y-70159000D01*
X72014928Y-70161764D01*
X72014928Y-70161764D01*
G37*
G36*
X70744928Y-70161764D02*
G01*
X70766009Y-70168160D01*
X70785445Y-70178548D01*
X70802476Y-70192524D01*
X70816452Y-70209555D01*
X70826840Y-70228991D01*
X70833236Y-70250072D01*
X70836000Y-70278140D01*
X70836000Y-72091860D01*
X70833236Y-72119928D01*
X70826840Y-72141009D01*
X70816452Y-72160445D01*
X70802476Y-72177476D01*
X70785445Y-72191452D01*
X70766009Y-72201840D01*
X70744928Y-72208236D01*
X70716860Y-72211000D01*
X70253140Y-72211000D01*
X70225072Y-72208236D01*
X70203991Y-72201840D01*
X70184555Y-72191452D01*
X70167524Y-72177476D01*
X70153548Y-72160445D01*
X70143160Y-72141009D01*
X70136764Y-72119928D01*
X70134000Y-72091860D01*
X70134000Y-70278140D01*
X70136764Y-70250072D01*
X70143160Y-70228991D01*
X70153548Y-70209555D01*
X70167524Y-70192524D01*
X70184555Y-70178548D01*
X70203991Y-70168160D01*
X70225072Y-70161764D01*
X70253140Y-70159000D01*
X70716860Y-70159000D01*
X70744928Y-70161764D01*
X70744928Y-70161764D01*
G37*
G36*
X152786564Y-70109389D02*
G01*
X152930526Y-70169020D01*
X152977835Y-70188616D01*
X153149973Y-70303635D01*
X153296365Y-70450027D01*
X153398681Y-70603153D01*
X153411385Y-70622167D01*
X153490611Y-70813436D01*
X153531000Y-71016484D01*
X153531000Y-71223516D01*
X153490611Y-71426564D01*
X153427422Y-71579115D01*
X153411384Y-71617835D01*
X153296365Y-71789973D01*
X153149973Y-71936365D01*
X152977835Y-72051384D01*
X152977834Y-72051385D01*
X152977833Y-72051385D01*
X152786564Y-72130611D01*
X152583516Y-72171000D01*
X152376484Y-72171000D01*
X152173436Y-72130611D01*
X151982167Y-72051385D01*
X151982166Y-72051385D01*
X151982165Y-72051384D01*
X151810027Y-71936365D01*
X151663635Y-71789973D01*
X151548616Y-71617835D01*
X151532578Y-71579115D01*
X151469389Y-71426564D01*
X151429000Y-71223516D01*
X151429000Y-71016484D01*
X151469389Y-70813436D01*
X151548615Y-70622167D01*
X151561320Y-70603153D01*
X151663635Y-70450027D01*
X151810027Y-70303635D01*
X151982165Y-70188616D01*
X152029474Y-70169020D01*
X152173436Y-70109389D01*
X152376484Y-70069000D01*
X152583516Y-70069000D01*
X152786564Y-70109389D01*
X152786564Y-70109389D01*
G37*
G36*
X158531000Y-72171000D02*
G01*
X156429000Y-72171000D01*
X156429000Y-70069000D01*
X158531000Y-70069000D01*
X158531000Y-72171000D01*
X158531000Y-72171000D01*
G37*
G36*
X136276564Y-70109389D02*
G01*
X136420526Y-70169020D01*
X136467835Y-70188616D01*
X136639973Y-70303635D01*
X136786365Y-70450027D01*
X136888681Y-70603153D01*
X136901385Y-70622167D01*
X136980611Y-70813436D01*
X137021000Y-71016484D01*
X137021000Y-71223516D01*
X136980611Y-71426564D01*
X136917422Y-71579115D01*
X136901384Y-71617835D01*
X136786365Y-71789973D01*
X136639973Y-71936365D01*
X136467835Y-72051384D01*
X136467834Y-72051385D01*
X136467833Y-72051385D01*
X136276564Y-72130611D01*
X136073516Y-72171000D01*
X135866484Y-72171000D01*
X135663436Y-72130611D01*
X135472167Y-72051385D01*
X135472166Y-72051385D01*
X135472165Y-72051384D01*
X135300027Y-71936365D01*
X135153635Y-71789973D01*
X135038616Y-71617835D01*
X135022578Y-71579115D01*
X134959389Y-71426564D01*
X134919000Y-71223516D01*
X134919000Y-71016484D01*
X134959389Y-70813436D01*
X135038615Y-70622167D01*
X135051320Y-70603153D01*
X135153635Y-70450027D01*
X135300027Y-70303635D01*
X135472165Y-70188616D01*
X135519474Y-70169020D01*
X135663436Y-70109389D01*
X135866484Y-70069000D01*
X136073516Y-70069000D01*
X136276564Y-70109389D01*
X136276564Y-70109389D01*
G37*
G36*
X138776564Y-70109389D02*
G01*
X138920526Y-70169020D01*
X138967835Y-70188616D01*
X139139973Y-70303635D01*
X139286365Y-70450027D01*
X139388681Y-70603153D01*
X139401385Y-70622167D01*
X139480611Y-70813436D01*
X139521000Y-71016484D01*
X139521000Y-71223516D01*
X139480611Y-71426564D01*
X139417422Y-71579115D01*
X139401384Y-71617835D01*
X139286365Y-71789973D01*
X139139973Y-71936365D01*
X138967835Y-72051384D01*
X138967834Y-72051385D01*
X138967833Y-72051385D01*
X138776564Y-72130611D01*
X138573516Y-72171000D01*
X138366484Y-72171000D01*
X138163436Y-72130611D01*
X137972167Y-72051385D01*
X137972166Y-72051385D01*
X137972165Y-72051384D01*
X137800027Y-71936365D01*
X137653635Y-71789973D01*
X137538616Y-71617835D01*
X137522578Y-71579115D01*
X137459389Y-71426564D01*
X137419000Y-71223516D01*
X137419000Y-71016484D01*
X137459389Y-70813436D01*
X137538615Y-70622167D01*
X137551320Y-70603153D01*
X137653635Y-70450027D01*
X137800027Y-70303635D01*
X137972165Y-70188616D01*
X138019474Y-70169020D01*
X138163436Y-70109389D01*
X138366484Y-70069000D01*
X138573516Y-70069000D01*
X138776564Y-70109389D01*
X138776564Y-70109389D01*
G37*
G36*
X142021000Y-72171000D02*
G01*
X139919000Y-72171000D01*
X139919000Y-70069000D01*
X142021000Y-70069000D01*
X142021000Y-72171000D01*
X142021000Y-72171000D01*
G37*
G36*
X155286564Y-70109389D02*
G01*
X155430526Y-70169020D01*
X155477835Y-70188616D01*
X155649973Y-70303635D01*
X155796365Y-70450027D01*
X155898681Y-70603153D01*
X155911385Y-70622167D01*
X155990611Y-70813436D01*
X156031000Y-71016484D01*
X156031000Y-71223516D01*
X155990611Y-71426564D01*
X155927422Y-71579115D01*
X155911384Y-71617835D01*
X155796365Y-71789973D01*
X155649973Y-71936365D01*
X155477835Y-72051384D01*
X155477834Y-72051385D01*
X155477833Y-72051385D01*
X155286564Y-72130611D01*
X155083516Y-72171000D01*
X154876484Y-72171000D01*
X154673436Y-72130611D01*
X154482167Y-72051385D01*
X154482166Y-72051385D01*
X154482165Y-72051384D01*
X154310027Y-71936365D01*
X154163635Y-71789973D01*
X154048616Y-71617835D01*
X154032578Y-71579115D01*
X153969389Y-71426564D01*
X153929000Y-71223516D01*
X153929000Y-71016484D01*
X153969389Y-70813436D01*
X154048615Y-70622167D01*
X154061320Y-70603153D01*
X154163635Y-70450027D01*
X154310027Y-70303635D01*
X154482165Y-70188616D01*
X154529474Y-70169020D01*
X154673436Y-70109389D01*
X154876484Y-70069000D01*
X155083516Y-70069000D01*
X155286564Y-70109389D01*
X155286564Y-70109389D01*
G37*
G36*
X97321000Y-69156000D02*
G01*
X97156660Y-69156000D01*
X97132274Y-69158402D01*
X97108825Y-69165515D01*
X97087214Y-69177066D01*
X97068272Y-69192611D01*
X97052727Y-69211553D01*
X97041176Y-69233164D01*
X97034063Y-69256613D01*
X97031661Y-69280999D01*
X97034063Y-69305385D01*
X97041176Y-69328834D01*
X97052727Y-69350445D01*
X97068272Y-69369387D01*
X97077345Y-69377609D01*
X97154264Y-69440736D01*
X97226244Y-69528443D01*
X97260429Y-69592399D01*
X97279728Y-69628505D01*
X97279729Y-69628508D01*
X97312666Y-69737084D01*
X97323787Y-69850000D01*
X97312666Y-69962916D01*
X97280485Y-70069000D01*
X97279728Y-70071495D01*
X97260429Y-70107601D01*
X97226244Y-70171557D01*
X97154264Y-70259264D01*
X97066557Y-70331244D01*
X96985141Y-70374761D01*
X96964766Y-70388375D01*
X96947439Y-70405702D01*
X96933826Y-70426076D01*
X96924448Y-70448715D01*
X96919668Y-70472748D01*
X96919668Y-70497252D01*
X96924448Y-70521285D01*
X96933826Y-70543924D01*
X96947440Y-70564299D01*
X96964767Y-70581626D01*
X96985141Y-70595239D01*
X97066557Y-70638756D01*
X97154264Y-70710736D01*
X97226244Y-70798443D01*
X97260429Y-70862399D01*
X97279728Y-70898505D01*
X97279729Y-70898508D01*
X97312666Y-71007084D01*
X97323787Y-71120000D01*
X97312666Y-71232916D01*
X97292012Y-71301000D01*
X97279728Y-71341495D01*
X97261284Y-71376000D01*
X97226244Y-71441557D01*
X97154264Y-71529264D01*
X97066557Y-71601244D01*
X97002601Y-71635429D01*
X96966495Y-71654728D01*
X96966492Y-71654729D01*
X96857916Y-71687666D01*
X96773298Y-71696000D01*
X96266702Y-71696000D01*
X96182084Y-71687666D01*
X96073508Y-71654729D01*
X96073505Y-71654728D01*
X96037399Y-71635429D01*
X95973443Y-71601244D01*
X95885736Y-71529264D01*
X95813756Y-71441557D01*
X95778716Y-71376000D01*
X95760272Y-71341495D01*
X95747988Y-71301000D01*
X95727334Y-71232916D01*
X95716213Y-71120000D01*
X95727334Y-71007084D01*
X95760271Y-70898508D01*
X95760272Y-70898505D01*
X95779571Y-70862399D01*
X95813756Y-70798443D01*
X95885736Y-70710736D01*
X95973443Y-70638756D01*
X96054859Y-70595239D01*
X96075234Y-70581625D01*
X96092561Y-70564298D01*
X96106174Y-70543924D01*
X96115552Y-70521285D01*
X96120332Y-70497252D01*
X96120332Y-70472748D01*
X96115552Y-70448715D01*
X96106174Y-70426076D01*
X96092560Y-70405701D01*
X96075233Y-70388374D01*
X96054859Y-70374761D01*
X95973443Y-70331244D01*
X95885736Y-70259264D01*
X95813756Y-70171557D01*
X95779571Y-70107601D01*
X95760272Y-70071495D01*
X95759515Y-70069000D01*
X95727334Y-69962916D01*
X95716213Y-69850000D01*
X95727334Y-69737084D01*
X95760271Y-69628508D01*
X95760272Y-69628505D01*
X95779571Y-69592399D01*
X95813756Y-69528443D01*
X95885736Y-69440736D01*
X95962646Y-69377617D01*
X95979965Y-69360298D01*
X95993579Y-69339923D01*
X96002957Y-69317284D01*
X96007737Y-69293251D01*
X96007737Y-69268747D01*
X96002957Y-69244714D01*
X95993579Y-69222075D01*
X95979966Y-69201701D01*
X95962639Y-69184374D01*
X95942264Y-69170760D01*
X95919625Y-69161382D01*
X95895592Y-69156602D01*
X95883340Y-69156000D01*
X95719000Y-69156000D01*
X95719000Y-68004000D01*
X97321000Y-68004000D01*
X97321000Y-69156000D01*
X97321000Y-69156000D01*
G37*
G36*
X47354499Y-70548445D02*
G01*
X47391995Y-70559820D01*
X47426554Y-70578292D01*
X47456847Y-70603153D01*
X47481708Y-70633446D01*
X47500180Y-70668005D01*
X47511555Y-70705501D01*
X47516000Y-70750638D01*
X47516000Y-71489362D01*
X47511555Y-71534499D01*
X47500180Y-71571995D01*
X47481708Y-71606554D01*
X47456847Y-71636847D01*
X47426554Y-71661708D01*
X47391995Y-71680180D01*
X47354499Y-71691555D01*
X47309362Y-71696000D01*
X46670638Y-71696000D01*
X46625501Y-71691555D01*
X46588005Y-71680180D01*
X46553446Y-71661708D01*
X46523153Y-71636847D01*
X46498292Y-71606554D01*
X46479820Y-71571995D01*
X46468445Y-71534499D01*
X46464000Y-71489362D01*
X46464000Y-70750638D01*
X46468445Y-70705501D01*
X46479820Y-70668005D01*
X46498292Y-70633446D01*
X46523153Y-70603153D01*
X46553446Y-70578292D01*
X46588005Y-70559820D01*
X46625501Y-70548445D01*
X46670638Y-70544000D01*
X47309362Y-70544000D01*
X47354499Y-70548445D01*
X47354499Y-70548445D01*
G37*
G36*
X44814499Y-70548445D02*
G01*
X44851995Y-70559820D01*
X44886554Y-70578292D01*
X44916847Y-70603153D01*
X44941708Y-70633446D01*
X44960180Y-70668005D01*
X44971555Y-70705501D01*
X44976000Y-70750638D01*
X44976000Y-71489362D01*
X44971555Y-71534499D01*
X44960180Y-71571995D01*
X44941708Y-71606554D01*
X44916847Y-71636847D01*
X44886554Y-71661708D01*
X44851995Y-71680180D01*
X44814499Y-71691555D01*
X44769362Y-71696000D01*
X44130638Y-71696000D01*
X44085501Y-71691555D01*
X44048005Y-71680180D01*
X44013446Y-71661708D01*
X43983153Y-71636847D01*
X43958292Y-71606554D01*
X43939820Y-71571995D01*
X43928445Y-71534499D01*
X43924000Y-71489362D01*
X43924000Y-70750638D01*
X43928445Y-70705501D01*
X43939820Y-70668005D01*
X43958292Y-70633446D01*
X43983153Y-70603153D01*
X44013446Y-70578292D01*
X44048005Y-70559820D01*
X44085501Y-70548445D01*
X44130638Y-70544000D01*
X44769362Y-70544000D01*
X44814499Y-70548445D01*
X44814499Y-70548445D01*
G37*
G36*
X42274499Y-70548445D02*
G01*
X42311995Y-70559820D01*
X42346554Y-70578292D01*
X42376847Y-70603153D01*
X42401708Y-70633446D01*
X42420180Y-70668005D01*
X42431555Y-70705501D01*
X42436000Y-70750638D01*
X42436000Y-71489362D01*
X42431555Y-71534499D01*
X42420180Y-71571995D01*
X42401708Y-71606554D01*
X42376847Y-71636847D01*
X42346554Y-71661708D01*
X42311995Y-71680180D01*
X42274499Y-71691555D01*
X42229362Y-71696000D01*
X41590638Y-71696000D01*
X41545501Y-71691555D01*
X41508005Y-71680180D01*
X41473446Y-71661708D01*
X41443153Y-71636847D01*
X41418292Y-71606554D01*
X41399820Y-71571995D01*
X41388445Y-71534499D01*
X41384000Y-71489362D01*
X41384000Y-70750638D01*
X41388445Y-70705501D01*
X41399820Y-70668005D01*
X41418292Y-70633446D01*
X41443153Y-70603153D01*
X41473446Y-70578292D01*
X41508005Y-70559820D01*
X41545501Y-70548445D01*
X41590638Y-70544000D01*
X42229362Y-70544000D01*
X42274499Y-70548445D01*
X42274499Y-70548445D01*
G37*
G36*
X107044499Y-70153445D02*
G01*
X107081995Y-70164820D01*
X107116554Y-70183292D01*
X107146847Y-70208153D01*
X107171708Y-70238446D01*
X107190180Y-70273005D01*
X107201555Y-70310501D01*
X107206000Y-70355638D01*
X107206000Y-71094362D01*
X107201555Y-71139499D01*
X107190180Y-71176995D01*
X107171708Y-71211554D01*
X107146847Y-71241847D01*
X107116554Y-71266708D01*
X107081995Y-71285180D01*
X107044499Y-71296555D01*
X106999362Y-71301000D01*
X106360638Y-71301000D01*
X106315501Y-71296555D01*
X106278005Y-71285180D01*
X106243446Y-71266708D01*
X106213153Y-71241847D01*
X106188292Y-71211554D01*
X106169820Y-71176995D01*
X106158445Y-71139499D01*
X106154000Y-71094362D01*
X106154000Y-70355638D01*
X106158445Y-70310501D01*
X106169820Y-70273005D01*
X106188292Y-70238446D01*
X106213153Y-70208153D01*
X106243446Y-70183292D01*
X106278005Y-70164820D01*
X106315501Y-70153445D01*
X106360638Y-70149000D01*
X106999362Y-70149000D01*
X107044499Y-70153445D01*
X107044499Y-70153445D01*
G37*
G36*
X88671000Y-71251000D02*
G01*
X87669000Y-71251000D01*
X87669000Y-70349000D01*
X88671000Y-70349000D01*
X88671000Y-71251000D01*
X88671000Y-71251000D01*
G37*
G36*
X90671000Y-70301000D02*
G01*
X89669000Y-70301000D01*
X89669000Y-69399000D01*
X90671000Y-69399000D01*
X90671000Y-70301000D01*
X90671000Y-70301000D01*
G37*
G36*
X107044499Y-68403445D02*
G01*
X107081995Y-68414820D01*
X107116554Y-68433292D01*
X107146847Y-68458153D01*
X107171708Y-68488446D01*
X107190180Y-68523005D01*
X107201555Y-68560501D01*
X107206000Y-68605638D01*
X107206000Y-69344362D01*
X107201555Y-69389499D01*
X107190180Y-69426995D01*
X107171708Y-69461554D01*
X107146847Y-69491847D01*
X107116554Y-69516708D01*
X107081995Y-69535180D01*
X107044499Y-69546555D01*
X106999362Y-69551000D01*
X106360638Y-69551000D01*
X106315501Y-69546555D01*
X106278005Y-69535180D01*
X106243446Y-69516708D01*
X106213153Y-69491847D01*
X106188292Y-69461554D01*
X106169820Y-69426995D01*
X106158445Y-69389499D01*
X106154000Y-69344362D01*
X106154000Y-68605638D01*
X106158445Y-68560501D01*
X106169820Y-68523005D01*
X106188292Y-68488446D01*
X106213153Y-68458153D01*
X106243446Y-68433292D01*
X106278005Y-68414820D01*
X106315501Y-68403445D01*
X106360638Y-68399000D01*
X106999362Y-68399000D01*
X107044499Y-68403445D01*
X107044499Y-68403445D01*
G37*
G36*
X88671000Y-69351000D02*
G01*
X87669000Y-69351000D01*
X87669000Y-68449000D01*
X88671000Y-68449000D01*
X88671000Y-69351000D01*
X88671000Y-69351000D01*
G37*
G36*
X81299499Y-68058445D02*
G01*
X81336995Y-68069820D01*
X81371554Y-68088292D01*
X81401847Y-68113153D01*
X81426708Y-68143446D01*
X81445180Y-68178005D01*
X81456555Y-68215501D01*
X81461000Y-68260638D01*
X81461000Y-68899362D01*
X81456555Y-68944499D01*
X81445180Y-68981995D01*
X81426708Y-69016554D01*
X81401847Y-69046847D01*
X81371554Y-69071708D01*
X81336995Y-69090180D01*
X81299499Y-69101555D01*
X81254362Y-69106000D01*
X80515638Y-69106000D01*
X80470501Y-69101555D01*
X80433005Y-69090180D01*
X80398446Y-69071708D01*
X80368153Y-69046847D01*
X80343292Y-69016554D01*
X80324820Y-68981995D01*
X80313445Y-68944499D01*
X80309000Y-68899362D01*
X80309000Y-68260638D01*
X80313445Y-68215501D01*
X80324820Y-68178005D01*
X80343292Y-68143446D01*
X80368153Y-68113153D01*
X80398446Y-68088292D01*
X80433005Y-68069820D01*
X80470501Y-68058445D01*
X80515638Y-68054000D01*
X81254362Y-68054000D01*
X81299499Y-68058445D01*
X81299499Y-68058445D01*
G37*
G36*
X79549499Y-68058445D02*
G01*
X79586995Y-68069820D01*
X79621554Y-68088292D01*
X79651847Y-68113153D01*
X79676708Y-68143446D01*
X79695180Y-68178005D01*
X79706555Y-68215501D01*
X79711000Y-68260638D01*
X79711000Y-68899362D01*
X79706555Y-68944499D01*
X79695180Y-68981995D01*
X79676708Y-69016554D01*
X79651847Y-69046847D01*
X79621554Y-69071708D01*
X79586995Y-69090180D01*
X79549499Y-69101555D01*
X79504362Y-69106000D01*
X78765638Y-69106000D01*
X78720501Y-69101555D01*
X78683005Y-69090180D01*
X78648446Y-69071708D01*
X78618153Y-69046847D01*
X78593292Y-69016554D01*
X78574820Y-68981995D01*
X78563445Y-68944499D01*
X78559000Y-68899362D01*
X78559000Y-68260638D01*
X78563445Y-68215501D01*
X78574820Y-68178005D01*
X78593292Y-68143446D01*
X78618153Y-68113153D01*
X78648446Y-68088292D01*
X78683005Y-68069820D01*
X78720501Y-68058445D01*
X78765638Y-68054000D01*
X79504362Y-68054000D01*
X79549499Y-68058445D01*
X79549499Y-68058445D01*
G37*
G36*
X65671000Y-68211000D02*
G01*
X63869000Y-68211000D01*
X63869000Y-66409000D01*
X65671000Y-66409000D01*
X65671000Y-68211000D01*
X65671000Y-68211000D01*
G37*
G36*
X57260443Y-66415519D02*
G01*
X57326627Y-66422037D01*
X57496466Y-66473557D01*
X57652991Y-66557222D01*
X57688729Y-66586552D01*
X57790186Y-66669814D01*
X57873448Y-66771271D01*
X57902778Y-66807009D01*
X57986443Y-66963534D01*
X58037963Y-67133373D01*
X58055359Y-67310000D01*
X58037963Y-67486627D01*
X57986443Y-67656466D01*
X57902778Y-67812991D01*
X57873448Y-67848729D01*
X57790186Y-67950186D01*
X57724612Y-68004000D01*
X57652991Y-68062778D01*
X57496466Y-68146443D01*
X57326627Y-68197963D01*
X57260443Y-68204481D01*
X57194260Y-68211000D01*
X57105740Y-68211000D01*
X57039557Y-68204481D01*
X56973373Y-68197963D01*
X56803534Y-68146443D01*
X56647009Y-68062778D01*
X56575388Y-68004000D01*
X56509814Y-67950186D01*
X56426552Y-67848729D01*
X56397222Y-67812991D01*
X56313557Y-67656466D01*
X56262037Y-67486627D01*
X56244641Y-67310000D01*
X56262037Y-67133373D01*
X56313557Y-66963534D01*
X56397222Y-66807009D01*
X56426552Y-66771271D01*
X56509814Y-66669814D01*
X56611271Y-66586552D01*
X56647009Y-66557222D01*
X56803534Y-66473557D01*
X56973373Y-66422037D01*
X57039557Y-66415519D01*
X57105740Y-66409000D01*
X57194260Y-66409000D01*
X57260443Y-66415519D01*
X57260443Y-66415519D01*
G37*
G36*
X62340443Y-66415519D02*
G01*
X62406627Y-66422037D01*
X62576466Y-66473557D01*
X62732991Y-66557222D01*
X62768729Y-66586552D01*
X62870186Y-66669814D01*
X62953448Y-66771271D01*
X62982778Y-66807009D01*
X63066443Y-66963534D01*
X63117963Y-67133373D01*
X63135359Y-67310000D01*
X63117963Y-67486627D01*
X63066443Y-67656466D01*
X62982778Y-67812991D01*
X62953448Y-67848729D01*
X62870186Y-67950186D01*
X62804612Y-68004000D01*
X62732991Y-68062778D01*
X62576466Y-68146443D01*
X62406627Y-68197963D01*
X62340443Y-68204481D01*
X62274260Y-68211000D01*
X62185740Y-68211000D01*
X62119557Y-68204481D01*
X62053373Y-68197963D01*
X61883534Y-68146443D01*
X61727009Y-68062778D01*
X61655388Y-68004000D01*
X61589814Y-67950186D01*
X61506552Y-67848729D01*
X61477222Y-67812991D01*
X61393557Y-67656466D01*
X61342037Y-67486627D01*
X61324641Y-67310000D01*
X61342037Y-67133373D01*
X61393557Y-66963534D01*
X61477222Y-66807009D01*
X61506552Y-66771271D01*
X61589814Y-66669814D01*
X61691271Y-66586552D01*
X61727009Y-66557222D01*
X61883534Y-66473557D01*
X62053373Y-66422037D01*
X62119557Y-66415519D01*
X62185740Y-66409000D01*
X62274260Y-66409000D01*
X62340443Y-66415519D01*
X62340443Y-66415519D01*
G37*
G36*
X54720443Y-66415519D02*
G01*
X54786627Y-66422037D01*
X54956466Y-66473557D01*
X55112991Y-66557222D01*
X55148729Y-66586552D01*
X55250186Y-66669814D01*
X55333448Y-66771271D01*
X55362778Y-66807009D01*
X55446443Y-66963534D01*
X55497963Y-67133373D01*
X55515359Y-67310000D01*
X55497963Y-67486627D01*
X55446443Y-67656466D01*
X55362778Y-67812991D01*
X55333448Y-67848729D01*
X55250186Y-67950186D01*
X55184612Y-68004000D01*
X55112991Y-68062778D01*
X54956466Y-68146443D01*
X54786627Y-68197963D01*
X54720443Y-68204481D01*
X54654260Y-68211000D01*
X54565740Y-68211000D01*
X54499557Y-68204481D01*
X54433373Y-68197963D01*
X54263534Y-68146443D01*
X54107009Y-68062778D01*
X54035388Y-68004000D01*
X53969814Y-67950186D01*
X53886552Y-67848729D01*
X53857222Y-67812991D01*
X53773557Y-67656466D01*
X53722037Y-67486627D01*
X53704641Y-67310000D01*
X53722037Y-67133373D01*
X53773557Y-66963534D01*
X53857222Y-66807009D01*
X53886552Y-66771271D01*
X53969814Y-66669814D01*
X54071271Y-66586552D01*
X54107009Y-66557222D01*
X54263534Y-66473557D01*
X54433373Y-66422037D01*
X54499557Y-66415519D01*
X54565740Y-66409000D01*
X54654260Y-66409000D01*
X54720443Y-66415519D01*
X54720443Y-66415519D01*
G37*
G36*
X52180443Y-66415519D02*
G01*
X52246627Y-66422037D01*
X52416466Y-66473557D01*
X52572991Y-66557222D01*
X52608729Y-66586552D01*
X52710186Y-66669814D01*
X52793448Y-66771271D01*
X52822778Y-66807009D01*
X52906443Y-66963534D01*
X52957963Y-67133373D01*
X52975359Y-67310000D01*
X52957963Y-67486627D01*
X52906443Y-67656466D01*
X52822778Y-67812991D01*
X52793448Y-67848729D01*
X52710186Y-67950186D01*
X52644612Y-68004000D01*
X52572991Y-68062778D01*
X52416466Y-68146443D01*
X52246627Y-68197963D01*
X52180443Y-68204481D01*
X52114260Y-68211000D01*
X52025740Y-68211000D01*
X51959557Y-68204481D01*
X51893373Y-68197963D01*
X51723534Y-68146443D01*
X51567009Y-68062778D01*
X51495388Y-68004000D01*
X51429814Y-67950186D01*
X51346552Y-67848729D01*
X51317222Y-67812991D01*
X51233557Y-67656466D01*
X51182037Y-67486627D01*
X51164641Y-67310000D01*
X51182037Y-67133373D01*
X51233557Y-66963534D01*
X51317222Y-66807009D01*
X51346552Y-66771271D01*
X51429814Y-66669814D01*
X51531271Y-66586552D01*
X51567009Y-66557222D01*
X51723534Y-66473557D01*
X51893373Y-66422037D01*
X51959557Y-66415519D01*
X52025740Y-66409000D01*
X52114260Y-66409000D01*
X52180443Y-66415519D01*
X52180443Y-66415519D01*
G37*
G36*
X42020443Y-66415519D02*
G01*
X42086627Y-66422037D01*
X42256466Y-66473557D01*
X42412991Y-66557222D01*
X42448729Y-66586552D01*
X42550186Y-66669814D01*
X42633448Y-66771271D01*
X42662778Y-66807009D01*
X42746443Y-66963534D01*
X42797963Y-67133373D01*
X42815359Y-67310000D01*
X42797963Y-67486627D01*
X42746443Y-67656466D01*
X42662778Y-67812991D01*
X42633448Y-67848729D01*
X42550186Y-67950186D01*
X42484612Y-68004000D01*
X42412991Y-68062778D01*
X42256466Y-68146443D01*
X42086627Y-68197963D01*
X42020443Y-68204481D01*
X41954260Y-68211000D01*
X41865740Y-68211000D01*
X41799557Y-68204481D01*
X41733373Y-68197963D01*
X41563534Y-68146443D01*
X41407009Y-68062778D01*
X41335388Y-68004000D01*
X41269814Y-67950186D01*
X41186552Y-67848729D01*
X41157222Y-67812991D01*
X41073557Y-67656466D01*
X41022037Y-67486627D01*
X41004641Y-67310000D01*
X41022037Y-67133373D01*
X41073557Y-66963534D01*
X41157222Y-66807009D01*
X41186552Y-66771271D01*
X41269814Y-66669814D01*
X41371271Y-66586552D01*
X41407009Y-66557222D01*
X41563534Y-66473557D01*
X41733373Y-66422037D01*
X41799557Y-66415519D01*
X41865740Y-66409000D01*
X41954260Y-66409000D01*
X42020443Y-66415519D01*
X42020443Y-66415519D01*
G37*
G36*
X44560443Y-66415519D02*
G01*
X44626627Y-66422037D01*
X44796466Y-66473557D01*
X44952991Y-66557222D01*
X44988729Y-66586552D01*
X45090186Y-66669814D01*
X45173448Y-66771271D01*
X45202778Y-66807009D01*
X45286443Y-66963534D01*
X45337963Y-67133373D01*
X45355359Y-67310000D01*
X45337963Y-67486627D01*
X45286443Y-67656466D01*
X45202778Y-67812991D01*
X45173448Y-67848729D01*
X45090186Y-67950186D01*
X45024612Y-68004000D01*
X44952991Y-68062778D01*
X44796466Y-68146443D01*
X44626627Y-68197963D01*
X44560443Y-68204481D01*
X44494260Y-68211000D01*
X44405740Y-68211000D01*
X44339557Y-68204481D01*
X44273373Y-68197963D01*
X44103534Y-68146443D01*
X43947009Y-68062778D01*
X43875388Y-68004000D01*
X43809814Y-67950186D01*
X43726552Y-67848729D01*
X43697222Y-67812991D01*
X43613557Y-67656466D01*
X43562037Y-67486627D01*
X43544641Y-67310000D01*
X43562037Y-67133373D01*
X43613557Y-66963534D01*
X43697222Y-66807009D01*
X43726552Y-66771271D01*
X43809814Y-66669814D01*
X43911271Y-66586552D01*
X43947009Y-66557222D01*
X44103534Y-66473557D01*
X44273373Y-66422037D01*
X44339557Y-66415519D01*
X44405740Y-66409000D01*
X44494260Y-66409000D01*
X44560443Y-66415519D01*
X44560443Y-66415519D01*
G37*
G36*
X49640443Y-66415519D02*
G01*
X49706627Y-66422037D01*
X49876466Y-66473557D01*
X50032991Y-66557222D01*
X50068729Y-66586552D01*
X50170186Y-66669814D01*
X50253448Y-66771271D01*
X50282778Y-66807009D01*
X50366443Y-66963534D01*
X50417963Y-67133373D01*
X50435359Y-67310000D01*
X50417963Y-67486627D01*
X50366443Y-67656466D01*
X50282778Y-67812991D01*
X50253448Y-67848729D01*
X50170186Y-67950186D01*
X50104612Y-68004000D01*
X50032991Y-68062778D01*
X49876466Y-68146443D01*
X49706627Y-68197963D01*
X49640443Y-68204481D01*
X49574260Y-68211000D01*
X49485740Y-68211000D01*
X49419557Y-68204481D01*
X49353373Y-68197963D01*
X49183534Y-68146443D01*
X49027009Y-68062778D01*
X48955388Y-68004000D01*
X48889814Y-67950186D01*
X48806552Y-67848729D01*
X48777222Y-67812991D01*
X48693557Y-67656466D01*
X48642037Y-67486627D01*
X48624641Y-67310000D01*
X48642037Y-67133373D01*
X48693557Y-66963534D01*
X48777222Y-66807009D01*
X48806552Y-66771271D01*
X48889814Y-66669814D01*
X48991271Y-66586552D01*
X49027009Y-66557222D01*
X49183534Y-66473557D01*
X49353373Y-66422037D01*
X49419557Y-66415519D01*
X49485740Y-66409000D01*
X49574260Y-66409000D01*
X49640443Y-66415519D01*
X49640443Y-66415519D01*
G37*
G36*
X47100443Y-66415519D02*
G01*
X47166627Y-66422037D01*
X47336466Y-66473557D01*
X47492991Y-66557222D01*
X47528729Y-66586552D01*
X47630186Y-66669814D01*
X47713448Y-66771271D01*
X47742778Y-66807009D01*
X47826443Y-66963534D01*
X47877963Y-67133373D01*
X47895359Y-67310000D01*
X47877963Y-67486627D01*
X47826443Y-67656466D01*
X47742778Y-67812991D01*
X47713448Y-67848729D01*
X47630186Y-67950186D01*
X47564612Y-68004000D01*
X47492991Y-68062778D01*
X47336466Y-68146443D01*
X47166627Y-68197963D01*
X47100443Y-68204481D01*
X47034260Y-68211000D01*
X46945740Y-68211000D01*
X46879557Y-68204481D01*
X46813373Y-68197963D01*
X46643534Y-68146443D01*
X46487009Y-68062778D01*
X46415388Y-68004000D01*
X46349814Y-67950186D01*
X46266552Y-67848729D01*
X46237222Y-67812991D01*
X46153557Y-67656466D01*
X46102037Y-67486627D01*
X46084641Y-67310000D01*
X46102037Y-67133373D01*
X46153557Y-66963534D01*
X46237222Y-66807009D01*
X46266552Y-66771271D01*
X46349814Y-66669814D01*
X46451271Y-66586552D01*
X46487009Y-66557222D01*
X46643534Y-66473557D01*
X46813373Y-66422037D01*
X46879557Y-66415519D01*
X46945740Y-66409000D01*
X47034260Y-66409000D01*
X47100443Y-66415519D01*
X47100443Y-66415519D01*
G37*
G36*
X59800443Y-66415519D02*
G01*
X59866627Y-66422037D01*
X60036466Y-66473557D01*
X60192991Y-66557222D01*
X60228729Y-66586552D01*
X60330186Y-66669814D01*
X60413448Y-66771271D01*
X60442778Y-66807009D01*
X60526443Y-66963534D01*
X60577963Y-67133373D01*
X60595359Y-67310000D01*
X60577963Y-67486627D01*
X60526443Y-67656466D01*
X60442778Y-67812991D01*
X60413448Y-67848729D01*
X60330186Y-67950186D01*
X60264612Y-68004000D01*
X60192991Y-68062778D01*
X60036466Y-68146443D01*
X59866627Y-68197963D01*
X59800443Y-68204481D01*
X59734260Y-68211000D01*
X59645740Y-68211000D01*
X59579557Y-68204481D01*
X59513373Y-68197963D01*
X59343534Y-68146443D01*
X59187009Y-68062778D01*
X59115388Y-68004000D01*
X59049814Y-67950186D01*
X58966552Y-67848729D01*
X58937222Y-67812991D01*
X58853557Y-67656466D01*
X58802037Y-67486627D01*
X58784641Y-67310000D01*
X58802037Y-67133373D01*
X58853557Y-66963534D01*
X58937222Y-66807009D01*
X58966552Y-66771271D01*
X59049814Y-66669814D01*
X59151271Y-66586552D01*
X59187009Y-66557222D01*
X59343534Y-66473557D01*
X59513373Y-66422037D01*
X59579557Y-66415519D01*
X59645740Y-66409000D01*
X59734260Y-66409000D01*
X59800443Y-66415519D01*
X59800443Y-66415519D01*
G37*
G36*
X149041000Y-67541000D02*
G01*
X148139000Y-67541000D01*
X148139000Y-66539000D01*
X149041000Y-66539000D01*
X149041000Y-67541000D01*
X149041000Y-67541000D01*
G37*
G36*
X141384499Y-65518445D02*
G01*
X141421995Y-65529820D01*
X141456554Y-65548292D01*
X141486847Y-65573153D01*
X141511708Y-65603446D01*
X141530180Y-65638005D01*
X141541555Y-65675501D01*
X141546000Y-65720638D01*
X141546000Y-66359362D01*
X141541555Y-66404499D01*
X141530180Y-66441995D01*
X141511708Y-66476554D01*
X141486847Y-66506847D01*
X141456554Y-66531708D01*
X141421995Y-66550180D01*
X141384499Y-66561555D01*
X141339362Y-66566000D01*
X140600638Y-66566000D01*
X140555501Y-66561555D01*
X140518005Y-66550180D01*
X140483446Y-66531708D01*
X140453153Y-66506847D01*
X140428292Y-66476554D01*
X140409820Y-66441995D01*
X140398445Y-66404499D01*
X140394000Y-66359362D01*
X140394000Y-65720638D01*
X140398445Y-65675501D01*
X140409820Y-65638005D01*
X140428292Y-65603446D01*
X140453153Y-65573153D01*
X140483446Y-65548292D01*
X140518005Y-65529820D01*
X140555501Y-65518445D01*
X140600638Y-65514000D01*
X141339362Y-65514000D01*
X141384499Y-65518445D01*
X141384499Y-65518445D01*
G37*
G36*
X143134499Y-65518445D02*
G01*
X143171995Y-65529820D01*
X143206554Y-65548292D01*
X143236847Y-65573153D01*
X143261708Y-65603446D01*
X143280180Y-65638005D01*
X143291555Y-65675501D01*
X143296000Y-65720638D01*
X143296000Y-66359362D01*
X143291555Y-66404499D01*
X143280180Y-66441995D01*
X143261708Y-66476554D01*
X143236847Y-66506847D01*
X143206554Y-66531708D01*
X143171995Y-66550180D01*
X143134499Y-66561555D01*
X143089362Y-66566000D01*
X142350638Y-66566000D01*
X142305501Y-66561555D01*
X142268005Y-66550180D01*
X142233446Y-66531708D01*
X142203153Y-66506847D01*
X142178292Y-66476554D01*
X142159820Y-66441995D01*
X142148445Y-66404499D01*
X142144000Y-66359362D01*
X142144000Y-65720638D01*
X142148445Y-65675501D01*
X142159820Y-65638005D01*
X142178292Y-65603446D01*
X142203153Y-65573153D01*
X142233446Y-65548292D01*
X142268005Y-65529820D01*
X142305501Y-65518445D01*
X142350638Y-65514000D01*
X143089362Y-65514000D01*
X143134499Y-65518445D01*
X143134499Y-65518445D01*
G37*
G36*
X116156000Y-66451000D02*
G01*
X109904000Y-66451000D01*
X109904000Y-64749000D01*
X116156000Y-64749000D01*
X116156000Y-66451000D01*
X116156000Y-66451000D01*
G37*
G36*
X149991000Y-65541000D02*
G01*
X149089000Y-65541000D01*
X149089000Y-64539000D01*
X149991000Y-64539000D01*
X149991000Y-65541000D01*
X149991000Y-65541000D01*
G37*
G36*
X148091000Y-65541000D02*
G01*
X147189000Y-65541000D01*
X147189000Y-64539000D01*
X148091000Y-64539000D01*
X148091000Y-65541000D01*
X148091000Y-65541000D01*
G37*
G36*
X141384499Y-63401777D02*
G01*
X141421995Y-63413152D01*
X141456554Y-63431624D01*
X141486847Y-63456485D01*
X141511708Y-63486778D01*
X141530180Y-63521337D01*
X141541555Y-63558833D01*
X141546000Y-63603970D01*
X141546000Y-64242694D01*
X141541555Y-64287831D01*
X141530180Y-64325327D01*
X141511708Y-64359886D01*
X141486847Y-64390179D01*
X141456554Y-64415040D01*
X141421995Y-64433512D01*
X141384499Y-64444887D01*
X141339362Y-64449332D01*
X140600638Y-64449332D01*
X140555501Y-64444887D01*
X140518005Y-64433512D01*
X140483446Y-64415040D01*
X140453153Y-64390179D01*
X140428292Y-64359886D01*
X140409820Y-64325327D01*
X140398445Y-64287831D01*
X140394000Y-64242694D01*
X140394000Y-63603970D01*
X140398445Y-63558833D01*
X140409820Y-63521337D01*
X140428292Y-63486778D01*
X140453153Y-63456485D01*
X140483446Y-63431624D01*
X140518005Y-63413152D01*
X140555501Y-63401777D01*
X140600638Y-63397332D01*
X141339362Y-63397332D01*
X141384499Y-63401777D01*
X141384499Y-63401777D01*
G37*
G36*
X143134499Y-63401777D02*
G01*
X143171995Y-63413152D01*
X143206554Y-63431624D01*
X143236847Y-63456485D01*
X143261708Y-63486778D01*
X143280180Y-63521337D01*
X143291555Y-63558833D01*
X143296000Y-63603970D01*
X143296000Y-64242694D01*
X143291555Y-64287831D01*
X143280180Y-64325327D01*
X143261708Y-64359886D01*
X143236847Y-64390179D01*
X143206554Y-64415040D01*
X143171995Y-64433512D01*
X143134499Y-64444887D01*
X143089362Y-64449332D01*
X142350638Y-64449332D01*
X142305501Y-64444887D01*
X142268005Y-64433512D01*
X142233446Y-64415040D01*
X142203153Y-64390179D01*
X142178292Y-64359886D01*
X142159820Y-64325327D01*
X142148445Y-64287831D01*
X142144000Y-64242694D01*
X142144000Y-63603970D01*
X142148445Y-63558833D01*
X142159820Y-63521337D01*
X142178292Y-63486778D01*
X142203153Y-63456485D01*
X142233446Y-63431624D01*
X142268005Y-63413152D01*
X142305501Y-63401777D01*
X142350638Y-63397332D01*
X143089362Y-63397332D01*
X143134499Y-63401777D01*
X143134499Y-63401777D01*
G37*
G36*
X147049928Y-62516764D02*
G01*
X147071009Y-62523160D01*
X147090445Y-62533548D01*
X147107476Y-62547524D01*
X147121452Y-62564555D01*
X147131840Y-62583991D01*
X147138236Y-62605072D01*
X147141000Y-62633140D01*
X147141000Y-63096860D01*
X147138236Y-63124928D01*
X147131840Y-63146009D01*
X147121452Y-63165445D01*
X147107476Y-63182476D01*
X147090445Y-63196452D01*
X147071009Y-63206840D01*
X147049928Y-63213236D01*
X147021860Y-63216000D01*
X145208140Y-63216000D01*
X145180072Y-63213236D01*
X145158991Y-63206840D01*
X145139555Y-63196452D01*
X145122524Y-63182476D01*
X145108548Y-63165445D01*
X145098160Y-63146009D01*
X145091764Y-63124928D01*
X145089000Y-63096860D01*
X145089000Y-62633140D01*
X145091764Y-62605072D01*
X145098160Y-62583991D01*
X145108548Y-62564555D01*
X145122524Y-62547524D01*
X145139555Y-62533548D01*
X145158991Y-62523160D01*
X145180072Y-62516764D01*
X145208140Y-62514000D01*
X147021860Y-62514000D01*
X147049928Y-62516764D01*
X147049928Y-62516764D01*
G37*
G36*
X151999928Y-62516764D02*
G01*
X152021009Y-62523160D01*
X152040445Y-62533548D01*
X152057476Y-62547524D01*
X152071452Y-62564555D01*
X152081840Y-62583991D01*
X152088236Y-62605072D01*
X152091000Y-62633140D01*
X152091000Y-63096860D01*
X152088236Y-63124928D01*
X152081840Y-63146009D01*
X152071452Y-63165445D01*
X152057476Y-63182476D01*
X152040445Y-63196452D01*
X152021009Y-63206840D01*
X151999928Y-63213236D01*
X151971860Y-63216000D01*
X150158140Y-63216000D01*
X150130072Y-63213236D01*
X150108991Y-63206840D01*
X150089555Y-63196452D01*
X150072524Y-63182476D01*
X150058548Y-63165445D01*
X150048160Y-63146009D01*
X150041764Y-63124928D01*
X150039000Y-63096860D01*
X150039000Y-62633140D01*
X150041764Y-62605072D01*
X150048160Y-62583991D01*
X150058548Y-62564555D01*
X150072524Y-62547524D01*
X150089555Y-62533548D01*
X150108991Y-62523160D01*
X150130072Y-62516764D01*
X150158140Y-62514000D01*
X151971860Y-62514000D01*
X151999928Y-62516764D01*
X151999928Y-62516764D01*
G37*
G36*
X82798228Y-61411703D02*
G01*
X82953100Y-61475853D01*
X83092481Y-61568985D01*
X83211015Y-61687519D01*
X83304147Y-61826900D01*
X83368297Y-61981772D01*
X83401000Y-62146184D01*
X83401000Y-62313816D01*
X83368297Y-62478228D01*
X83304147Y-62633100D01*
X83211015Y-62772481D01*
X83092481Y-62891015D01*
X82953100Y-62984147D01*
X82798228Y-63048297D01*
X82633816Y-63081000D01*
X82466184Y-63081000D01*
X82301772Y-63048297D01*
X82146900Y-62984147D01*
X82007519Y-62891015D01*
X81888985Y-62772481D01*
X81795853Y-62633100D01*
X81731703Y-62478228D01*
X81699000Y-62313816D01*
X81699000Y-62146184D01*
X81731703Y-61981772D01*
X81795853Y-61826900D01*
X81888985Y-61687519D01*
X82007519Y-61568985D01*
X82146900Y-61475853D01*
X82301772Y-61411703D01*
X82466184Y-61379000D01*
X82633816Y-61379000D01*
X82798228Y-61411703D01*
X82798228Y-61411703D01*
G37*
G36*
X98038228Y-61411703D02*
G01*
X98193100Y-61475853D01*
X98332481Y-61568985D01*
X98451015Y-61687519D01*
X98544147Y-61826900D01*
X98608297Y-61981772D01*
X98641000Y-62146184D01*
X98641000Y-62313816D01*
X98608297Y-62478228D01*
X98544147Y-62633100D01*
X98451015Y-62772481D01*
X98332481Y-62891015D01*
X98193100Y-62984147D01*
X98038228Y-63048297D01*
X97873816Y-63081000D01*
X97706184Y-63081000D01*
X97541772Y-63048297D01*
X97386900Y-62984147D01*
X97247519Y-62891015D01*
X97128985Y-62772481D01*
X97035853Y-62633100D01*
X96971703Y-62478228D01*
X96939000Y-62313816D01*
X96939000Y-62146184D01*
X96971703Y-61981772D01*
X97035853Y-61826900D01*
X97128985Y-61687519D01*
X97247519Y-61568985D01*
X97386900Y-61475853D01*
X97541772Y-61411703D01*
X97706184Y-61379000D01*
X97873816Y-61379000D01*
X98038228Y-61411703D01*
X98038228Y-61411703D01*
G37*
G36*
X90418228Y-61411703D02*
G01*
X90573100Y-61475853D01*
X90712481Y-61568985D01*
X90831015Y-61687519D01*
X90924147Y-61826900D01*
X90988297Y-61981772D01*
X91021000Y-62146184D01*
X91021000Y-62313816D01*
X90988297Y-62478228D01*
X90924147Y-62633100D01*
X90831015Y-62772481D01*
X90712481Y-62891015D01*
X90573100Y-62984147D01*
X90418228Y-63048297D01*
X90253816Y-63081000D01*
X90086184Y-63081000D01*
X89921772Y-63048297D01*
X89766900Y-62984147D01*
X89627519Y-62891015D01*
X89508985Y-62772481D01*
X89415853Y-62633100D01*
X89351703Y-62478228D01*
X89319000Y-62313816D01*
X89319000Y-62146184D01*
X89351703Y-61981772D01*
X89415853Y-61826900D01*
X89508985Y-61687519D01*
X89627519Y-61568985D01*
X89766900Y-61475853D01*
X89921772Y-61411703D01*
X90086184Y-61379000D01*
X90253816Y-61379000D01*
X90418228Y-61411703D01*
X90418228Y-61411703D01*
G37*
G36*
X159164499Y-61708445D02*
G01*
X159201995Y-61719820D01*
X159236554Y-61738292D01*
X159266847Y-61763153D01*
X159291708Y-61793446D01*
X159310180Y-61828005D01*
X159321555Y-61865501D01*
X159326000Y-61910638D01*
X159326000Y-62549362D01*
X159321555Y-62594499D01*
X159310180Y-62631995D01*
X159291708Y-62666554D01*
X159266847Y-62696847D01*
X159236554Y-62721708D01*
X159201995Y-62740180D01*
X159164499Y-62751555D01*
X159119362Y-62756000D01*
X158380638Y-62756000D01*
X158335501Y-62751555D01*
X158298005Y-62740180D01*
X158263446Y-62721708D01*
X158233153Y-62696847D01*
X158208292Y-62666554D01*
X158189820Y-62631995D01*
X158178445Y-62594499D01*
X158174000Y-62549362D01*
X158174000Y-61910638D01*
X158178445Y-61865501D01*
X158189820Y-61828005D01*
X158208292Y-61793446D01*
X158233153Y-61763153D01*
X158263446Y-61738292D01*
X158298005Y-61719820D01*
X158335501Y-61708445D01*
X158380638Y-61704000D01*
X159119362Y-61704000D01*
X159164499Y-61708445D01*
X159164499Y-61708445D01*
G37*
G36*
X160914499Y-61708445D02*
G01*
X160951995Y-61719820D01*
X160986554Y-61738292D01*
X161016847Y-61763153D01*
X161041708Y-61793446D01*
X161060180Y-61828005D01*
X161071555Y-61865501D01*
X161076000Y-61910638D01*
X161076000Y-62549362D01*
X161071555Y-62594499D01*
X161060180Y-62631995D01*
X161041708Y-62666554D01*
X161016847Y-62696847D01*
X160986554Y-62721708D01*
X160951995Y-62740180D01*
X160914499Y-62751555D01*
X160869362Y-62756000D01*
X160130638Y-62756000D01*
X160085501Y-62751555D01*
X160048005Y-62740180D01*
X160013446Y-62721708D01*
X159983153Y-62696847D01*
X159958292Y-62666554D01*
X159939820Y-62631995D01*
X159928445Y-62594499D01*
X159924000Y-62549362D01*
X159924000Y-61910638D01*
X159928445Y-61865501D01*
X159939820Y-61828005D01*
X159958292Y-61793446D01*
X159983153Y-61763153D01*
X160013446Y-61738292D01*
X160048005Y-61719820D01*
X160085501Y-61708445D01*
X160130638Y-61704000D01*
X160869362Y-61704000D01*
X160914499Y-61708445D01*
X160914499Y-61708445D01*
G37*
G36*
X112174499Y-61708445D02*
G01*
X112211995Y-61719820D01*
X112246554Y-61738292D01*
X112276847Y-61763153D01*
X112301708Y-61793446D01*
X112320180Y-61828005D01*
X112331555Y-61865501D01*
X112336000Y-61910638D01*
X112336000Y-62549362D01*
X112331555Y-62594499D01*
X112320180Y-62631995D01*
X112301708Y-62666554D01*
X112276847Y-62696847D01*
X112246554Y-62721708D01*
X112211995Y-62740180D01*
X112174499Y-62751555D01*
X112129362Y-62756000D01*
X111390638Y-62756000D01*
X111345501Y-62751555D01*
X111308005Y-62740180D01*
X111273446Y-62721708D01*
X111243153Y-62696847D01*
X111218292Y-62666554D01*
X111199820Y-62631995D01*
X111188445Y-62594499D01*
X111184000Y-62549362D01*
X111184000Y-61910638D01*
X111188445Y-61865501D01*
X111199820Y-61828005D01*
X111218292Y-61793446D01*
X111243153Y-61763153D01*
X111273446Y-61738292D01*
X111308005Y-61719820D01*
X111345501Y-61708445D01*
X111390638Y-61704000D01*
X112129362Y-61704000D01*
X112174499Y-61708445D01*
X112174499Y-61708445D01*
G37*
G36*
X110424499Y-61708445D02*
G01*
X110461995Y-61719820D01*
X110496554Y-61738292D01*
X110526847Y-61763153D01*
X110551708Y-61793446D01*
X110570180Y-61828005D01*
X110581555Y-61865501D01*
X110586000Y-61910638D01*
X110586000Y-62549362D01*
X110581555Y-62594499D01*
X110570180Y-62631995D01*
X110551708Y-62666554D01*
X110526847Y-62696847D01*
X110496554Y-62721708D01*
X110461995Y-62740180D01*
X110424499Y-62751555D01*
X110379362Y-62756000D01*
X109640638Y-62756000D01*
X109595501Y-62751555D01*
X109558005Y-62740180D01*
X109523446Y-62721708D01*
X109493153Y-62696847D01*
X109468292Y-62666554D01*
X109449820Y-62631995D01*
X109438445Y-62594499D01*
X109434000Y-62549362D01*
X109434000Y-61910638D01*
X109438445Y-61865501D01*
X109449820Y-61828005D01*
X109468292Y-61793446D01*
X109493153Y-61763153D01*
X109523446Y-61738292D01*
X109558005Y-61719820D01*
X109595501Y-61708445D01*
X109640638Y-61704000D01*
X110379362Y-61704000D01*
X110424499Y-61708445D01*
X110424499Y-61708445D01*
G37*
G36*
X119771000Y-62501000D02*
G01*
X118469000Y-62501000D01*
X118469000Y-60199000D01*
X119771000Y-60199000D01*
X119771000Y-62501000D01*
X119771000Y-62501000D01*
G37*
G36*
X115211000Y-62501000D02*
G01*
X113909000Y-62501000D01*
X113909000Y-60199000D01*
X115211000Y-60199000D01*
X115211000Y-62501000D01*
X115211000Y-62501000D01*
G37*
G36*
X75294499Y-61263445D02*
G01*
X75331995Y-61274820D01*
X75366554Y-61293292D01*
X75396847Y-61318153D01*
X75421708Y-61348446D01*
X75440180Y-61383005D01*
X75451555Y-61420501D01*
X75456000Y-61465638D01*
X75456000Y-62204362D01*
X75451555Y-62249499D01*
X75440180Y-62286995D01*
X75421708Y-62321554D01*
X75396847Y-62351847D01*
X75366554Y-62376708D01*
X75331995Y-62395180D01*
X75294499Y-62406555D01*
X75249362Y-62411000D01*
X74610638Y-62411000D01*
X74565501Y-62406555D01*
X74528005Y-62395180D01*
X74493446Y-62376708D01*
X74463153Y-62351847D01*
X74438292Y-62321554D01*
X74419820Y-62286995D01*
X74408445Y-62249499D01*
X74404000Y-62204362D01*
X74404000Y-61465638D01*
X74408445Y-61420501D01*
X74419820Y-61383005D01*
X74438292Y-61348446D01*
X74463153Y-61318153D01*
X74493446Y-61293292D01*
X74528005Y-61274820D01*
X74565501Y-61263445D01*
X74610638Y-61259000D01*
X75249362Y-61259000D01*
X75294499Y-61263445D01*
X75294499Y-61263445D01*
G37*
G36*
X72754499Y-61263445D02*
G01*
X72791995Y-61274820D01*
X72826554Y-61293292D01*
X72856847Y-61318153D01*
X72881708Y-61348446D01*
X72900180Y-61383005D01*
X72911555Y-61420501D01*
X72916000Y-61465638D01*
X72916000Y-62204362D01*
X72911555Y-62249499D01*
X72900180Y-62286995D01*
X72881708Y-62321554D01*
X72856847Y-62351847D01*
X72826554Y-62376708D01*
X72791995Y-62395180D01*
X72754499Y-62406555D01*
X72709362Y-62411000D01*
X72070638Y-62411000D01*
X72025501Y-62406555D01*
X71988005Y-62395180D01*
X71953446Y-62376708D01*
X71923153Y-62351847D01*
X71898292Y-62321554D01*
X71879820Y-62286995D01*
X71868445Y-62249499D01*
X71864000Y-62204362D01*
X71864000Y-61465638D01*
X71868445Y-61420501D01*
X71879820Y-61383005D01*
X71898292Y-61348446D01*
X71923153Y-61318153D01*
X71953446Y-61293292D01*
X71988005Y-61274820D01*
X72025501Y-61263445D01*
X72070638Y-61259000D01*
X72709362Y-61259000D01*
X72754499Y-61263445D01*
X72754499Y-61263445D01*
G37*
G36*
X77834499Y-61263445D02*
G01*
X77871995Y-61274820D01*
X77906554Y-61293292D01*
X77936847Y-61318153D01*
X77961708Y-61348446D01*
X77980180Y-61383005D01*
X77991555Y-61420501D01*
X77996000Y-61465638D01*
X77996000Y-62204362D01*
X77991555Y-62249499D01*
X77980180Y-62286995D01*
X77961708Y-62321554D01*
X77936847Y-62351847D01*
X77906554Y-62376708D01*
X77871995Y-62395180D01*
X77834499Y-62406555D01*
X77789362Y-62411000D01*
X77150638Y-62411000D01*
X77105501Y-62406555D01*
X77068005Y-62395180D01*
X77033446Y-62376708D01*
X77003153Y-62351847D01*
X76978292Y-62321554D01*
X76959820Y-62286995D01*
X76948445Y-62249499D01*
X76944000Y-62204362D01*
X76944000Y-61465638D01*
X76948445Y-61420501D01*
X76959820Y-61383005D01*
X76978292Y-61348446D01*
X77003153Y-61318153D01*
X77033446Y-61293292D01*
X77068005Y-61274820D01*
X77105501Y-61263445D01*
X77150638Y-61259000D01*
X77789362Y-61259000D01*
X77834499Y-61263445D01*
X77834499Y-61263445D01*
G37*
G36*
X143134499Y-61285111D02*
G01*
X143171995Y-61296486D01*
X143206554Y-61314958D01*
X143236847Y-61339819D01*
X143261708Y-61370112D01*
X143280180Y-61404671D01*
X143291555Y-61442167D01*
X143296000Y-61487304D01*
X143296000Y-62126028D01*
X143291555Y-62171165D01*
X143280180Y-62208661D01*
X143261708Y-62243220D01*
X143236847Y-62273513D01*
X143206554Y-62298374D01*
X143171995Y-62316846D01*
X143134499Y-62328221D01*
X143089362Y-62332666D01*
X142350638Y-62332666D01*
X142305501Y-62328221D01*
X142268005Y-62316846D01*
X142233446Y-62298374D01*
X142203153Y-62273513D01*
X142178292Y-62243220D01*
X142159820Y-62208661D01*
X142148445Y-62171165D01*
X142144000Y-62126028D01*
X142144000Y-61487304D01*
X142148445Y-61442167D01*
X142159820Y-61404671D01*
X142178292Y-61370112D01*
X142203153Y-61339819D01*
X142233446Y-61314958D01*
X142268005Y-61296486D01*
X142305501Y-61285111D01*
X142350638Y-61280666D01*
X143089362Y-61280666D01*
X143134499Y-61285111D01*
X143134499Y-61285111D01*
G37*
G36*
X141384499Y-61285111D02*
G01*
X141421995Y-61296486D01*
X141456554Y-61314958D01*
X141486847Y-61339819D01*
X141511708Y-61370112D01*
X141530180Y-61404671D01*
X141541555Y-61442167D01*
X141546000Y-61487304D01*
X141546000Y-62126028D01*
X141541555Y-62171165D01*
X141530180Y-62208661D01*
X141511708Y-62243220D01*
X141486847Y-62273513D01*
X141456554Y-62298374D01*
X141421995Y-62316846D01*
X141384499Y-62328221D01*
X141339362Y-62332666D01*
X140600638Y-62332666D01*
X140555501Y-62328221D01*
X140518005Y-62316846D01*
X140483446Y-62298374D01*
X140453153Y-62273513D01*
X140428292Y-62243220D01*
X140409820Y-62208661D01*
X140398445Y-62171165D01*
X140394000Y-62126028D01*
X140394000Y-61487304D01*
X140398445Y-61442167D01*
X140409820Y-61404671D01*
X140428292Y-61370112D01*
X140453153Y-61339819D01*
X140483446Y-61314958D01*
X140518005Y-61296486D01*
X140555501Y-61285111D01*
X140600638Y-61280666D01*
X141339362Y-61280666D01*
X141384499Y-61285111D01*
X141384499Y-61285111D01*
G37*
G36*
X108314499Y-60868445D02*
G01*
X108351995Y-60879820D01*
X108386554Y-60898292D01*
X108416847Y-60923153D01*
X108441708Y-60953446D01*
X108460180Y-60988005D01*
X108471555Y-61025501D01*
X108476000Y-61070638D01*
X108476000Y-61809362D01*
X108471555Y-61854499D01*
X108460180Y-61891995D01*
X108441708Y-61926554D01*
X108416847Y-61956847D01*
X108386554Y-61981708D01*
X108351995Y-62000180D01*
X108314499Y-62011555D01*
X108269362Y-62016000D01*
X107630638Y-62016000D01*
X107585501Y-62011555D01*
X107548005Y-62000180D01*
X107513446Y-61981708D01*
X107483153Y-61956847D01*
X107458292Y-61926554D01*
X107439820Y-61891995D01*
X107428445Y-61854499D01*
X107424000Y-61809362D01*
X107424000Y-61070638D01*
X107428445Y-61025501D01*
X107439820Y-60988005D01*
X107458292Y-60953446D01*
X107483153Y-60923153D01*
X107513446Y-60898292D01*
X107548005Y-60879820D01*
X107585501Y-60868445D01*
X107630638Y-60864000D01*
X108269362Y-60864000D01*
X108314499Y-60868445D01*
X108314499Y-60868445D01*
G37*
G36*
X103234499Y-60868445D02*
G01*
X103271995Y-60879820D01*
X103306554Y-60898292D01*
X103336847Y-60923153D01*
X103361708Y-60953446D01*
X103380180Y-60988005D01*
X103391555Y-61025501D01*
X103396000Y-61070638D01*
X103396000Y-61809362D01*
X103391555Y-61854499D01*
X103380180Y-61891995D01*
X103361708Y-61926554D01*
X103336847Y-61956847D01*
X103306554Y-61981708D01*
X103271995Y-62000180D01*
X103234499Y-62011555D01*
X103189362Y-62016000D01*
X102550638Y-62016000D01*
X102505501Y-62011555D01*
X102468005Y-62000180D01*
X102433446Y-61981708D01*
X102403153Y-61956847D01*
X102378292Y-61926554D01*
X102359820Y-61891995D01*
X102348445Y-61854499D01*
X102344000Y-61809362D01*
X102344000Y-61070638D01*
X102348445Y-61025501D01*
X102359820Y-60988005D01*
X102378292Y-60953446D01*
X102403153Y-60923153D01*
X102433446Y-60898292D01*
X102468005Y-60879820D01*
X102505501Y-60868445D01*
X102550638Y-60864000D01*
X103189362Y-60864000D01*
X103234499Y-60868445D01*
X103234499Y-60868445D01*
G37*
G36*
X105774499Y-60868445D02*
G01*
X105811995Y-60879820D01*
X105846554Y-60898292D01*
X105876847Y-60923153D01*
X105901708Y-60953446D01*
X105920180Y-60988005D01*
X105931555Y-61025501D01*
X105936000Y-61070638D01*
X105936000Y-61809362D01*
X105931555Y-61854499D01*
X105920180Y-61891995D01*
X105901708Y-61926554D01*
X105876847Y-61956847D01*
X105846554Y-61981708D01*
X105811995Y-62000180D01*
X105774499Y-62011555D01*
X105729362Y-62016000D01*
X105090638Y-62016000D01*
X105045501Y-62011555D01*
X105008005Y-62000180D01*
X104973446Y-61981708D01*
X104943153Y-61956847D01*
X104918292Y-61926554D01*
X104899820Y-61891995D01*
X104888445Y-61854499D01*
X104884000Y-61809362D01*
X104884000Y-61070638D01*
X104888445Y-61025501D01*
X104899820Y-60988005D01*
X104918292Y-60953446D01*
X104943153Y-60923153D01*
X104973446Y-60898292D01*
X105008005Y-60879820D01*
X105045501Y-60868445D01*
X105090638Y-60864000D01*
X105729362Y-60864000D01*
X105774499Y-60868445D01*
X105774499Y-60868445D01*
G37*
G36*
X147049928Y-61246764D02*
G01*
X147071009Y-61253160D01*
X147090445Y-61263548D01*
X147107476Y-61277524D01*
X147121452Y-61294555D01*
X147131840Y-61313991D01*
X147138236Y-61335072D01*
X147141000Y-61363140D01*
X147141000Y-61826860D01*
X147138236Y-61854928D01*
X147131840Y-61876009D01*
X147121452Y-61895445D01*
X147107476Y-61912476D01*
X147090445Y-61926452D01*
X147071009Y-61936840D01*
X147049928Y-61943236D01*
X147021860Y-61946000D01*
X145208140Y-61946000D01*
X145180072Y-61943236D01*
X145158991Y-61936840D01*
X145139555Y-61926452D01*
X145122524Y-61912476D01*
X145108548Y-61895445D01*
X145098160Y-61876009D01*
X145091764Y-61854928D01*
X145089000Y-61826860D01*
X145089000Y-61363140D01*
X145091764Y-61335072D01*
X145098160Y-61313991D01*
X145108548Y-61294555D01*
X145122524Y-61277524D01*
X145139555Y-61263548D01*
X145158991Y-61253160D01*
X145180072Y-61246764D01*
X145208140Y-61244000D01*
X147021860Y-61244000D01*
X147049928Y-61246764D01*
X147049928Y-61246764D01*
G37*
G36*
X151999928Y-61246764D02*
G01*
X152021009Y-61253160D01*
X152040445Y-61263548D01*
X152057476Y-61277524D01*
X152071452Y-61294555D01*
X152081840Y-61313991D01*
X152088236Y-61335072D01*
X152091000Y-61363140D01*
X152091000Y-61826860D01*
X152088236Y-61854928D01*
X152081840Y-61876009D01*
X152071452Y-61895445D01*
X152057476Y-61912476D01*
X152040445Y-61926452D01*
X152021009Y-61936840D01*
X151999928Y-61943236D01*
X151971860Y-61946000D01*
X150158140Y-61946000D01*
X150130072Y-61943236D01*
X150108991Y-61936840D01*
X150089555Y-61926452D01*
X150072524Y-61912476D01*
X150058548Y-61895445D01*
X150048160Y-61876009D01*
X150041764Y-61854928D01*
X150039000Y-61826860D01*
X150039000Y-61363140D01*
X150041764Y-61335072D01*
X150048160Y-61313991D01*
X150058548Y-61294555D01*
X150072524Y-61277524D01*
X150089555Y-61263548D01*
X150108991Y-61253160D01*
X150130072Y-61246764D01*
X150158140Y-61244000D01*
X151971860Y-61244000D01*
X151999928Y-61246764D01*
X151999928Y-61246764D01*
G37*
G36*
X147049928Y-59976764D02*
G01*
X147071009Y-59983160D01*
X147090445Y-59993548D01*
X147107476Y-60007524D01*
X147121452Y-60024555D01*
X147131840Y-60043991D01*
X147138236Y-60065072D01*
X147141000Y-60093140D01*
X147141000Y-60556860D01*
X147138236Y-60584928D01*
X147131840Y-60606009D01*
X147121452Y-60625445D01*
X147107476Y-60642476D01*
X147090445Y-60656452D01*
X147071009Y-60666840D01*
X147049928Y-60673236D01*
X147021860Y-60676000D01*
X145208140Y-60676000D01*
X145180072Y-60673236D01*
X145158991Y-60666840D01*
X145139555Y-60656452D01*
X145122524Y-60642476D01*
X145108548Y-60625445D01*
X145098160Y-60606009D01*
X145091764Y-60584928D01*
X145089000Y-60556860D01*
X145089000Y-60093140D01*
X145091764Y-60065072D01*
X145098160Y-60043991D01*
X145108548Y-60024555D01*
X145122524Y-60007524D01*
X145139555Y-59993548D01*
X145158991Y-59983160D01*
X145180072Y-59976764D01*
X145208140Y-59974000D01*
X147021860Y-59974000D01*
X147049928Y-59976764D01*
X147049928Y-59976764D01*
G37*
G36*
X151999928Y-59976764D02*
G01*
X152021009Y-59983160D01*
X152040445Y-59993548D01*
X152057476Y-60007524D01*
X152071452Y-60024555D01*
X152081840Y-60043991D01*
X152088236Y-60065072D01*
X152091000Y-60093140D01*
X152091000Y-60556860D01*
X152088236Y-60584928D01*
X152081840Y-60606009D01*
X152071452Y-60625445D01*
X152057476Y-60642476D01*
X152040445Y-60656452D01*
X152021009Y-60666840D01*
X151999928Y-60673236D01*
X151971860Y-60676000D01*
X150158140Y-60676000D01*
X150130072Y-60673236D01*
X150108991Y-60666840D01*
X150089555Y-60656452D01*
X150072524Y-60642476D01*
X150058548Y-60625445D01*
X150048160Y-60606009D01*
X150041764Y-60584928D01*
X150039000Y-60556860D01*
X150039000Y-60093140D01*
X150041764Y-60065072D01*
X150048160Y-60043991D01*
X150058548Y-60024555D01*
X150072524Y-60007524D01*
X150089555Y-59993548D01*
X150108991Y-59983160D01*
X150130072Y-59976764D01*
X150158140Y-59974000D01*
X151971860Y-59974000D01*
X151999928Y-59976764D01*
X151999928Y-59976764D01*
G37*
G36*
X72754499Y-59513445D02*
G01*
X72791995Y-59524820D01*
X72826554Y-59543292D01*
X72856847Y-59568153D01*
X72881708Y-59598446D01*
X72900180Y-59633005D01*
X72911555Y-59670501D01*
X72916000Y-59715638D01*
X72916000Y-60454362D01*
X72911555Y-60499499D01*
X72900180Y-60536995D01*
X72881708Y-60571554D01*
X72856847Y-60601847D01*
X72826554Y-60626708D01*
X72791995Y-60645180D01*
X72754499Y-60656555D01*
X72709362Y-60661000D01*
X72070638Y-60661000D01*
X72025501Y-60656555D01*
X71988005Y-60645180D01*
X71953446Y-60626708D01*
X71923153Y-60601847D01*
X71898292Y-60571554D01*
X71879820Y-60536995D01*
X71868445Y-60499499D01*
X71864000Y-60454362D01*
X71864000Y-59715638D01*
X71868445Y-59670501D01*
X71879820Y-59633005D01*
X71898292Y-59598446D01*
X71923153Y-59568153D01*
X71953446Y-59543292D01*
X71988005Y-59524820D01*
X72025501Y-59513445D01*
X72070638Y-59509000D01*
X72709362Y-59509000D01*
X72754499Y-59513445D01*
X72754499Y-59513445D01*
G37*
G36*
X75294499Y-59513445D02*
G01*
X75331995Y-59524820D01*
X75366554Y-59543292D01*
X75396847Y-59568153D01*
X75421708Y-59598446D01*
X75440180Y-59633005D01*
X75451555Y-59670501D01*
X75456000Y-59715638D01*
X75456000Y-60454362D01*
X75451555Y-60499499D01*
X75440180Y-60536995D01*
X75421708Y-60571554D01*
X75396847Y-60601847D01*
X75366554Y-60626708D01*
X75331995Y-60645180D01*
X75294499Y-60656555D01*
X75249362Y-60661000D01*
X74610638Y-60661000D01*
X74565501Y-60656555D01*
X74528005Y-60645180D01*
X74493446Y-60626708D01*
X74463153Y-60601847D01*
X74438292Y-60571554D01*
X74419820Y-60536995D01*
X74408445Y-60499499D01*
X74404000Y-60454362D01*
X74404000Y-59715638D01*
X74408445Y-59670501D01*
X74419820Y-59633005D01*
X74438292Y-59598446D01*
X74463153Y-59568153D01*
X74493446Y-59543292D01*
X74528005Y-59524820D01*
X74565501Y-59513445D01*
X74610638Y-59509000D01*
X75249362Y-59509000D01*
X75294499Y-59513445D01*
X75294499Y-59513445D01*
G37*
G36*
X77834499Y-59513445D02*
G01*
X77871995Y-59524820D01*
X77906554Y-59543292D01*
X77936847Y-59568153D01*
X77961708Y-59598446D01*
X77980180Y-59633005D01*
X77991555Y-59670501D01*
X77996000Y-59715638D01*
X77996000Y-60454362D01*
X77991555Y-60499499D01*
X77980180Y-60536995D01*
X77961708Y-60571554D01*
X77936847Y-60601847D01*
X77906554Y-60626708D01*
X77871995Y-60645180D01*
X77834499Y-60656555D01*
X77789362Y-60661000D01*
X77150638Y-60661000D01*
X77105501Y-60656555D01*
X77068005Y-60645180D01*
X77033446Y-60626708D01*
X77003153Y-60601847D01*
X76978292Y-60571554D01*
X76959820Y-60536995D01*
X76948445Y-60499499D01*
X76944000Y-60454362D01*
X76944000Y-59715638D01*
X76948445Y-59670501D01*
X76959820Y-59633005D01*
X76978292Y-59598446D01*
X77003153Y-59568153D01*
X77033446Y-59543292D01*
X77068005Y-59524820D01*
X77105501Y-59513445D01*
X77150638Y-59509000D01*
X77789362Y-59509000D01*
X77834499Y-59513445D01*
X77834499Y-59513445D01*
G37*
G36*
X82798228Y-58911703D02*
G01*
X82953100Y-58975853D01*
X83092481Y-59068985D01*
X83211015Y-59187519D01*
X83304147Y-59326900D01*
X83368297Y-59481772D01*
X83401000Y-59646184D01*
X83401000Y-59813816D01*
X83368297Y-59978228D01*
X83304147Y-60133100D01*
X83211015Y-60272481D01*
X83092481Y-60391015D01*
X82953100Y-60484147D01*
X82798228Y-60548297D01*
X82633816Y-60581000D01*
X82466184Y-60581000D01*
X82301772Y-60548297D01*
X82146900Y-60484147D01*
X82007519Y-60391015D01*
X81888985Y-60272481D01*
X81795853Y-60133100D01*
X81731703Y-59978228D01*
X81699000Y-59813816D01*
X81699000Y-59646184D01*
X81731703Y-59481772D01*
X81795853Y-59326900D01*
X81888985Y-59187519D01*
X82007519Y-59068985D01*
X82146900Y-58975853D01*
X82301772Y-58911703D01*
X82466184Y-58879000D01*
X82633816Y-58879000D01*
X82798228Y-58911703D01*
X82798228Y-58911703D01*
G37*
G36*
X98038228Y-58911703D02*
G01*
X98193100Y-58975853D01*
X98332481Y-59068985D01*
X98451015Y-59187519D01*
X98544147Y-59326900D01*
X98608297Y-59481772D01*
X98641000Y-59646184D01*
X98641000Y-59813816D01*
X98608297Y-59978228D01*
X98544147Y-60133100D01*
X98451015Y-60272481D01*
X98332481Y-60391015D01*
X98193100Y-60484147D01*
X98038228Y-60548297D01*
X97873816Y-60581000D01*
X97706184Y-60581000D01*
X97541772Y-60548297D01*
X97386900Y-60484147D01*
X97247519Y-60391015D01*
X97128985Y-60272481D01*
X97035853Y-60133100D01*
X96971703Y-59978228D01*
X96939000Y-59813816D01*
X96939000Y-59646184D01*
X96971703Y-59481772D01*
X97035853Y-59326900D01*
X97128985Y-59187519D01*
X97247519Y-59068985D01*
X97386900Y-58975853D01*
X97541772Y-58911703D01*
X97706184Y-58879000D01*
X97873816Y-58879000D01*
X98038228Y-58911703D01*
X98038228Y-58911703D01*
G37*
G36*
X90418228Y-58911703D02*
G01*
X90573100Y-58975853D01*
X90712481Y-59068985D01*
X90831015Y-59187519D01*
X90924147Y-59326900D01*
X90988297Y-59481772D01*
X91021000Y-59646184D01*
X91021000Y-59813816D01*
X90988297Y-59978228D01*
X90924147Y-60133100D01*
X90831015Y-60272481D01*
X90712481Y-60391015D01*
X90573100Y-60484147D01*
X90418228Y-60548297D01*
X90253816Y-60581000D01*
X90086184Y-60581000D01*
X89921772Y-60548297D01*
X89766900Y-60484147D01*
X89627519Y-60391015D01*
X89508985Y-60272481D01*
X89415853Y-60133100D01*
X89351703Y-59978228D01*
X89319000Y-59813816D01*
X89319000Y-59646184D01*
X89351703Y-59481772D01*
X89415853Y-59326900D01*
X89508985Y-59187519D01*
X89627519Y-59068985D01*
X89766900Y-58975853D01*
X89921772Y-58911703D01*
X90086184Y-58879000D01*
X90253816Y-58879000D01*
X90418228Y-58911703D01*
X90418228Y-58911703D01*
G37*
G36*
X105774499Y-59118445D02*
G01*
X105811995Y-59129820D01*
X105846554Y-59148292D01*
X105876847Y-59173153D01*
X105901708Y-59203446D01*
X105920180Y-59238005D01*
X105931555Y-59275501D01*
X105936000Y-59320638D01*
X105936000Y-60059362D01*
X105931555Y-60104499D01*
X105920180Y-60141995D01*
X105901708Y-60176554D01*
X105876847Y-60206847D01*
X105846554Y-60231708D01*
X105811995Y-60250180D01*
X105774499Y-60261555D01*
X105729362Y-60266000D01*
X105090638Y-60266000D01*
X105045501Y-60261555D01*
X105008005Y-60250180D01*
X104973446Y-60231708D01*
X104943153Y-60206847D01*
X104918292Y-60176554D01*
X104899820Y-60141995D01*
X104888445Y-60104499D01*
X104884000Y-60059362D01*
X104884000Y-59320638D01*
X104888445Y-59275501D01*
X104899820Y-59238005D01*
X104918292Y-59203446D01*
X104943153Y-59173153D01*
X104973446Y-59148292D01*
X105008005Y-59129820D01*
X105045501Y-59118445D01*
X105090638Y-59114000D01*
X105729362Y-59114000D01*
X105774499Y-59118445D01*
X105774499Y-59118445D01*
G37*
G36*
X108314499Y-59118445D02*
G01*
X108351995Y-59129820D01*
X108386554Y-59148292D01*
X108416847Y-59173153D01*
X108441708Y-59203446D01*
X108460180Y-59238005D01*
X108471555Y-59275501D01*
X108476000Y-59320638D01*
X108476000Y-60059362D01*
X108471555Y-60104499D01*
X108460180Y-60141995D01*
X108441708Y-60176554D01*
X108416847Y-60206847D01*
X108386554Y-60231708D01*
X108351995Y-60250180D01*
X108314499Y-60261555D01*
X108269362Y-60266000D01*
X107630638Y-60266000D01*
X107585501Y-60261555D01*
X107548005Y-60250180D01*
X107513446Y-60231708D01*
X107483153Y-60206847D01*
X107458292Y-60176554D01*
X107439820Y-60141995D01*
X107428445Y-60104499D01*
X107424000Y-60059362D01*
X107424000Y-59320638D01*
X107428445Y-59275501D01*
X107439820Y-59238005D01*
X107458292Y-59203446D01*
X107483153Y-59173153D01*
X107513446Y-59148292D01*
X107548005Y-59129820D01*
X107585501Y-59118445D01*
X107630638Y-59114000D01*
X108269362Y-59114000D01*
X108314499Y-59118445D01*
X108314499Y-59118445D01*
G37*
G36*
X103234499Y-59118445D02*
G01*
X103271995Y-59129820D01*
X103306554Y-59148292D01*
X103336847Y-59173153D01*
X103361708Y-59203446D01*
X103380180Y-59238005D01*
X103391555Y-59275501D01*
X103396000Y-59320638D01*
X103396000Y-60059362D01*
X103391555Y-60104499D01*
X103380180Y-60141995D01*
X103361708Y-60176554D01*
X103336847Y-60206847D01*
X103306554Y-60231708D01*
X103271995Y-60250180D01*
X103234499Y-60261555D01*
X103189362Y-60266000D01*
X102550638Y-60266000D01*
X102505501Y-60261555D01*
X102468005Y-60250180D01*
X102433446Y-60231708D01*
X102403153Y-60206847D01*
X102378292Y-60176554D01*
X102359820Y-60141995D01*
X102348445Y-60104499D01*
X102344000Y-60059362D01*
X102344000Y-59320638D01*
X102348445Y-59275501D01*
X102359820Y-59238005D01*
X102378292Y-59203446D01*
X102403153Y-59173153D01*
X102433446Y-59148292D01*
X102468005Y-59129820D01*
X102505501Y-59118445D01*
X102550638Y-59114000D01*
X103189362Y-59114000D01*
X103234499Y-59118445D01*
X103234499Y-59118445D01*
G37*
G36*
X128821000Y-56597678D02*
G01*
X128823402Y-56622064D01*
X128830515Y-56645513D01*
X128843596Y-56669360D01*
X129352022Y-57395683D01*
X129367974Y-57414284D01*
X129387248Y-57429415D01*
X129409104Y-57440495D01*
X129421000Y-57443824D01*
X129421000Y-57454822D01*
X129423402Y-57479208D01*
X129430515Y-57502657D01*
X129443596Y-57526504D01*
X129467953Y-57561300D01*
X129481026Y-57579975D01*
X129476553Y-57582366D01*
X129457611Y-57597911D01*
X129442066Y-57616853D01*
X129430515Y-57638464D01*
X129423402Y-57661913D01*
X129421000Y-57686299D01*
X129421000Y-59152501D01*
X129423402Y-59176887D01*
X129430515Y-59200336D01*
X129442066Y-59221947D01*
X129457611Y-59240889D01*
X129476553Y-59256434D01*
X129481450Y-59259051D01*
X129443879Y-59312276D01*
X129431778Y-59333584D01*
X129424067Y-59356843D01*
X129421000Y-59384361D01*
X129421000Y-59395735D01*
X129405243Y-59400515D01*
X129383632Y-59412066D01*
X129364690Y-59427611D01*
X129350958Y-59443914D01*
X128796426Y-60229500D01*
X127743574Y-60229500D01*
X127189042Y-59443914D01*
X127173017Y-59425377D01*
X127153683Y-59410322D01*
X127131784Y-59399328D01*
X127119000Y-59395805D01*
X127119000Y-59384361D01*
X127116598Y-59359975D01*
X127109485Y-59336526D01*
X127096121Y-59312276D01*
X127058550Y-59259051D01*
X127063447Y-59256434D01*
X127082389Y-59240889D01*
X127097934Y-59221947D01*
X127109485Y-59200336D01*
X127116598Y-59176887D01*
X127119000Y-59152501D01*
X127119000Y-57686299D01*
X127116598Y-57661913D01*
X127109485Y-57638464D01*
X127097934Y-57616853D01*
X127082389Y-57597911D01*
X127063447Y-57582366D01*
X127058974Y-57579975D01*
X127096404Y-57526504D01*
X127108421Y-57505149D01*
X127116041Y-57481860D01*
X127119000Y-57454822D01*
X127119000Y-57443856D01*
X127133410Y-57439485D01*
X127155021Y-57427934D01*
X127173963Y-57412389D01*
X127187978Y-57395683D01*
X127696404Y-56669360D01*
X127708421Y-56648005D01*
X127716041Y-56624716D01*
X127719000Y-56597678D01*
X127719000Y-54802000D01*
X128821000Y-54802000D01*
X128821000Y-56597678D01*
X128821000Y-56597678D01*
G37*
G36*
X143134499Y-59168445D02*
G01*
X143171995Y-59179820D01*
X143206554Y-59198292D01*
X143236847Y-59223153D01*
X143261708Y-59253446D01*
X143280180Y-59288005D01*
X143291555Y-59325501D01*
X143296000Y-59370638D01*
X143296000Y-60009362D01*
X143291555Y-60054499D01*
X143280180Y-60091995D01*
X143261708Y-60126554D01*
X143236847Y-60156847D01*
X143206554Y-60181708D01*
X143171995Y-60200180D01*
X143134499Y-60211555D01*
X143089362Y-60216000D01*
X142350638Y-60216000D01*
X142305501Y-60211555D01*
X142268005Y-60200180D01*
X142233446Y-60181708D01*
X142203153Y-60156847D01*
X142178292Y-60126554D01*
X142159820Y-60091995D01*
X142148445Y-60054499D01*
X142144000Y-60009362D01*
X142144000Y-59370638D01*
X142148445Y-59325501D01*
X142159820Y-59288005D01*
X142178292Y-59253446D01*
X142203153Y-59223153D01*
X142233446Y-59198292D01*
X142268005Y-59179820D01*
X142305501Y-59168445D01*
X142350638Y-59164000D01*
X143089362Y-59164000D01*
X143134499Y-59168445D01*
X143134499Y-59168445D01*
G37*
G36*
X160914499Y-59168445D02*
G01*
X160951995Y-59179820D01*
X160986554Y-59198292D01*
X161016847Y-59223153D01*
X161041708Y-59253446D01*
X161060180Y-59288005D01*
X161071555Y-59325501D01*
X161076000Y-59370638D01*
X161076000Y-60009362D01*
X161071555Y-60054499D01*
X161060180Y-60091995D01*
X161041708Y-60126554D01*
X161016847Y-60156847D01*
X160986554Y-60181708D01*
X160951995Y-60200180D01*
X160914499Y-60211555D01*
X160869362Y-60216000D01*
X160130638Y-60216000D01*
X160085501Y-60211555D01*
X160048005Y-60200180D01*
X160013446Y-60181708D01*
X159983153Y-60156847D01*
X159958292Y-60126554D01*
X159939820Y-60091995D01*
X159928445Y-60054499D01*
X159924000Y-60009362D01*
X159924000Y-59370638D01*
X159928445Y-59325501D01*
X159939820Y-59288005D01*
X159958292Y-59253446D01*
X159983153Y-59223153D01*
X160013446Y-59198292D01*
X160048005Y-59179820D01*
X160085501Y-59168445D01*
X160130638Y-59164000D01*
X160869362Y-59164000D01*
X160914499Y-59168445D01*
X160914499Y-59168445D01*
G37*
G36*
X159164499Y-59168445D02*
G01*
X159201995Y-59179820D01*
X159236554Y-59198292D01*
X159266847Y-59223153D01*
X159291708Y-59253446D01*
X159310180Y-59288005D01*
X159321555Y-59325501D01*
X159326000Y-59370638D01*
X159326000Y-60009362D01*
X159321555Y-60054499D01*
X159310180Y-60091995D01*
X159291708Y-60126554D01*
X159266847Y-60156847D01*
X159236554Y-60181708D01*
X159201995Y-60200180D01*
X159164499Y-60211555D01*
X159119362Y-60216000D01*
X158380638Y-60216000D01*
X158335501Y-60211555D01*
X158298005Y-60200180D01*
X158263446Y-60181708D01*
X158233153Y-60156847D01*
X158208292Y-60126554D01*
X158189820Y-60091995D01*
X158178445Y-60054499D01*
X158174000Y-60009362D01*
X158174000Y-59370638D01*
X158178445Y-59325501D01*
X158189820Y-59288005D01*
X158208292Y-59253446D01*
X158233153Y-59223153D01*
X158263446Y-59198292D01*
X158298005Y-59179820D01*
X158335501Y-59168445D01*
X158380638Y-59164000D01*
X159119362Y-59164000D01*
X159164499Y-59168445D01*
X159164499Y-59168445D01*
G37*
G36*
X141384499Y-59168445D02*
G01*
X141421995Y-59179820D01*
X141456554Y-59198292D01*
X141486847Y-59223153D01*
X141511708Y-59253446D01*
X141530180Y-59288005D01*
X141541555Y-59325501D01*
X141546000Y-59370638D01*
X141546000Y-60009362D01*
X141541555Y-60054499D01*
X141530180Y-60091995D01*
X141511708Y-60126554D01*
X141486847Y-60156847D01*
X141456554Y-60181708D01*
X141421995Y-60200180D01*
X141384499Y-60211555D01*
X141339362Y-60216000D01*
X140600638Y-60216000D01*
X140555501Y-60211555D01*
X140518005Y-60200180D01*
X140483446Y-60181708D01*
X140453153Y-60156847D01*
X140428292Y-60126554D01*
X140409820Y-60091995D01*
X140398445Y-60054499D01*
X140394000Y-60009362D01*
X140394000Y-59370638D01*
X140398445Y-59325501D01*
X140409820Y-59288005D01*
X140428292Y-59253446D01*
X140453153Y-59223153D01*
X140483446Y-59198292D01*
X140518005Y-59179820D01*
X140555501Y-59168445D01*
X140600638Y-59164000D01*
X141339362Y-59164000D01*
X141384499Y-59168445D01*
X141384499Y-59168445D01*
G37*
G36*
X112124499Y-58328445D02*
G01*
X112161995Y-58339820D01*
X112196554Y-58358292D01*
X112226847Y-58383153D01*
X112251708Y-58413446D01*
X112270180Y-58448005D01*
X112281555Y-58485501D01*
X112286000Y-58530638D01*
X112286000Y-59269362D01*
X112281555Y-59314499D01*
X112270180Y-59351995D01*
X112251708Y-59386554D01*
X112226847Y-59416847D01*
X112196554Y-59441708D01*
X112161995Y-59460180D01*
X112124499Y-59471555D01*
X112079362Y-59476000D01*
X111440638Y-59476000D01*
X111395501Y-59471555D01*
X111358005Y-59460180D01*
X111323446Y-59441708D01*
X111293153Y-59416847D01*
X111268292Y-59386554D01*
X111249820Y-59351995D01*
X111238445Y-59314499D01*
X111234000Y-59269362D01*
X111234000Y-58530638D01*
X111238445Y-58485501D01*
X111249820Y-58448005D01*
X111268292Y-58413446D01*
X111293153Y-58383153D01*
X111323446Y-58358292D01*
X111358005Y-58339820D01*
X111395501Y-58328445D01*
X111440638Y-58324000D01*
X112079362Y-58324000D01*
X112124499Y-58328445D01*
X112124499Y-58328445D01*
G37*
G36*
X151999928Y-58706764D02*
G01*
X152021009Y-58713160D01*
X152040445Y-58723548D01*
X152057476Y-58737524D01*
X152071452Y-58754555D01*
X152081840Y-58773991D01*
X152088236Y-58795072D01*
X152091000Y-58823140D01*
X152091000Y-59286860D01*
X152088236Y-59314928D01*
X152081840Y-59336009D01*
X152071452Y-59355445D01*
X152057476Y-59372476D01*
X152040445Y-59386452D01*
X152021009Y-59396840D01*
X151999928Y-59403236D01*
X151971860Y-59406000D01*
X150158140Y-59406000D01*
X150130072Y-59403236D01*
X150108991Y-59396840D01*
X150089555Y-59386452D01*
X150072524Y-59372476D01*
X150058548Y-59355445D01*
X150048160Y-59336009D01*
X150041764Y-59314928D01*
X150039000Y-59286860D01*
X150039000Y-58823140D01*
X150041764Y-58795072D01*
X150048160Y-58773991D01*
X150058548Y-58754555D01*
X150072524Y-58737524D01*
X150089555Y-58723548D01*
X150108991Y-58713160D01*
X150130072Y-58706764D01*
X150158140Y-58704000D01*
X151971860Y-58704000D01*
X151999928Y-58706764D01*
X151999928Y-58706764D01*
G37*
G36*
X147049928Y-58706764D02*
G01*
X147071009Y-58713160D01*
X147090445Y-58723548D01*
X147107476Y-58737524D01*
X147121452Y-58754555D01*
X147131840Y-58773991D01*
X147138236Y-58795072D01*
X147141000Y-58823140D01*
X147141000Y-59286860D01*
X147138236Y-59314928D01*
X147131840Y-59336009D01*
X147121452Y-59355445D01*
X147107476Y-59372476D01*
X147090445Y-59386452D01*
X147071009Y-59396840D01*
X147049928Y-59403236D01*
X147021860Y-59406000D01*
X145208140Y-59406000D01*
X145180072Y-59403236D01*
X145158991Y-59396840D01*
X145139555Y-59386452D01*
X145122524Y-59372476D01*
X145108548Y-59355445D01*
X145098160Y-59336009D01*
X145091764Y-59314928D01*
X145089000Y-59286860D01*
X145089000Y-58823140D01*
X145091764Y-58795072D01*
X145098160Y-58773991D01*
X145108548Y-58754555D01*
X145122524Y-58737524D01*
X145139555Y-58723548D01*
X145158991Y-58713160D01*
X145180072Y-58706764D01*
X145208140Y-58704000D01*
X147021860Y-58704000D01*
X147049928Y-58706764D01*
X147049928Y-58706764D01*
G37*
G36*
X119791000Y-58301000D02*
G01*
X113889000Y-58301000D01*
X113889000Y-51799000D01*
X119791000Y-51799000D01*
X119791000Y-58301000D01*
X119791000Y-58301000D01*
G37*
G36*
X152764499Y-56578445D02*
G01*
X152801995Y-56589820D01*
X152836554Y-56608292D01*
X152866847Y-56633153D01*
X152891708Y-56663446D01*
X152910180Y-56698005D01*
X152921555Y-56735501D01*
X152926000Y-56780638D01*
X152926000Y-57519362D01*
X152921555Y-57564499D01*
X152910180Y-57601995D01*
X152891708Y-57636554D01*
X152866847Y-57666847D01*
X152836554Y-57691708D01*
X152801995Y-57710180D01*
X152764499Y-57721555D01*
X152719362Y-57726000D01*
X152080638Y-57726000D01*
X152035501Y-57721555D01*
X151998005Y-57710180D01*
X151963446Y-57691708D01*
X151933153Y-57666847D01*
X151908292Y-57636554D01*
X151889820Y-57601995D01*
X151878445Y-57564499D01*
X151874000Y-57519362D01*
X151874000Y-56780638D01*
X151878445Y-56735501D01*
X151889820Y-56698005D01*
X151908292Y-56663446D01*
X151933153Y-56633153D01*
X151963446Y-56608292D01*
X151998005Y-56589820D01*
X152035501Y-56578445D01*
X152080638Y-56574000D01*
X152719362Y-56574000D01*
X152764499Y-56578445D01*
X152764499Y-56578445D01*
G37*
G36*
X112124499Y-56578445D02*
G01*
X112161995Y-56589820D01*
X112196554Y-56608292D01*
X112226847Y-56633153D01*
X112251708Y-56663446D01*
X112270180Y-56698005D01*
X112281555Y-56735501D01*
X112286000Y-56780638D01*
X112286000Y-57519362D01*
X112281555Y-57564499D01*
X112270180Y-57601995D01*
X112251708Y-57636554D01*
X112226847Y-57666847D01*
X112196554Y-57691708D01*
X112161995Y-57710180D01*
X112124499Y-57721555D01*
X112079362Y-57726000D01*
X111440638Y-57726000D01*
X111395501Y-57721555D01*
X111358005Y-57710180D01*
X111323446Y-57691708D01*
X111293153Y-57666847D01*
X111268292Y-57636554D01*
X111249820Y-57601995D01*
X111238445Y-57564499D01*
X111234000Y-57519362D01*
X111234000Y-56780638D01*
X111238445Y-56735501D01*
X111249820Y-56698005D01*
X111268292Y-56663446D01*
X111293153Y-56633153D01*
X111323446Y-56608292D01*
X111358005Y-56589820D01*
X111395501Y-56578445D01*
X111440638Y-56574000D01*
X112079362Y-56574000D01*
X112124499Y-56578445D01*
X112124499Y-56578445D01*
G37*
G36*
X147684499Y-56578445D02*
G01*
X147721995Y-56589820D01*
X147756554Y-56608292D01*
X147786847Y-56633153D01*
X147811708Y-56663446D01*
X147830180Y-56698005D01*
X147841555Y-56735501D01*
X147846000Y-56780638D01*
X147846000Y-57519362D01*
X147841555Y-57564499D01*
X147830180Y-57601995D01*
X147811708Y-57636554D01*
X147786847Y-57666847D01*
X147756554Y-57691708D01*
X147721995Y-57710180D01*
X147684499Y-57721555D01*
X147639362Y-57726000D01*
X147000638Y-57726000D01*
X146955501Y-57721555D01*
X146918005Y-57710180D01*
X146883446Y-57691708D01*
X146853153Y-57666847D01*
X146828292Y-57636554D01*
X146809820Y-57601995D01*
X146798445Y-57564499D01*
X146794000Y-57519362D01*
X146794000Y-56780638D01*
X146798445Y-56735501D01*
X146809820Y-56698005D01*
X146828292Y-56663446D01*
X146853153Y-56633153D01*
X146883446Y-56608292D01*
X146918005Y-56589820D01*
X146955501Y-56578445D01*
X147000638Y-56574000D01*
X147639362Y-56574000D01*
X147684499Y-56578445D01*
X147684499Y-56578445D01*
G37*
G36*
X150224499Y-56578445D02*
G01*
X150261995Y-56589820D01*
X150296554Y-56608292D01*
X150326847Y-56633153D01*
X150351708Y-56663446D01*
X150370180Y-56698005D01*
X150381555Y-56735501D01*
X150386000Y-56780638D01*
X150386000Y-57519362D01*
X150381555Y-57564499D01*
X150370180Y-57601995D01*
X150351708Y-57636554D01*
X150326847Y-57666847D01*
X150296554Y-57691708D01*
X150261995Y-57710180D01*
X150224499Y-57721555D01*
X150179362Y-57726000D01*
X149540638Y-57726000D01*
X149495501Y-57721555D01*
X149458005Y-57710180D01*
X149423446Y-57691708D01*
X149393153Y-57666847D01*
X149368292Y-57636554D01*
X149349820Y-57601995D01*
X149338445Y-57564499D01*
X149334000Y-57519362D01*
X149334000Y-56780638D01*
X149338445Y-56735501D01*
X149349820Y-56698005D01*
X149368292Y-56663446D01*
X149393153Y-56633153D01*
X149423446Y-56608292D01*
X149458005Y-56589820D01*
X149495501Y-56578445D01*
X149540638Y-56574000D01*
X150179362Y-56574000D01*
X150224499Y-56578445D01*
X150224499Y-56578445D01*
G37*
G36*
X123554499Y-55788445D02*
G01*
X123591995Y-55799820D01*
X123626554Y-55818292D01*
X123656847Y-55843153D01*
X123681708Y-55873446D01*
X123700180Y-55908005D01*
X123711555Y-55945501D01*
X123716000Y-55990638D01*
X123716000Y-56729362D01*
X123711555Y-56774499D01*
X123700180Y-56811995D01*
X123681708Y-56846554D01*
X123656847Y-56876847D01*
X123626554Y-56901708D01*
X123591995Y-56920180D01*
X123554499Y-56931555D01*
X123509362Y-56936000D01*
X122870638Y-56936000D01*
X122825501Y-56931555D01*
X122788005Y-56920180D01*
X122753446Y-56901708D01*
X122723153Y-56876847D01*
X122698292Y-56846554D01*
X122679820Y-56811995D01*
X122668445Y-56774499D01*
X122664000Y-56729362D01*
X122664000Y-55990638D01*
X122668445Y-55945501D01*
X122679820Y-55908005D01*
X122698292Y-55873446D01*
X122723153Y-55843153D01*
X122753446Y-55818292D01*
X122788005Y-55799820D01*
X122825501Y-55788445D01*
X122870638Y-55784000D01*
X123509362Y-55784000D01*
X123554499Y-55788445D01*
X123554499Y-55788445D01*
G37*
G36*
X130321000Y-56407500D02*
G01*
X129219000Y-56407500D01*
X129219000Y-54805500D01*
X130321000Y-54805500D01*
X130321000Y-56407500D01*
X130321000Y-56407500D01*
G37*
G36*
X127321000Y-56407500D02*
G01*
X126219000Y-56407500D01*
X126219000Y-54805500D01*
X127321000Y-54805500D01*
X127321000Y-56407500D01*
X127321000Y-56407500D01*
G37*
G36*
X150224499Y-54828445D02*
G01*
X150261995Y-54839820D01*
X150296554Y-54858292D01*
X150326847Y-54883153D01*
X150351708Y-54913446D01*
X150370180Y-54948005D01*
X150381555Y-54985501D01*
X150386000Y-55030638D01*
X150386000Y-55769362D01*
X150381555Y-55814499D01*
X150370180Y-55851995D01*
X150351708Y-55886554D01*
X150326847Y-55916847D01*
X150296554Y-55941708D01*
X150261995Y-55960180D01*
X150224499Y-55971555D01*
X150179362Y-55976000D01*
X149540638Y-55976000D01*
X149495501Y-55971555D01*
X149458005Y-55960180D01*
X149423446Y-55941708D01*
X149393153Y-55916847D01*
X149368292Y-55886554D01*
X149349820Y-55851995D01*
X149338445Y-55814499D01*
X149334000Y-55769362D01*
X149334000Y-55030638D01*
X149338445Y-54985501D01*
X149349820Y-54948005D01*
X149368292Y-54913446D01*
X149393153Y-54883153D01*
X149423446Y-54858292D01*
X149458005Y-54839820D01*
X149495501Y-54828445D01*
X149540638Y-54824000D01*
X150179362Y-54824000D01*
X150224499Y-54828445D01*
X150224499Y-54828445D01*
G37*
G36*
X147684499Y-54828445D02*
G01*
X147721995Y-54839820D01*
X147756554Y-54858292D01*
X147786847Y-54883153D01*
X147811708Y-54913446D01*
X147830180Y-54948005D01*
X147841555Y-54985501D01*
X147846000Y-55030638D01*
X147846000Y-55769362D01*
X147841555Y-55814499D01*
X147830180Y-55851995D01*
X147811708Y-55886554D01*
X147786847Y-55916847D01*
X147756554Y-55941708D01*
X147721995Y-55960180D01*
X147684499Y-55971555D01*
X147639362Y-55976000D01*
X147000638Y-55976000D01*
X146955501Y-55971555D01*
X146918005Y-55960180D01*
X146883446Y-55941708D01*
X146853153Y-55916847D01*
X146828292Y-55886554D01*
X146809820Y-55851995D01*
X146798445Y-55814499D01*
X146794000Y-55769362D01*
X146794000Y-55030638D01*
X146798445Y-54985501D01*
X146809820Y-54948005D01*
X146828292Y-54913446D01*
X146853153Y-54883153D01*
X146883446Y-54858292D01*
X146918005Y-54839820D01*
X146955501Y-54828445D01*
X147000638Y-54824000D01*
X147639362Y-54824000D01*
X147684499Y-54828445D01*
X147684499Y-54828445D01*
G37*
G36*
X152764499Y-54828445D02*
G01*
X152801995Y-54839820D01*
X152836554Y-54858292D01*
X152866847Y-54883153D01*
X152891708Y-54913446D01*
X152910180Y-54948005D01*
X152921555Y-54985501D01*
X152926000Y-55030638D01*
X152926000Y-55769362D01*
X152921555Y-55814499D01*
X152910180Y-55851995D01*
X152891708Y-55886554D01*
X152866847Y-55916847D01*
X152836554Y-55941708D01*
X152801995Y-55960180D01*
X152764499Y-55971555D01*
X152719362Y-55976000D01*
X152080638Y-55976000D01*
X152035501Y-55971555D01*
X151998005Y-55960180D01*
X151963446Y-55941708D01*
X151933153Y-55916847D01*
X151908292Y-55886554D01*
X151889820Y-55851995D01*
X151878445Y-55814499D01*
X151874000Y-55769362D01*
X151874000Y-55030638D01*
X151878445Y-54985501D01*
X151889820Y-54948005D01*
X151908292Y-54913446D01*
X151933153Y-54883153D01*
X151963446Y-54858292D01*
X151998005Y-54839820D01*
X152035501Y-54828445D01*
X152080638Y-54824000D01*
X152719362Y-54824000D01*
X152764499Y-54828445D01*
X152764499Y-54828445D01*
G37*
G36*
X53037547Y-40883791D02*
G01*
X54433580Y-41462047D01*
X54833103Y-41729000D01*
X55689978Y-42301545D01*
X56758455Y-43370022D01*
X57266081Y-44129738D01*
X57597953Y-44626420D01*
X58176209Y-46022453D01*
X58471000Y-47504471D01*
X58471000Y-49015529D01*
X58176209Y-50497547D01*
X57597953Y-51893580D01*
X57342876Y-52275329D01*
X56758455Y-53149978D01*
X55689978Y-54218455D01*
X55298711Y-54479891D01*
X54433580Y-55057953D01*
X53037547Y-55636209D01*
X51555529Y-55931000D01*
X50044471Y-55931000D01*
X48562453Y-55636209D01*
X47166420Y-55057953D01*
X46301289Y-54479891D01*
X45910022Y-54218455D01*
X44841545Y-53149978D01*
X44257124Y-52275329D01*
X44002047Y-51893580D01*
X43423791Y-50497547D01*
X43129000Y-49015529D01*
X43129000Y-47504471D01*
X43423791Y-46022453D01*
X44002047Y-44626420D01*
X44333919Y-44129738D01*
X44841545Y-43370022D01*
X45910022Y-42301545D01*
X46766897Y-41729000D01*
X47166420Y-41462047D01*
X48562453Y-40883791D01*
X50044471Y-40589000D01*
X51555529Y-40589000D01*
X53037547Y-40883791D01*
X53037547Y-40883791D01*
G37*
G36*
X42167715Y-53314383D02*
G01*
X42295322Y-53339765D01*
X42436148Y-53398097D01*
X42535727Y-53439344D01*
X42535728Y-53439345D01*
X42752089Y-53583912D01*
X42936088Y-53767911D01*
X43032685Y-53912479D01*
X43080656Y-53984273D01*
X43119612Y-54078323D01*
X43180235Y-54224678D01*
X43231000Y-54479893D01*
X43231000Y-54740107D01*
X43180235Y-54995322D01*
X43125755Y-55126847D01*
X43080656Y-55235727D01*
X43080655Y-55235728D01*
X42936088Y-55452089D01*
X42752089Y-55636088D01*
X42636981Y-55713000D01*
X42535727Y-55780656D01*
X42456081Y-55813646D01*
X42295322Y-55880235D01*
X42167715Y-55905617D01*
X42040109Y-55931000D01*
X41779891Y-55931000D01*
X41652285Y-55905617D01*
X41524678Y-55880235D01*
X41363919Y-55813646D01*
X41284273Y-55780656D01*
X41183019Y-55713000D01*
X41067911Y-55636088D01*
X40883912Y-55452089D01*
X40739345Y-55235728D01*
X40739344Y-55235727D01*
X40694245Y-55126847D01*
X40639765Y-54995322D01*
X40589000Y-54740107D01*
X40589000Y-54479893D01*
X40639765Y-54224678D01*
X40700388Y-54078323D01*
X40739344Y-53984273D01*
X40787315Y-53912479D01*
X40883912Y-53767911D01*
X41067911Y-53583912D01*
X41284272Y-53439345D01*
X41284273Y-53439344D01*
X41383852Y-53398097D01*
X41524678Y-53339765D01*
X41652286Y-53314382D01*
X41779891Y-53289000D01*
X42040109Y-53289000D01*
X42167715Y-53314383D01*
X42167715Y-53314383D01*
G37*
G36*
X61011000Y-55931000D02*
G01*
X58369000Y-55931000D01*
X58369000Y-53289000D01*
X61011000Y-53289000D01*
X61011000Y-55931000D01*
X61011000Y-55931000D01*
G37*
G36*
X68136000Y-55211000D02*
G01*
X66934000Y-55211000D01*
X66934000Y-54009000D01*
X68136000Y-54009000D01*
X68136000Y-55211000D01*
X68136000Y-55211000D01*
G37*
G36*
X65336000Y-55211000D02*
G01*
X64134000Y-55211000D01*
X64134000Y-54009000D01*
X65336000Y-54009000D01*
X65336000Y-55211000D01*
X65336000Y-55211000D01*
G37*
G36*
X123554499Y-54038445D02*
G01*
X123591995Y-54049820D01*
X123626554Y-54068292D01*
X123656847Y-54093153D01*
X123681708Y-54123446D01*
X123700180Y-54158005D01*
X123711555Y-54195501D01*
X123716000Y-54240638D01*
X123716000Y-54979362D01*
X123711555Y-55024499D01*
X123700180Y-55061995D01*
X123681708Y-55096554D01*
X123656847Y-55126847D01*
X123626554Y-55151708D01*
X123591995Y-55170180D01*
X123554499Y-55181555D01*
X123509362Y-55186000D01*
X122870638Y-55186000D01*
X122825501Y-55181555D01*
X122788005Y-55170180D01*
X122753446Y-55151708D01*
X122723153Y-55126847D01*
X122698292Y-55096554D01*
X122679820Y-55061995D01*
X122668445Y-55024499D01*
X122664000Y-54979362D01*
X122664000Y-54240638D01*
X122668445Y-54195501D01*
X122679820Y-54158005D01*
X122698292Y-54123446D01*
X122723153Y-54093153D01*
X122753446Y-54068292D01*
X122788005Y-54049820D01*
X122825501Y-54038445D01*
X122870638Y-54034000D01*
X123509362Y-54034000D01*
X123554499Y-54038445D01*
X123554499Y-54038445D01*
G37*
G36*
X131704499Y-52818445D02*
G01*
X131741995Y-52829820D01*
X131776554Y-52848292D01*
X131806847Y-52873153D01*
X131831708Y-52903446D01*
X131850180Y-52938005D01*
X131861555Y-52975501D01*
X131866000Y-53020638D01*
X131866000Y-53659362D01*
X131861555Y-53704499D01*
X131850180Y-53741995D01*
X131831708Y-53776554D01*
X131806847Y-53806847D01*
X131776554Y-53831708D01*
X131741995Y-53850180D01*
X131704499Y-53861555D01*
X131659362Y-53866000D01*
X130920638Y-53866000D01*
X130875501Y-53861555D01*
X130838005Y-53850180D01*
X130803446Y-53831708D01*
X130773153Y-53806847D01*
X130748292Y-53776554D01*
X130729820Y-53741995D01*
X130718445Y-53704499D01*
X130714000Y-53659362D01*
X130714000Y-53020638D01*
X130718445Y-52975501D01*
X130729820Y-52938005D01*
X130748292Y-52903446D01*
X130773153Y-52873153D01*
X130803446Y-52848292D01*
X130838005Y-52829820D01*
X130875501Y-52818445D01*
X130920638Y-52814000D01*
X131659362Y-52814000D01*
X131704499Y-52818445D01*
X131704499Y-52818445D01*
G37*
G36*
X129954499Y-52818445D02*
G01*
X129991995Y-52829820D01*
X130026554Y-52848292D01*
X130056847Y-52873153D01*
X130081708Y-52903446D01*
X130100180Y-52938005D01*
X130111555Y-52975501D01*
X130116000Y-53020638D01*
X130116000Y-53659362D01*
X130111555Y-53704499D01*
X130100180Y-53741995D01*
X130081708Y-53776554D01*
X130056847Y-53806847D01*
X130026554Y-53831708D01*
X129991995Y-53850180D01*
X129954499Y-53861555D01*
X129909362Y-53866000D01*
X129170638Y-53866000D01*
X129125501Y-53861555D01*
X129088005Y-53850180D01*
X129053446Y-53831708D01*
X129023153Y-53806847D01*
X128998292Y-53776554D01*
X128979820Y-53741995D01*
X128968445Y-53704499D01*
X128964000Y-53659362D01*
X128964000Y-53020638D01*
X128968445Y-52975501D01*
X128979820Y-52938005D01*
X128998292Y-52903446D01*
X129023153Y-52873153D01*
X129053446Y-52848292D01*
X129088005Y-52829820D01*
X129125501Y-52818445D01*
X129170638Y-52814000D01*
X129909362Y-52814000D01*
X129954499Y-52818445D01*
X129954499Y-52818445D01*
G37*
G36*
X128289499Y-52818445D02*
G01*
X128326995Y-52829820D01*
X128361554Y-52848292D01*
X128391847Y-52873153D01*
X128416708Y-52903446D01*
X128435180Y-52938005D01*
X128446555Y-52975501D01*
X128451000Y-53020638D01*
X128451000Y-53659362D01*
X128446555Y-53704499D01*
X128435180Y-53741995D01*
X128416708Y-53776554D01*
X128391847Y-53806847D01*
X128361554Y-53831708D01*
X128326995Y-53850180D01*
X128289499Y-53861555D01*
X128244362Y-53866000D01*
X127505638Y-53866000D01*
X127460501Y-53861555D01*
X127423005Y-53850180D01*
X127388446Y-53831708D01*
X127358153Y-53806847D01*
X127333292Y-53776554D01*
X127314820Y-53741995D01*
X127303445Y-53704499D01*
X127299000Y-53659362D01*
X127299000Y-53020638D01*
X127303445Y-52975501D01*
X127314820Y-52938005D01*
X127333292Y-52903446D01*
X127358153Y-52873153D01*
X127388446Y-52848292D01*
X127423005Y-52829820D01*
X127460501Y-52818445D01*
X127505638Y-52814000D01*
X128244362Y-52814000D01*
X128289499Y-52818445D01*
X128289499Y-52818445D01*
G37*
G36*
X126539499Y-52818445D02*
G01*
X126576995Y-52829820D01*
X126611554Y-52848292D01*
X126641847Y-52873153D01*
X126666708Y-52903446D01*
X126685180Y-52938005D01*
X126696555Y-52975501D01*
X126701000Y-53020638D01*
X126701000Y-53659362D01*
X126696555Y-53704499D01*
X126685180Y-53741995D01*
X126666708Y-53776554D01*
X126641847Y-53806847D01*
X126611554Y-53831708D01*
X126576995Y-53850180D01*
X126539499Y-53861555D01*
X126494362Y-53866000D01*
X125755638Y-53866000D01*
X125710501Y-53861555D01*
X125673005Y-53850180D01*
X125638446Y-53831708D01*
X125608153Y-53806847D01*
X125583292Y-53776554D01*
X125564820Y-53741995D01*
X125553445Y-53704499D01*
X125549000Y-53659362D01*
X125549000Y-53020638D01*
X125553445Y-52975501D01*
X125564820Y-52938005D01*
X125583292Y-52903446D01*
X125608153Y-52873153D01*
X125638446Y-52848292D01*
X125673005Y-52829820D01*
X125710501Y-52818445D01*
X125755638Y-52814000D01*
X126494362Y-52814000D01*
X126539499Y-52818445D01*
X126539499Y-52818445D01*
G37*
G36*
X32494098Y-48347033D02*
G01*
X32958350Y-48539332D01*
X32958352Y-48539333D01*
X33376168Y-48818509D01*
X33731491Y-49173832D01*
X34010667Y-49591648D01*
X34010668Y-49591650D01*
X34202967Y-50055902D01*
X34301000Y-50548747D01*
X34301000Y-51051253D01*
X34202967Y-51544098D01*
X34021182Y-51982966D01*
X34010667Y-52008352D01*
X33731491Y-52426168D01*
X33376168Y-52781491D01*
X32958352Y-53060667D01*
X32958351Y-53060668D01*
X32958350Y-53060668D01*
X32494098Y-53252967D01*
X32001253Y-53351000D01*
X31498747Y-53351000D01*
X31005902Y-53252967D01*
X30541650Y-53060668D01*
X30541649Y-53060668D01*
X30541648Y-53060667D01*
X30123832Y-52781491D01*
X29768509Y-52426168D01*
X29489333Y-52008352D01*
X29478818Y-51982966D01*
X29297033Y-51544098D01*
X29199000Y-51051253D01*
X29199000Y-50548747D01*
X29297033Y-50055902D01*
X29489332Y-49591650D01*
X29489333Y-49591648D01*
X29768509Y-49173832D01*
X30123832Y-48818509D01*
X30541648Y-48539333D01*
X30541650Y-48539332D01*
X31005902Y-48347033D01*
X31498747Y-48249000D01*
X32001253Y-48249000D01*
X32494098Y-48347033D01*
X32494098Y-48347033D01*
G37*
G36*
X79046564Y-51059389D02*
G01*
X79186866Y-51117504D01*
X79237835Y-51138616D01*
X79409973Y-51253635D01*
X79556365Y-51400027D01*
X79665942Y-51564020D01*
X79671385Y-51572167D01*
X79750611Y-51763436D01*
X79791000Y-51966484D01*
X79791000Y-52173516D01*
X79750611Y-52376564D01*
X79673922Y-52561708D01*
X79671384Y-52567835D01*
X79556365Y-52739973D01*
X79409973Y-52886365D01*
X79237835Y-53001384D01*
X79237834Y-53001385D01*
X79237833Y-53001385D01*
X79046564Y-53080611D01*
X78843516Y-53121000D01*
X78636484Y-53121000D01*
X78433436Y-53080611D01*
X78242167Y-53001385D01*
X78242166Y-53001385D01*
X78242165Y-53001384D01*
X78070027Y-52886365D01*
X77923635Y-52739973D01*
X77808616Y-52567835D01*
X77806078Y-52561708D01*
X77729389Y-52376564D01*
X77689000Y-52173516D01*
X77689000Y-51966484D01*
X77729389Y-51763436D01*
X77808615Y-51572167D01*
X77814059Y-51564020D01*
X77923635Y-51400027D01*
X78070027Y-51253635D01*
X78242165Y-51138616D01*
X78293134Y-51117504D01*
X78433436Y-51059389D01*
X78636484Y-51019000D01*
X78843516Y-51019000D01*
X79046564Y-51059389D01*
X79046564Y-51059389D01*
G37*
G36*
X98096564Y-50939389D02*
G01*
X98287833Y-51018615D01*
X98287835Y-51018616D01*
X98459973Y-51133635D01*
X98606365Y-51280027D01*
X98687197Y-51401000D01*
X98721385Y-51452167D01*
X98800611Y-51643436D01*
X98841000Y-51846484D01*
X98841000Y-52053516D01*
X98800611Y-52256564D01*
X98750905Y-52376565D01*
X98721384Y-52447835D01*
X98606365Y-52619973D01*
X98459973Y-52766365D01*
X98287835Y-52881384D01*
X98287834Y-52881385D01*
X98287833Y-52881385D01*
X98096564Y-52960611D01*
X97893516Y-53001000D01*
X97686484Y-53001000D01*
X97483436Y-52960611D01*
X97292167Y-52881385D01*
X97292166Y-52881385D01*
X97292165Y-52881384D01*
X97120027Y-52766365D01*
X96973635Y-52619973D01*
X96858616Y-52447835D01*
X96829095Y-52376565D01*
X96779389Y-52256564D01*
X96739000Y-52053516D01*
X96739000Y-51846484D01*
X96779389Y-51643436D01*
X96858615Y-51452167D01*
X96892804Y-51401000D01*
X96973635Y-51280027D01*
X97120027Y-51133635D01*
X97292165Y-51018616D01*
X97292167Y-51018615D01*
X97483436Y-50939389D01*
X97686484Y-50899000D01*
X97893516Y-50899000D01*
X98096564Y-50939389D01*
X98096564Y-50939389D01*
G37*
G36*
X142654499Y-51548445D02*
G01*
X142691995Y-51559820D01*
X142726554Y-51578292D01*
X142756847Y-51603153D01*
X142781708Y-51633446D01*
X142800180Y-51668005D01*
X142811555Y-51705501D01*
X142816000Y-51750638D01*
X142816000Y-52389362D01*
X142811555Y-52434499D01*
X142800180Y-52471995D01*
X142781708Y-52506554D01*
X142756847Y-52536847D01*
X142726554Y-52561708D01*
X142691995Y-52580180D01*
X142654499Y-52591555D01*
X142609362Y-52596000D01*
X141870638Y-52596000D01*
X141825501Y-52591555D01*
X141788005Y-52580180D01*
X141753446Y-52561708D01*
X141723153Y-52536847D01*
X141698292Y-52506554D01*
X141679820Y-52471995D01*
X141668445Y-52434499D01*
X141664000Y-52389362D01*
X141664000Y-51750638D01*
X141668445Y-51705501D01*
X141679820Y-51668005D01*
X141698292Y-51633446D01*
X141723153Y-51603153D01*
X141753446Y-51578292D01*
X141788005Y-51559820D01*
X141825501Y-51548445D01*
X141870638Y-51544000D01*
X142609362Y-51544000D01*
X142654499Y-51548445D01*
X142654499Y-51548445D01*
G37*
G36*
X140904499Y-51548445D02*
G01*
X140941995Y-51559820D01*
X140976554Y-51578292D01*
X141006847Y-51603153D01*
X141031708Y-51633446D01*
X141050180Y-51668005D01*
X141061555Y-51705501D01*
X141066000Y-51750638D01*
X141066000Y-52389362D01*
X141061555Y-52434499D01*
X141050180Y-52471995D01*
X141031708Y-52506554D01*
X141006847Y-52536847D01*
X140976554Y-52561708D01*
X140941995Y-52580180D01*
X140904499Y-52591555D01*
X140859362Y-52596000D01*
X140120638Y-52596000D01*
X140075501Y-52591555D01*
X140038005Y-52580180D01*
X140003446Y-52561708D01*
X139973153Y-52536847D01*
X139948292Y-52506554D01*
X139929820Y-52471995D01*
X139918445Y-52434499D01*
X139914000Y-52389362D01*
X139914000Y-51750638D01*
X139918445Y-51705501D01*
X139929820Y-51668005D01*
X139948292Y-51633446D01*
X139973153Y-51603153D01*
X140003446Y-51578292D01*
X140038005Y-51559820D01*
X140075501Y-51548445D01*
X140120638Y-51544000D01*
X140859362Y-51544000D01*
X140904499Y-51548445D01*
X140904499Y-51548445D01*
G37*
G36*
X159494098Y-47077033D02*
G01*
X159933411Y-47259002D01*
X159958352Y-47269333D01*
X160376168Y-47548509D01*
X160731491Y-47903832D01*
X160961854Y-48248595D01*
X161010668Y-48321650D01*
X161202967Y-48785902D01*
X161301000Y-49278747D01*
X161301000Y-49781253D01*
X161202967Y-50274098D01*
X161050496Y-50642196D01*
X161010667Y-50738352D01*
X160731491Y-51156168D01*
X160376168Y-51511491D01*
X159958352Y-51790667D01*
X159958351Y-51790668D01*
X159958350Y-51790668D01*
X159494098Y-51982967D01*
X159001253Y-52081000D01*
X158498747Y-52081000D01*
X158005902Y-51982967D01*
X157541650Y-51790668D01*
X157541649Y-51790668D01*
X157541648Y-51790667D01*
X157123832Y-51511491D01*
X156768509Y-51156168D01*
X156489333Y-50738352D01*
X156449504Y-50642196D01*
X156297033Y-50274098D01*
X156199000Y-49781253D01*
X156199000Y-49278747D01*
X156297033Y-48785902D01*
X156489332Y-48321650D01*
X156538146Y-48248595D01*
X156768509Y-47903832D01*
X157123832Y-47548509D01*
X157541648Y-47269333D01*
X157566589Y-47259002D01*
X158005902Y-47077033D01*
X158498747Y-46979000D01*
X159001253Y-46979000D01*
X159494098Y-47077033D01*
X159494098Y-47077033D01*
G37*
G36*
X68136000Y-51401000D02*
G01*
X66934000Y-51401000D01*
X66934000Y-50199000D01*
X68136000Y-50199000D01*
X68136000Y-51401000D01*
X68136000Y-51401000D01*
G37*
G36*
X65336000Y-51401000D02*
G01*
X64134000Y-51401000D01*
X64134000Y-50199000D01*
X65336000Y-50199000D01*
X65336000Y-51401000D01*
X65336000Y-51401000D01*
G37*
G36*
X119511000Y-49761000D02*
G01*
X118609000Y-49761000D01*
X118609000Y-48759000D01*
X119511000Y-48759000D01*
X119511000Y-49761000D01*
X119511000Y-49761000D01*
G37*
G36*
X117611000Y-49761000D02*
G01*
X116709000Y-49761000D01*
X116709000Y-48759000D01*
X117611000Y-48759000D01*
X117611000Y-49761000D01*
X117611000Y-49761000D01*
G37*
G36*
X110114928Y-47171764D02*
G01*
X110136009Y-47178160D01*
X110155445Y-47188548D01*
X110172476Y-47202524D01*
X110186452Y-47219555D01*
X110196840Y-47238991D01*
X110203236Y-47260072D01*
X110206000Y-47288140D01*
X110206000Y-49101860D01*
X110203236Y-49129928D01*
X110196840Y-49151009D01*
X110186452Y-49170445D01*
X110172476Y-49187476D01*
X110155445Y-49201452D01*
X110136009Y-49211840D01*
X110114928Y-49218236D01*
X110086860Y-49221000D01*
X109623140Y-49221000D01*
X109595072Y-49218236D01*
X109573991Y-49211840D01*
X109554555Y-49201452D01*
X109537524Y-49187476D01*
X109523548Y-49170445D01*
X109513160Y-49151009D01*
X109506764Y-49129928D01*
X109504000Y-49101860D01*
X109504000Y-47288140D01*
X109506764Y-47260072D01*
X109513160Y-47238991D01*
X109523548Y-47219555D01*
X109537524Y-47202524D01*
X109554555Y-47188548D01*
X109573991Y-47178160D01*
X109595072Y-47171764D01*
X109623140Y-47169000D01*
X110086860Y-47169000D01*
X110114928Y-47171764D01*
X110114928Y-47171764D01*
G37*
G36*
X108844928Y-47171764D02*
G01*
X108866009Y-47178160D01*
X108885445Y-47188548D01*
X108902476Y-47202524D01*
X108916452Y-47219555D01*
X108926840Y-47238991D01*
X108933236Y-47260072D01*
X108936000Y-47288140D01*
X108936000Y-49101860D01*
X108933236Y-49129928D01*
X108926840Y-49151009D01*
X108916452Y-49170445D01*
X108902476Y-49187476D01*
X108885445Y-49201452D01*
X108866009Y-49211840D01*
X108844928Y-49218236D01*
X108816860Y-49221000D01*
X108353140Y-49221000D01*
X108325072Y-49218236D01*
X108303991Y-49211840D01*
X108284555Y-49201452D01*
X108267524Y-49187476D01*
X108253548Y-49170445D01*
X108243160Y-49151009D01*
X108236764Y-49129928D01*
X108234000Y-49101860D01*
X108234000Y-47288140D01*
X108236764Y-47260072D01*
X108243160Y-47238991D01*
X108253548Y-47219555D01*
X108267524Y-47202524D01*
X108284555Y-47188548D01*
X108303991Y-47178160D01*
X108325072Y-47171764D01*
X108353140Y-47169000D01*
X108816860Y-47169000D01*
X108844928Y-47171764D01*
X108844928Y-47171764D01*
G37*
G36*
X112654928Y-47171764D02*
G01*
X112676009Y-47178160D01*
X112695445Y-47188548D01*
X112712476Y-47202524D01*
X112726452Y-47219555D01*
X112736840Y-47238991D01*
X112743236Y-47260072D01*
X112746000Y-47288140D01*
X112746000Y-49101860D01*
X112743236Y-49129928D01*
X112736840Y-49151009D01*
X112726452Y-49170445D01*
X112712476Y-49187476D01*
X112695445Y-49201452D01*
X112676009Y-49211840D01*
X112654928Y-49218236D01*
X112626860Y-49221000D01*
X112163140Y-49221000D01*
X112135072Y-49218236D01*
X112113991Y-49211840D01*
X112094555Y-49201452D01*
X112077524Y-49187476D01*
X112063548Y-49170445D01*
X112053160Y-49151009D01*
X112046764Y-49129928D01*
X112044000Y-49101860D01*
X112044000Y-47288140D01*
X112046764Y-47260072D01*
X112053160Y-47238991D01*
X112063548Y-47219555D01*
X112077524Y-47202524D01*
X112094555Y-47188548D01*
X112113991Y-47178160D01*
X112135072Y-47171764D01*
X112163140Y-47169000D01*
X112626860Y-47169000D01*
X112654928Y-47171764D01*
X112654928Y-47171764D01*
G37*
G36*
X111384928Y-47171764D02*
G01*
X111406009Y-47178160D01*
X111425445Y-47188548D01*
X111442476Y-47202524D01*
X111456452Y-47219555D01*
X111466840Y-47238991D01*
X111473236Y-47260072D01*
X111476000Y-47288140D01*
X111476000Y-49101860D01*
X111473236Y-49129928D01*
X111466840Y-49151009D01*
X111456452Y-49170445D01*
X111442476Y-49187476D01*
X111425445Y-49201452D01*
X111406009Y-49211840D01*
X111384928Y-49218236D01*
X111356860Y-49221000D01*
X110893140Y-49221000D01*
X110865072Y-49218236D01*
X110843991Y-49211840D01*
X110824555Y-49201452D01*
X110807524Y-49187476D01*
X110793548Y-49170445D01*
X110783160Y-49151009D01*
X110776764Y-49129928D01*
X110774000Y-49101860D01*
X110774000Y-47288140D01*
X110776764Y-47260072D01*
X110783160Y-47238991D01*
X110793548Y-47219555D01*
X110807524Y-47202524D01*
X110824555Y-47188548D01*
X110843991Y-47178160D01*
X110865072Y-47171764D01*
X110893140Y-47169000D01*
X111356860Y-47169000D01*
X111384928Y-47171764D01*
X111384928Y-47171764D01*
G37*
G36*
X142352915Y-47467334D02*
G01*
X142461491Y-47500271D01*
X142461494Y-47500272D01*
X142497600Y-47519571D01*
X142561556Y-47553756D01*
X142649264Y-47625736D01*
X142721244Y-47713443D01*
X142746663Y-47761000D01*
X142774728Y-47813505D01*
X142774729Y-47813508D01*
X142807666Y-47922084D01*
X142816000Y-48006702D01*
X142816000Y-48513297D01*
X142807666Y-48597916D01*
X142775252Y-48704767D01*
X142774728Y-48706495D01*
X142764761Y-48725141D01*
X142721244Y-48806557D01*
X142649264Y-48894264D01*
X142561557Y-48966244D01*
X142497601Y-49000429D01*
X142461495Y-49019728D01*
X142461492Y-49019729D01*
X142352916Y-49052666D01*
X142240000Y-49063787D01*
X142127085Y-49052666D01*
X142018509Y-49019729D01*
X142018506Y-49019728D01*
X141982400Y-49000429D01*
X141918444Y-48966244D01*
X141830737Y-48894264D01*
X141758757Y-48806557D01*
X141715239Y-48725141D01*
X141701625Y-48704766D01*
X141684298Y-48687439D01*
X141663924Y-48673826D01*
X141641285Y-48664448D01*
X141617252Y-48659668D01*
X141592748Y-48659668D01*
X141568715Y-48664448D01*
X141546076Y-48673826D01*
X141525701Y-48687440D01*
X141508374Y-48704767D01*
X141494761Y-48725141D01*
X141451244Y-48806557D01*
X141379264Y-48894264D01*
X141291557Y-48966244D01*
X141227601Y-49000429D01*
X141191495Y-49019728D01*
X141191492Y-49019729D01*
X141082916Y-49052666D01*
X140970000Y-49063787D01*
X140857085Y-49052666D01*
X140748509Y-49019729D01*
X140748506Y-49019728D01*
X140712400Y-49000429D01*
X140648444Y-48966244D01*
X140560737Y-48894264D01*
X140497622Y-48817359D01*
X140480297Y-48800034D01*
X140459923Y-48786420D01*
X140437284Y-48777043D01*
X140413250Y-48772263D01*
X140388746Y-48772263D01*
X140364713Y-48777044D01*
X140342074Y-48786421D01*
X140321700Y-48800035D01*
X140304373Y-48817362D01*
X140290759Y-48837736D01*
X140281382Y-48860375D01*
X140276000Y-48896660D01*
X140276000Y-49061000D01*
X139124000Y-49061000D01*
X139124000Y-47459000D01*
X140276000Y-47459000D01*
X140276000Y-47623341D01*
X140278402Y-47647727D01*
X140285515Y-47671176D01*
X140297066Y-47692787D01*
X140312611Y-47711729D01*
X140331553Y-47727274D01*
X140353164Y-47738825D01*
X140376613Y-47745938D01*
X140400999Y-47748340D01*
X140425385Y-47745938D01*
X140448834Y-47738825D01*
X140470445Y-47727274D01*
X140489387Y-47711729D01*
X140497608Y-47702657D01*
X140560736Y-47625736D01*
X140648443Y-47553756D01*
X140712399Y-47519571D01*
X140748505Y-47500272D01*
X140748508Y-47500271D01*
X140857084Y-47467334D01*
X140970000Y-47456213D01*
X141082915Y-47467334D01*
X141191491Y-47500271D01*
X141191494Y-47500272D01*
X141227600Y-47519571D01*
X141291556Y-47553756D01*
X141379264Y-47625736D01*
X141451244Y-47713443D01*
X141490321Y-47786552D01*
X141494761Y-47794859D01*
X141508375Y-47815234D01*
X141525702Y-47832561D01*
X141546076Y-47846174D01*
X141568715Y-47855552D01*
X141592748Y-47860332D01*
X141617252Y-47860332D01*
X141641285Y-47855552D01*
X141663924Y-47846174D01*
X141684299Y-47832560D01*
X141701626Y-47815233D01*
X141715239Y-47794860D01*
X141758756Y-47713444D01*
X141830736Y-47625736D01*
X141918443Y-47553756D01*
X141982399Y-47519571D01*
X142018505Y-47500272D01*
X142018508Y-47500271D01*
X142127084Y-47467334D01*
X142240000Y-47456213D01*
X142352915Y-47467334D01*
X142352915Y-47467334D01*
G37*
G36*
X130349499Y-47174001D02*
G01*
X130386995Y-47185376D01*
X130421554Y-47203848D01*
X130451847Y-47228709D01*
X130476708Y-47259002D01*
X130495180Y-47293561D01*
X130506555Y-47331057D01*
X130511000Y-47376194D01*
X130511000Y-48014918D01*
X130506555Y-48060055D01*
X130495180Y-48097551D01*
X130476708Y-48132110D01*
X130451847Y-48162403D01*
X130421554Y-48187264D01*
X130386995Y-48205736D01*
X130349499Y-48217111D01*
X130304362Y-48221556D01*
X129565638Y-48221556D01*
X129520501Y-48217111D01*
X129483005Y-48205736D01*
X129448446Y-48187264D01*
X129418153Y-48162403D01*
X129393292Y-48132110D01*
X129374820Y-48097551D01*
X129363445Y-48060055D01*
X129359000Y-48014918D01*
X129359000Y-47376194D01*
X129363445Y-47331057D01*
X129374820Y-47293561D01*
X129393292Y-47259002D01*
X129418153Y-47228709D01*
X129448446Y-47203848D01*
X129483005Y-47185376D01*
X129520501Y-47174001D01*
X129565638Y-47169556D01*
X130304362Y-47169556D01*
X130349499Y-47174001D01*
X130349499Y-47174001D01*
G37*
G36*
X132099499Y-47174001D02*
G01*
X132136995Y-47185376D01*
X132171554Y-47203848D01*
X132201847Y-47228709D01*
X132226708Y-47259002D01*
X132245180Y-47293561D01*
X132256555Y-47331057D01*
X132261000Y-47376194D01*
X132261000Y-48014918D01*
X132256555Y-48060055D01*
X132245180Y-48097551D01*
X132226708Y-48132110D01*
X132201847Y-48162403D01*
X132171554Y-48187264D01*
X132136995Y-48205736D01*
X132099499Y-48217111D01*
X132054362Y-48221556D01*
X131315638Y-48221556D01*
X131270501Y-48217111D01*
X131233005Y-48205736D01*
X131198446Y-48187264D01*
X131168153Y-48162403D01*
X131143292Y-48132110D01*
X131124820Y-48097551D01*
X131113445Y-48060055D01*
X131109000Y-48014918D01*
X131109000Y-47376194D01*
X131113445Y-47331057D01*
X131124820Y-47293561D01*
X131143292Y-47259002D01*
X131168153Y-47228709D01*
X131198446Y-47203848D01*
X131233005Y-47185376D01*
X131270501Y-47174001D01*
X131315638Y-47169556D01*
X132054362Y-47169556D01*
X132099499Y-47174001D01*
X132099499Y-47174001D01*
G37*
G36*
X118561000Y-47761000D02*
G01*
X117659000Y-47761000D01*
X117659000Y-46759000D01*
X118561000Y-46759000D01*
X118561000Y-47761000D01*
X118561000Y-47761000D01*
G37*
G36*
X152031000Y-47631000D02*
G01*
X150229000Y-47631000D01*
X150229000Y-44229000D01*
X152031000Y-44229000D01*
X152031000Y-47631000D01*
X152031000Y-47631000D01*
G37*
G36*
X68171000Y-47591000D02*
G01*
X66969000Y-47591000D01*
X66969000Y-46389000D01*
X68171000Y-46389000D01*
X68171000Y-47591000D01*
X68171000Y-47591000D01*
G37*
G36*
X65371000Y-47591000D02*
G01*
X64169000Y-47591000D01*
X64169000Y-46389000D01*
X65371000Y-46389000D01*
X65371000Y-47591000D01*
X65371000Y-47591000D01*
G37*
G36*
X132099499Y-45452440D02*
G01*
X132136995Y-45463815D01*
X132171554Y-45482287D01*
X132201847Y-45507148D01*
X132226708Y-45537441D01*
X132245180Y-45572000D01*
X132256555Y-45609496D01*
X132261000Y-45654633D01*
X132261000Y-46293357D01*
X132256555Y-46338494D01*
X132245180Y-46375990D01*
X132226708Y-46410549D01*
X132201847Y-46440842D01*
X132171554Y-46465703D01*
X132136995Y-46484175D01*
X132099499Y-46495550D01*
X132054362Y-46499995D01*
X131315638Y-46499995D01*
X131270501Y-46495550D01*
X131233005Y-46484175D01*
X131198446Y-46465703D01*
X131168153Y-46440842D01*
X131143292Y-46410549D01*
X131124820Y-46375990D01*
X131113445Y-46338494D01*
X131109000Y-46293357D01*
X131109000Y-45654633D01*
X131113445Y-45609496D01*
X131124820Y-45572000D01*
X131143292Y-45537441D01*
X131168153Y-45507148D01*
X131198446Y-45482287D01*
X131233005Y-45463815D01*
X131270501Y-45452440D01*
X131315638Y-45447995D01*
X132054362Y-45447995D01*
X132099499Y-45452440D01*
X132099499Y-45452440D01*
G37*
G36*
X130349499Y-45452440D02*
G01*
X130386995Y-45463815D01*
X130421554Y-45482287D01*
X130451847Y-45507148D01*
X130476708Y-45537441D01*
X130495180Y-45572000D01*
X130506555Y-45609496D01*
X130511000Y-45654633D01*
X130511000Y-46293357D01*
X130506555Y-46338494D01*
X130495180Y-46375990D01*
X130476708Y-46410549D01*
X130451847Y-46440842D01*
X130421554Y-46465703D01*
X130386995Y-46484175D01*
X130349499Y-46495550D01*
X130304362Y-46499995D01*
X129565638Y-46499995D01*
X129520501Y-46495550D01*
X129483005Y-46484175D01*
X129448446Y-46465703D01*
X129418153Y-46440842D01*
X129393292Y-46410549D01*
X129374820Y-46375990D01*
X129363445Y-46338494D01*
X129359000Y-46293357D01*
X129359000Y-45654633D01*
X129363445Y-45609496D01*
X129374820Y-45572000D01*
X129393292Y-45537441D01*
X129418153Y-45507148D01*
X129448446Y-45482287D01*
X129483005Y-45463815D01*
X129520501Y-45452440D01*
X129565638Y-45447995D01*
X130304362Y-45447995D01*
X130349499Y-45452440D01*
X130349499Y-45452440D01*
G37*
G36*
X79046564Y-43559389D02*
G01*
X79225810Y-43633635D01*
X79237835Y-43638616D01*
X79409973Y-43753635D01*
X79556365Y-43900027D01*
X79591203Y-43952165D01*
X79671385Y-44072167D01*
X79750611Y-44263436D01*
X79791000Y-44466484D01*
X79791000Y-44673516D01*
X79750611Y-44876564D01*
X79671385Y-45067833D01*
X79671384Y-45067835D01*
X79556365Y-45239973D01*
X79409973Y-45386365D01*
X79237835Y-45501384D01*
X79237834Y-45501385D01*
X79237833Y-45501385D01*
X79046564Y-45580611D01*
X78843516Y-45621000D01*
X78636484Y-45621000D01*
X78433436Y-45580611D01*
X78242167Y-45501385D01*
X78242166Y-45501385D01*
X78242165Y-45501384D01*
X78070027Y-45386365D01*
X77923635Y-45239973D01*
X77808616Y-45067835D01*
X77808615Y-45067833D01*
X77729389Y-44876564D01*
X77689000Y-44673516D01*
X77689000Y-44466484D01*
X77729389Y-44263436D01*
X77808615Y-44072167D01*
X77888798Y-43952165D01*
X77923635Y-43900027D01*
X78070027Y-43753635D01*
X78242165Y-43638616D01*
X78254190Y-43633635D01*
X78433436Y-43559389D01*
X78636484Y-43519000D01*
X78843516Y-43519000D01*
X79046564Y-43559389D01*
X79046564Y-43559389D01*
G37*
G36*
X98096564Y-43439389D02*
G01*
X98240526Y-43499020D01*
X98287835Y-43518616D01*
X98459973Y-43633635D01*
X98606365Y-43780027D01*
X98712007Y-43938131D01*
X98721385Y-43952167D01*
X98800611Y-44143436D01*
X98841000Y-44346484D01*
X98841000Y-44553516D01*
X98800611Y-44756564D01*
X98750905Y-44876565D01*
X98721384Y-44947835D01*
X98606365Y-45119973D01*
X98459973Y-45266365D01*
X98287835Y-45381384D01*
X98287834Y-45381385D01*
X98287833Y-45381385D01*
X98096564Y-45460611D01*
X97893516Y-45501000D01*
X97686484Y-45501000D01*
X97483436Y-45460611D01*
X97292167Y-45381385D01*
X97292166Y-45381385D01*
X97292165Y-45381384D01*
X97120027Y-45266365D01*
X96973635Y-45119973D01*
X96858616Y-44947835D01*
X96829095Y-44876565D01*
X96779389Y-44756564D01*
X96739000Y-44553516D01*
X96739000Y-44346484D01*
X96779389Y-44143436D01*
X96858615Y-43952167D01*
X96867994Y-43938131D01*
X96973635Y-43780027D01*
X97120027Y-43633635D01*
X97292165Y-43518616D01*
X97339474Y-43499020D01*
X97483436Y-43439389D01*
X97686484Y-43399000D01*
X97893516Y-43399000D01*
X98096564Y-43439389D01*
X98096564Y-43439389D01*
G37*
G36*
X132099499Y-43730885D02*
G01*
X132136995Y-43742260D01*
X132171554Y-43760732D01*
X132201847Y-43785593D01*
X132226708Y-43815886D01*
X132245180Y-43850445D01*
X132256555Y-43887941D01*
X132261000Y-43933078D01*
X132261000Y-44571802D01*
X132256555Y-44616939D01*
X132245180Y-44654435D01*
X132226708Y-44688994D01*
X132201847Y-44719287D01*
X132171554Y-44744148D01*
X132136995Y-44762620D01*
X132099499Y-44773995D01*
X132054362Y-44778440D01*
X131315638Y-44778440D01*
X131270501Y-44773995D01*
X131233005Y-44762620D01*
X131198446Y-44744148D01*
X131168153Y-44719287D01*
X131143292Y-44688994D01*
X131124820Y-44654435D01*
X131113445Y-44616939D01*
X131109000Y-44571802D01*
X131109000Y-43933078D01*
X131113445Y-43887941D01*
X131124820Y-43850445D01*
X131143292Y-43815886D01*
X131168153Y-43785593D01*
X131198446Y-43760732D01*
X131233005Y-43742260D01*
X131270501Y-43730885D01*
X131315638Y-43726440D01*
X132054362Y-43726440D01*
X132099499Y-43730885D01*
X132099499Y-43730885D01*
G37*
G36*
X130349499Y-43730885D02*
G01*
X130386995Y-43742260D01*
X130421554Y-43760732D01*
X130451847Y-43785593D01*
X130476708Y-43815886D01*
X130495180Y-43850445D01*
X130506555Y-43887941D01*
X130511000Y-43933078D01*
X130511000Y-44571802D01*
X130506555Y-44616939D01*
X130495180Y-44654435D01*
X130476708Y-44688994D01*
X130451847Y-44719287D01*
X130421554Y-44744148D01*
X130386995Y-44762620D01*
X130349499Y-44773995D01*
X130304362Y-44778440D01*
X129565638Y-44778440D01*
X129520501Y-44773995D01*
X129483005Y-44762620D01*
X129448446Y-44744148D01*
X129418153Y-44719287D01*
X129393292Y-44688994D01*
X129374820Y-44654435D01*
X129363445Y-44616939D01*
X129359000Y-44571802D01*
X129359000Y-43933078D01*
X129363445Y-43887941D01*
X129374820Y-43850445D01*
X129393292Y-43815886D01*
X129418153Y-43785593D01*
X129448446Y-43760732D01*
X129483005Y-43742260D01*
X129520501Y-43730885D01*
X129565638Y-43726440D01*
X130304362Y-43726440D01*
X130349499Y-43730885D01*
X130349499Y-43730885D01*
G37*
G36*
X145144499Y-43483445D02*
G01*
X145181995Y-43494820D01*
X145216554Y-43513292D01*
X145246847Y-43538153D01*
X145271708Y-43568446D01*
X145290180Y-43603005D01*
X145301555Y-43640501D01*
X145306000Y-43685638D01*
X145306000Y-44424362D01*
X145301555Y-44469499D01*
X145290180Y-44506995D01*
X145271708Y-44541554D01*
X145246847Y-44571847D01*
X145216554Y-44596708D01*
X145181995Y-44615180D01*
X145144499Y-44626555D01*
X145099362Y-44631000D01*
X144460638Y-44631000D01*
X144415501Y-44626555D01*
X144378005Y-44615180D01*
X144343446Y-44596708D01*
X144313153Y-44571847D01*
X144288292Y-44541554D01*
X144269820Y-44506995D01*
X144258445Y-44469499D01*
X144254000Y-44424362D01*
X144254000Y-43685638D01*
X144258445Y-43640501D01*
X144269820Y-43603005D01*
X144288292Y-43568446D01*
X144313153Y-43538153D01*
X144343446Y-43513292D01*
X144378005Y-43494820D01*
X144415501Y-43483445D01*
X144460638Y-43479000D01*
X145099362Y-43479000D01*
X145144499Y-43483445D01*
X145144499Y-43483445D01*
G37*
G36*
X111384928Y-42221764D02*
G01*
X111406009Y-42228160D01*
X111425445Y-42238548D01*
X111442476Y-42252524D01*
X111456452Y-42269555D01*
X111466840Y-42288991D01*
X111473236Y-42310072D01*
X111476000Y-42338140D01*
X111476000Y-44151860D01*
X111473236Y-44179928D01*
X111466840Y-44201009D01*
X111456452Y-44220445D01*
X111442476Y-44237476D01*
X111425445Y-44251452D01*
X111406009Y-44261840D01*
X111384928Y-44268236D01*
X111356860Y-44271000D01*
X110893140Y-44271000D01*
X110865072Y-44268236D01*
X110843991Y-44261840D01*
X110824555Y-44251452D01*
X110807524Y-44237476D01*
X110793548Y-44220445D01*
X110783160Y-44201009D01*
X110776764Y-44179928D01*
X110774000Y-44151860D01*
X110774000Y-42338140D01*
X110776764Y-42310072D01*
X110783160Y-42288991D01*
X110793548Y-42269555D01*
X110807524Y-42252524D01*
X110824555Y-42238548D01*
X110843991Y-42228160D01*
X110865072Y-42221764D01*
X110893140Y-42219000D01*
X111356860Y-42219000D01*
X111384928Y-42221764D01*
X111384928Y-42221764D01*
G37*
G36*
X108844928Y-42221764D02*
G01*
X108866009Y-42228160D01*
X108885445Y-42238548D01*
X108902476Y-42252524D01*
X108916452Y-42269555D01*
X108926840Y-42288991D01*
X108933236Y-42310072D01*
X108936000Y-42338140D01*
X108936000Y-44151860D01*
X108933236Y-44179928D01*
X108926840Y-44201009D01*
X108916452Y-44220445D01*
X108902476Y-44237476D01*
X108885445Y-44251452D01*
X108866009Y-44261840D01*
X108844928Y-44268236D01*
X108816860Y-44271000D01*
X108353140Y-44271000D01*
X108325072Y-44268236D01*
X108303991Y-44261840D01*
X108284555Y-44251452D01*
X108267524Y-44237476D01*
X108253548Y-44220445D01*
X108243160Y-44201009D01*
X108236764Y-44179928D01*
X108234000Y-44151860D01*
X108234000Y-42338140D01*
X108236764Y-42310072D01*
X108243160Y-42288991D01*
X108253548Y-42269555D01*
X108267524Y-42252524D01*
X108284555Y-42238548D01*
X108303991Y-42228160D01*
X108325072Y-42221764D01*
X108353140Y-42219000D01*
X108816860Y-42219000D01*
X108844928Y-42221764D01*
X108844928Y-42221764D01*
G37*
G36*
X110114928Y-42221764D02*
G01*
X110136009Y-42228160D01*
X110155445Y-42238548D01*
X110172476Y-42252524D01*
X110186452Y-42269555D01*
X110196840Y-42288991D01*
X110203236Y-42310072D01*
X110206000Y-42338140D01*
X110206000Y-44151860D01*
X110203236Y-44179928D01*
X110196840Y-44201009D01*
X110186452Y-44220445D01*
X110172476Y-44237476D01*
X110155445Y-44251452D01*
X110136009Y-44261840D01*
X110114928Y-44268236D01*
X110086860Y-44271000D01*
X109623140Y-44271000D01*
X109595072Y-44268236D01*
X109573991Y-44261840D01*
X109554555Y-44251452D01*
X109537524Y-44237476D01*
X109523548Y-44220445D01*
X109513160Y-44201009D01*
X109506764Y-44179928D01*
X109504000Y-44151860D01*
X109504000Y-42338140D01*
X109506764Y-42310072D01*
X109513160Y-42288991D01*
X109523548Y-42269555D01*
X109537524Y-42252524D01*
X109554555Y-42238548D01*
X109573991Y-42228160D01*
X109595072Y-42221764D01*
X109623140Y-42219000D01*
X110086860Y-42219000D01*
X110114928Y-42221764D01*
X110114928Y-42221764D01*
G37*
G36*
X112654928Y-42221764D02*
G01*
X112676009Y-42228160D01*
X112695445Y-42238548D01*
X112712476Y-42252524D01*
X112726452Y-42269555D01*
X112736840Y-42288991D01*
X112743236Y-42310072D01*
X112746000Y-42338140D01*
X112746000Y-44151860D01*
X112743236Y-44179928D01*
X112736840Y-44201009D01*
X112726452Y-44220445D01*
X112712476Y-44237476D01*
X112695445Y-44251452D01*
X112676009Y-44261840D01*
X112654928Y-44268236D01*
X112626860Y-44271000D01*
X112163140Y-44271000D01*
X112135072Y-44268236D01*
X112113991Y-44261840D01*
X112094555Y-44251452D01*
X112077524Y-44237476D01*
X112063548Y-44220445D01*
X112053160Y-44201009D01*
X112046764Y-44179928D01*
X112044000Y-44151860D01*
X112044000Y-42338140D01*
X112046764Y-42310072D01*
X112053160Y-42288991D01*
X112063548Y-42269555D01*
X112077524Y-42252524D01*
X112094555Y-42238548D01*
X112113991Y-42228160D01*
X112135072Y-42221764D01*
X112163140Y-42219000D01*
X112626860Y-42219000D01*
X112654928Y-42221764D01*
X112654928Y-42221764D01*
G37*
G36*
X117891000Y-44231000D02*
G01*
X115789000Y-44231000D01*
X115789000Y-42129000D01*
X117891000Y-42129000D01*
X117891000Y-44231000D01*
X117891000Y-44231000D01*
G37*
G36*
X127306564Y-42169389D02*
G01*
X127458587Y-42232359D01*
X127497835Y-42248616D01*
X127558260Y-42288991D01*
X127669973Y-42363635D01*
X127816365Y-42510027D01*
X127931385Y-42682167D01*
X128010611Y-42873436D01*
X128051000Y-43076484D01*
X128051000Y-43283516D01*
X128010611Y-43486564D01*
X127947629Y-43638616D01*
X127931384Y-43677835D01*
X127816365Y-43849973D01*
X127669973Y-43996365D01*
X127497835Y-44111384D01*
X127497834Y-44111385D01*
X127497833Y-44111385D01*
X127306564Y-44190611D01*
X127103516Y-44231000D01*
X126896484Y-44231000D01*
X126693436Y-44190611D01*
X126502167Y-44111385D01*
X126502166Y-44111385D01*
X126502165Y-44111384D01*
X126330027Y-43996365D01*
X126183635Y-43849973D01*
X126068616Y-43677835D01*
X126052371Y-43638616D01*
X125989389Y-43486564D01*
X125949000Y-43283516D01*
X125949000Y-43076484D01*
X125989389Y-42873436D01*
X126068615Y-42682167D01*
X126183635Y-42510027D01*
X126330027Y-42363635D01*
X126441740Y-42288991D01*
X126502165Y-42248616D01*
X126541413Y-42232359D01*
X126693436Y-42169389D01*
X126896484Y-42129000D01*
X127103516Y-42129000D01*
X127306564Y-42169389D01*
X127306564Y-42169389D01*
G37*
G36*
X119686564Y-42169389D02*
G01*
X119838587Y-42232359D01*
X119877835Y-42248616D01*
X119938260Y-42288991D01*
X120049973Y-42363635D01*
X120196365Y-42510027D01*
X120311385Y-42682167D01*
X120390611Y-42873436D01*
X120431000Y-43076484D01*
X120431000Y-43283516D01*
X120390611Y-43486564D01*
X120327629Y-43638616D01*
X120311384Y-43677835D01*
X120196365Y-43849973D01*
X120049973Y-43996365D01*
X119877835Y-44111384D01*
X119877834Y-44111385D01*
X119877833Y-44111385D01*
X119686564Y-44190611D01*
X119483516Y-44231000D01*
X119276484Y-44231000D01*
X119073436Y-44190611D01*
X118882167Y-44111385D01*
X118882166Y-44111385D01*
X118882165Y-44111384D01*
X118710027Y-43996365D01*
X118563635Y-43849973D01*
X118448616Y-43677835D01*
X118432371Y-43638616D01*
X118369389Y-43486564D01*
X118329000Y-43283516D01*
X118329000Y-43076484D01*
X118369389Y-42873436D01*
X118448615Y-42682167D01*
X118563635Y-42510027D01*
X118710027Y-42363635D01*
X118821740Y-42288991D01*
X118882165Y-42248616D01*
X118921413Y-42232359D01*
X119073436Y-42169389D01*
X119276484Y-42129000D01*
X119483516Y-42129000D01*
X119686564Y-42169389D01*
X119686564Y-42169389D01*
G37*
G36*
X65371000Y-43781000D02*
G01*
X64169000Y-43781000D01*
X64169000Y-42579000D01*
X65371000Y-42579000D01*
X65371000Y-43781000D01*
X65371000Y-43781000D01*
G37*
G36*
X68171000Y-43781000D02*
G01*
X66969000Y-43781000D01*
X66969000Y-42579000D01*
X68171000Y-42579000D01*
X68171000Y-43781000D01*
X68171000Y-43781000D01*
G37*
G36*
X140501000Y-43571000D02*
G01*
X138899000Y-43571000D01*
X138899000Y-41469000D01*
X140501000Y-41469000D01*
X140501000Y-43571000D01*
X140501000Y-43571000D01*
G37*
G36*
X142801000Y-43571000D02*
G01*
X141199000Y-43571000D01*
X141199000Y-41469000D01*
X142801000Y-41469000D01*
X142801000Y-43571000D01*
X142801000Y-43571000D01*
G37*
G36*
X138201000Y-43571000D02*
G01*
X136599000Y-43571000D01*
X136599000Y-41469000D01*
X138201000Y-41469000D01*
X138201000Y-43571000D01*
X138201000Y-43571000D01*
G37*
G36*
X61011000Y-43231000D02*
G01*
X58369000Y-43231000D01*
X58369000Y-40589000D01*
X61011000Y-40589000D01*
X61011000Y-43231000D01*
X61011000Y-43231000D01*
G37*
G36*
X42142208Y-40609309D02*
G01*
X42295322Y-40639765D01*
X42433487Y-40696995D01*
X42535727Y-40739344D01*
X42569405Y-40761847D01*
X42752089Y-40883912D01*
X42936088Y-41067911D01*
X42973324Y-41123639D01*
X43080656Y-41284273D01*
X43099711Y-41330277D01*
X43180235Y-41524678D01*
X43180235Y-41524680D01*
X43231000Y-41779891D01*
X43231000Y-42040109D01*
X43205882Y-42166386D01*
X43180235Y-42295322D01*
X43139154Y-42394500D01*
X43080656Y-42535727D01*
X43080655Y-42535728D01*
X42936088Y-42752089D01*
X42752089Y-42936088D01*
X42637637Y-43012562D01*
X42535727Y-43080656D01*
X42436148Y-43121903D01*
X42295322Y-43180235D01*
X42167715Y-43205617D01*
X42040109Y-43231000D01*
X41779891Y-43231000D01*
X41652285Y-43205617D01*
X41524678Y-43180235D01*
X41383852Y-43121903D01*
X41284273Y-43080656D01*
X41182363Y-43012562D01*
X41067911Y-42936088D01*
X40883912Y-42752089D01*
X40739345Y-42535728D01*
X40739344Y-42535727D01*
X40680846Y-42394500D01*
X40639765Y-42295322D01*
X40614118Y-42166386D01*
X40589000Y-42040109D01*
X40589000Y-41779891D01*
X40639765Y-41524680D01*
X40639765Y-41524678D01*
X40720289Y-41330277D01*
X40739344Y-41284273D01*
X40846676Y-41123639D01*
X40883912Y-41067911D01*
X41067911Y-40883912D01*
X41250595Y-40761847D01*
X41284273Y-40739344D01*
X41386513Y-40696995D01*
X41524678Y-40639765D01*
X41677792Y-40609309D01*
X41779891Y-40589000D01*
X42040109Y-40589000D01*
X42142208Y-40609309D01*
X42142208Y-40609309D01*
G37*
G36*
X132099499Y-42009330D02*
G01*
X132136995Y-42020705D01*
X132171554Y-42039177D01*
X132201847Y-42064038D01*
X132226708Y-42094331D01*
X132245180Y-42128890D01*
X132256555Y-42166386D01*
X132261000Y-42211523D01*
X132261000Y-42850247D01*
X132256555Y-42895384D01*
X132245180Y-42932880D01*
X132226708Y-42967439D01*
X132201847Y-42997732D01*
X132171554Y-43022593D01*
X132136995Y-43041065D01*
X132099499Y-43052440D01*
X132054362Y-43056885D01*
X131315638Y-43056885D01*
X131270501Y-43052440D01*
X131233005Y-43041065D01*
X131198446Y-43022593D01*
X131168153Y-42997732D01*
X131143292Y-42967439D01*
X131124820Y-42932880D01*
X131113445Y-42895384D01*
X131109000Y-42850247D01*
X131109000Y-42211523D01*
X131113445Y-42166386D01*
X131124820Y-42128890D01*
X131143292Y-42094331D01*
X131168153Y-42064038D01*
X131198446Y-42039177D01*
X131233005Y-42020705D01*
X131270501Y-42009330D01*
X131315638Y-42004885D01*
X132054362Y-42004885D01*
X132099499Y-42009330D01*
X132099499Y-42009330D01*
G37*
G36*
X130349499Y-42009330D02*
G01*
X130386995Y-42020705D01*
X130421554Y-42039177D01*
X130451847Y-42064038D01*
X130476708Y-42094331D01*
X130495180Y-42128890D01*
X130506555Y-42166386D01*
X130511000Y-42211523D01*
X130511000Y-42850247D01*
X130506555Y-42895384D01*
X130495180Y-42932880D01*
X130476708Y-42967439D01*
X130451847Y-42997732D01*
X130421554Y-43022593D01*
X130386995Y-43041065D01*
X130349499Y-43052440D01*
X130304362Y-43056885D01*
X129565638Y-43056885D01*
X129520501Y-43052440D01*
X129483005Y-43041065D01*
X129448446Y-43022593D01*
X129418153Y-42997732D01*
X129393292Y-42967439D01*
X129374820Y-42932880D01*
X129363445Y-42895384D01*
X129359000Y-42850247D01*
X129359000Y-42211523D01*
X129363445Y-42166386D01*
X129374820Y-42128890D01*
X129393292Y-42094331D01*
X129418153Y-42064038D01*
X129448446Y-42039177D01*
X129483005Y-42020705D01*
X129520501Y-42009330D01*
X129565638Y-42004885D01*
X130304362Y-42004885D01*
X130349499Y-42009330D01*
X130349499Y-42009330D01*
G37*
G36*
X145144499Y-41733445D02*
G01*
X145181995Y-41744820D01*
X145216554Y-41763292D01*
X145246847Y-41788153D01*
X145271708Y-41818446D01*
X145290180Y-41853005D01*
X145301555Y-41890501D01*
X145306000Y-41935638D01*
X145306000Y-42674362D01*
X145301555Y-42719499D01*
X145290180Y-42756995D01*
X145271708Y-42791554D01*
X145246847Y-42821847D01*
X145216554Y-42846708D01*
X145181995Y-42865180D01*
X145144499Y-42876555D01*
X145099362Y-42881000D01*
X144460638Y-42881000D01*
X144415501Y-42876555D01*
X144378005Y-42865180D01*
X144343446Y-42846708D01*
X144313153Y-42821847D01*
X144288292Y-42791554D01*
X144269820Y-42756995D01*
X144258445Y-42719499D01*
X144254000Y-42674362D01*
X144254000Y-41935638D01*
X144258445Y-41890501D01*
X144269820Y-41853005D01*
X144288292Y-41818446D01*
X144313153Y-41788153D01*
X144343446Y-41763292D01*
X144378005Y-41744820D01*
X144415501Y-41733445D01*
X144460638Y-41729000D01*
X145099362Y-41729000D01*
X145144499Y-41733445D01*
X145144499Y-41733445D01*
G37*
G36*
X152031000Y-42131000D02*
G01*
X150229000Y-42131000D01*
X150229000Y-38729000D01*
X152031000Y-38729000D01*
X152031000Y-42131000D01*
X152031000Y-42131000D01*
G37*
G36*
X132099499Y-40287775D02*
G01*
X132136995Y-40299150D01*
X132171554Y-40317622D01*
X132201847Y-40342483D01*
X132226708Y-40372776D01*
X132245180Y-40407335D01*
X132256555Y-40444831D01*
X132261000Y-40489968D01*
X132261000Y-41128692D01*
X132256555Y-41173829D01*
X132245180Y-41211325D01*
X132226708Y-41245884D01*
X132201847Y-41276177D01*
X132171554Y-41301038D01*
X132136995Y-41319510D01*
X132099499Y-41330885D01*
X132054362Y-41335330D01*
X131315638Y-41335330D01*
X131270501Y-41330885D01*
X131233005Y-41319510D01*
X131198446Y-41301038D01*
X131168153Y-41276177D01*
X131143292Y-41245884D01*
X131124820Y-41211325D01*
X131113445Y-41173829D01*
X131109000Y-41128692D01*
X131109000Y-40489968D01*
X131113445Y-40444831D01*
X131124820Y-40407335D01*
X131143292Y-40372776D01*
X131168153Y-40342483D01*
X131198446Y-40317622D01*
X131233005Y-40299150D01*
X131270501Y-40287775D01*
X131315638Y-40283330D01*
X132054362Y-40283330D01*
X132099499Y-40287775D01*
X132099499Y-40287775D01*
G37*
G36*
X130349499Y-40287775D02*
G01*
X130386995Y-40299150D01*
X130421554Y-40317622D01*
X130451847Y-40342483D01*
X130476708Y-40372776D01*
X130495180Y-40407335D01*
X130506555Y-40444831D01*
X130511000Y-40489968D01*
X130511000Y-41128692D01*
X130506555Y-41173829D01*
X130495180Y-41211325D01*
X130476708Y-41245884D01*
X130451847Y-41276177D01*
X130421554Y-41301038D01*
X130386995Y-41319510D01*
X130349499Y-41330885D01*
X130304362Y-41335330D01*
X129565638Y-41335330D01*
X129520501Y-41330885D01*
X129483005Y-41319510D01*
X129448446Y-41301038D01*
X129418153Y-41276177D01*
X129393292Y-41245884D01*
X129374820Y-41211325D01*
X129363445Y-41173829D01*
X129359000Y-41128692D01*
X129359000Y-40489968D01*
X129363445Y-40444831D01*
X129374820Y-40407335D01*
X129393292Y-40372776D01*
X129418153Y-40342483D01*
X129448446Y-40317622D01*
X129483005Y-40299150D01*
X129520501Y-40287775D01*
X129565638Y-40283330D01*
X130304362Y-40283330D01*
X130349499Y-40287775D01*
X130349499Y-40287775D01*
G37*
G36*
X88101000Y-41241000D02*
G01*
X86899000Y-41241000D01*
X86899000Y-40039000D01*
X88101000Y-40039000D01*
X88101000Y-41241000D01*
X88101000Y-41241000D01*
G37*
G36*
X90901000Y-41241000D02*
G01*
X89699000Y-41241000D01*
X89699000Y-40039000D01*
X90901000Y-40039000D01*
X90901000Y-41241000D01*
X90901000Y-41241000D01*
G37*
G36*
X145144499Y-39673445D02*
G01*
X145181995Y-39684820D01*
X145216554Y-39703292D01*
X145246847Y-39728153D01*
X145271708Y-39758446D01*
X145290180Y-39793005D01*
X145301555Y-39830501D01*
X145306000Y-39875638D01*
X145306000Y-40614362D01*
X145301555Y-40659499D01*
X145290180Y-40696995D01*
X145271708Y-40731554D01*
X145246847Y-40761847D01*
X145216554Y-40786708D01*
X145181995Y-40805180D01*
X145144499Y-40816555D01*
X145099362Y-40821000D01*
X144460638Y-40821000D01*
X144415501Y-40816555D01*
X144378005Y-40805180D01*
X144343446Y-40786708D01*
X144313153Y-40761847D01*
X144288292Y-40731554D01*
X144269820Y-40696995D01*
X144258445Y-40659499D01*
X144254000Y-40614362D01*
X144254000Y-39875638D01*
X144258445Y-39830501D01*
X144269820Y-39793005D01*
X144288292Y-39758446D01*
X144313153Y-39728153D01*
X144343446Y-39703292D01*
X144378005Y-39684820D01*
X144415501Y-39673445D01*
X144460638Y-39669000D01*
X145099362Y-39669000D01*
X145144499Y-39673445D01*
X145144499Y-39673445D01*
G37*
G36*
X32494098Y-35647033D02*
G01*
X32958350Y-35839332D01*
X32958352Y-35839333D01*
X33376168Y-36118509D01*
X33731491Y-36473832D01*
X34010667Y-36891648D01*
X34010668Y-36891650D01*
X34202967Y-37355902D01*
X34301000Y-37848747D01*
X34301000Y-38351253D01*
X34202967Y-38844098D01*
X34108981Y-39071000D01*
X34010667Y-39308352D01*
X33731491Y-39726168D01*
X33376168Y-40081491D01*
X32958352Y-40360667D01*
X32958351Y-40360668D01*
X32958350Y-40360668D01*
X32494098Y-40552967D01*
X32001253Y-40651000D01*
X31498747Y-40651000D01*
X31005902Y-40552967D01*
X30541650Y-40360668D01*
X30541649Y-40360668D01*
X30541648Y-40360667D01*
X30123832Y-40081491D01*
X29768509Y-39726168D01*
X29489333Y-39308352D01*
X29391019Y-39071000D01*
X29297033Y-38844098D01*
X29199000Y-38351253D01*
X29199000Y-37848747D01*
X29297033Y-37355902D01*
X29489332Y-36891650D01*
X29489333Y-36891648D01*
X29768509Y-36473832D01*
X30123832Y-36118509D01*
X30541648Y-35839333D01*
X30541650Y-35839332D01*
X31005902Y-35647033D01*
X31498747Y-35549000D01*
X32001253Y-35549000D01*
X32494098Y-35647033D01*
X32494098Y-35647033D01*
G37*
G36*
X159494098Y-35647033D02*
G01*
X159958350Y-35839332D01*
X159958352Y-35839333D01*
X160376168Y-36118509D01*
X160731491Y-36473832D01*
X161010667Y-36891648D01*
X161010668Y-36891650D01*
X161202967Y-37355902D01*
X161301000Y-37848747D01*
X161301000Y-38351253D01*
X161202967Y-38844098D01*
X161108981Y-39071000D01*
X161010667Y-39308352D01*
X160731491Y-39726168D01*
X160376168Y-40081491D01*
X159958352Y-40360667D01*
X159958351Y-40360668D01*
X159958350Y-40360668D01*
X159494098Y-40552967D01*
X159001253Y-40651000D01*
X158498747Y-40651000D01*
X158005902Y-40552967D01*
X157541650Y-40360668D01*
X157541649Y-40360668D01*
X157541648Y-40360667D01*
X157123832Y-40081491D01*
X156768509Y-39726168D01*
X156489333Y-39308352D01*
X156391019Y-39071000D01*
X156297033Y-38844098D01*
X156199000Y-38351253D01*
X156199000Y-37848747D01*
X156297033Y-37355902D01*
X156489332Y-36891650D01*
X156489333Y-36891648D01*
X156768509Y-36473832D01*
X157123832Y-36118509D01*
X157541648Y-35839333D01*
X157541650Y-35839332D01*
X158005902Y-35647033D01*
X158498747Y-35549000D01*
X159001253Y-35549000D01*
X159494098Y-35647033D01*
X159494098Y-35647033D01*
G37*
G36*
X108314499Y-38798445D02*
G01*
X108351995Y-38809820D01*
X108386554Y-38828292D01*
X108416847Y-38853153D01*
X108441708Y-38883446D01*
X108460180Y-38918005D01*
X108471555Y-38955501D01*
X108476000Y-39000638D01*
X108476000Y-39739362D01*
X108471555Y-39784499D01*
X108460180Y-39821995D01*
X108441708Y-39856554D01*
X108416847Y-39886847D01*
X108386554Y-39911708D01*
X108351995Y-39930180D01*
X108314499Y-39941555D01*
X108269362Y-39946000D01*
X107630638Y-39946000D01*
X107585501Y-39941555D01*
X107548005Y-39930180D01*
X107513446Y-39911708D01*
X107483153Y-39886847D01*
X107458292Y-39856554D01*
X107439820Y-39821995D01*
X107428445Y-39784499D01*
X107424000Y-39739362D01*
X107424000Y-39000638D01*
X107428445Y-38955501D01*
X107439820Y-38918005D01*
X107458292Y-38883446D01*
X107483153Y-38853153D01*
X107513446Y-38828292D01*
X107548005Y-38809820D01*
X107585501Y-38798445D01*
X107630638Y-38794000D01*
X108269362Y-38794000D01*
X108314499Y-38798445D01*
X108314499Y-38798445D01*
G37*
G36*
X132099499Y-38566220D02*
G01*
X132136995Y-38577595D01*
X132171554Y-38596067D01*
X132201847Y-38620928D01*
X132226708Y-38651221D01*
X132245180Y-38685780D01*
X132256555Y-38723276D01*
X132261000Y-38768413D01*
X132261000Y-39407137D01*
X132256555Y-39452274D01*
X132245180Y-39489770D01*
X132226708Y-39524329D01*
X132201847Y-39554622D01*
X132171554Y-39579483D01*
X132136995Y-39597955D01*
X132099499Y-39609330D01*
X132054362Y-39613775D01*
X131315638Y-39613775D01*
X131270501Y-39609330D01*
X131233005Y-39597955D01*
X131198446Y-39579483D01*
X131168153Y-39554622D01*
X131143292Y-39524329D01*
X131124820Y-39489770D01*
X131113445Y-39452274D01*
X131109000Y-39407137D01*
X131109000Y-38768413D01*
X131113445Y-38723276D01*
X131124820Y-38685780D01*
X131143292Y-38651221D01*
X131168153Y-38620928D01*
X131198446Y-38596067D01*
X131233005Y-38577595D01*
X131270501Y-38566220D01*
X131315638Y-38561775D01*
X132054362Y-38561775D01*
X132099499Y-38566220D01*
X132099499Y-38566220D01*
G37*
G36*
X130349499Y-38566220D02*
G01*
X130386995Y-38577595D01*
X130421554Y-38596067D01*
X130451847Y-38620928D01*
X130476708Y-38651221D01*
X130495180Y-38685780D01*
X130506555Y-38723276D01*
X130511000Y-38768413D01*
X130511000Y-39407137D01*
X130506555Y-39452274D01*
X130495180Y-39489770D01*
X130476708Y-39524329D01*
X130451847Y-39554622D01*
X130421554Y-39579483D01*
X130386995Y-39597955D01*
X130349499Y-39609330D01*
X130304362Y-39613775D01*
X129565638Y-39613775D01*
X129520501Y-39609330D01*
X129483005Y-39597955D01*
X129448446Y-39579483D01*
X129418153Y-39554622D01*
X129393292Y-39524329D01*
X129374820Y-39489770D01*
X129363445Y-39452274D01*
X129359000Y-39407137D01*
X129359000Y-38768413D01*
X129363445Y-38723276D01*
X129374820Y-38685780D01*
X129393292Y-38651221D01*
X129418153Y-38620928D01*
X129448446Y-38596067D01*
X129483005Y-38577595D01*
X129520501Y-38566220D01*
X129565638Y-38561775D01*
X130304362Y-38561775D01*
X130349499Y-38566220D01*
X130349499Y-38566220D01*
G37*
G36*
X117146564Y-37089389D02*
G01*
X117319171Y-37160885D01*
X117337835Y-37168616D01*
X117468152Y-37255691D01*
X117509973Y-37283635D01*
X117656365Y-37430027D01*
X117771385Y-37602167D01*
X117850611Y-37793436D01*
X117891000Y-37996484D01*
X117891000Y-38203516D01*
X117850611Y-38406564D01*
X117779768Y-38577595D01*
X117771384Y-38597835D01*
X117656365Y-38769973D01*
X117509973Y-38916365D01*
X117337835Y-39031384D01*
X117337834Y-39031385D01*
X117337833Y-39031385D01*
X117146564Y-39110611D01*
X116943516Y-39151000D01*
X116736484Y-39151000D01*
X116533436Y-39110611D01*
X116342167Y-39031385D01*
X116342166Y-39031385D01*
X116342165Y-39031384D01*
X116170027Y-38916365D01*
X116023635Y-38769973D01*
X115908616Y-38597835D01*
X115900232Y-38577595D01*
X115829389Y-38406564D01*
X115789000Y-38203516D01*
X115789000Y-37996484D01*
X115829389Y-37793436D01*
X115908615Y-37602167D01*
X116023635Y-37430027D01*
X116170027Y-37283635D01*
X116211848Y-37255691D01*
X116342165Y-37168616D01*
X116360829Y-37160885D01*
X116533436Y-37089389D01*
X116736484Y-37049000D01*
X116943516Y-37049000D01*
X117146564Y-37089389D01*
X117146564Y-37089389D01*
G37*
G36*
X119686564Y-37089389D02*
G01*
X119859171Y-37160885D01*
X119877835Y-37168616D01*
X120008152Y-37255691D01*
X120049973Y-37283635D01*
X120196365Y-37430027D01*
X120311385Y-37602167D01*
X120390611Y-37793436D01*
X120431000Y-37996484D01*
X120431000Y-38203516D01*
X120390611Y-38406564D01*
X120319768Y-38577595D01*
X120311384Y-38597835D01*
X120196365Y-38769973D01*
X120049973Y-38916365D01*
X119877835Y-39031384D01*
X119877834Y-39031385D01*
X119877833Y-39031385D01*
X119686564Y-39110611D01*
X119483516Y-39151000D01*
X119276484Y-39151000D01*
X119073436Y-39110611D01*
X118882167Y-39031385D01*
X118882166Y-39031385D01*
X118882165Y-39031384D01*
X118710027Y-38916365D01*
X118563635Y-38769973D01*
X118448616Y-38597835D01*
X118440232Y-38577595D01*
X118369389Y-38406564D01*
X118329000Y-38203516D01*
X118329000Y-37996484D01*
X118369389Y-37793436D01*
X118448615Y-37602167D01*
X118563635Y-37430027D01*
X118710027Y-37283635D01*
X118751848Y-37255691D01*
X118882165Y-37168616D01*
X118900829Y-37160885D01*
X119073436Y-37089389D01*
X119276484Y-37049000D01*
X119483516Y-37049000D01*
X119686564Y-37089389D01*
X119686564Y-37089389D01*
G37*
G36*
X127306564Y-37089389D02*
G01*
X127479171Y-37160885D01*
X127497835Y-37168616D01*
X127628152Y-37255691D01*
X127669973Y-37283635D01*
X127816365Y-37430027D01*
X127931385Y-37602167D01*
X128010611Y-37793436D01*
X128051000Y-37996484D01*
X128051000Y-38203516D01*
X128010611Y-38406564D01*
X127939768Y-38577595D01*
X127931384Y-38597835D01*
X127816365Y-38769973D01*
X127669973Y-38916365D01*
X127497835Y-39031384D01*
X127497834Y-39031385D01*
X127497833Y-39031385D01*
X127306564Y-39110611D01*
X127103516Y-39151000D01*
X126896484Y-39151000D01*
X126693436Y-39110611D01*
X126502167Y-39031385D01*
X126502166Y-39031385D01*
X126502165Y-39031384D01*
X126330027Y-38916365D01*
X126183635Y-38769973D01*
X126068616Y-38597835D01*
X126060232Y-38577595D01*
X125989389Y-38406564D01*
X125949000Y-38203516D01*
X125949000Y-37996484D01*
X125989389Y-37793436D01*
X126068615Y-37602167D01*
X126183635Y-37430027D01*
X126330027Y-37283635D01*
X126371848Y-37255691D01*
X126502165Y-37168616D01*
X126520829Y-37160885D01*
X126693436Y-37089389D01*
X126896484Y-37049000D01*
X127103516Y-37049000D01*
X127306564Y-37089389D01*
X127306564Y-37089389D01*
G37*
G36*
X145144499Y-37923445D02*
G01*
X145181995Y-37934820D01*
X145216554Y-37953292D01*
X145246847Y-37978153D01*
X145271708Y-38008446D01*
X145290180Y-38043005D01*
X145301555Y-38080501D01*
X145306000Y-38125638D01*
X145306000Y-38864362D01*
X145301555Y-38909499D01*
X145290180Y-38946995D01*
X145271708Y-38981554D01*
X145246847Y-39011847D01*
X145216554Y-39036708D01*
X145181995Y-39055180D01*
X145144499Y-39066555D01*
X145099362Y-39071000D01*
X144460638Y-39071000D01*
X144415501Y-39066555D01*
X144378005Y-39055180D01*
X144343446Y-39036708D01*
X144313153Y-39011847D01*
X144288292Y-38981554D01*
X144269820Y-38946995D01*
X144258445Y-38909499D01*
X144254000Y-38864362D01*
X144254000Y-38125638D01*
X144258445Y-38080501D01*
X144269820Y-38043005D01*
X144288292Y-38008446D01*
X144313153Y-37978153D01*
X144343446Y-37953292D01*
X144378005Y-37934820D01*
X144415501Y-37923445D01*
X144460638Y-37919000D01*
X145099362Y-37919000D01*
X145144499Y-37923445D01*
X145144499Y-37923445D01*
G37*
G36*
X108314499Y-37048445D02*
G01*
X108351995Y-37059820D01*
X108386554Y-37078292D01*
X108416847Y-37103153D01*
X108441708Y-37133446D01*
X108460180Y-37168005D01*
X108471555Y-37205501D01*
X108476000Y-37250638D01*
X108476000Y-37989362D01*
X108471555Y-38034499D01*
X108460180Y-38071995D01*
X108441708Y-38106554D01*
X108416847Y-38136847D01*
X108386554Y-38161708D01*
X108351995Y-38180180D01*
X108314499Y-38191555D01*
X108269362Y-38196000D01*
X107630638Y-38196000D01*
X107585501Y-38191555D01*
X107548005Y-38180180D01*
X107513446Y-38161708D01*
X107483153Y-38136847D01*
X107458292Y-38106554D01*
X107439820Y-38071995D01*
X107428445Y-38034499D01*
X107424000Y-37989362D01*
X107424000Y-37250638D01*
X107428445Y-37205501D01*
X107439820Y-37168005D01*
X107458292Y-37133446D01*
X107483153Y-37103153D01*
X107513446Y-37078292D01*
X107548005Y-37059820D01*
X107585501Y-37048445D01*
X107630638Y-37044000D01*
X108269362Y-37044000D01*
X108314499Y-37048445D01*
X108314499Y-37048445D01*
G37*
G36*
X132099499Y-36844665D02*
G01*
X132136995Y-36856040D01*
X132171554Y-36874512D01*
X132201847Y-36899373D01*
X132226708Y-36929666D01*
X132245180Y-36964225D01*
X132256555Y-37001721D01*
X132261000Y-37046858D01*
X132261000Y-37685582D01*
X132256555Y-37730719D01*
X132245180Y-37768215D01*
X132226708Y-37802774D01*
X132201847Y-37833067D01*
X132171554Y-37857928D01*
X132136995Y-37876400D01*
X132099499Y-37887775D01*
X132054362Y-37892220D01*
X131315638Y-37892220D01*
X131270501Y-37887775D01*
X131233005Y-37876400D01*
X131198446Y-37857928D01*
X131168153Y-37833067D01*
X131143292Y-37802774D01*
X131124820Y-37768215D01*
X131113445Y-37730719D01*
X131109000Y-37685582D01*
X131109000Y-37046858D01*
X131113445Y-37001721D01*
X131124820Y-36964225D01*
X131143292Y-36929666D01*
X131168153Y-36899373D01*
X131198446Y-36874512D01*
X131233005Y-36856040D01*
X131270501Y-36844665D01*
X131315638Y-36840220D01*
X132054362Y-36840220D01*
X132099499Y-36844665D01*
X132099499Y-36844665D01*
G37*
G36*
X130349499Y-36844665D02*
G01*
X130386995Y-36856040D01*
X130421554Y-36874512D01*
X130451847Y-36899373D01*
X130476708Y-36929666D01*
X130495180Y-36964225D01*
X130506555Y-37001721D01*
X130511000Y-37046858D01*
X130511000Y-37685582D01*
X130506555Y-37730719D01*
X130495180Y-37768215D01*
X130476708Y-37802774D01*
X130451847Y-37833067D01*
X130421554Y-37857928D01*
X130386995Y-37876400D01*
X130349499Y-37887775D01*
X130304362Y-37892220D01*
X129565638Y-37892220D01*
X129520501Y-37887775D01*
X129483005Y-37876400D01*
X129448446Y-37857928D01*
X129418153Y-37833067D01*
X129393292Y-37802774D01*
X129374820Y-37768215D01*
X129363445Y-37730719D01*
X129359000Y-37685582D01*
X129359000Y-37046858D01*
X129363445Y-37001721D01*
X129374820Y-36964225D01*
X129393292Y-36929666D01*
X129418153Y-36899373D01*
X129448446Y-36874512D01*
X129483005Y-36856040D01*
X129520501Y-36844665D01*
X129565638Y-36840220D01*
X130304362Y-36840220D01*
X130349499Y-36844665D01*
X130349499Y-36844665D01*
G37*
G36*
X141651000Y-37271000D02*
G01*
X137749000Y-37271000D01*
X137749000Y-35169000D01*
X141651000Y-35169000D01*
X141651000Y-37271000D01*
X141651000Y-37271000D01*
G37*
G36*
X103495039Y-32007825D02*
G01*
X103740279Y-32082218D01*
X103966293Y-32203025D01*
X104066577Y-32285326D01*
X104164396Y-32365604D01*
X104326976Y-32563707D01*
X104382936Y-32668402D01*
X104447782Y-32789720D01*
X104522175Y-33034960D01*
X104541000Y-33226095D01*
X104541000Y-35353905D01*
X104522175Y-35545040D01*
X104447782Y-35790280D01*
X104326975Y-36016294D01*
X104302054Y-36046660D01*
X104164397Y-36214397D01*
X104017899Y-36334624D01*
X103966294Y-36376975D01*
X103966292Y-36376976D01*
X103785086Y-36473833D01*
X103740280Y-36497782D01*
X103495040Y-36572175D01*
X103240000Y-36597294D01*
X102984961Y-36572175D01*
X102739721Y-36497782D01*
X102694916Y-36473833D01*
X102513709Y-36376976D01*
X102513707Y-36376975D01*
X102462102Y-36334624D01*
X102315604Y-36214397D01*
X102177947Y-36046660D01*
X102153026Y-36016294D01*
X102032219Y-35790280D01*
X101957826Y-35545040D01*
X101939001Y-35353905D01*
X101939000Y-33226096D01*
X101957825Y-33034961D01*
X102032218Y-32789721D01*
X102153025Y-32563707D01*
X102315604Y-32365604D01*
X102513706Y-32203025D01*
X102513705Y-32203025D01*
X102513707Y-32203024D01*
X102739718Y-32082219D01*
X102739720Y-32082218D01*
X102984960Y-32007825D01*
X103240000Y-31982706D01*
X103495039Y-32007825D01*
X103495039Y-32007825D01*
G37*
G36*
X98045039Y-32007825D02*
G01*
X98290279Y-32082218D01*
X98516293Y-32203025D01*
X98616577Y-32285326D01*
X98714396Y-32365604D01*
X98876976Y-32563707D01*
X98932936Y-32668402D01*
X98997782Y-32789720D01*
X99072175Y-33034960D01*
X99091000Y-33226095D01*
X99091000Y-35353905D01*
X99072175Y-35545040D01*
X98997782Y-35790280D01*
X98876975Y-36016294D01*
X98852054Y-36046660D01*
X98714397Y-36214397D01*
X98567899Y-36334624D01*
X98516294Y-36376975D01*
X98516292Y-36376976D01*
X98335086Y-36473833D01*
X98290280Y-36497782D01*
X98045040Y-36572175D01*
X97790000Y-36597294D01*
X97534961Y-36572175D01*
X97289721Y-36497782D01*
X97244916Y-36473833D01*
X97063709Y-36376976D01*
X97063707Y-36376975D01*
X97012102Y-36334624D01*
X96865604Y-36214397D01*
X96727947Y-36046660D01*
X96703026Y-36016294D01*
X96582219Y-35790280D01*
X96507826Y-35545040D01*
X96489001Y-35353905D01*
X96489000Y-33226096D01*
X96507825Y-33034961D01*
X96582218Y-32789721D01*
X96703025Y-32563707D01*
X96865604Y-32365604D01*
X97063706Y-32203025D01*
X97063705Y-32203025D01*
X97063707Y-32203024D01*
X97289718Y-32082219D01*
X97289720Y-32082218D01*
X97534960Y-32007825D01*
X97790000Y-31982706D01*
X98045039Y-32007825D01*
X98045039Y-32007825D01*
G37*
G36*
X79365039Y-32007825D02*
G01*
X79610279Y-32082218D01*
X79836293Y-32203025D01*
X79936577Y-32285326D01*
X80034396Y-32365604D01*
X80196976Y-32563707D01*
X80252936Y-32668402D01*
X80317782Y-32789720D01*
X80392175Y-33034960D01*
X80411000Y-33226095D01*
X80411000Y-35353905D01*
X80392175Y-35545040D01*
X80317782Y-35790280D01*
X80196975Y-36016294D01*
X80172054Y-36046660D01*
X80034397Y-36214397D01*
X79887899Y-36334624D01*
X79836294Y-36376975D01*
X79836292Y-36376976D01*
X79655086Y-36473833D01*
X79610280Y-36497782D01*
X79365040Y-36572175D01*
X79110000Y-36597294D01*
X78854961Y-36572175D01*
X78609721Y-36497782D01*
X78564916Y-36473833D01*
X78383709Y-36376976D01*
X78383707Y-36376975D01*
X78332102Y-36334624D01*
X78185604Y-36214397D01*
X78047947Y-36046660D01*
X78023026Y-36016294D01*
X77902219Y-35790280D01*
X77827826Y-35545040D01*
X77809001Y-35353905D01*
X77809000Y-33226096D01*
X77827825Y-33034961D01*
X77902218Y-32789721D01*
X78023025Y-32563707D01*
X78185604Y-32365604D01*
X78383706Y-32203025D01*
X78383705Y-32203025D01*
X78383707Y-32203024D01*
X78609718Y-32082219D01*
X78609720Y-32082218D01*
X78854960Y-32007825D01*
X79110000Y-31982706D01*
X79365039Y-32007825D01*
X79365039Y-32007825D01*
G37*
G36*
X84815039Y-32007825D02*
G01*
X85060279Y-32082218D01*
X85286293Y-32203025D01*
X85386577Y-32285326D01*
X85484396Y-32365604D01*
X85646976Y-32563707D01*
X85702936Y-32668402D01*
X85767782Y-32789720D01*
X85842175Y-33034960D01*
X85861000Y-33226095D01*
X85861000Y-35353905D01*
X85842175Y-35545040D01*
X85767782Y-35790280D01*
X85646975Y-36016294D01*
X85622054Y-36046660D01*
X85484397Y-36214397D01*
X85337899Y-36334624D01*
X85286294Y-36376975D01*
X85286292Y-36376976D01*
X85105086Y-36473833D01*
X85060280Y-36497782D01*
X84815040Y-36572175D01*
X84560000Y-36597294D01*
X84304961Y-36572175D01*
X84059721Y-36497782D01*
X84014916Y-36473833D01*
X83833709Y-36376976D01*
X83833707Y-36376975D01*
X83782102Y-36334624D01*
X83635604Y-36214397D01*
X83497947Y-36046660D01*
X83473026Y-36016294D01*
X83352219Y-35790280D01*
X83277826Y-35545040D01*
X83259001Y-35353905D01*
X83259000Y-33226096D01*
X83277825Y-33034961D01*
X83352218Y-32789721D01*
X83473025Y-32563707D01*
X83635604Y-32365604D01*
X83833706Y-32203025D01*
X83833705Y-32203025D01*
X83833707Y-32203024D01*
X84059718Y-32082219D01*
X84059720Y-32082218D01*
X84304960Y-32007825D01*
X84560000Y-31982706D01*
X84815039Y-32007825D01*
X84815039Y-32007825D01*
G37*
G36*
X93641000Y-36591000D02*
G01*
X91039000Y-36591000D01*
X91039000Y-31989000D01*
X93641000Y-31989000D01*
X93641000Y-36591000D01*
X93641000Y-36591000D01*
G37*
G36*
X74961000Y-36591000D02*
G01*
X72359000Y-36591000D01*
X72359000Y-31989000D01*
X74961000Y-31989000D01*
X74961000Y-36591000D01*
X74961000Y-36591000D01*
G37*
G36*
X130349499Y-35123110D02*
G01*
X130386995Y-35134485D01*
X130421554Y-35152957D01*
X130451847Y-35177818D01*
X130476708Y-35208111D01*
X130495180Y-35242670D01*
X130506555Y-35280166D01*
X130511000Y-35325303D01*
X130511000Y-35964027D01*
X130506555Y-36009164D01*
X130495180Y-36046660D01*
X130476708Y-36081219D01*
X130451847Y-36111512D01*
X130421554Y-36136373D01*
X130386995Y-36154845D01*
X130349499Y-36166220D01*
X130304362Y-36170665D01*
X129565638Y-36170665D01*
X129520501Y-36166220D01*
X129483005Y-36154845D01*
X129448446Y-36136373D01*
X129418153Y-36111512D01*
X129393292Y-36081219D01*
X129374820Y-36046660D01*
X129363445Y-36009164D01*
X129359000Y-35964027D01*
X129359000Y-35325303D01*
X129363445Y-35280166D01*
X129374820Y-35242670D01*
X129393292Y-35208111D01*
X129418153Y-35177818D01*
X129448446Y-35152957D01*
X129483005Y-35134485D01*
X129520501Y-35123110D01*
X129565638Y-35118665D01*
X130304362Y-35118665D01*
X130349499Y-35123110D01*
X130349499Y-35123110D01*
G37*
G36*
X132099499Y-35123110D02*
G01*
X132136995Y-35134485D01*
X132171554Y-35152957D01*
X132201847Y-35177818D01*
X132226708Y-35208111D01*
X132245180Y-35242670D01*
X132256555Y-35280166D01*
X132261000Y-35325303D01*
X132261000Y-35964027D01*
X132256555Y-36009164D01*
X132245180Y-36046660D01*
X132226708Y-36081219D01*
X132201847Y-36111512D01*
X132171554Y-36136373D01*
X132136995Y-36154845D01*
X132099499Y-36166220D01*
X132054362Y-36170665D01*
X131315638Y-36170665D01*
X131270501Y-36166220D01*
X131233005Y-36154845D01*
X131198446Y-36136373D01*
X131168153Y-36111512D01*
X131143292Y-36081219D01*
X131124820Y-36046660D01*
X131113445Y-36009164D01*
X131109000Y-35964027D01*
X131109000Y-35325303D01*
X131113445Y-35280166D01*
X131124820Y-35242670D01*
X131143292Y-35208111D01*
X131168153Y-35177818D01*
X131198446Y-35152957D01*
X131233005Y-35134485D01*
X131270501Y-35123110D01*
X131315638Y-35118665D01*
X132054362Y-35118665D01*
X132099499Y-35123110D01*
X132099499Y-35123110D01*
G37*
G36*
X53642585Y-31498802D02*
G01*
X53792410Y-31528604D01*
X54074674Y-31645521D01*
X54328705Y-31815259D01*
X54544741Y-32031295D01*
X54714479Y-32285326D01*
X54831396Y-32567590D01*
X54891000Y-32867240D01*
X54891000Y-33172760D01*
X54831396Y-33472410D01*
X54714479Y-33754674D01*
X54544741Y-34008705D01*
X54328705Y-34224741D01*
X54074674Y-34394479D01*
X53792410Y-34511396D01*
X53642585Y-34541198D01*
X53492761Y-34571000D01*
X53187239Y-34571000D01*
X53037415Y-34541198D01*
X52887590Y-34511396D01*
X52605326Y-34394479D01*
X52351295Y-34224741D01*
X52135259Y-34008705D01*
X51965521Y-33754674D01*
X51848604Y-33472410D01*
X51789000Y-33172760D01*
X51789000Y-32867240D01*
X51848604Y-32567590D01*
X51965521Y-32285326D01*
X52135259Y-32031295D01*
X52351295Y-31815259D01*
X52605326Y-31645521D01*
X52887590Y-31528604D01*
X53037415Y-31498802D01*
X53187239Y-31469000D01*
X53492761Y-31469000D01*
X53642585Y-31498802D01*
X53642585Y-31498802D01*
G37*
G36*
X49811000Y-34571000D02*
G01*
X46709000Y-34571000D01*
X46709000Y-31469000D01*
X49811000Y-31469000D01*
X49811000Y-34571000D01*
X49811000Y-34571000D01*
G37*
G36*
X132099499Y-33401555D02*
G01*
X132136995Y-33412930D01*
X132171554Y-33431402D01*
X132201847Y-33456263D01*
X132226708Y-33486556D01*
X132245180Y-33521115D01*
X132256555Y-33558611D01*
X132261000Y-33603748D01*
X132261000Y-34242472D01*
X132256555Y-34287609D01*
X132245180Y-34325105D01*
X132226708Y-34359664D01*
X132201847Y-34389957D01*
X132171554Y-34414818D01*
X132136995Y-34433290D01*
X132099499Y-34444665D01*
X132054362Y-34449110D01*
X131315638Y-34449110D01*
X131270501Y-34444665D01*
X131233005Y-34433290D01*
X131198446Y-34414818D01*
X131168153Y-34389957D01*
X131143292Y-34359664D01*
X131124820Y-34325105D01*
X131113445Y-34287609D01*
X131109000Y-34242472D01*
X131109000Y-33603748D01*
X131113445Y-33558611D01*
X131124820Y-33521115D01*
X131143292Y-33486556D01*
X131168153Y-33456263D01*
X131198446Y-33431402D01*
X131233005Y-33412930D01*
X131270501Y-33401555D01*
X131315638Y-33397110D01*
X132054362Y-33397110D01*
X132099499Y-33401555D01*
X132099499Y-33401555D01*
G37*
G36*
X130349499Y-33401555D02*
G01*
X130386995Y-33412930D01*
X130421554Y-33431402D01*
X130451847Y-33456263D01*
X130476708Y-33486556D01*
X130495180Y-33521115D01*
X130506555Y-33558611D01*
X130511000Y-33603748D01*
X130511000Y-34242472D01*
X130506555Y-34287609D01*
X130495180Y-34325105D01*
X130476708Y-34359664D01*
X130451847Y-34389957D01*
X130421554Y-34414818D01*
X130386995Y-34433290D01*
X130349499Y-34444665D01*
X130304362Y-34449110D01*
X129565638Y-34449110D01*
X129520501Y-34444665D01*
X129483005Y-34433290D01*
X129448446Y-34414818D01*
X129418153Y-34389957D01*
X129393292Y-34359664D01*
X129374820Y-34325105D01*
X129363445Y-34287609D01*
X129359000Y-34242472D01*
X129359000Y-33603748D01*
X129363445Y-33558611D01*
X129374820Y-33521115D01*
X129393292Y-33486556D01*
X129418153Y-33456263D01*
X129448446Y-33431402D01*
X129483005Y-33412930D01*
X129520501Y-33401555D01*
X129565638Y-33397110D01*
X130304362Y-33397110D01*
X130349499Y-33401555D01*
X130349499Y-33401555D01*
G37*
G36*
X140301000Y-33751000D02*
G01*
X139099000Y-33751000D01*
X139099000Y-32549000D01*
X140301000Y-32549000D01*
X140301000Y-33751000D01*
X140301000Y-33751000D01*
G37*
G36*
X130349499Y-31680000D02*
G01*
X130386995Y-31691375D01*
X130421554Y-31709847D01*
X130451847Y-31734708D01*
X130476708Y-31765001D01*
X130495180Y-31799560D01*
X130506555Y-31837056D01*
X130511000Y-31882193D01*
X130511000Y-32520917D01*
X130506555Y-32566054D01*
X130495180Y-32603550D01*
X130476708Y-32638109D01*
X130451847Y-32668402D01*
X130421554Y-32693263D01*
X130386995Y-32711735D01*
X130349499Y-32723110D01*
X130304362Y-32727555D01*
X129565638Y-32727555D01*
X129520501Y-32723110D01*
X129483005Y-32711735D01*
X129448446Y-32693263D01*
X129418153Y-32668402D01*
X129393292Y-32638109D01*
X129374820Y-32603550D01*
X129363445Y-32566054D01*
X129359000Y-32520917D01*
X129359000Y-31882193D01*
X129363445Y-31837056D01*
X129374820Y-31799560D01*
X129393292Y-31765001D01*
X129418153Y-31734708D01*
X129448446Y-31709847D01*
X129483005Y-31691375D01*
X129520501Y-31680000D01*
X129565638Y-31675555D01*
X130304362Y-31675555D01*
X130349499Y-31680000D01*
X130349499Y-31680000D01*
G37*
G36*
X132099499Y-31680000D02*
G01*
X132136995Y-31691375D01*
X132171554Y-31709847D01*
X132201847Y-31734708D01*
X132226708Y-31765001D01*
X132245180Y-31799560D01*
X132256555Y-31837056D01*
X132261000Y-31882193D01*
X132261000Y-32520917D01*
X132256555Y-32566054D01*
X132245180Y-32603550D01*
X132226708Y-32638109D01*
X132201847Y-32668402D01*
X132171554Y-32693263D01*
X132136995Y-32711735D01*
X132099499Y-32723110D01*
X132054362Y-32727555D01*
X131315638Y-32727555D01*
X131270501Y-32723110D01*
X131233005Y-32711735D01*
X131198446Y-32693263D01*
X131168153Y-32668402D01*
X131143292Y-32638109D01*
X131124820Y-32603550D01*
X131113445Y-32566054D01*
X131109000Y-32520917D01*
X131109000Y-31882193D01*
X131113445Y-31837056D01*
X131124820Y-31799560D01*
X131143292Y-31765001D01*
X131168153Y-31734708D01*
X131198446Y-31709847D01*
X131233005Y-31691375D01*
X131270501Y-31680000D01*
X131315638Y-31675555D01*
X132054362Y-31675555D01*
X132099499Y-31680000D01*
X132099499Y-31680000D01*
G37*
G36*
X132099499Y-29958445D02*
G01*
X132136995Y-29969820D01*
X132171554Y-29988292D01*
X132201847Y-30013153D01*
X132226708Y-30043446D01*
X132245180Y-30078005D01*
X132256555Y-30115501D01*
X132261000Y-30160638D01*
X132261000Y-30799362D01*
X132256555Y-30844499D01*
X132245180Y-30881995D01*
X132226708Y-30916554D01*
X132201847Y-30946847D01*
X132171554Y-30971708D01*
X132136995Y-30990180D01*
X132099499Y-31001555D01*
X132054362Y-31006000D01*
X131315638Y-31006000D01*
X131270501Y-31001555D01*
X131233005Y-30990180D01*
X131198446Y-30971708D01*
X131168153Y-30946847D01*
X131143292Y-30916554D01*
X131124820Y-30881995D01*
X131113445Y-30844499D01*
X131109000Y-30799362D01*
X131109000Y-30160638D01*
X131113445Y-30115501D01*
X131124820Y-30078005D01*
X131143292Y-30043446D01*
X131168153Y-30013153D01*
X131198446Y-29988292D01*
X131233005Y-29969820D01*
X131270501Y-29958445D01*
X131315638Y-29954000D01*
X132054362Y-29954000D01*
X132099499Y-29958445D01*
X132099499Y-29958445D01*
G37*
G36*
X130349499Y-29958445D02*
G01*
X130386995Y-29969820D01*
X130421554Y-29988292D01*
X130451847Y-30013153D01*
X130476708Y-30043446D01*
X130495180Y-30078005D01*
X130506555Y-30115501D01*
X130511000Y-30160638D01*
X130511000Y-30799362D01*
X130506555Y-30844499D01*
X130495180Y-30881995D01*
X130476708Y-30916554D01*
X130451847Y-30946847D01*
X130421554Y-30971708D01*
X130386995Y-30990180D01*
X130349499Y-31001555D01*
X130304362Y-31006000D01*
X129565638Y-31006000D01*
X129520501Y-31001555D01*
X129483005Y-30990180D01*
X129448446Y-30971708D01*
X129418153Y-30946847D01*
X129393292Y-30916554D01*
X129374820Y-30881995D01*
X129363445Y-30844499D01*
X129359000Y-30799362D01*
X129359000Y-30160638D01*
X129363445Y-30115501D01*
X129374820Y-30078005D01*
X129393292Y-30043446D01*
X129418153Y-30013153D01*
X129448446Y-29988292D01*
X129483005Y-29969820D01*
X129520501Y-29958445D01*
X129565638Y-29954000D01*
X130304362Y-29954000D01*
X130349499Y-29958445D01*
X130349499Y-29958445D01*
G37*
G36*
X140301000Y-30951000D02*
G01*
X139099000Y-30951000D01*
X139099000Y-29749000D01*
X140301000Y-29749000D01*
X140301000Y-30951000D01*
X140301000Y-30951000D01*
G37*
M02*
