G04 #@! TF.GenerationSoftware,KiCad,Pcbnew,(5.1.4)-1*
G04 #@! TF.CreationDate,2020-04-12T16:51:03+01:00*
G04 #@! TF.ProjectId,25v PSU,32357620-5053-4552-9e6b-696361645f70,rev?*
G04 #@! TF.SameCoordinates,Original*
G04 #@! TF.FileFunction,Soldermask,Bot*
G04 #@! TF.FilePolarity,Negative*
%FSLAX46Y46*%
G04 Gerber Fmt 4.6, Leading zero omitted, Abs format (unit mm)*
G04 Created by KiCad (PCBNEW (5.1.4)-1) date 2020-04-12 16:51:03*
%MOMM*%
%LPD*%
G04 APERTURE LIST*
%ADD10C,0.100000*%
G04 APERTURE END LIST*
D10*
G36*
X108173642Y-81779781D02*
G01*
X108319414Y-81840162D01*
X108319416Y-81840163D01*
X108450608Y-81927822D01*
X108562178Y-82039392D01*
X108649837Y-82170584D01*
X108649838Y-82170586D01*
X108710219Y-82316358D01*
X108741000Y-82471107D01*
X108741000Y-82628893D01*
X108710219Y-82783642D01*
X108649838Y-82929414D01*
X108649837Y-82929416D01*
X108562178Y-83060608D01*
X108450608Y-83172178D01*
X108319416Y-83259837D01*
X108319415Y-83259838D01*
X108319414Y-83259838D01*
X108173642Y-83320219D01*
X108018893Y-83351000D01*
X107861107Y-83351000D01*
X107706358Y-83320219D01*
X107560586Y-83259838D01*
X107560585Y-83259838D01*
X107560584Y-83259837D01*
X107429392Y-83172178D01*
X107317822Y-83060608D01*
X107230163Y-82929416D01*
X107230162Y-82929414D01*
X107169781Y-82783642D01*
X107139000Y-82628893D01*
X107139000Y-82471107D01*
X107169781Y-82316358D01*
X107230162Y-82170586D01*
X107230163Y-82170584D01*
X107317822Y-82039392D01*
X107429392Y-81927822D01*
X107560584Y-81840163D01*
X107560586Y-81840162D01*
X107706358Y-81779781D01*
X107861107Y-81749000D01*
X108018893Y-81749000D01*
X108173642Y-81779781D01*
X108173642Y-81779781D01*
G37*
G36*
X104373642Y-81779781D02*
G01*
X104519414Y-81840162D01*
X104519416Y-81840163D01*
X104650608Y-81927822D01*
X104762178Y-82039392D01*
X104849837Y-82170584D01*
X104849838Y-82170586D01*
X104910219Y-82316358D01*
X104941000Y-82471107D01*
X104941000Y-82628893D01*
X104910219Y-82783642D01*
X104849838Y-82929414D01*
X104849837Y-82929416D01*
X104762178Y-83060608D01*
X104650608Y-83172178D01*
X104519416Y-83259837D01*
X104519415Y-83259838D01*
X104519414Y-83259838D01*
X104373642Y-83320219D01*
X104218893Y-83351000D01*
X104061107Y-83351000D01*
X103906358Y-83320219D01*
X103760586Y-83259838D01*
X103760585Y-83259838D01*
X103760584Y-83259837D01*
X103629392Y-83172178D01*
X103517822Y-83060608D01*
X103430163Y-82929416D01*
X103430162Y-82929414D01*
X103369781Y-82783642D01*
X103339000Y-82628893D01*
X103339000Y-82471107D01*
X103369781Y-82316358D01*
X103430162Y-82170586D01*
X103430163Y-82170584D01*
X103517822Y-82039392D01*
X103629392Y-81927822D01*
X103760584Y-81840163D01*
X103760586Y-81840162D01*
X103906358Y-81779781D01*
X104061107Y-81749000D01*
X104218893Y-81749000D01*
X104373642Y-81779781D01*
X104373642Y-81779781D01*
G37*
G36*
X58530442Y-80385518D02*
G01*
X58596627Y-80392037D01*
X58766466Y-80443557D01*
X58922991Y-80527222D01*
X58958729Y-80556552D01*
X59060186Y-80639814D01*
X59143448Y-80741271D01*
X59172778Y-80777009D01*
X59256443Y-80933534D01*
X59307963Y-81103373D01*
X59325359Y-81280000D01*
X59307963Y-81456627D01*
X59256443Y-81626466D01*
X59172778Y-81782991D01*
X59143448Y-81818729D01*
X59060186Y-81920186D01*
X58958729Y-82003448D01*
X58922991Y-82032778D01*
X58766466Y-82116443D01*
X58596627Y-82167963D01*
X58530443Y-82174481D01*
X58464260Y-82181000D01*
X58375740Y-82181000D01*
X58309557Y-82174481D01*
X58243373Y-82167963D01*
X58073534Y-82116443D01*
X57917009Y-82032778D01*
X57881271Y-82003448D01*
X57779814Y-81920186D01*
X57696552Y-81818729D01*
X57667222Y-81782991D01*
X57583557Y-81626466D01*
X57532037Y-81456627D01*
X57514641Y-81280000D01*
X57532037Y-81103373D01*
X57583557Y-80933534D01*
X57667222Y-80777009D01*
X57696552Y-80741271D01*
X57779814Y-80639814D01*
X57881271Y-80556552D01*
X57917009Y-80527222D01*
X58073534Y-80443557D01*
X58243373Y-80392037D01*
X58309558Y-80385518D01*
X58375740Y-80379000D01*
X58464260Y-80379000D01*
X58530442Y-80385518D01*
X58530442Y-80385518D01*
G37*
G36*
X61070442Y-80385518D02*
G01*
X61136627Y-80392037D01*
X61306466Y-80443557D01*
X61462991Y-80527222D01*
X61498729Y-80556552D01*
X61600186Y-80639814D01*
X61683448Y-80741271D01*
X61712778Y-80777009D01*
X61796443Y-80933534D01*
X61847963Y-81103373D01*
X61865359Y-81280000D01*
X61847963Y-81456627D01*
X61796443Y-81626466D01*
X61712778Y-81782991D01*
X61683448Y-81818729D01*
X61600186Y-81920186D01*
X61498729Y-82003448D01*
X61462991Y-82032778D01*
X61306466Y-82116443D01*
X61136627Y-82167963D01*
X61070443Y-82174481D01*
X61004260Y-82181000D01*
X60915740Y-82181000D01*
X60849557Y-82174481D01*
X60783373Y-82167963D01*
X60613534Y-82116443D01*
X60457009Y-82032778D01*
X60421271Y-82003448D01*
X60319814Y-81920186D01*
X60236552Y-81818729D01*
X60207222Y-81782991D01*
X60123557Y-81626466D01*
X60072037Y-81456627D01*
X60054641Y-81280000D01*
X60072037Y-81103373D01*
X60123557Y-80933534D01*
X60207222Y-80777009D01*
X60236552Y-80741271D01*
X60319814Y-80639814D01*
X60421271Y-80556552D01*
X60457009Y-80527222D01*
X60613534Y-80443557D01*
X60783373Y-80392037D01*
X60849558Y-80385518D01*
X60915740Y-80379000D01*
X61004260Y-80379000D01*
X61070442Y-80385518D01*
X61070442Y-80385518D01*
G37*
G36*
X56781000Y-82181000D02*
G01*
X54979000Y-82181000D01*
X54979000Y-80379000D01*
X56781000Y-80379000D01*
X56781000Y-82181000D01*
X56781000Y-82181000D01*
G37*
G36*
X161881000Y-80171000D02*
G01*
X159279000Y-80171000D01*
X159279000Y-77069000D01*
X161881000Y-77069000D01*
X161881000Y-80171000D01*
X161881000Y-80171000D01*
G37*
G36*
X145371000Y-80171000D02*
G01*
X142769000Y-80171000D01*
X142769000Y-77069000D01*
X145371000Y-77069000D01*
X145371000Y-80171000D01*
X145371000Y-80171000D01*
G37*
G36*
X134171000Y-80171000D02*
G01*
X131569000Y-80171000D01*
X131569000Y-77069000D01*
X134171000Y-77069000D01*
X134171000Y-80171000D01*
X134171000Y-80171000D01*
G37*
G36*
X150681000Y-80171000D02*
G01*
X148079000Y-80171000D01*
X148079000Y-77069000D01*
X150681000Y-77069000D01*
X150681000Y-80171000D01*
X150681000Y-80171000D01*
G37*
G36*
X55990443Y-77845519D02*
G01*
X56056627Y-77852037D01*
X56226466Y-77903557D01*
X56382991Y-77987222D01*
X56418729Y-78016552D01*
X56520186Y-78099814D01*
X56603448Y-78201271D01*
X56632778Y-78237009D01*
X56716443Y-78393534D01*
X56767963Y-78563373D01*
X56785359Y-78740000D01*
X56767963Y-78916627D01*
X56716443Y-79086466D01*
X56632778Y-79242991D01*
X56603448Y-79278729D01*
X56520186Y-79380186D01*
X56418729Y-79463448D01*
X56382991Y-79492778D01*
X56226466Y-79576443D01*
X56056627Y-79627963D01*
X55990442Y-79634482D01*
X55924260Y-79641000D01*
X55835740Y-79641000D01*
X55769558Y-79634482D01*
X55703373Y-79627963D01*
X55533534Y-79576443D01*
X55377009Y-79492778D01*
X55341271Y-79463448D01*
X55239814Y-79380186D01*
X55156552Y-79278729D01*
X55127222Y-79242991D01*
X55043557Y-79086466D01*
X54992037Y-78916627D01*
X54974641Y-78740000D01*
X54992037Y-78563373D01*
X55043557Y-78393534D01*
X55127222Y-78237009D01*
X55156552Y-78201271D01*
X55239814Y-78099814D01*
X55341271Y-78016552D01*
X55377009Y-77987222D01*
X55533534Y-77903557D01*
X55703373Y-77852037D01*
X55769557Y-77845519D01*
X55835740Y-77839000D01*
X55924260Y-77839000D01*
X55990443Y-77845519D01*
X55990443Y-77845519D01*
G37*
G36*
X58530443Y-77845519D02*
G01*
X58596627Y-77852037D01*
X58766466Y-77903557D01*
X58922991Y-77987222D01*
X58958729Y-78016552D01*
X59060186Y-78099814D01*
X59143448Y-78201271D01*
X59172778Y-78237009D01*
X59256443Y-78393534D01*
X59307963Y-78563373D01*
X59325359Y-78740000D01*
X59307963Y-78916627D01*
X59256443Y-79086466D01*
X59172778Y-79242991D01*
X59143448Y-79278729D01*
X59060186Y-79380186D01*
X58958729Y-79463448D01*
X58922991Y-79492778D01*
X58766466Y-79576443D01*
X58596627Y-79627963D01*
X58530442Y-79634482D01*
X58464260Y-79641000D01*
X58375740Y-79641000D01*
X58309558Y-79634482D01*
X58243373Y-79627963D01*
X58073534Y-79576443D01*
X57917009Y-79492778D01*
X57881271Y-79463448D01*
X57779814Y-79380186D01*
X57696552Y-79278729D01*
X57667222Y-79242991D01*
X57583557Y-79086466D01*
X57532037Y-78916627D01*
X57514641Y-78740000D01*
X57532037Y-78563373D01*
X57583557Y-78393534D01*
X57667222Y-78237009D01*
X57696552Y-78201271D01*
X57779814Y-78099814D01*
X57881271Y-78016552D01*
X57917009Y-77987222D01*
X58073534Y-77903557D01*
X58243373Y-77852037D01*
X58309557Y-77845519D01*
X58375740Y-77839000D01*
X58464260Y-77839000D01*
X58530443Y-77845519D01*
X58530443Y-77845519D01*
G37*
G36*
X61070443Y-77845519D02*
G01*
X61136627Y-77852037D01*
X61306466Y-77903557D01*
X61462991Y-77987222D01*
X61498729Y-78016552D01*
X61600186Y-78099814D01*
X61683448Y-78201271D01*
X61712778Y-78237009D01*
X61796443Y-78393534D01*
X61847963Y-78563373D01*
X61865359Y-78740000D01*
X61847963Y-78916627D01*
X61796443Y-79086466D01*
X61712778Y-79242991D01*
X61683448Y-79278729D01*
X61600186Y-79380186D01*
X61498729Y-79463448D01*
X61462991Y-79492778D01*
X61306466Y-79576443D01*
X61136627Y-79627963D01*
X61070442Y-79634482D01*
X61004260Y-79641000D01*
X60915740Y-79641000D01*
X60849558Y-79634482D01*
X60783373Y-79627963D01*
X60613534Y-79576443D01*
X60457009Y-79492778D01*
X60421271Y-79463448D01*
X60319814Y-79380186D01*
X60236552Y-79278729D01*
X60207222Y-79242991D01*
X60123557Y-79086466D01*
X60072037Y-78916627D01*
X60054641Y-78740000D01*
X60072037Y-78563373D01*
X60123557Y-78393534D01*
X60207222Y-78237009D01*
X60236552Y-78201271D01*
X60319814Y-78099814D01*
X60421271Y-78016552D01*
X60457009Y-77987222D01*
X60613534Y-77903557D01*
X60783373Y-77852037D01*
X60849557Y-77845519D01*
X60915740Y-77839000D01*
X61004260Y-77839000D01*
X61070443Y-77845519D01*
X61070443Y-77845519D01*
G37*
G36*
X142021000Y-72171000D02*
G01*
X139919000Y-72171000D01*
X139919000Y-70069000D01*
X142021000Y-70069000D01*
X142021000Y-72171000D01*
X142021000Y-72171000D01*
G37*
G36*
X158531000Y-72171000D02*
G01*
X156429000Y-72171000D01*
X156429000Y-70069000D01*
X158531000Y-70069000D01*
X158531000Y-72171000D01*
X158531000Y-72171000D01*
G37*
G36*
X138776564Y-70109389D02*
G01*
X138926646Y-70171555D01*
X138967835Y-70188616D01*
X139139973Y-70303635D01*
X139286365Y-70450027D01*
X139383393Y-70595239D01*
X139401385Y-70622167D01*
X139480611Y-70813436D01*
X139521000Y-71016484D01*
X139521000Y-71223516D01*
X139480611Y-71426564D01*
X139438071Y-71529264D01*
X139401384Y-71617835D01*
X139286365Y-71789973D01*
X139139973Y-71936365D01*
X138967835Y-72051384D01*
X138967834Y-72051385D01*
X138967833Y-72051385D01*
X138776564Y-72130611D01*
X138573516Y-72171000D01*
X138366484Y-72171000D01*
X138163436Y-72130611D01*
X137972167Y-72051385D01*
X137972166Y-72051385D01*
X137972165Y-72051384D01*
X137800027Y-71936365D01*
X137653635Y-71789973D01*
X137538616Y-71617835D01*
X137501929Y-71529264D01*
X137459389Y-71426564D01*
X137419000Y-71223516D01*
X137419000Y-71016484D01*
X137459389Y-70813436D01*
X137538615Y-70622167D01*
X137556608Y-70595239D01*
X137653635Y-70450027D01*
X137800027Y-70303635D01*
X137972165Y-70188616D01*
X138013354Y-70171555D01*
X138163436Y-70109389D01*
X138366484Y-70069000D01*
X138573516Y-70069000D01*
X138776564Y-70109389D01*
X138776564Y-70109389D01*
G37*
G36*
X136276564Y-70109389D02*
G01*
X136426646Y-70171555D01*
X136467835Y-70188616D01*
X136639973Y-70303635D01*
X136786365Y-70450027D01*
X136883393Y-70595239D01*
X136901385Y-70622167D01*
X136980611Y-70813436D01*
X137021000Y-71016484D01*
X137021000Y-71223516D01*
X136980611Y-71426564D01*
X136938071Y-71529264D01*
X136901384Y-71617835D01*
X136786365Y-71789973D01*
X136639973Y-71936365D01*
X136467835Y-72051384D01*
X136467834Y-72051385D01*
X136467833Y-72051385D01*
X136276564Y-72130611D01*
X136073516Y-72171000D01*
X135866484Y-72171000D01*
X135663436Y-72130611D01*
X135472167Y-72051385D01*
X135472166Y-72051385D01*
X135472165Y-72051384D01*
X135300027Y-71936365D01*
X135153635Y-71789973D01*
X135038616Y-71617835D01*
X135001929Y-71529264D01*
X134959389Y-71426564D01*
X134919000Y-71223516D01*
X134919000Y-71016484D01*
X134959389Y-70813436D01*
X135038615Y-70622167D01*
X135056608Y-70595239D01*
X135153635Y-70450027D01*
X135300027Y-70303635D01*
X135472165Y-70188616D01*
X135513354Y-70171555D01*
X135663436Y-70109389D01*
X135866484Y-70069000D01*
X136073516Y-70069000D01*
X136276564Y-70109389D01*
X136276564Y-70109389D01*
G37*
G36*
X152786564Y-70109389D02*
G01*
X152936646Y-70171555D01*
X152977835Y-70188616D01*
X153149973Y-70303635D01*
X153296365Y-70450027D01*
X153393393Y-70595239D01*
X153411385Y-70622167D01*
X153490611Y-70813436D01*
X153531000Y-71016484D01*
X153531000Y-71223516D01*
X153490611Y-71426564D01*
X153448071Y-71529264D01*
X153411384Y-71617835D01*
X153296365Y-71789973D01*
X153149973Y-71936365D01*
X152977835Y-72051384D01*
X152977834Y-72051385D01*
X152977833Y-72051385D01*
X152786564Y-72130611D01*
X152583516Y-72171000D01*
X152376484Y-72171000D01*
X152173436Y-72130611D01*
X151982167Y-72051385D01*
X151982166Y-72051385D01*
X151982165Y-72051384D01*
X151810027Y-71936365D01*
X151663635Y-71789973D01*
X151548616Y-71617835D01*
X151511929Y-71529264D01*
X151469389Y-71426564D01*
X151429000Y-71223516D01*
X151429000Y-71016484D01*
X151469389Y-70813436D01*
X151548615Y-70622167D01*
X151566608Y-70595239D01*
X151663635Y-70450027D01*
X151810027Y-70303635D01*
X151982165Y-70188616D01*
X152023354Y-70171555D01*
X152173436Y-70109389D01*
X152376484Y-70069000D01*
X152583516Y-70069000D01*
X152786564Y-70109389D01*
X152786564Y-70109389D01*
G37*
G36*
X155286564Y-70109389D02*
G01*
X155436646Y-70171555D01*
X155477835Y-70188616D01*
X155649973Y-70303635D01*
X155796365Y-70450027D01*
X155893393Y-70595239D01*
X155911385Y-70622167D01*
X155990611Y-70813436D01*
X156031000Y-71016484D01*
X156031000Y-71223516D01*
X155990611Y-71426564D01*
X155948071Y-71529264D01*
X155911384Y-71617835D01*
X155796365Y-71789973D01*
X155649973Y-71936365D01*
X155477835Y-72051384D01*
X155477834Y-72051385D01*
X155477833Y-72051385D01*
X155286564Y-72130611D01*
X155083516Y-72171000D01*
X154876484Y-72171000D01*
X154673436Y-72130611D01*
X154482167Y-72051385D01*
X154482166Y-72051385D01*
X154482165Y-72051384D01*
X154310027Y-71936365D01*
X154163635Y-71789973D01*
X154048616Y-71617835D01*
X154011929Y-71529264D01*
X153969389Y-71426564D01*
X153929000Y-71223516D01*
X153929000Y-71016484D01*
X153969389Y-70813436D01*
X154048615Y-70622167D01*
X154066608Y-70595239D01*
X154163635Y-70450027D01*
X154310027Y-70303635D01*
X154482165Y-70188616D01*
X154523354Y-70171555D01*
X154673436Y-70109389D01*
X154876484Y-70069000D01*
X155083516Y-70069000D01*
X155286564Y-70109389D01*
X155286564Y-70109389D01*
G37*
G36*
X97321000Y-69156000D02*
G01*
X97156660Y-69156000D01*
X97132274Y-69158402D01*
X97108825Y-69165515D01*
X97087214Y-69177066D01*
X97068272Y-69192611D01*
X97052727Y-69211553D01*
X97041176Y-69233164D01*
X97034063Y-69256613D01*
X97031661Y-69280999D01*
X97034063Y-69305385D01*
X97041176Y-69328834D01*
X97052727Y-69350445D01*
X97068272Y-69369387D01*
X97077345Y-69377609D01*
X97154264Y-69440736D01*
X97226244Y-69528443D01*
X97260429Y-69592399D01*
X97279728Y-69628505D01*
X97279729Y-69628508D01*
X97312666Y-69737084D01*
X97323787Y-69850000D01*
X97312666Y-69962916D01*
X97280485Y-70069000D01*
X97279728Y-70071495D01*
X97260429Y-70107601D01*
X97226244Y-70171557D01*
X97154264Y-70259264D01*
X97066557Y-70331244D01*
X96985141Y-70374761D01*
X96964766Y-70388375D01*
X96947439Y-70405702D01*
X96933826Y-70426076D01*
X96924448Y-70448715D01*
X96919668Y-70472748D01*
X96919668Y-70497252D01*
X96924448Y-70521285D01*
X96933826Y-70543924D01*
X96947440Y-70564299D01*
X96964767Y-70581626D01*
X96985141Y-70595239D01*
X97066557Y-70638756D01*
X97154264Y-70710736D01*
X97226244Y-70798443D01*
X97260429Y-70862399D01*
X97279728Y-70898505D01*
X97279729Y-70898508D01*
X97312666Y-71007084D01*
X97323787Y-71120000D01*
X97312666Y-71232916D01*
X97279729Y-71341492D01*
X97279728Y-71341495D01*
X97260429Y-71377601D01*
X97226244Y-71441557D01*
X97154264Y-71529264D01*
X97066557Y-71601244D01*
X97002601Y-71635429D01*
X96966495Y-71654728D01*
X96966492Y-71654729D01*
X96857916Y-71687666D01*
X96773298Y-71696000D01*
X96266702Y-71696000D01*
X96182084Y-71687666D01*
X96073508Y-71654729D01*
X96073505Y-71654728D01*
X96037399Y-71635429D01*
X95973443Y-71601244D01*
X95885736Y-71529264D01*
X95813756Y-71441557D01*
X95779571Y-71377601D01*
X95760272Y-71341495D01*
X95760271Y-71341492D01*
X95727334Y-71232916D01*
X95716213Y-71120000D01*
X95727334Y-71007084D01*
X95760271Y-70898508D01*
X95760272Y-70898505D01*
X95779571Y-70862399D01*
X95813756Y-70798443D01*
X95885736Y-70710736D01*
X95973443Y-70638756D01*
X96054859Y-70595239D01*
X96075234Y-70581625D01*
X96092561Y-70564298D01*
X96106174Y-70543924D01*
X96115552Y-70521285D01*
X96120332Y-70497252D01*
X96120332Y-70472748D01*
X96115552Y-70448715D01*
X96106174Y-70426076D01*
X96092560Y-70405701D01*
X96075233Y-70388374D01*
X96054859Y-70374761D01*
X95973443Y-70331244D01*
X95885736Y-70259264D01*
X95813756Y-70171557D01*
X95779571Y-70107601D01*
X95760272Y-70071495D01*
X95759515Y-70069000D01*
X95727334Y-69962916D01*
X95716213Y-69850000D01*
X95727334Y-69737084D01*
X95760271Y-69628508D01*
X95760272Y-69628505D01*
X95779571Y-69592399D01*
X95813756Y-69528443D01*
X95885736Y-69440736D01*
X95962646Y-69377617D01*
X95979965Y-69360298D01*
X95993579Y-69339923D01*
X96002957Y-69317284D01*
X96007737Y-69293251D01*
X96007737Y-69268747D01*
X96002957Y-69244714D01*
X95993579Y-69222075D01*
X95979966Y-69201701D01*
X95962639Y-69184374D01*
X95942264Y-69170760D01*
X95919625Y-69161382D01*
X95895592Y-69156602D01*
X95883340Y-69156000D01*
X95719000Y-69156000D01*
X95719000Y-68004000D01*
X97321000Y-68004000D01*
X97321000Y-69156000D01*
X97321000Y-69156000D01*
G37*
G36*
X49640443Y-66415519D02*
G01*
X49706627Y-66422037D01*
X49876466Y-66473557D01*
X50032991Y-66557222D01*
X50068729Y-66586552D01*
X50170186Y-66669814D01*
X50253448Y-66771271D01*
X50282778Y-66807009D01*
X50366443Y-66963534D01*
X50417963Y-67133373D01*
X50435359Y-67310000D01*
X50417963Y-67486627D01*
X50366443Y-67656466D01*
X50282778Y-67812991D01*
X50253448Y-67848729D01*
X50170186Y-67950186D01*
X50104612Y-68004000D01*
X50032991Y-68062778D01*
X49876466Y-68146443D01*
X49706627Y-68197963D01*
X49640443Y-68204481D01*
X49574260Y-68211000D01*
X49485740Y-68211000D01*
X49419557Y-68204481D01*
X49353373Y-68197963D01*
X49183534Y-68146443D01*
X49027009Y-68062778D01*
X48955388Y-68004000D01*
X48889814Y-67950186D01*
X48806552Y-67848729D01*
X48777222Y-67812991D01*
X48693557Y-67656466D01*
X48642037Y-67486627D01*
X48624641Y-67310000D01*
X48642037Y-67133373D01*
X48693557Y-66963534D01*
X48777222Y-66807009D01*
X48806552Y-66771271D01*
X48889814Y-66669814D01*
X48991271Y-66586552D01*
X49027009Y-66557222D01*
X49183534Y-66473557D01*
X49353373Y-66422037D01*
X49419557Y-66415519D01*
X49485740Y-66409000D01*
X49574260Y-66409000D01*
X49640443Y-66415519D01*
X49640443Y-66415519D01*
G37*
G36*
X65671000Y-68211000D02*
G01*
X63869000Y-68211000D01*
X63869000Y-66409000D01*
X65671000Y-66409000D01*
X65671000Y-68211000D01*
X65671000Y-68211000D01*
G37*
G36*
X62340443Y-66415519D02*
G01*
X62406627Y-66422037D01*
X62576466Y-66473557D01*
X62732991Y-66557222D01*
X62768729Y-66586552D01*
X62870186Y-66669814D01*
X62953448Y-66771271D01*
X62982778Y-66807009D01*
X63066443Y-66963534D01*
X63117963Y-67133373D01*
X63135359Y-67310000D01*
X63117963Y-67486627D01*
X63066443Y-67656466D01*
X62982778Y-67812991D01*
X62953448Y-67848729D01*
X62870186Y-67950186D01*
X62804612Y-68004000D01*
X62732991Y-68062778D01*
X62576466Y-68146443D01*
X62406627Y-68197963D01*
X62340443Y-68204481D01*
X62274260Y-68211000D01*
X62185740Y-68211000D01*
X62119557Y-68204481D01*
X62053373Y-68197963D01*
X61883534Y-68146443D01*
X61727009Y-68062778D01*
X61655388Y-68004000D01*
X61589814Y-67950186D01*
X61506552Y-67848729D01*
X61477222Y-67812991D01*
X61393557Y-67656466D01*
X61342037Y-67486627D01*
X61324641Y-67310000D01*
X61342037Y-67133373D01*
X61393557Y-66963534D01*
X61477222Y-66807009D01*
X61506552Y-66771271D01*
X61589814Y-66669814D01*
X61691271Y-66586552D01*
X61727009Y-66557222D01*
X61883534Y-66473557D01*
X62053373Y-66422037D01*
X62119557Y-66415519D01*
X62185740Y-66409000D01*
X62274260Y-66409000D01*
X62340443Y-66415519D01*
X62340443Y-66415519D01*
G37*
G36*
X59800443Y-66415519D02*
G01*
X59866627Y-66422037D01*
X60036466Y-66473557D01*
X60192991Y-66557222D01*
X60228729Y-66586552D01*
X60330186Y-66669814D01*
X60413448Y-66771271D01*
X60442778Y-66807009D01*
X60526443Y-66963534D01*
X60577963Y-67133373D01*
X60595359Y-67310000D01*
X60577963Y-67486627D01*
X60526443Y-67656466D01*
X60442778Y-67812991D01*
X60413448Y-67848729D01*
X60330186Y-67950186D01*
X60264612Y-68004000D01*
X60192991Y-68062778D01*
X60036466Y-68146443D01*
X59866627Y-68197963D01*
X59800443Y-68204481D01*
X59734260Y-68211000D01*
X59645740Y-68211000D01*
X59579557Y-68204481D01*
X59513373Y-68197963D01*
X59343534Y-68146443D01*
X59187009Y-68062778D01*
X59115388Y-68004000D01*
X59049814Y-67950186D01*
X58966552Y-67848729D01*
X58937222Y-67812991D01*
X58853557Y-67656466D01*
X58802037Y-67486627D01*
X58784641Y-67310000D01*
X58802037Y-67133373D01*
X58853557Y-66963534D01*
X58937222Y-66807009D01*
X58966552Y-66771271D01*
X59049814Y-66669814D01*
X59151271Y-66586552D01*
X59187009Y-66557222D01*
X59343534Y-66473557D01*
X59513373Y-66422037D01*
X59579557Y-66415519D01*
X59645740Y-66409000D01*
X59734260Y-66409000D01*
X59800443Y-66415519D01*
X59800443Y-66415519D01*
G37*
G36*
X57260443Y-66415519D02*
G01*
X57326627Y-66422037D01*
X57496466Y-66473557D01*
X57652991Y-66557222D01*
X57688729Y-66586552D01*
X57790186Y-66669814D01*
X57873448Y-66771271D01*
X57902778Y-66807009D01*
X57986443Y-66963534D01*
X58037963Y-67133373D01*
X58055359Y-67310000D01*
X58037963Y-67486627D01*
X57986443Y-67656466D01*
X57902778Y-67812991D01*
X57873448Y-67848729D01*
X57790186Y-67950186D01*
X57724612Y-68004000D01*
X57652991Y-68062778D01*
X57496466Y-68146443D01*
X57326627Y-68197963D01*
X57260443Y-68204481D01*
X57194260Y-68211000D01*
X57105740Y-68211000D01*
X57039557Y-68204481D01*
X56973373Y-68197963D01*
X56803534Y-68146443D01*
X56647009Y-68062778D01*
X56575388Y-68004000D01*
X56509814Y-67950186D01*
X56426552Y-67848729D01*
X56397222Y-67812991D01*
X56313557Y-67656466D01*
X56262037Y-67486627D01*
X56244641Y-67310000D01*
X56262037Y-67133373D01*
X56313557Y-66963534D01*
X56397222Y-66807009D01*
X56426552Y-66771271D01*
X56509814Y-66669814D01*
X56611271Y-66586552D01*
X56647009Y-66557222D01*
X56803534Y-66473557D01*
X56973373Y-66422037D01*
X57039557Y-66415519D01*
X57105740Y-66409000D01*
X57194260Y-66409000D01*
X57260443Y-66415519D01*
X57260443Y-66415519D01*
G37*
G36*
X54720443Y-66415519D02*
G01*
X54786627Y-66422037D01*
X54956466Y-66473557D01*
X55112991Y-66557222D01*
X55148729Y-66586552D01*
X55250186Y-66669814D01*
X55333448Y-66771271D01*
X55362778Y-66807009D01*
X55446443Y-66963534D01*
X55497963Y-67133373D01*
X55515359Y-67310000D01*
X55497963Y-67486627D01*
X55446443Y-67656466D01*
X55362778Y-67812991D01*
X55333448Y-67848729D01*
X55250186Y-67950186D01*
X55184612Y-68004000D01*
X55112991Y-68062778D01*
X54956466Y-68146443D01*
X54786627Y-68197963D01*
X54720443Y-68204481D01*
X54654260Y-68211000D01*
X54565740Y-68211000D01*
X54499557Y-68204481D01*
X54433373Y-68197963D01*
X54263534Y-68146443D01*
X54107009Y-68062778D01*
X54035388Y-68004000D01*
X53969814Y-67950186D01*
X53886552Y-67848729D01*
X53857222Y-67812991D01*
X53773557Y-67656466D01*
X53722037Y-67486627D01*
X53704641Y-67310000D01*
X53722037Y-67133373D01*
X53773557Y-66963534D01*
X53857222Y-66807009D01*
X53886552Y-66771271D01*
X53969814Y-66669814D01*
X54071271Y-66586552D01*
X54107009Y-66557222D01*
X54263534Y-66473557D01*
X54433373Y-66422037D01*
X54499557Y-66415519D01*
X54565740Y-66409000D01*
X54654260Y-66409000D01*
X54720443Y-66415519D01*
X54720443Y-66415519D01*
G37*
G36*
X52180443Y-66415519D02*
G01*
X52246627Y-66422037D01*
X52416466Y-66473557D01*
X52572991Y-66557222D01*
X52608729Y-66586552D01*
X52710186Y-66669814D01*
X52793448Y-66771271D01*
X52822778Y-66807009D01*
X52906443Y-66963534D01*
X52957963Y-67133373D01*
X52975359Y-67310000D01*
X52957963Y-67486627D01*
X52906443Y-67656466D01*
X52822778Y-67812991D01*
X52793448Y-67848729D01*
X52710186Y-67950186D01*
X52644612Y-68004000D01*
X52572991Y-68062778D01*
X52416466Y-68146443D01*
X52246627Y-68197963D01*
X52180443Y-68204481D01*
X52114260Y-68211000D01*
X52025740Y-68211000D01*
X51959557Y-68204481D01*
X51893373Y-68197963D01*
X51723534Y-68146443D01*
X51567009Y-68062778D01*
X51495388Y-68004000D01*
X51429814Y-67950186D01*
X51346552Y-67848729D01*
X51317222Y-67812991D01*
X51233557Y-67656466D01*
X51182037Y-67486627D01*
X51164641Y-67310000D01*
X51182037Y-67133373D01*
X51233557Y-66963534D01*
X51317222Y-66807009D01*
X51346552Y-66771271D01*
X51429814Y-66669814D01*
X51531271Y-66586552D01*
X51567009Y-66557222D01*
X51723534Y-66473557D01*
X51893373Y-66422037D01*
X51959557Y-66415519D01*
X52025740Y-66409000D01*
X52114260Y-66409000D01*
X52180443Y-66415519D01*
X52180443Y-66415519D01*
G37*
G36*
X47100443Y-66415519D02*
G01*
X47166627Y-66422037D01*
X47336466Y-66473557D01*
X47492991Y-66557222D01*
X47528729Y-66586552D01*
X47630186Y-66669814D01*
X47713448Y-66771271D01*
X47742778Y-66807009D01*
X47826443Y-66963534D01*
X47877963Y-67133373D01*
X47895359Y-67310000D01*
X47877963Y-67486627D01*
X47826443Y-67656466D01*
X47742778Y-67812991D01*
X47713448Y-67848729D01*
X47630186Y-67950186D01*
X47564612Y-68004000D01*
X47492991Y-68062778D01*
X47336466Y-68146443D01*
X47166627Y-68197963D01*
X47100443Y-68204481D01*
X47034260Y-68211000D01*
X46945740Y-68211000D01*
X46879557Y-68204481D01*
X46813373Y-68197963D01*
X46643534Y-68146443D01*
X46487009Y-68062778D01*
X46415388Y-68004000D01*
X46349814Y-67950186D01*
X46266552Y-67848729D01*
X46237222Y-67812991D01*
X46153557Y-67656466D01*
X46102037Y-67486627D01*
X46084641Y-67310000D01*
X46102037Y-67133373D01*
X46153557Y-66963534D01*
X46237222Y-66807009D01*
X46266552Y-66771271D01*
X46349814Y-66669814D01*
X46451271Y-66586552D01*
X46487009Y-66557222D01*
X46643534Y-66473557D01*
X46813373Y-66422037D01*
X46879557Y-66415519D01*
X46945740Y-66409000D01*
X47034260Y-66409000D01*
X47100443Y-66415519D01*
X47100443Y-66415519D01*
G37*
G36*
X44560443Y-66415519D02*
G01*
X44626627Y-66422037D01*
X44796466Y-66473557D01*
X44952991Y-66557222D01*
X44988729Y-66586552D01*
X45090186Y-66669814D01*
X45173448Y-66771271D01*
X45202778Y-66807009D01*
X45286443Y-66963534D01*
X45337963Y-67133373D01*
X45355359Y-67310000D01*
X45337963Y-67486627D01*
X45286443Y-67656466D01*
X45202778Y-67812991D01*
X45173448Y-67848729D01*
X45090186Y-67950186D01*
X45024612Y-68004000D01*
X44952991Y-68062778D01*
X44796466Y-68146443D01*
X44626627Y-68197963D01*
X44560443Y-68204481D01*
X44494260Y-68211000D01*
X44405740Y-68211000D01*
X44339557Y-68204481D01*
X44273373Y-68197963D01*
X44103534Y-68146443D01*
X43947009Y-68062778D01*
X43875388Y-68004000D01*
X43809814Y-67950186D01*
X43726552Y-67848729D01*
X43697222Y-67812991D01*
X43613557Y-67656466D01*
X43562037Y-67486627D01*
X43544641Y-67310000D01*
X43562037Y-67133373D01*
X43613557Y-66963534D01*
X43697222Y-66807009D01*
X43726552Y-66771271D01*
X43809814Y-66669814D01*
X43911271Y-66586552D01*
X43947009Y-66557222D01*
X44103534Y-66473557D01*
X44273373Y-66422037D01*
X44339557Y-66415519D01*
X44405740Y-66409000D01*
X44494260Y-66409000D01*
X44560443Y-66415519D01*
X44560443Y-66415519D01*
G37*
G36*
X42020443Y-66415519D02*
G01*
X42086627Y-66422037D01*
X42256466Y-66473557D01*
X42412991Y-66557222D01*
X42448729Y-66586552D01*
X42550186Y-66669814D01*
X42633448Y-66771271D01*
X42662778Y-66807009D01*
X42746443Y-66963534D01*
X42797963Y-67133373D01*
X42815359Y-67310000D01*
X42797963Y-67486627D01*
X42746443Y-67656466D01*
X42662778Y-67812991D01*
X42633448Y-67848729D01*
X42550186Y-67950186D01*
X42484612Y-68004000D01*
X42412991Y-68062778D01*
X42256466Y-68146443D01*
X42086627Y-68197963D01*
X42020443Y-68204481D01*
X41954260Y-68211000D01*
X41865740Y-68211000D01*
X41799557Y-68204481D01*
X41733373Y-68197963D01*
X41563534Y-68146443D01*
X41407009Y-68062778D01*
X41335388Y-68004000D01*
X41269814Y-67950186D01*
X41186552Y-67848729D01*
X41157222Y-67812991D01*
X41073557Y-67656466D01*
X41022037Y-67486627D01*
X41004641Y-67310000D01*
X41022037Y-67133373D01*
X41073557Y-66963534D01*
X41157222Y-66807009D01*
X41186552Y-66771271D01*
X41269814Y-66669814D01*
X41371271Y-66586552D01*
X41407009Y-66557222D01*
X41563534Y-66473557D01*
X41733373Y-66422037D01*
X41799557Y-66415519D01*
X41865740Y-66409000D01*
X41954260Y-66409000D01*
X42020443Y-66415519D01*
X42020443Y-66415519D01*
G37*
G36*
X98038228Y-61411703D02*
G01*
X98193100Y-61475853D01*
X98332481Y-61568985D01*
X98451015Y-61687519D01*
X98544147Y-61826900D01*
X98608297Y-61981772D01*
X98641000Y-62146184D01*
X98641000Y-62313816D01*
X98608297Y-62478228D01*
X98544147Y-62633100D01*
X98451015Y-62772481D01*
X98332481Y-62891015D01*
X98193100Y-62984147D01*
X98038228Y-63048297D01*
X97873816Y-63081000D01*
X97706184Y-63081000D01*
X97541772Y-63048297D01*
X97386900Y-62984147D01*
X97247519Y-62891015D01*
X97128985Y-62772481D01*
X97035853Y-62633100D01*
X96971703Y-62478228D01*
X96939000Y-62313816D01*
X96939000Y-62146184D01*
X96971703Y-61981772D01*
X97035853Y-61826900D01*
X97128985Y-61687519D01*
X97247519Y-61568985D01*
X97386900Y-61475853D01*
X97541772Y-61411703D01*
X97706184Y-61379000D01*
X97873816Y-61379000D01*
X98038228Y-61411703D01*
X98038228Y-61411703D01*
G37*
G36*
X90418228Y-61411703D02*
G01*
X90573100Y-61475853D01*
X90712481Y-61568985D01*
X90831015Y-61687519D01*
X90924147Y-61826900D01*
X90988297Y-61981772D01*
X91021000Y-62146184D01*
X91021000Y-62313816D01*
X90988297Y-62478228D01*
X90924147Y-62633100D01*
X90831015Y-62772481D01*
X90712481Y-62891015D01*
X90573100Y-62984147D01*
X90418228Y-63048297D01*
X90253816Y-63081000D01*
X90086184Y-63081000D01*
X89921772Y-63048297D01*
X89766900Y-62984147D01*
X89627519Y-62891015D01*
X89508985Y-62772481D01*
X89415853Y-62633100D01*
X89351703Y-62478228D01*
X89319000Y-62313816D01*
X89319000Y-62146184D01*
X89351703Y-61981772D01*
X89415853Y-61826900D01*
X89508985Y-61687519D01*
X89627519Y-61568985D01*
X89766900Y-61475853D01*
X89921772Y-61411703D01*
X90086184Y-61379000D01*
X90253816Y-61379000D01*
X90418228Y-61411703D01*
X90418228Y-61411703D01*
G37*
G36*
X82798228Y-61411703D02*
G01*
X82953100Y-61475853D01*
X83092481Y-61568985D01*
X83211015Y-61687519D01*
X83304147Y-61826900D01*
X83368297Y-61981772D01*
X83401000Y-62146184D01*
X83401000Y-62313816D01*
X83368297Y-62478228D01*
X83304147Y-62633100D01*
X83211015Y-62772481D01*
X83092481Y-62891015D01*
X82953100Y-62984147D01*
X82798228Y-63048297D01*
X82633816Y-63081000D01*
X82466184Y-63081000D01*
X82301772Y-63048297D01*
X82146900Y-62984147D01*
X82007519Y-62891015D01*
X81888985Y-62772481D01*
X81795853Y-62633100D01*
X81731703Y-62478228D01*
X81699000Y-62313816D01*
X81699000Y-62146184D01*
X81731703Y-61981772D01*
X81795853Y-61826900D01*
X81888985Y-61687519D01*
X82007519Y-61568985D01*
X82146900Y-61475853D01*
X82301772Y-61411703D01*
X82466184Y-61379000D01*
X82633816Y-61379000D01*
X82798228Y-61411703D01*
X82798228Y-61411703D01*
G37*
G36*
X82798228Y-58911703D02*
G01*
X82953100Y-58975853D01*
X83092481Y-59068985D01*
X83211015Y-59187519D01*
X83304147Y-59326900D01*
X83368297Y-59481772D01*
X83401000Y-59646184D01*
X83401000Y-59813816D01*
X83368297Y-59978228D01*
X83304147Y-60133100D01*
X83211015Y-60272481D01*
X83092481Y-60391015D01*
X82953100Y-60484147D01*
X82798228Y-60548297D01*
X82633816Y-60581000D01*
X82466184Y-60581000D01*
X82301772Y-60548297D01*
X82146900Y-60484147D01*
X82007519Y-60391015D01*
X81888985Y-60272481D01*
X81795853Y-60133100D01*
X81731703Y-59978228D01*
X81699000Y-59813816D01*
X81699000Y-59646184D01*
X81731703Y-59481772D01*
X81795853Y-59326900D01*
X81888985Y-59187519D01*
X82007519Y-59068985D01*
X82146900Y-58975853D01*
X82301772Y-58911703D01*
X82466184Y-58879000D01*
X82633816Y-58879000D01*
X82798228Y-58911703D01*
X82798228Y-58911703D01*
G37*
G36*
X90418228Y-58911703D02*
G01*
X90573100Y-58975853D01*
X90712481Y-59068985D01*
X90831015Y-59187519D01*
X90924147Y-59326900D01*
X90988297Y-59481772D01*
X91021000Y-59646184D01*
X91021000Y-59813816D01*
X90988297Y-59978228D01*
X90924147Y-60133100D01*
X90831015Y-60272481D01*
X90712481Y-60391015D01*
X90573100Y-60484147D01*
X90418228Y-60548297D01*
X90253816Y-60581000D01*
X90086184Y-60581000D01*
X89921772Y-60548297D01*
X89766900Y-60484147D01*
X89627519Y-60391015D01*
X89508985Y-60272481D01*
X89415853Y-60133100D01*
X89351703Y-59978228D01*
X89319000Y-59813816D01*
X89319000Y-59646184D01*
X89351703Y-59481772D01*
X89415853Y-59326900D01*
X89508985Y-59187519D01*
X89627519Y-59068985D01*
X89766900Y-58975853D01*
X89921772Y-58911703D01*
X90086184Y-58879000D01*
X90253816Y-58879000D01*
X90418228Y-58911703D01*
X90418228Y-58911703D01*
G37*
G36*
X98038228Y-58911703D02*
G01*
X98193100Y-58975853D01*
X98332481Y-59068985D01*
X98451015Y-59187519D01*
X98544147Y-59326900D01*
X98608297Y-59481772D01*
X98641000Y-59646184D01*
X98641000Y-59813816D01*
X98608297Y-59978228D01*
X98544147Y-60133100D01*
X98451015Y-60272481D01*
X98332481Y-60391015D01*
X98193100Y-60484147D01*
X98038228Y-60548297D01*
X97873816Y-60581000D01*
X97706184Y-60581000D01*
X97541772Y-60548297D01*
X97386900Y-60484147D01*
X97247519Y-60391015D01*
X97128985Y-60272481D01*
X97035853Y-60133100D01*
X96971703Y-59978228D01*
X96939000Y-59813816D01*
X96939000Y-59646184D01*
X96971703Y-59481772D01*
X97035853Y-59326900D01*
X97128985Y-59187519D01*
X97247519Y-59068985D01*
X97386900Y-58975853D01*
X97541772Y-58911703D01*
X97706184Y-58879000D01*
X97873816Y-58879000D01*
X98038228Y-58911703D01*
X98038228Y-58911703D01*
G37*
G36*
X42167715Y-53314383D02*
G01*
X42295322Y-53339765D01*
X42436148Y-53398097D01*
X42535727Y-53439344D01*
X42535728Y-53439345D01*
X42752089Y-53583912D01*
X42936088Y-53767911D01*
X43032685Y-53912479D01*
X43080656Y-53984273D01*
X43121903Y-54083852D01*
X43180235Y-54224678D01*
X43231000Y-54479893D01*
X43231000Y-54740107D01*
X43180235Y-54995322D01*
X43154292Y-55057953D01*
X43080656Y-55235727D01*
X43080655Y-55235728D01*
X42936088Y-55452089D01*
X42752089Y-55636088D01*
X42607521Y-55732685D01*
X42535727Y-55780656D01*
X42436148Y-55821903D01*
X42295322Y-55880235D01*
X42167715Y-55905617D01*
X42040109Y-55931000D01*
X41779891Y-55931000D01*
X41652285Y-55905617D01*
X41524678Y-55880235D01*
X41383852Y-55821903D01*
X41284273Y-55780656D01*
X41212479Y-55732685D01*
X41067911Y-55636088D01*
X40883912Y-55452089D01*
X40739345Y-55235728D01*
X40739344Y-55235727D01*
X40665708Y-55057953D01*
X40639765Y-54995322D01*
X40589000Y-54740107D01*
X40589000Y-54479893D01*
X40639765Y-54224678D01*
X40698097Y-54083852D01*
X40739344Y-53984273D01*
X40787315Y-53912479D01*
X40883912Y-53767911D01*
X41067911Y-53583912D01*
X41284272Y-53439345D01*
X41284273Y-53439344D01*
X41383852Y-53398097D01*
X41524678Y-53339765D01*
X41652286Y-53314382D01*
X41779891Y-53289000D01*
X42040109Y-53289000D01*
X42167715Y-53314383D01*
X42167715Y-53314383D01*
G37*
G36*
X61011000Y-55931000D02*
G01*
X58369000Y-55931000D01*
X58369000Y-53289000D01*
X61011000Y-53289000D01*
X61011000Y-55931000D01*
X61011000Y-55931000D01*
G37*
G36*
X53037547Y-40883791D02*
G01*
X54433580Y-41462047D01*
X54850480Y-41740611D01*
X55689978Y-42301545D01*
X56758455Y-43370022D01*
X57275233Y-44143435D01*
X57597953Y-44626420D01*
X58176209Y-46022453D01*
X58471000Y-47504471D01*
X58471000Y-49015529D01*
X58176209Y-50497547D01*
X57597953Y-51893580D01*
X57342876Y-52275329D01*
X56758455Y-53149978D01*
X55689978Y-54218455D01*
X55298711Y-54479891D01*
X54433580Y-55057953D01*
X53037547Y-55636209D01*
X51555529Y-55931000D01*
X50044471Y-55931000D01*
X48562453Y-55636209D01*
X47166420Y-55057953D01*
X46301289Y-54479891D01*
X45910022Y-54218455D01*
X44841545Y-53149978D01*
X44257124Y-52275329D01*
X44002047Y-51893580D01*
X43423791Y-50497547D01*
X43129000Y-49015529D01*
X43129000Y-47504471D01*
X43423791Y-46022453D01*
X44002047Y-44626420D01*
X44324767Y-44143435D01*
X44841545Y-43370022D01*
X45910022Y-42301545D01*
X46749520Y-41740611D01*
X47166420Y-41462047D01*
X48562453Y-40883791D01*
X50044471Y-40589000D01*
X51555529Y-40589000D01*
X53037547Y-40883791D01*
X53037547Y-40883791D01*
G37*
G36*
X32494098Y-48347033D02*
G01*
X32958350Y-48539332D01*
X32958352Y-48539333D01*
X33376168Y-48818509D01*
X33731491Y-49173832D01*
X34010667Y-49591648D01*
X34010668Y-49591650D01*
X34202967Y-50055902D01*
X34301000Y-50548747D01*
X34301000Y-51051253D01*
X34202967Y-51544098D01*
X34021182Y-51982966D01*
X34010667Y-52008352D01*
X33731491Y-52426168D01*
X33376168Y-52781491D01*
X32958352Y-53060667D01*
X32958351Y-53060668D01*
X32958350Y-53060668D01*
X32494098Y-53252967D01*
X32001253Y-53351000D01*
X31498747Y-53351000D01*
X31005902Y-53252967D01*
X30541650Y-53060668D01*
X30541649Y-53060668D01*
X30541648Y-53060667D01*
X30123832Y-52781491D01*
X29768509Y-52426168D01*
X29489333Y-52008352D01*
X29478818Y-51982966D01*
X29297033Y-51544098D01*
X29199000Y-51051253D01*
X29199000Y-50548747D01*
X29297033Y-50055902D01*
X29489332Y-49591650D01*
X29489333Y-49591648D01*
X29768509Y-49173832D01*
X30123832Y-48818509D01*
X30541648Y-48539333D01*
X30541650Y-48539332D01*
X31005902Y-48347033D01*
X31498747Y-48249000D01*
X32001253Y-48249000D01*
X32494098Y-48347033D01*
X32494098Y-48347033D01*
G37*
G36*
X79046564Y-51059389D02*
G01*
X79186866Y-51117504D01*
X79237835Y-51138616D01*
X79409973Y-51253635D01*
X79556365Y-51400027D01*
X79591203Y-51452165D01*
X79671385Y-51572167D01*
X79750611Y-51763436D01*
X79791000Y-51966484D01*
X79791000Y-52173516D01*
X79750611Y-52376564D01*
X79671385Y-52567833D01*
X79671384Y-52567835D01*
X79556365Y-52739973D01*
X79409973Y-52886365D01*
X79237835Y-53001384D01*
X79237834Y-53001385D01*
X79237833Y-53001385D01*
X79046564Y-53080611D01*
X78843516Y-53121000D01*
X78636484Y-53121000D01*
X78433436Y-53080611D01*
X78242167Y-53001385D01*
X78242166Y-53001385D01*
X78242165Y-53001384D01*
X78070027Y-52886365D01*
X77923635Y-52739973D01*
X77808616Y-52567835D01*
X77808615Y-52567833D01*
X77729389Y-52376564D01*
X77689000Y-52173516D01*
X77689000Y-51966484D01*
X77729389Y-51763436D01*
X77808615Y-51572167D01*
X77888798Y-51452165D01*
X77923635Y-51400027D01*
X78070027Y-51253635D01*
X78242165Y-51138616D01*
X78293134Y-51117504D01*
X78433436Y-51059389D01*
X78636484Y-51019000D01*
X78843516Y-51019000D01*
X79046564Y-51059389D01*
X79046564Y-51059389D01*
G37*
G36*
X98096564Y-50939389D02*
G01*
X98287833Y-51018615D01*
X98287835Y-51018616D01*
X98363919Y-51069454D01*
X98459973Y-51133635D01*
X98606365Y-51280027D01*
X98721385Y-51452167D01*
X98800611Y-51643436D01*
X98841000Y-51846484D01*
X98841000Y-52053516D01*
X98800611Y-52256564D01*
X98750905Y-52376565D01*
X98721384Y-52447835D01*
X98606365Y-52619973D01*
X98459973Y-52766365D01*
X98287835Y-52881384D01*
X98287834Y-52881385D01*
X98287833Y-52881385D01*
X98096564Y-52960611D01*
X97893516Y-53001000D01*
X97686484Y-53001000D01*
X97483436Y-52960611D01*
X97292167Y-52881385D01*
X97292166Y-52881385D01*
X97292165Y-52881384D01*
X97120027Y-52766365D01*
X96973635Y-52619973D01*
X96858616Y-52447835D01*
X96829095Y-52376565D01*
X96779389Y-52256564D01*
X96739000Y-52053516D01*
X96739000Y-51846484D01*
X96779389Y-51643436D01*
X96858615Y-51452167D01*
X96973635Y-51280027D01*
X97120027Y-51133635D01*
X97216081Y-51069454D01*
X97292165Y-51018616D01*
X97292167Y-51018615D01*
X97483436Y-50939389D01*
X97686484Y-50899000D01*
X97893516Y-50899000D01*
X98096564Y-50939389D01*
X98096564Y-50939389D01*
G37*
G36*
X159494098Y-47077033D02*
G01*
X159958350Y-47269332D01*
X159958352Y-47269333D01*
X160376168Y-47548509D01*
X160731491Y-47903832D01*
X160866575Y-48106000D01*
X161010668Y-48321650D01*
X161202967Y-48785902D01*
X161301000Y-49278747D01*
X161301000Y-49781253D01*
X161202967Y-50274098D01*
X161050496Y-50642196D01*
X161010667Y-50738352D01*
X160731491Y-51156168D01*
X160376168Y-51511491D01*
X159958352Y-51790667D01*
X159958351Y-51790668D01*
X159958350Y-51790668D01*
X159494098Y-51982967D01*
X159001253Y-52081000D01*
X158498747Y-52081000D01*
X158005902Y-51982967D01*
X157541650Y-51790668D01*
X157541649Y-51790668D01*
X157541648Y-51790667D01*
X157123832Y-51511491D01*
X156768509Y-51156168D01*
X156489333Y-50738352D01*
X156449504Y-50642196D01*
X156297033Y-50274098D01*
X156199000Y-49781253D01*
X156199000Y-49278747D01*
X156297033Y-48785902D01*
X156489332Y-48321650D01*
X156633425Y-48106000D01*
X156768509Y-47903832D01*
X157123832Y-47548509D01*
X157541648Y-47269333D01*
X157541650Y-47269332D01*
X158005902Y-47077033D01*
X158498747Y-46979000D01*
X159001253Y-46979000D01*
X159494098Y-47077033D01*
X159494098Y-47077033D01*
G37*
G36*
X142352915Y-47467334D02*
G01*
X142461491Y-47500271D01*
X142461494Y-47500272D01*
X142497600Y-47519571D01*
X142561556Y-47553756D01*
X142649264Y-47625736D01*
X142721244Y-47713443D01*
X142751745Y-47770507D01*
X142774728Y-47813505D01*
X142774729Y-47813508D01*
X142807666Y-47922084D01*
X142816000Y-48006702D01*
X142816000Y-48513297D01*
X142807666Y-48597916D01*
X142775252Y-48704767D01*
X142774728Y-48706495D01*
X142764761Y-48725141D01*
X142721244Y-48806557D01*
X142649264Y-48894264D01*
X142561557Y-48966244D01*
X142497601Y-49000429D01*
X142461495Y-49019728D01*
X142461492Y-49019729D01*
X142352916Y-49052666D01*
X142240000Y-49063787D01*
X142127085Y-49052666D01*
X142018509Y-49019729D01*
X142018506Y-49019728D01*
X141982400Y-49000429D01*
X141918444Y-48966244D01*
X141830737Y-48894264D01*
X141758757Y-48806557D01*
X141715239Y-48725141D01*
X141701625Y-48704766D01*
X141684298Y-48687439D01*
X141663924Y-48673826D01*
X141641285Y-48664448D01*
X141617252Y-48659668D01*
X141592748Y-48659668D01*
X141568715Y-48664448D01*
X141546076Y-48673826D01*
X141525701Y-48687440D01*
X141508374Y-48704767D01*
X141494761Y-48725141D01*
X141451244Y-48806557D01*
X141379264Y-48894264D01*
X141291557Y-48966244D01*
X141227601Y-49000429D01*
X141191495Y-49019728D01*
X141191492Y-49019729D01*
X141082916Y-49052666D01*
X140970000Y-49063787D01*
X140857085Y-49052666D01*
X140748509Y-49019729D01*
X140748506Y-49019728D01*
X140712400Y-49000429D01*
X140648444Y-48966244D01*
X140560737Y-48894264D01*
X140497622Y-48817359D01*
X140480297Y-48800034D01*
X140459923Y-48786420D01*
X140437284Y-48777043D01*
X140413250Y-48772263D01*
X140388746Y-48772263D01*
X140364713Y-48777044D01*
X140342074Y-48786421D01*
X140321700Y-48800035D01*
X140304373Y-48817362D01*
X140290759Y-48837736D01*
X140281382Y-48860375D01*
X140276000Y-48896660D01*
X140276000Y-49061000D01*
X139124000Y-49061000D01*
X139124000Y-47459000D01*
X140276000Y-47459000D01*
X140276000Y-47623341D01*
X140278402Y-47647727D01*
X140285515Y-47671176D01*
X140297066Y-47692787D01*
X140312611Y-47711729D01*
X140331553Y-47727274D01*
X140353164Y-47738825D01*
X140376613Y-47745938D01*
X140400999Y-47748340D01*
X140425385Y-47745938D01*
X140448834Y-47738825D01*
X140470445Y-47727274D01*
X140489387Y-47711729D01*
X140497608Y-47702657D01*
X140560736Y-47625736D01*
X140648443Y-47553756D01*
X140712399Y-47519571D01*
X140748505Y-47500272D01*
X140748508Y-47500271D01*
X140857084Y-47467334D01*
X140970000Y-47456213D01*
X141082915Y-47467334D01*
X141191491Y-47500271D01*
X141191494Y-47500272D01*
X141227600Y-47519571D01*
X141291556Y-47553756D01*
X141379264Y-47625736D01*
X141451244Y-47713443D01*
X141490321Y-47786552D01*
X141494761Y-47794859D01*
X141508375Y-47815234D01*
X141525702Y-47832561D01*
X141546076Y-47846174D01*
X141568715Y-47855552D01*
X141592748Y-47860332D01*
X141617252Y-47860332D01*
X141641285Y-47855552D01*
X141663924Y-47846174D01*
X141684299Y-47832560D01*
X141701626Y-47815233D01*
X141715239Y-47794860D01*
X141758756Y-47713444D01*
X141830736Y-47625736D01*
X141918443Y-47553756D01*
X141982399Y-47519571D01*
X142018505Y-47500272D01*
X142018508Y-47500271D01*
X142127084Y-47467334D01*
X142240000Y-47456213D01*
X142352915Y-47467334D01*
X142352915Y-47467334D01*
G37*
G36*
X79046564Y-43559389D02*
G01*
X79225810Y-43633635D01*
X79237835Y-43638616D01*
X79409973Y-43753635D01*
X79556365Y-43900027D01*
X79591203Y-43952165D01*
X79671385Y-44072167D01*
X79750611Y-44263436D01*
X79791000Y-44466484D01*
X79791000Y-44673516D01*
X79750611Y-44876564D01*
X79671385Y-45067833D01*
X79671384Y-45067835D01*
X79556365Y-45239973D01*
X79409973Y-45386365D01*
X79237835Y-45501384D01*
X79237834Y-45501385D01*
X79237833Y-45501385D01*
X79046564Y-45580611D01*
X78843516Y-45621000D01*
X78636484Y-45621000D01*
X78433436Y-45580611D01*
X78242167Y-45501385D01*
X78242166Y-45501385D01*
X78242165Y-45501384D01*
X78070027Y-45386365D01*
X77923635Y-45239973D01*
X77808616Y-45067835D01*
X77808615Y-45067833D01*
X77729389Y-44876564D01*
X77689000Y-44673516D01*
X77689000Y-44466484D01*
X77729389Y-44263436D01*
X77808615Y-44072167D01*
X77888798Y-43952165D01*
X77923635Y-43900027D01*
X78070027Y-43753635D01*
X78242165Y-43638616D01*
X78254190Y-43633635D01*
X78433436Y-43559389D01*
X78636484Y-43519000D01*
X78843516Y-43519000D01*
X79046564Y-43559389D01*
X79046564Y-43559389D01*
G37*
G36*
X98096564Y-43439389D02*
G01*
X98287833Y-43518615D01*
X98287835Y-43518616D01*
X98459973Y-43633635D01*
X98606365Y-43780027D01*
X98721385Y-43952167D01*
X98800611Y-44143436D01*
X98841000Y-44346484D01*
X98841000Y-44553516D01*
X98800611Y-44756564D01*
X98750905Y-44876565D01*
X98721384Y-44947835D01*
X98606365Y-45119973D01*
X98459973Y-45266365D01*
X98287835Y-45381384D01*
X98287834Y-45381385D01*
X98287833Y-45381385D01*
X98096564Y-45460611D01*
X97893516Y-45501000D01*
X97686484Y-45501000D01*
X97483436Y-45460611D01*
X97292167Y-45381385D01*
X97292166Y-45381385D01*
X97292165Y-45381384D01*
X97120027Y-45266365D01*
X96973635Y-45119973D01*
X96858616Y-44947835D01*
X96829095Y-44876565D01*
X96779389Y-44756564D01*
X96739000Y-44553516D01*
X96739000Y-44346484D01*
X96779389Y-44143436D01*
X96858615Y-43952167D01*
X96973635Y-43780027D01*
X97120027Y-43633635D01*
X97292165Y-43518616D01*
X97292167Y-43518615D01*
X97483436Y-43439389D01*
X97686484Y-43399000D01*
X97893516Y-43399000D01*
X98096564Y-43439389D01*
X98096564Y-43439389D01*
G37*
G36*
X117891000Y-44231000D02*
G01*
X115789000Y-44231000D01*
X115789000Y-42129000D01*
X117891000Y-42129000D01*
X117891000Y-44231000D01*
X117891000Y-44231000D01*
G37*
G36*
X127306564Y-42169389D02*
G01*
X127497833Y-42248615D01*
X127497835Y-42248616D01*
X127567732Y-42295320D01*
X127669973Y-42363635D01*
X127816365Y-42510027D01*
X127931385Y-42682167D01*
X128010611Y-42873436D01*
X128051000Y-43076484D01*
X128051000Y-43283516D01*
X128010611Y-43486564D01*
X127947629Y-43638616D01*
X127931384Y-43677835D01*
X127816365Y-43849973D01*
X127669973Y-43996365D01*
X127497835Y-44111384D01*
X127497834Y-44111385D01*
X127497833Y-44111385D01*
X127306564Y-44190611D01*
X127103516Y-44231000D01*
X126896484Y-44231000D01*
X126693436Y-44190611D01*
X126502167Y-44111385D01*
X126502166Y-44111385D01*
X126502165Y-44111384D01*
X126330027Y-43996365D01*
X126183635Y-43849973D01*
X126068616Y-43677835D01*
X126052371Y-43638616D01*
X125989389Y-43486564D01*
X125949000Y-43283516D01*
X125949000Y-43076484D01*
X125989389Y-42873436D01*
X126068615Y-42682167D01*
X126183635Y-42510027D01*
X126330027Y-42363635D01*
X126432268Y-42295320D01*
X126502165Y-42248616D01*
X126502167Y-42248615D01*
X126693436Y-42169389D01*
X126896484Y-42129000D01*
X127103516Y-42129000D01*
X127306564Y-42169389D01*
X127306564Y-42169389D01*
G37*
G36*
X119686564Y-42169389D02*
G01*
X119877833Y-42248615D01*
X119877835Y-42248616D01*
X119947732Y-42295320D01*
X120049973Y-42363635D01*
X120196365Y-42510027D01*
X120311385Y-42682167D01*
X120390611Y-42873436D01*
X120431000Y-43076484D01*
X120431000Y-43283516D01*
X120390611Y-43486564D01*
X120327629Y-43638616D01*
X120311384Y-43677835D01*
X120196365Y-43849973D01*
X120049973Y-43996365D01*
X119877835Y-44111384D01*
X119877834Y-44111385D01*
X119877833Y-44111385D01*
X119686564Y-44190611D01*
X119483516Y-44231000D01*
X119276484Y-44231000D01*
X119073436Y-44190611D01*
X118882167Y-44111385D01*
X118882166Y-44111385D01*
X118882165Y-44111384D01*
X118710027Y-43996365D01*
X118563635Y-43849973D01*
X118448616Y-43677835D01*
X118432371Y-43638616D01*
X118369389Y-43486564D01*
X118329000Y-43283516D01*
X118329000Y-43076484D01*
X118369389Y-42873436D01*
X118448615Y-42682167D01*
X118563635Y-42510027D01*
X118710027Y-42363635D01*
X118812268Y-42295320D01*
X118882165Y-42248616D01*
X118882167Y-42248615D01*
X119073436Y-42169389D01*
X119276484Y-42129000D01*
X119483516Y-42129000D01*
X119686564Y-42169389D01*
X119686564Y-42169389D01*
G37*
G36*
X42167715Y-40614383D02*
G01*
X42295322Y-40639765D01*
X42436148Y-40698097D01*
X42535727Y-40739344D01*
X42535728Y-40739345D01*
X42752089Y-40883912D01*
X42936088Y-41067911D01*
X43032685Y-41212479D01*
X43080656Y-41284273D01*
X43121903Y-41383852D01*
X43180235Y-41524678D01*
X43231000Y-41779893D01*
X43231000Y-42040107D01*
X43180235Y-42295322D01*
X43121903Y-42436148D01*
X43080656Y-42535727D01*
X43080655Y-42535728D01*
X42936088Y-42752089D01*
X42752089Y-42936088D01*
X42607521Y-43032685D01*
X42535727Y-43080656D01*
X42436148Y-43121903D01*
X42295322Y-43180235D01*
X42167715Y-43205617D01*
X42040109Y-43231000D01*
X41779891Y-43231000D01*
X41652285Y-43205617D01*
X41524678Y-43180235D01*
X41383852Y-43121903D01*
X41284273Y-43080656D01*
X41212479Y-43032685D01*
X41067911Y-42936088D01*
X40883912Y-42752089D01*
X40739345Y-42535728D01*
X40739344Y-42535727D01*
X40698097Y-42436148D01*
X40639765Y-42295322D01*
X40589000Y-42040107D01*
X40589000Y-41779893D01*
X40639765Y-41524678D01*
X40698097Y-41383852D01*
X40739344Y-41284273D01*
X40787315Y-41212479D01*
X40883912Y-41067911D01*
X41067911Y-40883912D01*
X41284272Y-40739345D01*
X41284273Y-40739344D01*
X41383852Y-40698097D01*
X41524678Y-40639765D01*
X41652285Y-40614383D01*
X41779891Y-40589000D01*
X42040109Y-40589000D01*
X42167715Y-40614383D01*
X42167715Y-40614383D01*
G37*
G36*
X61011000Y-43231000D02*
G01*
X58369000Y-43231000D01*
X58369000Y-40589000D01*
X61011000Y-40589000D01*
X61011000Y-43231000D01*
X61011000Y-43231000D01*
G37*
G36*
X32494098Y-35647033D02*
G01*
X32958350Y-35839332D01*
X32958352Y-35839333D01*
X33376168Y-36118509D01*
X33731491Y-36473832D01*
X34010667Y-36891648D01*
X34010668Y-36891650D01*
X34202967Y-37355902D01*
X34301000Y-37848747D01*
X34301000Y-38351253D01*
X34202967Y-38844098D01*
X34125390Y-39031385D01*
X34010667Y-39308352D01*
X33731491Y-39726168D01*
X33376168Y-40081491D01*
X32958352Y-40360667D01*
X32958351Y-40360668D01*
X32958350Y-40360668D01*
X32494098Y-40552967D01*
X32001253Y-40651000D01*
X31498747Y-40651000D01*
X31005902Y-40552967D01*
X30541650Y-40360668D01*
X30541649Y-40360668D01*
X30541648Y-40360667D01*
X30123832Y-40081491D01*
X29768509Y-39726168D01*
X29489333Y-39308352D01*
X29374610Y-39031385D01*
X29297033Y-38844098D01*
X29199000Y-38351253D01*
X29199000Y-37848747D01*
X29297033Y-37355902D01*
X29489332Y-36891650D01*
X29489333Y-36891648D01*
X29768509Y-36473832D01*
X30123832Y-36118509D01*
X30541648Y-35839333D01*
X30541650Y-35839332D01*
X31005902Y-35647033D01*
X31498747Y-35549000D01*
X32001253Y-35549000D01*
X32494098Y-35647033D01*
X32494098Y-35647033D01*
G37*
G36*
X159494098Y-35647033D02*
G01*
X159958350Y-35839332D01*
X159958352Y-35839333D01*
X160376168Y-36118509D01*
X160731491Y-36473832D01*
X161010667Y-36891648D01*
X161010668Y-36891650D01*
X161202967Y-37355902D01*
X161301000Y-37848747D01*
X161301000Y-38351253D01*
X161202967Y-38844098D01*
X161125390Y-39031385D01*
X161010667Y-39308352D01*
X160731491Y-39726168D01*
X160376168Y-40081491D01*
X159958352Y-40360667D01*
X159958351Y-40360668D01*
X159958350Y-40360668D01*
X159494098Y-40552967D01*
X159001253Y-40651000D01*
X158498747Y-40651000D01*
X158005902Y-40552967D01*
X157541650Y-40360668D01*
X157541649Y-40360668D01*
X157541648Y-40360667D01*
X157123832Y-40081491D01*
X156768509Y-39726168D01*
X156489333Y-39308352D01*
X156374610Y-39031385D01*
X156297033Y-38844098D01*
X156199000Y-38351253D01*
X156199000Y-37848747D01*
X156297033Y-37355902D01*
X156489332Y-36891650D01*
X156489333Y-36891648D01*
X156768509Y-36473832D01*
X157123832Y-36118509D01*
X157541648Y-35839333D01*
X157541650Y-35839332D01*
X158005902Y-35647033D01*
X158498747Y-35549000D01*
X159001253Y-35549000D01*
X159494098Y-35647033D01*
X159494098Y-35647033D01*
G37*
G36*
X119686564Y-37089389D02*
G01*
X119877833Y-37168615D01*
X119877835Y-37168616D01*
X120049973Y-37283635D01*
X120196365Y-37430027D01*
X120311385Y-37602167D01*
X120390611Y-37793436D01*
X120431000Y-37996484D01*
X120431000Y-38203516D01*
X120390611Y-38406564D01*
X120311385Y-38597833D01*
X120311384Y-38597835D01*
X120196365Y-38769973D01*
X120049973Y-38916365D01*
X119877835Y-39031384D01*
X119877834Y-39031385D01*
X119877833Y-39031385D01*
X119686564Y-39110611D01*
X119483516Y-39151000D01*
X119276484Y-39151000D01*
X119073436Y-39110611D01*
X118882167Y-39031385D01*
X118882166Y-39031385D01*
X118882165Y-39031384D01*
X118710027Y-38916365D01*
X118563635Y-38769973D01*
X118448616Y-38597835D01*
X118448615Y-38597833D01*
X118369389Y-38406564D01*
X118329000Y-38203516D01*
X118329000Y-37996484D01*
X118369389Y-37793436D01*
X118448615Y-37602167D01*
X118563635Y-37430027D01*
X118710027Y-37283635D01*
X118882165Y-37168616D01*
X118882167Y-37168615D01*
X119073436Y-37089389D01*
X119276484Y-37049000D01*
X119483516Y-37049000D01*
X119686564Y-37089389D01*
X119686564Y-37089389D01*
G37*
G36*
X127306564Y-37089389D02*
G01*
X127497833Y-37168615D01*
X127497835Y-37168616D01*
X127669973Y-37283635D01*
X127816365Y-37430027D01*
X127931385Y-37602167D01*
X128010611Y-37793436D01*
X128051000Y-37996484D01*
X128051000Y-38203516D01*
X128010611Y-38406564D01*
X127931385Y-38597833D01*
X127931384Y-38597835D01*
X127816365Y-38769973D01*
X127669973Y-38916365D01*
X127497835Y-39031384D01*
X127497834Y-39031385D01*
X127497833Y-39031385D01*
X127306564Y-39110611D01*
X127103516Y-39151000D01*
X126896484Y-39151000D01*
X126693436Y-39110611D01*
X126502167Y-39031385D01*
X126502166Y-39031385D01*
X126502165Y-39031384D01*
X126330027Y-38916365D01*
X126183635Y-38769973D01*
X126068616Y-38597835D01*
X126068615Y-38597833D01*
X125989389Y-38406564D01*
X125949000Y-38203516D01*
X125949000Y-37996484D01*
X125989389Y-37793436D01*
X126068615Y-37602167D01*
X126183635Y-37430027D01*
X126330027Y-37283635D01*
X126502165Y-37168616D01*
X126502167Y-37168615D01*
X126693436Y-37089389D01*
X126896484Y-37049000D01*
X127103516Y-37049000D01*
X127306564Y-37089389D01*
X127306564Y-37089389D01*
G37*
G36*
X117146564Y-37089389D02*
G01*
X117337833Y-37168615D01*
X117337835Y-37168616D01*
X117509973Y-37283635D01*
X117656365Y-37430027D01*
X117771385Y-37602167D01*
X117850611Y-37793436D01*
X117891000Y-37996484D01*
X117891000Y-38203516D01*
X117850611Y-38406564D01*
X117771385Y-38597833D01*
X117771384Y-38597835D01*
X117656365Y-38769973D01*
X117509973Y-38916365D01*
X117337835Y-39031384D01*
X117337834Y-39031385D01*
X117337833Y-39031385D01*
X117146564Y-39110611D01*
X116943516Y-39151000D01*
X116736484Y-39151000D01*
X116533436Y-39110611D01*
X116342167Y-39031385D01*
X116342166Y-39031385D01*
X116342165Y-39031384D01*
X116170027Y-38916365D01*
X116023635Y-38769973D01*
X115908616Y-38597835D01*
X115908615Y-38597833D01*
X115829389Y-38406564D01*
X115789000Y-38203516D01*
X115789000Y-37996484D01*
X115829389Y-37793436D01*
X115908615Y-37602167D01*
X116023635Y-37430027D01*
X116170027Y-37283635D01*
X116342165Y-37168616D01*
X116342167Y-37168615D01*
X116533436Y-37089389D01*
X116736484Y-37049000D01*
X116943516Y-37049000D01*
X117146564Y-37089389D01*
X117146564Y-37089389D01*
G37*
G36*
X79365039Y-32007825D02*
G01*
X79610279Y-32082218D01*
X79836293Y-32203025D01*
X80034396Y-32365604D01*
X80196975Y-32563706D01*
X80317782Y-32789720D01*
X80392175Y-33034960D01*
X80411000Y-33226095D01*
X80411000Y-35353905D01*
X80392175Y-35545040D01*
X80317782Y-35790280D01*
X80196975Y-36016294D01*
X80154624Y-36067899D01*
X80034397Y-36214397D01*
X79887899Y-36334624D01*
X79836294Y-36376975D01*
X79836292Y-36376976D01*
X79655086Y-36473833D01*
X79610280Y-36497782D01*
X79365040Y-36572175D01*
X79110000Y-36597294D01*
X78854961Y-36572175D01*
X78609721Y-36497782D01*
X78564916Y-36473833D01*
X78383709Y-36376976D01*
X78383707Y-36376975D01*
X78332102Y-36334624D01*
X78185604Y-36214397D01*
X78065377Y-36067899D01*
X78023026Y-36016294D01*
X77902219Y-35790280D01*
X77827826Y-35545040D01*
X77809001Y-35353905D01*
X77809000Y-33226096D01*
X77827825Y-33034961D01*
X77902218Y-32789721D01*
X78023025Y-32563707D01*
X78185604Y-32365604D01*
X78383706Y-32203025D01*
X78383705Y-32203025D01*
X78383707Y-32203024D01*
X78609718Y-32082219D01*
X78609720Y-32082218D01*
X78854960Y-32007825D01*
X79110000Y-31982706D01*
X79365039Y-32007825D01*
X79365039Y-32007825D01*
G37*
G36*
X84815039Y-32007825D02*
G01*
X85060279Y-32082218D01*
X85286293Y-32203025D01*
X85484396Y-32365604D01*
X85646975Y-32563706D01*
X85767782Y-32789720D01*
X85842175Y-33034960D01*
X85861000Y-33226095D01*
X85861000Y-35353905D01*
X85842175Y-35545040D01*
X85767782Y-35790280D01*
X85646975Y-36016294D01*
X85604624Y-36067899D01*
X85484397Y-36214397D01*
X85337899Y-36334624D01*
X85286294Y-36376975D01*
X85286292Y-36376976D01*
X85105086Y-36473833D01*
X85060280Y-36497782D01*
X84815040Y-36572175D01*
X84560000Y-36597294D01*
X84304961Y-36572175D01*
X84059721Y-36497782D01*
X84014916Y-36473833D01*
X83833709Y-36376976D01*
X83833707Y-36376975D01*
X83782102Y-36334624D01*
X83635604Y-36214397D01*
X83515377Y-36067899D01*
X83473026Y-36016294D01*
X83352219Y-35790280D01*
X83277826Y-35545040D01*
X83259001Y-35353905D01*
X83259000Y-33226096D01*
X83277825Y-33034961D01*
X83352218Y-32789721D01*
X83473025Y-32563707D01*
X83635604Y-32365604D01*
X83833706Y-32203025D01*
X83833705Y-32203025D01*
X83833707Y-32203024D01*
X84059718Y-32082219D01*
X84059720Y-32082218D01*
X84304960Y-32007825D01*
X84560000Y-31982706D01*
X84815039Y-32007825D01*
X84815039Y-32007825D01*
G37*
G36*
X98045039Y-32007825D02*
G01*
X98290279Y-32082218D01*
X98516293Y-32203025D01*
X98714396Y-32365604D01*
X98876975Y-32563706D01*
X98997782Y-32789720D01*
X99072175Y-33034960D01*
X99091000Y-33226095D01*
X99091000Y-35353905D01*
X99072175Y-35545040D01*
X98997782Y-35790280D01*
X98876975Y-36016294D01*
X98834624Y-36067899D01*
X98714397Y-36214397D01*
X98567899Y-36334624D01*
X98516294Y-36376975D01*
X98516292Y-36376976D01*
X98335086Y-36473833D01*
X98290280Y-36497782D01*
X98045040Y-36572175D01*
X97790000Y-36597294D01*
X97534961Y-36572175D01*
X97289721Y-36497782D01*
X97244916Y-36473833D01*
X97063709Y-36376976D01*
X97063707Y-36376975D01*
X97012102Y-36334624D01*
X96865604Y-36214397D01*
X96745377Y-36067899D01*
X96703026Y-36016294D01*
X96582219Y-35790280D01*
X96507826Y-35545040D01*
X96489001Y-35353905D01*
X96489000Y-33226096D01*
X96507825Y-33034961D01*
X96582218Y-32789721D01*
X96703025Y-32563707D01*
X96865604Y-32365604D01*
X97063706Y-32203025D01*
X97063705Y-32203025D01*
X97063707Y-32203024D01*
X97289718Y-32082219D01*
X97289720Y-32082218D01*
X97534960Y-32007825D01*
X97790000Y-31982706D01*
X98045039Y-32007825D01*
X98045039Y-32007825D01*
G37*
G36*
X103495039Y-32007825D02*
G01*
X103740279Y-32082218D01*
X103966293Y-32203025D01*
X104164396Y-32365604D01*
X104326975Y-32563706D01*
X104447782Y-32789720D01*
X104522175Y-33034960D01*
X104541000Y-33226095D01*
X104541000Y-35353905D01*
X104522175Y-35545040D01*
X104447782Y-35790280D01*
X104326975Y-36016294D01*
X104284624Y-36067899D01*
X104164397Y-36214397D01*
X104017899Y-36334624D01*
X103966294Y-36376975D01*
X103966292Y-36376976D01*
X103785086Y-36473833D01*
X103740280Y-36497782D01*
X103495040Y-36572175D01*
X103240000Y-36597294D01*
X102984961Y-36572175D01*
X102739721Y-36497782D01*
X102694916Y-36473833D01*
X102513709Y-36376976D01*
X102513707Y-36376975D01*
X102462102Y-36334624D01*
X102315604Y-36214397D01*
X102195377Y-36067899D01*
X102153026Y-36016294D01*
X102032219Y-35790280D01*
X101957826Y-35545040D01*
X101939001Y-35353905D01*
X101939000Y-33226096D01*
X101957825Y-33034961D01*
X102032218Y-32789721D01*
X102153025Y-32563707D01*
X102315604Y-32365604D01*
X102513706Y-32203025D01*
X102513705Y-32203025D01*
X102513707Y-32203024D01*
X102739718Y-32082219D01*
X102739720Y-32082218D01*
X102984960Y-32007825D01*
X103240000Y-31982706D01*
X103495039Y-32007825D01*
X103495039Y-32007825D01*
G37*
G36*
X93641000Y-36591000D02*
G01*
X91039000Y-36591000D01*
X91039000Y-31989000D01*
X93641000Y-31989000D01*
X93641000Y-36591000D01*
X93641000Y-36591000D01*
G37*
G36*
X74961000Y-36591000D02*
G01*
X72359000Y-36591000D01*
X72359000Y-31989000D01*
X74961000Y-31989000D01*
X74961000Y-36591000D01*
X74961000Y-36591000D01*
G37*
G36*
X53642585Y-31498802D02*
G01*
X53792410Y-31528604D01*
X54074674Y-31645521D01*
X54328705Y-31815259D01*
X54544741Y-32031295D01*
X54714479Y-32285326D01*
X54831396Y-32567590D01*
X54891000Y-32867240D01*
X54891000Y-33172760D01*
X54831396Y-33472410D01*
X54714479Y-33754674D01*
X54544741Y-34008705D01*
X54328705Y-34224741D01*
X54074674Y-34394479D01*
X53792410Y-34511396D01*
X53642585Y-34541198D01*
X53492761Y-34571000D01*
X53187239Y-34571000D01*
X53037415Y-34541198D01*
X52887590Y-34511396D01*
X52605326Y-34394479D01*
X52351295Y-34224741D01*
X52135259Y-34008705D01*
X51965521Y-33754674D01*
X51848604Y-33472410D01*
X51789000Y-33172760D01*
X51789000Y-32867240D01*
X51848604Y-32567590D01*
X51965521Y-32285326D01*
X52135259Y-32031295D01*
X52351295Y-31815259D01*
X52605326Y-31645521D01*
X52887590Y-31528604D01*
X53037415Y-31498802D01*
X53187239Y-31469000D01*
X53492761Y-31469000D01*
X53642585Y-31498802D01*
X53642585Y-31498802D01*
G37*
G36*
X49811000Y-34571000D02*
G01*
X46709000Y-34571000D01*
X46709000Y-31469000D01*
X49811000Y-31469000D01*
X49811000Y-34571000D01*
X49811000Y-34571000D01*
G37*
M02*
